<svg xmlns="http://www.w3.org/2000/svg" width="439.999" height="550" viewBox="1.298 62.969 439.999 550"><path d="M293.841 430.409s0-28.11-6.388-65.591c-7.737-45.407-25.554-74.959-63.885-74.959H83.021c-38.331 0-56.148 29.552-63.885 74.959-6.388 37.481-6.388 65.591-6.388 65.591h281.093ZM89.41 157.489c0 31.792 3.443 66.658 12.777 85.369 11.889 23.839 32.057 34.145 51.108 34.145 19.778 0 39.206-10.306 51.108-34.145 9.327-18.711 12.777-53.577 12.777-85.369 0-23.846-6.389-102.433-63.885-102.433-57.497 0-63.885 62.694-63.885 102.433Z" style="fill:#e5ebf3" transform="matrix(1.56532 0 0 1.46529 -18.657 -17.704)"/></svg>