<svg style="display: none;" xmlns="http://www.w3.org/2000/svg" xmlns:xlink="http://www.w3.org/1999/xlink">
    <symbol id="thumb" viewBox="0 0 20 20">
        <path d="M2 10.5a1.5 1.5 0 113 0v6a1.5 1.5 0 01-3 0v-6zM6 10.333v5.43a2 2 0 001.106 1.79l.05.025A4 4 0 008.943 18h5.416a2 2 0 001.962-1.608l1.2-6A2 2 0 0015.56 8H12V4a2 2 0 00-2-2 1 1 0 00-1 1v.667a4 4 0 01-.8 2.4L6.8 7.933a4 4 0 00-.8 2.4z" />
    </symbol>
    <symbol id="close" viewBox="0 0 20 20">
      <path d="M6.28 5.22a.75.75 0 0 0-1.06 1.06L8.94 10l-3.72 3.72a.75.75 0 1 0 1.06 1.06L10 11.06l3.72 3.72a.75.75 0 1 0 1.06-1.06L11.06 10l3.72-3.72a.75.75 0 0 0-1.06-1.06L10 8.94 6.28 5.22Z" />
    </symbol>
</svg>
