<svg viewBox="60 -40 946 650" xmlns="http://www.w3.org/2000/svg" fill-rule="evenodd" clip-rule="evenodd" stroke-linejoin="round" stroke-miterlimit="2"><g fill-rule="nonzero"><path fill="#fff" d="M0 .4h945V650H0z"/><path d="M582.5 363v-19.3c0-2.5-.4-4.3-1.2-5.4-.9-1.1-2.2-1.7-4-1.7a6 6 0 00-3.6 1.2c-1 .7-1.8 1.4-2.4 2.1v23h-5v-44l5-.5V336h.1l.8-1 1.5-1.2a9.5 9.5 0 015.4-1.6c2.6 0 4.6.9 6.2 2.6 1.5 1.7 2.3 4.5 2.3 8.5V363h-5zM559 338.9a33 33 0 00-1.6-1.3 6.6 6.6 0 00-3.5-1c-1 0-2 .2-3 .6a6 6 0 00-2.4 2c-.7.8-1.2 2-1.6 3.3a25.4 25.4 0 000 10.6c.3 1.5.8 2.7 1.4 3.6.6.9 1.4 1.5 2.3 2 .8.3 1.8.5 2.9.5 1.5 0 2.7-.2 3.5-.8l1.7-1.3 2 3.5-.8.9a10 10 0 01-3.8 1.9c-1 .2-2 .3-3.1.3a13 13 0 01-4.6-.8 9.1 9.1 0 01-3.8-2.7c-1.1-1.2-2-2.8-2.6-4.8-.6-2-.9-4.5-.9-7.4 0-2.9.4-5.3 1.1-7.3.8-2 1.7-3.6 3-4.8a11.3 11.3 0 018.4-3.6c1 0 2 .1 2.9.3l2.2.8 1.5 1 1 1-2.2 3.5zm-20.8-1.4a4 4 0 00-.8-.3 6 6 0 00-1.6-.2c-1.6 0-2.8.4-3.7 1.3-1 .8-1.5 1.8-2 2.8V363h-5v-30h4.7v4.1l.9-1.7 1.2-1.5c.5-.4 1.1-.8 1.8-1a7 7 0 012.4-.4c.7 0 1.3 0 1.7.2l1 .3-.6 4.5zm-30.5 22a5.2 5.2 0 004.2-2.1l.7-1V350H511c-2.4.1-4.2.6-5.4 1.3-1.3.7-1.9 2-1.9 3.6 0 1.5.4 2.7 1 3.5.8.7 1.7 1.1 3 1.1zm-9-4.1c0-1.8.3-3.2 1-4.4a8.2 8.2 0 012.7-2.8 11 11 0 013.9-1.6c1.5-.3 3-.4 4.8-.4h1.5v-3c0-2.4-.4-4.2-1.3-5.1-.9-1-2.1-1.5-3.7-1.5-1.5 0-2.8.4-3.8 1a24 24 0 00-2.3 1.7l-2.1-3.4a15.4 15.4 0 013.1-2.3 13.2 13.2 0 015.8-1.3c3 0 5.4.9 7 2.6 1.5 1.7 2.3 4.4 2.3 8.2v13.6a55.5 55.5 0 00.4 6.3H513l-.2-3.3h-.1c-.2.3-.4.8-.8 1.2a6.4 6.4 0 01-3 2.4c-.7.3-1.5.4-2.5.4a7.9 7.9 0 01-5.6-2.4 8 8 0 01-1.7-2.6c-.4-1-.6-2.1-.6-3.3zm-14.4-19a5 5 0 00-4.3 2.3c-1 1.5-1.7 3.6-1.8 6.5h10.8l.1-1V343c0-2.1-.4-3.7-1.2-4.8-.8-1.2-2-1.8-3.6-1.8zm9.4 6.8a40 40 0 01-.3 5.8H478c.1 3.5.9 6 2.2 7.7a7 7 0 005.8 2.5 8 8 0 004.2-1 9.7 9.7 0 002-1.6l2 3.6-1 .9-1.6 1.2a12.8 12.8 0 01-6.3 1.4c-1.9 0-3.6-.3-5-1a9.6 9.6 0 01-4-2.8 14 14 0 01-2.4-5c-.5-2-.8-4.4-.8-7.2 0-2.7.3-5 .9-7 .6-1.9 1.4-3.4 2.4-4.7a9.9 9.9 0 018-3.7c2.9 0 5.1 1 6.7 2.7 1.6 1.9 2.4 4.6 2.4 8.2zm-28-4c-.3-.5-.9-1-1.7-1.6-.9-.6-2-1-3.4-1s-2.4.3-3 1c-.8.6-1.1 1.3-1.1 2.2 0 1.1.3 2 1 2.8.6.7 1.6 1.5 2.9 2.3l1.8 1.1c2 1.2 3.7 2.5 4.8 4a8.2 8.2 0 011.7 5.3 8 8 0 01-2.4 6c-1.6 1.6-4 2.4-7 2.4a12 12 0 01-7.3-2.3l-1.1-1.1 2.4-4a56.5 56.5 0 002.2 1.8c.5.4 1 .6 1.7.8.6.2 1.3.3 2.1.3 1.5 0 2.6-.3 3.4-1a3 3 0 001.2-2.4c0-.7 0-1.3-.3-1.8-.2-.5-.4-1-.8-1.4a68 68 0 00-3.2-2.4l-1.9-1.2a18 18 0 01-4.4-3.8 8 8 0 01-1.5-5.1 7.1 7.1 0 012.4-5.6 9.6 9.6 0 016.1-2.2c1.2 0 2.2.1 3 .4a8.6 8.6 0 013.7 2l1 .8-2.2 3.6zm-28.9-2.8a5 5 0 00-4.3 2.3c-1 1.5-1.6 3.6-1.8 6.5h10.8l.1-1V343a8 8 0 00-1.2-4.8c-.8-1.2-2-1.8-3.6-1.8zm9.4 6.8v3.3l-.3 2.5h-15.2c.2 3.5.9 6 2.2 7.7a7 7 0 005.8 2.5 8 8 0 004.2-1 9.1 9.1 0 002.1-1.6l1.9 3.6-1 .9-1.6 1.2a12.8 12.8 0 01-6.3 1.4c-1.9 0-3.5-.3-5-1a9.5 9.5 0 01-3.9-2.8 14 14 0 01-2.5-5 26.8 26.8 0 010-14.1c.7-2 1.5-3.5 2.5-4.8 1-1.2 2.3-2.2 3.6-2.8 1.4-.6 2.9-.9 4.4-.9 2.9 0 5.1 1 6.7 2.7 1.6 1.9 2.4 4.6 2.4 8.2zm-32-10.9c0-2.7-.8-4.7-2.3-6-1.5-1.3-3.9-2-7-2H402v16.9h2.4c3.2 0 5.7-.8 7.2-2.3 1.6-1.6 2.4-3.7 2.4-6.6zm2.2 30.7l-9-17.7a24.2 24.2 0 01-2.8.2H402V363h-5.4v-43h8c5.2 0 9 1 11.5 3 2.4 2 3.7 5 3.7 9a14 14 0 01-1.8 7.4c-1.2 2-3 3.6-5.6 4.6l10 19h-6.2zm-52-3.8a6.3 6.3 0 003.7-1 6.8 6.8 0 001.8-1.9v-18.4l-1.6-.8a8.8 8.8 0 00-5.5.3c-1 .4-1.9 1-2.6 2-.8.9-1.3 2-1.8 3.5a19 19 0 00-.6 5.4c0 2 .1 3.8.5 5.2.3 1.4.8 2.5 1.5 3.3.6.9 1.3 1.5 2 1.9.8.3 1.7.5 2.5.5zm-11.8-10.7c0-3 .4-5.6 1.1-7.6a14 14 0 013-5c1.3-1.2 2.7-2 4.3-2.6a14.9 14.9 0 017.2-.6l1.7.6V319l5-.6V363h-4.5v-3.2h-.2l-.7 1a8.1 8.1 0 01-6.6 2.9c-1.3 0-2.7-.3-4-.8a8.7 8.7 0 01-3.2-2.7 14 14 0 01-2.3-4.7c-.6-2-.8-4.3-.8-7zM341.3 363v-19.3c0-2.5-.4-4.3-1.3-5.4-.8-1.1-2.1-1.7-3.8-1.7a6 6 0 00-3.8 1.2c-1 .7-1.7 1.4-2.3 2.1v23h-5v-29.8h4.5v3.3h.2c0-.2.4-.6.8-1 .4-.5 1-1 1.6-1.4l2.3-1.2a10.4 10.4 0 016.7 0c1.1.5 2 1.2 2.8 2a9 9 0 011.7 3.4c.4 1.4.6 3.1.6 5.2V363h-5zm-33.7-3.6a5.1 5.1 0 003.2-1 5 5 0 001-1l.7-1V350H311c-2.4.1-4.2.6-5.4 1.3-1.3.7-1.9 2-1.9 3.6 0 1.5.4 2.7 1 3.5.8.7 1.7 1.1 3 1.1zm-9-4c0-1.8.3-3.2 1-4.4a8.1 8.1 0 012.6-2.8c1.2-.7 2.5-1.3 4-1.6 1.5-.3 3-.4 4.8-.4h1.5v-3c0-2.4-.4-4.2-1.3-5.1-.9-1-2.1-1.5-3.7-1.5-1.5 0-2.8.4-3.8 1s-1.7 1.2-2.3 1.7l-2.1-3.4a14.5 14.5 0 013.1-2.3 13.2 13.2 0 015.8-1.3c3 0 5.4.9 7 2.6 1.5 1.7 2.3 4.4 2.3 8.2v13.6a55.5 55.5 0 00.4 6.3H313l-.2-3.3h-.1c-.2.3-.4.8-.8 1.2a6.4 6.4 0 01-3 2.4c-.7.3-1.5.4-2.5.4a7.8 7.8 0 01-7.3-5c-.4-1-.6-2.1-.6-3.3zm270-55.2V281c0-2.6-.4-4.4-1.3-5.5-.8-1-2.1-1.6-3.9-1.6a6 6 0 00-3.7 1c-1 .8-1.8 1.5-2.3 2.3v23h-5v-29.9h4.5v3.4h.2c0-.3.3-.6.8-1.1.4-.5.9-1 1.6-1.4.6-.4 1.4-.8 2.3-1.1a10.3 10.3 0 016.7.1c1.1.3 2 1 2.8 1.9.7.8 1.3 2 1.7 3.3.4 1.4.6 3.1.6 5.2v19.6h-5zm-27.8-15c0-4-.6-6.8-1.7-8.6a5.4 5.4 0 00-4.9-2.7c-2 0-3.6.9-4.8 2.7a16.9 16.9 0 00-1.7 8.7c0 4 .6 6.8 1.8 8.5a5.5 5.5 0 004.8 2.7c2 0 3.7-1 4.8-2.7 1.1-1.7 1.7-4.6 1.7-8.5zm-18.3 0c0-2.7.3-5 1-7 .6-2 1.5-3.7 2.6-5 1-1.2 2.3-2.1 3.8-2.7a11.7 11.7 0 019.1 0c1.4.6 2.6 1.5 3.7 2.8a14 14 0 012.4 4.9c.6 2 1 4.3 1 7 0 2.8-.4 5.2-1 7.2s-1.5 3.6-2.6 4.9a10 10 0 01-3.8 2.8 12 12 0 01-9.2 0 9.3 9.3 0 01-3.6-2.8c-1-1.3-1.9-2.9-2.5-4.9-.6-2-.9-4.3-.9-7.1zm-8.8-22.1c-1 0-1.8-.3-2.5-1-.6-.7-.9-1.5-.9-2.6 0-1 .3-2 1-2.6.6-.6 1.4-1 2.4-1s1.8.4 2.4 1c.7.7 1 1.5 1 2.6 0 1-.3 2-1 2.6-.6.7-1.4 1-2.4 1zm2.5 37h-5v-29.8h5v29.9zm-10.7-25.7H499V291c0 2.1.2 3.5.8 4.3.5.8 1.4 1.2 2.7 1.2.7 0 1.4-.1 2-.4l1.1-.5.7 4a7.8 7.8 0 01-4.7 1.3c-2.5 0-4.4-.7-5.7-2.1-1.3-1.4-2-3.8-2-7.1v-17.3h-3.5v-3.3l3.5-.8.6-8.3h4.5v8.3h7l-.5 4.1zm-30.2 22.2a5.2 5.2 0 003.2-1c.4-.3.8-.6 1-1l.7-.9v-6.6h-1.6c-2.4.2-4.2.6-5.4 1.3-1.3.8-1.9 2-1.9 3.6s.4 2.7 1 3.5c.8.8 1.7 1.1 3 1.1zm-9-4c0-1.7.3-3.2 1-4.4a8.2 8.2 0 012.6-2.8c1.2-.7 2.5-1.2 4-1.6a24 24 0 014.8-.4h1.5v-2.9c0-2.5-.4-4.3-1.3-5.2-.9-1-2.1-1.4-3.7-1.4-1.5 0-2.8.3-3.8 1l-2.3 1.6-2.1-3.3 1.2-1.1a13 13 0 017.7-2.5c3 0 5.4.8 7 2.5 1.5 1.7 2.3 4.5 2.3 8.2V294a55.6 55.6 0 00.4 6.2h-4.8l-.2-3.3h-.1a7.4 7.4 0 01-2 2.6c-.5.4-1 .7-1.8 1-.7.3-1.5.4-2.5.4a7.8 7.8 0 01-8-8.3zm-5.7-16.5l-.5-.6a7 7 0 00-2.6-1.4c-.5-.2-1.2-.2-2-.2-1 0-2 .2-3 .5a6 6 0 00-2.4 2c-.6.8-1.2 2-1.6 3.3a25.2 25.2 0 000 10.6c.3 1.5.8 2.7 1.4 3.6.6 1 1.4 1.6 2.3 2a7 7 0 003 .6c1.4 0 2.6-.3 3.4-.9l1.7-1.3 2 3.5a8.7 8.7 0 01-2.3 2 12.2 12.2 0 01-5.3 1.2c-1.7 0-3.3-.3-4.7-.9a9.2 9.2 0 01-3.8-2.7c-1-1.2-2-2.8-2.5-4.8-.6-2-1-4.5-1-7.4 0-2.9.4-5.3 1.1-7.3.8-2 1.8-3.6 3-4.8a11 11 0 014-2.7 12.3 12.3 0 019.5.3c.6.3 1.1.6 1.5 1l1 .8-2.2 3.6zm-24.2 24h-4.6v-3.3h-.1l-.8 1.1c-.4.5-1 1-1.6 1.4-.6.4-1.4.8-2.3 1.1a10.1 10.1 0 01-6.6 0c-1-.4-2-1-2.7-2-.8-.8-1.3-2-1.7-3.3a19 19 0 01-.6-5.2v-19.6h5v19.2c0 2.5.4 4.3 1.2 5.4.8 1 2 1.6 3.8 1.6a6 6 0 003.6-1.1c1-.8 1.8-1.5 2.4-2.2v-22.9h5v29.9zm-39.1-3.6a6.6 6.6 0 005.6-3v-18.4l-1.6-.7a9 9 0 00-5.5.3c-1 .3-2 1-2.7 1.9-.7 1-1.3 2-1.7 3.5a19 19 0 00-.7 5.4c0 2 .2 3.8.5 5.2.4 1.4.9 2.5 1.5 3.4a5.5 5.5 0 004.6 2.4zm-11.8-10.8c0-3 .4-5.6 1.2-7.6a14 14 0 013-5c1.3-1.2 2.7-2 4.2-2.6a15 15 0 017.2-.5l1.8.5v-14.3l5-.6v44.6h-4.6V297h-.1l-.7 1a8.1 8.1 0 01-3.5 2.4 9.7 9.7 0 01-7-.4 8.6 8.6 0 01-3.4-2.6c-1-1.2-1.7-2.8-2.3-4.7-.5-2-.8-4.3-.8-7zm-5.9-24.2h-15.2v14.8h14v4.3h-14v15.1h16.8l-.3 4.5h-22v-43h21l-.3 4.3zm-38.7 13h-6v25.7h-5v-25.8h-3.7v-3.3l3.6-.7v-6c0-1.6.3-3 .7-4.2.5-1.1 1-2.1 1.8-2.8.8-.8 1.6-1.3 2.6-1.7a10 10 0 015.9 0l1.5.7-1 4.1-1.1-.5c-.5-.2-1-.3-1.7-.3-1.2 0-2.1.4-2.7 1.1-.6.8-1 2.2-1 4.2v5.3h6.8l-.7 4.1zm-23.7 10.8c0-4-.5-7-1.7-8.7a5.5 5.5 0 00-4.8-2.7c-2.1 0-3.7.9-4.8 2.7a16.9 16.9 0 00-1.7 8.7c0 4 .5 6.8 1.7 8.5a5.5 5.5 0 004.8 2.7c2.1 0 3.7-1 4.8-2.7 1.2-1.7 1.7-4.6 1.7-8.5zm-18.2 0c0-2.8.3-5.2 1-7.1.6-2 1.4-3.7 2.5-5 1.1-1.2 2.4-2.1 3.8-2.7a11.6 11.6 0 019.1 0c1.5.6 2.7 1.5 3.7 2.8a14 14 0 012.5 4.9c.6 2 .9 4.3.9 7 0 2.8-.4 5.2-1 7.2s-1.5 3.6-2.6 4.9a9.8 9.8 0 01-3.8 2.8 12.2 12.2 0 01-9.1 0 9.2 9.2 0 01-3.7-2.8 14 14 0 01-2.4-4.9 25 25 0 01-1-7.1zm356.2-77.8l-9.3 31.7c-1 3.6-2.4 6.4-4 8.2-1.5 1.9-3.7 2.8-6.7 2.8a5 5 0 01-2.4-.5v-4.4l.8.3 1.3.2c1.8 0 3.2-.6 4-1.7 1-1.1 1.8-2.9 2.5-5.2l.4-1.5-9.6-29.9h5.4l4.6 16.6c.5 1.7 1 3.3 1.3 4.8.4 1.4.6 2.7.7 4l.7-4 1.1-4.7 4.2-16.7h5zm-24.8 4.4a5.9 5.9 0 00-2.5-.5c-1.6 0-2.8.5-3.7 1.3-.9.9-1.5 1.8-1.9 2.8v22h-5v-30h4.6v4h.1l.8-1.6c.4-.6.8-1.1 1.3-1.5.5-.5 1-.8 1.7-1 .7-.3 1.5-.4 2.5-.4.7 0 1.3 0 1.7.2.4 0 .8.2 1 .3l-.6 4.4zm-18.8-.3h-6.5v16.6c0 2.1.3 3.6.8 4.3.6.8 1.5 1.2 2.7 1.2a5.5 5.5 0 003.1-.9l.7 4a7.8 7.8 0 01-4.6 1.3c-2.6 0-4.5-.7-5.8-2-1.3-1.5-2-3.9-2-7.2v-17.3h-3.5v-3.3l3.6-.8.5-8.3h4.5v8.3h7.1l-.6 4.1zm-21.6 2c-.3-.4-.9-1-1.8-1.6-.8-.6-2-1-3.4-1-1.3 0-2.3.4-3 1-.7.6-1 1.4-1 2.3 0 1 .3 2 .9 2.7.6.8 1.6 1.5 3 2.4l1.8 1c2 1.3 3.6 2.6 4.8 4a8.1 8.1 0 011.7 5.4 8 8 0 01-2.4 6c-1.7 1.6-4 2.4-7 2.4a11.8 11.8 0 01-7.3-2.4l-1.1-1 2.4-4a37 37 0 002.2 1.8l1.6.8a7 7 0 002.2.3c1.5 0 2.6-.4 3.4-1a3 3 0 001.2-2.4c0-.8-.1-1.4-.3-1.9l-.8-1.4-1.4-1.2-1.9-1.2-1.8-1.2a17.9 17.9 0 01-4.4-3.8 8 8 0 01-1.6-5.1 7.1 7.1 0 012.5-5.5 9 9 0 012.8-1.6 11.2 11.2 0 016.4-.2 8.5 8.5 0 013.6 1.9l1 .9-2.3 3.6zm-23-13.3c-1 0-1.8-.3-2.4-1-.7-.6-1-1.5-1-2.6 0-1 .3-1.9 1-2.6.6-.6 1.4-1 2.4-1s1.8.4 2.4 1c.7.7 1 1.6 1 2.6s-.3 2-1 2.6c-.6.7-1.4 1-2.4 1zm2.5 37.1h-5v-29.9h5v30zm-17.5 0v-19.2c0-2.6-.5-4.4-1.3-5.5-.8-1-2.1-1.6-3.9-1.6a6 6 0 00-3.7 1.1c-1 .7-1.8 1.5-2.4 2.2v23h-5v-29.9h4.6v3.4h.1l.8-1.1c.5-.5 1-1 1.7-1.4.6-.4 1.4-.8 2.3-1.1a10.5 10.5 0 016.7 0c1 .5 2 1.1 2.7 2 .8.8 1.4 2 1.8 3.4.4 1.4.6 3 .6 5.1v19.6h-5zm-26.4-37c-1 0-1.9-.4-2.5-1-.6-.7-1-1.6-1-2.7 0-1 .4-1.9 1-2.6.6-.6 1.4-1 2.5-1 1 0 1.8.4 2.4 1 .6.7.9 1.6.9 2.6s-.3 2-1 2.6c-.5.7-1.3 1-2.3 1zm2.4 37h-5v-29.9h5v30zm-13.7-43v43H509v-24.2a226.3 226.3 0 01.2-8.3h-.2l-1.2 4.7-2.2 6.8-7.1 21h-4.3l-7-21a237.4 237.4 0 01-3.5-11.5h-.2a89.8 89.8 0 01.2 8.3v24.2h-5.2v-43h6l10.2 29.7a67 67 0 011.8 7.4h.1c0-1 .3-2 .6-3.4l1.2-4 10.1-29.6h5.7zm-59 36c0 1.3.1 2.2.5 2.7.3.5 1 .7 1.8.7a4.4 4.4 0 001.9-.4l.4 3.8-1.4.5a9 9 0 01-2.6.3c-1.7 0-3-.5-4.1-1.6-1-1-1.6-2.9-1.6-5.5v-37.5l5-.6v37.6zm-22.5 3.5a5.2 5.2 0 003.3-1l1-1 .7-1v-6.6l-1.6.1c-2.4 0-4.3.5-5.5 1.2-1.2.8-1.9 2-1.9 3.7 0 1.5.4 2.6 1.1 3.4.7.8 1.7 1.2 3 1.2zm-9-4c0-1.8.4-3.3 1-4.4a8.1 8.1 0 012.7-2.9c1.1-.7 2.4-1.2 4-1.5a24 24 0 014.7-.5h1.6v-2.9c0-2.5-.5-4.2-1.4-5.2-.9-1-2.1-1.4-3.7-1.4-1.5 0-2.7.3-3.7 1l-2.4 1.7-2.1-3.4 1.3-1.1 1.9-1.2a13 13 0 015.7-1.3c3 0 5.4.8 7 2.5 1.6 1.7 2.3 4.5 2.3 8.3v13.6a50.4 50.4 0 00.4 6.2h-4.8l-.2-3.3-.8 1.3a6.4 6.4 0 01-3 2.3c-.8.3-1.6.5-2.5.5a8 8 0 01-5.7-2.4 8 8 0 01-1.7-2.7c-.4-1-.6-2-.6-3.3zm-2.9-18l-.8-.3a6 6 0 00-1.7-.1c-1.5 0-2.8.4-3.7 1.2-.9.9-1.5 1.8-1.9 2.8v22h-5v-30h4.6v4h.1l.8-1.6a5.9 5.9 0 013-2.6c.7-.2 1.6-.3 2.5-.3.7 0 1.3 0 1.7.2.4 0 .8.2 1 .3l-.6 4.4zm-29.2-1a5 5 0 00-4.3 2.2c-1 1.5-1.7 3.7-1.8 6.5h10.8l.1-.9v-1.3c0-2-.4-3.7-1.2-4.8-.8-1.1-2-1.7-3.6-1.7zm9.4 6.7a40.2 40.2 0 01-.3 5.8h-15.2c.1 3.5.9 6.1 2.2 7.8 1.4 1.7 3.3 2.5 5.8 2.5a8.4 8.4 0 005.5-2l.8-.6 1.8 3.5-.9 1-1.7 1.1a13.4 13.4 0 01-6.3 1.5 13 13 0 01-5-1 9.6 9.6 0 01-3.8-2.9 14 14 0 01-2.5-5c-.5-2-.8-4.4-.8-7.2 0-2.7.3-5 .9-6.9.6-2 1.4-3.5 2.4-4.7 1-1.3 2.3-2.2 3.6-2.8 1.4-.6 2.8-1 4.4-1 2.9 0 5.1 1 6.7 2.8 1.6 1.8 2.4 4.5 2.4 8.1zm-37.4 16a6.7 6.7 0 003.8-1 6.7 6.7 0 001.8-1.8v-18.5c-.4-.3-1-.5-1.6-.7a8.8 8.8 0 00-5.5.3c-1 .4-1.9 1-2.6 2-.8.8-1.3 2-1.8 3.5a19 19 0 00-.6 5.3c0 2.1.1 3.8.5 5.2.4 1.4.8 2.5 1.5 3.4.6.8 1.3 1.4 2 1.8.9.4 1.7.6 2.5.6zM352 223c0-3 .4-5.6 1.1-7.6a14 14 0 013-5c1.3-1.2 2.7-2 4.3-2.6a15 15 0 017.2-.5c.7.1 1.3.3 1.7.5v-14.3l5-.6v44.6h-4.5v-3.2h-.2a7.1 7.1 0 01-2 2.4 8.3 8.3 0 01-5.2 1.6c-1.4 0-2.8-.3-4-.9a8.6 8.6 0 01-3.3-2.7 14 14 0 01-2.3-4.7c-.6-2-.8-4.3-.8-7zm-14.8-12a5 5 0 00-4.3 2.2c-1 1.5-1.7 3.7-1.8 6.5h10.8l.1-.9v-1.3c0-2-.4-3.7-1.2-4.8-.8-1.1-2-1.7-3.6-1.7zm9.4 6.7a40.2 40.2 0 01-.3 5.8H331c.1 3.5.9 6.1 2.2 7.8 1.4 1.7 3.3 2.5 5.8 2.5a8.4 8.4 0 005.5-2l.8-.6 1.9 3.5-1 1-1.7 1.1a13.4 13.4 0 01-6.3 1.5 13 13 0 01-5-1 9.6 9.6 0 01-3.8-2.9 14 14 0 01-2.5-5c-.5-2-.8-4.4-.8-7.2 0-2.7.3-5 .9-6.9.6-2 1.4-3.5 2.4-4.7 1-1.3 2.3-2.2 3.6-2.8 1.4-.6 2.8-1 4.4-1 2.9 0 5.1 1 6.7 2.8 1.6 1.8 2.4 4.5 2.4 8.1zm-45.2 19.8v-43h21l-.4 4.4h-15.2v15.8h14v4.3h-14v18.5h-5.4zM164.5 234c.2-1.2.2-2.4.2-3.7V228c10.4-.2 19.5-7.7 19.5-16.3 0-4.4-2.9-7.7-4.5-9.7.4 0 .7-.2 1-.3 1.6 1.4 6 6 6 12 0 10.4-10.4 20-22.2 20.3zm-10.4-36.1a7.2 7.2 0 00-1.3-3.1c0-1.1.4-2.1 2.1-1.3-.9 1-.2 2.6-.2 2.6s1.9-.8 1.5-2c2.8.6.8 4.3-2.1 3.8zm-2.4 5.3a11 11 0 00-2.2-4.4c-1-1-2.4-2.3-4.5-2.3-1 0-2.5.4-3.5.8a9.6 9.6 0 01-1-3c0-.8 1.2-1.6 3.6-1.6 5.4 0 8.6 2.5 8.6 6.6 0 1.4-.5 2.7-1 3.9zm13.8 69.6c.6 0 .9 0 1.2.2 1.6 4.2 7.6 12.2 7.8 12.5v.1h.2c1.4-.2 5.2-.8 8.3-.8.4 0 .8 0 1 .2.2.2.3.6.3 1.1a6 6 0 01-.7 2.7c-1.1-1.2-2.9-1.7-5.7-1.7-.9 0-1.9.2-2.4.4h-.5l1.6 1.7c2.6 2.6 4.8 4.7 4.8 6.2 0 .9-.9 2-1.7 2.5-.2-2.6-2.8-6.2-5.5-8.2l-.2-.2v1l-.1 2.6c0 5-.5 5.8-2.3 5.8l-1-.1c1-1.3 1.4-2.9 1.4-5.7V290.7l.2-2.7v-.4h-.2c-.8-.2-2.3-.4-3.5-.4-2.5 0-4.2.3-5.4 1.4-.9-.6-1.7-1.8-1.7-2.5 0-1 .7-1.1 1.5-1.1h1.4c1.1.3 2.7.5 6 .5h.3v-.2c-1-2.4-3.3-6-7-10.5.4-1.2.7-2 1.9-2zm-32.2 12.5v.2h.1c3.4 0 5-.2 6-.4l1.5-.1c.8 0 1.5 0 1.5 1.1 0 .7-.8 1.9-1.6 2.5-1.3-1.1-3-1.4-5.5-1.4-1.2 0-2.7.2-3.5.3H131.5v.5c.2.7.3 1.5.3 2.7v2.4c0 2.8.4 4.4 1.3 5.7l-.9.1c-1.8 0-2.3-.7-2.3-5.8v-2.6l-.1-1-.2.2c-2.6 2-5.3 5.6-5.5 8.2-.8-.5-1.6-1.6-1.6-2.5 0-1.5 2.1-3.6 4.7-6.2l1.4-1.4.2-.2-.5-.1c-.5-.2-1.5-.4-2.4-.4-2.8 0-4.6.5-5.7 1.7a6 6 0 01-.7-2.7c0-.5 0-.9.3-1 .2-.3.6-.3 1-.3 3.2 0 6.9.6 8.4.8h.1c.2-.4 6.2-8.4 7.8-12.6l1.2-.2c1.2 0 1.6.8 1.9 2-3.7 4.5-6 8-7 10.5zm-16.1-71.5c0-6 4.3-10.7 5.8-12l1.1.2c-1.6 2-4.5 5.3-4.5 9.7 0 8.7 9.3 16.3 19.8 16.3a26.4 26.4 0 00.1 6c-11.8-.1-22.3-9.8-22.3-20.2zm79.7 18.3c5.4 8.5 9.5 8.4 15.8 8.4-5.2-4-8.6-9.2-10.3-11.8l-9.7-15.7c-1-4.8-3.5-9.3-7.2-12.7l3-1.4c-6.4 0-12.7-3.3-16.2-3.3-2.2 0-3.7 1.4-3.7 3.1.2 2 2.2 4 6 4l3-.3c2 2.8 3.7 5.4 3.7 9 0 6.9-8.2 12.2-16.4 12.2h-1.4c-.7-1.7-3.2-4.6-3.2-7.8 0-5.5 3.5-10 3.5-15.3 0-3.4-1.6-5.4-2.2-6.3 1-1 2.1-2.1 2.4-2.9-.6.3-1.3.3-2.3.3-4 0-7.2-1-10.3-1-1.8 0-2.3.5-2.3 1v.5l-2-.5c-.9-.2-1.9-.3-3-.3-3.8 0-5.1 1.6-5.1 3 0 1.1.9 3.3 2 4.9 1.4-.8 3.2-1.3 4-1.3 2 0 3.8 2 4.8 4.2-1.4.2-1.6.3-3 .3-3.7 0-6.3-1.4-6.8-1.4l-.1.1c0 .6 1 2 3.1 2.7 2.7 1 6.8 1.4 7.5 1.5 0 .2-.7 1.5-1.4 1.7h-.5c-2.9-.5-3.7-.8-7.3-2.2-.1 0-.2 0-.2.2 0 1.4 3.7 4.6 7 5.8-2.7 3.6-6.2 7.2-7.8 12.8h-1.4c-8.2 0-16.4-5.3-16.4-12.2 0-3.6 1.6-6.2 3.7-9l3 .3c3.8 0 5.8-2 6-4 0-1.7-1.5-3-3.7-3-3.5 0-9.8 3.2-16.1 3.2.6.4 1.6 1 2.9 1.4A23.2 23.2 0 00111 213l-9.7 15.7A45.4 45.4 0 0191 240.5c6.3 0 10.4.1 15.8-8.4l5-8c.3 1 .8 2 1.3 3l-9.9 16A45 45 0 0193 255c6.3 0 10.5.1 15.8-8.3l8.6-13.8 2 2-12 19.4c-1.7 2.7-5.2 7.8-10.4 11.8 6.3 0 10.5.2 15.8-8.3l11.8-19 2.4 1.5-14.4 23c-1.7 2.7-5 7.8-10.3 11.8 6.3 0 10.5.2 15.8-8.3l14.8-23.8 2.7 1-16.7 26.8a45.4 45.4 0 01-10.4 11.8c6.3 0 10.5.2 15.9-8.3l17.8-28.6h.5c.5 1.6.8 3 .8 4.5 0 9-5.9 17-13 23 .5.3 1.3.3 2 .3 1.5 0 2.5 0 3.1-.2-1.6 3.8-5.1 8.6-6.9 11-2.3-.3-5.7-.7-7.9-.7-2.3 0-2.5 1.4-2.5 2.6a6 6 0 002 4.7c.5-1 1.4-2.5 5.6-2.5h.4c-1.2 1.4-5 4.6-5 7.1 0 1.7 1.8 4.2 4.2 4.2-.2-.5-.1-1-.1-1.4 0-2 1.8-4.5 3.3-6.2v1c0 5 .4 7.2 3.5 7.2 1.5 0 2.6-.8 3-1.1-2-1.8-2.2-3.3-2.2-6v-2.4-2c1-.2 1.5-.2 2.3-.2 0 0 4.4-.3 5.4 2 1.2-1.1 3-2.7 3-4.4 0-1.1-.6-2.4-2.8-2.4-.9 0-3.6.5-5.8.5.6-1.3 3.3-5.3 5.6-8.1.4 1 1 2.3 2.1 3.3.2-1.9 1.3-7.7 4.1-11.1.4 2.3.8 4.7.8 9.6 0 12.1-2.9 21-9 22.8a5.3 5.3 0 004.2 2.6c2.3 0 3.5-2.5 4.8-5 .6 1.9 2.4 6.2 4.2 6.2 1.8 0 3.6-4.3 4.3-6.1 1.2 2.4 2.4 5 4.7 5 1.7 0 3.4-1.3 4.2-2.7-6.1-1.7-9-10.7-9-22.8 0-5 .4-7.3.8-9.6 2.8 3.4 3.9 9.2 4 11 1.3-1 1.8-2.1 2.2-3.2 2.3 2.8 5 6.8 5.6 8.1-2.2 0-5-.5-5.8-.5-2.2 0-2.8 1.3-2.8 2.4 0 1.7 1.8 3.3 3 4.3 1-2.2 5.4-1.9 5.4-1.9.8 0 1.3 0 2.4.2l-.1 2v2.4c0 2.7-.1 4.2-2.1 6 .4.3 1.4 1 2.9 1 3 0 3.5-2.1 3.5-7v-1c1.5 1.6 3.4 4 3.4 6.1 0 .4 0 .9-.2 1.4 2.5 0 4.3-2.5 4.3-4.2 0-2.5-3.9-5.7-5.1-7l.4-.1c4.2 0 5.1 1.4 5.5 2.5 1.2-1 2.1-2.6 2.1-4.7 0-1.2-.2-2.6-2.5-2.6-2.2 0-5.6.4-7.9.8-1.8-2.5-5.3-7.3-7-11l3.1.1c.8 0 1.6 0 2-.2-7-6.2-13-14.1-13-23 0-1.5.4-3 .9-4.5l.5-.1 17.8 28.6c5.4 8.5 9.6 8.3 15.9 8.3-5.2-4-8.7-9.1-10.3-11.8L168.2 244a47 47 0 002.7-1l14.8 23.8c5.3 8.5 9.5 8.3 15.8 8.3a45 45 0 01-10.3-11.7l-14.4-23.1 2.4-1.4 11.8 18.9c5.3 8.5 9.5 8.3 15.8 8.3-5.2-4-8.6-9.1-10.3-11.8l-12-19.4 2-2 8.5 13.8c5.3 8.4 9.5 8.3 15.8 8.3a45 45 0 01-10.3-11.8l-10-16c.6-1 1-2 1.4-3l5 8z" fill="#231f20"/><path d="M244.4 404.8h18.2v104.6h-18.2V404.8z" fill="#f4cf00"/><path d="M244.4 299.7h18.2v105.1h-18.2V299.7z" fill="#ed1c24"/><path d="M262.6 195.6v104.6h-18.2V195.6h18.2zM303.4 82v.7c0 3.6 2.2 4.7 4.3 4.7 2.7 0 4.7-1.1 4.7-4.3 0-5.7-11.7-5-11.7-13 0-4.6 3.3-7 7.6-7 4.8 0 7.5 2.3 7.3 7.6H312c0-2.8-.9-4.7-4-4.7-2 0-4 1-4 3.8 0 5.8 11.7 5 11.7 13.2 0 5.5-3.8 7.3-8.1 7.3-7.7 0-7.7-5.9-7.6-8.3h3.3zM324.6 75.3h3.6c1.4 0 4.6-.3 4.6-4.4 0-4-3-4.4-3.6-4.4h-4.6v8.8zm-3.3 14.4v-26h7.7c3.5 0 7.2 1.2 7.2 7.4 0 5.9-4.6 7.1-7.3 7.1h-4.3v11.5h-3.3zM353.7 80.3v-8.8c0-5.5-3.7-5.6-4.8-5.6-1 0-4.8.1-4.8 5.6v8.8c0 5.7 1.7 7.2 4.8 7.2 3.2 0 4.8-1.5 4.8-7.2zm-13-.1v-8.6c0-5.2 2.7-8.5 8.2-8.5 5.5 0 8.2 3.3 8.2 8.5v8.6c0 7.2-2.7 10-8.2 10-5.5 0-8.1-2.8-8.1-10zM380.9 63.6v26.1h-4.6l-10.2-22.6h-.1v22.6h-3v-26h4.7L377.8 86h.1V63.6h3zM389.4 82v.7c0 3.6 2.3 4.7 4.4 4.7 2.6 0 4.6-1.1 4.6-4.3 0-5.7-11.6-5-11.6-13 0-4.6 3.3-7 7.6-7 4.8 0 7.4 2.3 7.2 7.6h-3.4c0-2.8-1-4.7-4-4.7-2 0-4 1-4 3.8 0 5.8 11.6 5 11.6 13.2 0 5.5-3.8 7.3-8 7.3-7.7 0-7.7-5.9-7.6-8.3h3.2zM419.8 80.3v-8.8c0-5.5-3.8-5.6-4.8-5.6s-4.8.1-4.8 5.6v8.8c0 5.7 1.6 7.2 4.8 7.2 3.1 0 4.8-1.5 4.8-7.2zm-13-.1v-8.6c0-5.2 2.7-8.5 8.2-8.5 5.5 0 8.2 3.3 8.2 8.5v8.6c0 7.2-2.7 10-8.2 10-5.5 0-8.2-2.8-8.2-10zM432.2 74.8h5c2.3 0 3.4-2 3.4-4.3 0-1.9-.9-4-3.4-4h-5v8.3zm0 3v12h-3.4V63.5h9c4.6 0 6.2 3.3 6.2 6.5 0 3.1-1.7 5.5-4.7 6 3 .5 4 1.5 4.2 6.8 0 1.1.4 5.2 1 6.8H441c-1-1.8-.7-5.2-1-8.7-.3-3.1-2.8-3.3-4-3.3h-3.8zM449 89.7v-26h13.3v2.8h-10V75h9.3v2.9h-9.4v9h10.3v3H449zM470.3 86.8h3.2c4.6 0 6.3-1.7 6.3-7.8v-5.3c0-5.2-1.7-7.2-5.1-7.2h-4.4v20.3zM467 63.6h8c3.3 0 5.7 1.2 7 4 1 2.2 1.1 7.4 1.1 8.2 0 5.6-.5 8.8-1.5 10.6-1.4 2.2-4 3.3-8.6 3.3h-6v-26zM500.6 86.8h4.6c3.6 0 4.9-2.5 4.9-4.4 0-4.2-2.6-4.9-6-4.9h-3.5v9.3zm0-12.2h4.8c2.6 0 3.9-1.6 3.9-4.1 0-2.2-1.3-4-4-4h-4.7v8.1zm-3.3 15.1v-26h8.4c3.6 0 4.8 1.2 5.8 2.6a7 7 0 011 3.5c0 3.2-1 5.4-4.4 6.2v.1c3.7.5 5.3 2.7 5.3 6.3 0 6.7-4.8 7.3-7.8 7.3h-8.3zM530.3 63.6h3.4l-7.1 16.2v10h-3.3v-10l-7-16.2h3.7l5 12.6 5.3-12.6zM559.5 63.6v3h-6.8v23.1h-3.3V66.5h-6.9v-2.9h17zM563.1 89.7v-26h3.4v11.2h9V63.6h3.4v26.1h-3.3V77.8h-9.1v12H563zM585 89.7v-26h13.3v2.8h-10V75h9.3v2.9h-9.3v9h10.3v3h-13.7z" fill="#231f20"/></g></svg>