<svg viewBox="0 0 173 173" xmlns="http://www.w3.org/2000/svg"><g fill-rule="nonzero" fill="none"><path d="M1 1h170v170H1z" fill="#1866A5"/><g fill="#FFF"><path d="M33 114v10h23v9H24V87h32v9H33v9h22v9zM61 110c0-14 11-23 24-23 10 0 16 5 19 11l-8 4c-2-4-6-7-11-7-8 0-14 6-14 15 0 8 6 14 14 14 5 0 9-2 11-6l8 4c-3 5-9 11-19 11-14 1-24-9-24-23M32 139c3 0 4 2 6 3l-3 1-3-2c-3 0-5 2-5 5s2 5 5 5l3-1v-2h-4v-3h7v6l-6 2c-5 0-8-2-8-7 0-4 3-7 8-7M58 148h-2v6h-3v-15h6c3 0 5 2 5 5 0 2-2 4-3 4l3 6h-3l-3-6zm1-6h-3v4h3l2-2-2-2M86 139c5 0 8 3 8 7 0 5-3 8-8 8-4 0-7-3-7-8 0-4 3-7 7-7m0 3c-2 0-4 2-4 4 0 3 2 5 4 5 3 0 5-2 5-5 0-2-2-4-5-4M108 139h3v9c0 2 1 3 3 3 3 0 4-1 4-3v-9h3v9c0 4-2 6-7 6-4 0-6-3-6-6v-9zM24 79a61 61 0 11122 0h-13c-1-1-4-4-6-4l-6 1-5-2h-6s-3-2-3-4c1-1 2-1 2-3l-2-7-1-4h1l4 1 2-1v-3-1-1l2-1 1-2v-1l1-2c0-1 0-2-6-5l-1-1-3-3-3-1-1-1v-3l-3-3h-5l-6 3-3 3-6 8c-1 1-5 3-5 11-1 2-1 3-4 4-7 2-20-4-27 1-5 4-8 8-9 21H24zM126 117h-7v16h-9V87h21c9 0 15 7 15 15s-5 12-10 13l10 17h-11l-9-15zm3-21h-10v12h10c4 0 7-2 7-6s-3-6-7-6M136 139h7c3 0 5 2 5 5 0 2-2 4-5 4h-4v6h-3v-15zm7 3h-4v4h4l2-2-2-2"/></g></g></svg>
