<svg width="57" height="32" viewBox="0 0 57 32" xmlns="http://www.w3.org/2000/svg"><g fill-rule="nonzero" fill="none"><path d="M53.6 17l-1.1 1 .5-1.3-1-.8h1.2l.4-1.1.4 1.1h1.3l-1 .8.4 1.3-1.1-1zm-.7 6.9l-1-1-1.2 1 .5-1.3-1-.8h1.3l.3-1.1.4 1.1h1.3l-1 .8.4 1.3zM48.3 8l.5 1.2-1.1-.8-1.1.8.4-1.2-1-.8h1.3l.4-1.1.3 1h1.3l-1 .9zm.2 18.9l-1-1-1.2 1 .5-1.3-1-.8h1.3l.3-1.1.4 1.1h1.3l-1 .8.4 1.3zM45.3 22H39v-1.6h4.4v-3.2h-4.4v-1.5h4.4v-3.2h-4.5V11h6.5v11zm-2 6.2l-1-1-1.1 1 .4-1.3-1-.8H42l.4-1.1.4 1.1h1.2l-1 .8.5 1.3zM38 27l-1-.9-1.2.9.5-1.3-1-.7h1.3l.3-1.2.4 1.2h1.3l-1 .7.4 1.3zM36.2 7.2l.3-1.1.4 1.1h1.3l-1 .8.4 1.2-1-.8-1.2.8L36 8l-1-.8h1.3zm-2.3 16.6l-1.1-.9-1.1.9.4-1.3-1-.7h1.3l.4-1.2.4 1.2h1.3l-1 .7.4 1.3zm-4.1-7.4h1.3l.3-1.1.4 1.1H33l-1 .8.4 1.3-1-1-1.2 1 .5-1.3-1-.8zm2.2-5.6l.4-1.1.3 1H34l-1 .8.5 1.3-1.2-.8-1 .8.4-1.3-1-.7H32zm9.9-5.4l.3-1.1.4 1.1h1.3l-1 .8.4 1.3-1.1-1-1 1 .4-1.3-1-.8h1.3zm9.9 5.4l.3-1.1.4 1h1.3l-1 .9.4 1.2-1-.8-1.2.8.5-1.3-1-.7h1.3zm-9.4-8c-8 0-14.5 6-14.5 13.6 0 7.5 6.5 13.6 14.5 13.6S57 23.9 57 16.4 50.5 2.8 42.4 2.8" fill="#008200"/><path d="M20.2.5l-.4.6a31.3 31.3 0 00-2.2 4c-.3.7-.6 1.5-.7 2.3 0 .6 0 1.2.2 1.7a2.8 2.8 0 001.4 1.7l.4.1.4-.4a10.6 10.6 0 002-2.6 6.1 6.1 0 00.5-4A8.1 8.1 0 0020.2.4M7.5 16.4A30.5 30.5 0 00.7 18l-.8.2.6.5a12.1 12.1 0 003.6 1.6 7 7 0 002.5.1h.1a7.7 7.7 0 003.2-1.1 9.3 9.3 0 002-1.8h.2c0-.2-.2-.3-.3-.3l-.8-.5c-.5-.2-1-.4-1.5-.4a8 8 0 00-2.1 0M29.7 11.2h-.1a7.7 7.7 0 00-4 1.8l-1 1-.4.3.3.3.9.5 1.5.5H29a23.8 23.8 0 004.9-1.2l1.7-.6.8-.3-.6-.5a12.6 12.6 0 00-3.7-1.6c-.8-.2-1.7-.3-2.5-.2M3.6 11.2s0 .3.3.6a12 12 0 002 2.8 5.6 5.6 0 002.5 1.3 5.1 5.1 0 002 0h.5l.6-.2a6.4 6.4 0 001.3-.6l.3-.1.2-.1v-.5c0-.3 0-.6-.2-.9a3 3 0 00-.8-1c-.4-.4-1-.7-1.5-.8l-2.3-.4H4.4l-.8-.1M11 5l-.2.7a14.3 14.3 0 000 3.5c.1.6.3 1.2.7 1.8.2.4.6.7 1 1l1 .4a5 5 0 002 0H15.8l.3-.4.4-1.2c.1-.4.2-1 .1-1.5 0-.5-.2-1-.5-1.5-.4-.5-.9-1-1.4-1.2a10.3 10.3 0 00-3.1-1.4l-.7-.1M32.7 5.3a15.3 15.3 0 00-4 1.1l-1.3.8a10 10 0 00-3 3.2 7.2 7.2 0 00-.7 1.6h.2a4.9 4.9 0 00.8 0 7 7 0 001.6-.2 10 10 0 003.1-1.3 14.9 14.9 0 004-3.3 24 24 0 001.5-2h-.2a5.7 5.7 0 00-1.1 0h-1M29 0l-.7.5a31.6 31.6 0 00-3.8 3.1 15 15 0 00-1.8 2.2l-1 2a5 5 0 00-.2 1.6 3.7 3.7 0 00.3 1.3l.5-.2a11.2 11.2 0 004.5-3.7c.5-.7.9-1.5 1.2-2.3a15.8 15.8 0 001-3.8V0zM17.5 21l-.4.3a10.7 10.7 0 00-2 2.6c-.4.7-.6 1.3-.7 2l.1 2.1a8.3 8.3 0 001.3 3l.4.5.5-.7a28.7 28.7 0 002.2-3.9l.7-2.3c0-.6 0-1.2-.2-1.8a3 3 0 00-1.9-1.8M10.8 19.9a9.8 9.8 0 00-2.8.7l-1.1.6a17.6 17.6 0 00-4 3.1l-1.3 1.3-.5.5h.3a7.9 7.9 0 001.5 0 17.9 17.9 0 003.6-.6 10.8 10.8 0 004.3-2.6 8.3 8.3 0 001.7-2.6l.1-.5a4.5 4.5 0 00-1 0h-.8M14.6 21l-.5.3a11.8 11.8 0 00-4.7 3.5A15 15 0 007 31.3c.3 0 .5-.2.8-.4a27.5 27.5 0 003.9-2.9l1.9-2c.4-.7.8-1.3 1-2 .2-.5.3-1 .3-1.6a3.5 3.5 0 00-.3-1.3M26 16a6.4 6.4 0 00-1.6.4 7 7 0 00-.8.4l-.2.1-.2.1v.5a3.5 3.5 0 001 2c.5.5 1 .8 1.7 1l2.3.4a35.5 35.5 0 005.1.4l-.3-.7a14.5 14.5 0 00-2.3-3A6 6 0 0028 16a5.2 5.2 0 00-2 0M20.9 19.4h-.2l-.2.5L20 21c-.2.5-.2 1-.2 1.6 0 .5.3 1.1.6 1.6.4.5.9 1 1.5 1.3a12.5 12.5 0 003.3 1.6l.6.3.1-.7a15.7 15.7 0 000-3.7l-.8-2-1.1-1a4 4 0 00-1.3-.5 5.5 5.5 0 00-1.9 0" fill="#FFBE00"/></g></svg>
