<svg xmlns="http://www.w3.org/2000/svg" width="110" height="68" viewBox="-7 -7 124 82"><defs/><path fill="#00974E" d="M85 21l-20 8c-9 6-12 10-12 10s-2-8-11-9c-8-1-13 6-13 6l3 6s3-8 11-7c9 2 9 15 9 15s6-8 16-14c0 0 9-6 20-9l-3-6z"/><path fill="#C5262C" d="M84 1c-12 1-24 9-24 9-7 3-10 7-10 7s-5-6-14-6c-9-1-15 7-15 7l7 17s5-7 12-7c10 1 14 8 14 8s4-4 12-9c0 0 14-8 24-8L84 1z"/><path fill="#231F20" d="M16 66l-6 1c-3 0-5 0-7-2a8 8 0 01-3-6c0-5 4-9 10-9l6 1v4l-5-1c-3 0-5 2-5 5 0 2 2 4 4 4h2v-2h-2v-3h6v8zm20-7c0 3-1 5-3 7a10 10 0 01-6 1c-4 0-7-1-8-4l-1-3v-9h6v7l1 4 2 1c2 0 3-2 3-5v-8h6v9zm2-8h12v3h-7v3h6v3h-6v3h7v4H38zm20 0l-5 16h-2l4-16zm0 0h5l9 8-1-8h6v16h-5l-8-8v8h-6zm37 15l-6 1c-3 0-5 0-7-2a8 8 0 01-3-6c0-5 4-9 10-9l6 1v5l-5-2c-3 0-5 2-5 5 0 2 2 4 5 4h1v-2h-2v-3h6v8zm3-15h6v12h6v4H98z"/></svg>
