<svg viewBox="0 0 131 131" xmlns="http://www.w3.org/2000/svg"><g fill="none" fill-rule="nonzero"><path fill="#4B9ED6" d="M65.7 131.3H0V.1h131.2v.2l.2.2V131l-.1.2-.1.2z"/><path d="M65.7 131.3H0V.1h131.2v131.2H65.7zM26.3 104h10.6V84.7l-2-.5-1.9-.5-3.2-1-3.3-1.2-1.7-.7-1.8-.7-2-.9-1.9-.9-1.6-.9-1.7-1-.1.2h-.2v27.2h.1l.1.2h10.6zm34.6 0h16.3l1.7-.2 1.7-.3 1.5-.2 1.6-.3 1.4-.3 1.3-.4 1.7-.5 1.6-.5 1.5-.6 1.4-.6 1.5-.7 1.5-.8 1.3-.8 1.3-.8 1.1-.8 1.2-.8 1.3-1 1.3-1 1.6-1.7 1.6-1.6 1-1.3 1.1-1.4.8-1.2.8-1.1 1-1.6.9-1.6.6-1.4.6-1.5.5-1.4.5-1.5.5-1.7.5-1.7.2-1.6.3-1.7.1-2 .2-2-.1-1.7-.1-1.7-.2-1.5-.2-1.6-.3-1.5-.4-1.5-.5-1.6-.5-1.6-.5-1.3-.6-1.3-.8-1.5-.7-1.6-.8-1.1-.8-1.2-1-1.4-1.2-1.4-1.4-1.5-1.5-1.5-1.5-1.3-1.6-1.3-1.3-1-1.3-.8-1.4-.9-1.4-.8-1.8-.9-1.9-.9-1.2-.5-1.2-.4-1.8-.6-1.7-.5-1.5-.3-1.6-.3-.9-.2-1-.1-1.6-.3-1.6-.2H44.6V76l.6.2.7.3 2 .7 2.2.7 2 .4 2 .4 2.1.3 2.2.3H65l.4-.2V45.7l.2-.1.2-.1 2.2-.1 2-.1 2.4.1 2.3.2 1.4.2 1.4.2 1 .2 1 .3 1.2.3 1.1.4 1.2.5 1.2.5 1.2.7 1.2.7 1 .8 1 .8 1 1.2 1.2 1.2.6.8.6.9.6 1 .6 1 .6 1.4.5 1.3.3 1.3.4 1.2.1 1.1.2 1.1-.1 2.1v2l-.4 1.4-.3 1.4-.5 1-.4 1-.4.9-.5.9-.7 1-.8 1-1.2 1.4-1.3 1.3-1 .8-1.1.8-1 .6-.9.6-1.4.7-1.5.7-1.4.4-1.4.5-1.3.3-1.4.4-1.7.2-1.6.3-2.1.2-2.1.2-3.6.1-3.6.2h-4.4l-4.3-.2-2.5-.2-2.4-.2-1.6-.2-1.6-.1h-.2V104H61z" fill="#164188"/><path fill="#FFF" d="M36.8 71.4h.2V27.5l-.2-.2H16l-.1.2-.2.1v2l.2 2.2.2 2 .3 1.8.2 1.8.4 1.9.4 1.8.4 1.5.4 1.6.6 1.6.5 1.7.8 2 .7 2 1.2 2.2 1 2.2 1.1 1.8 1 1.7 1.1 1.5 1 1.5 1.4 1.6 1.3 1.6 1.7 1.6 1.6 1.6 1.6 1.4 1.7 1.3z"/></g></svg>
