<svg width="266" height="111" viewBox="0 0 266 111" xmlns="http://www.w3.org/2000/svg"><g fill="#02A0FE" fill-rule="nonzero"><path d="M163 84V57h11.4v3.4c.2 0 .7-.5 1.3-1 1.3-1.2 3.5-2.4 5.7-3 2.1-.5 6.4-.5 8.5 0 8.4 2.3 14.1 10.4 14.1 20a20 20 0 01-14.7 19.9c-1.8.4-5.6.4-7.7-.1-2.6-.7-5-2-6.4-3.4l-.7-.6-.1 9.4v9.4H163V84zm22.9 1.4c3-.7 5.6-3.3 6.4-6.6.3-1.3.3-3.7 0-5-.7-3-2.7-5.4-5.4-6.3-1.5-.5-3.3-.7-4.9-.5-4.7.7-7.5 4.2-7.5 9.3 0 3 .7 4.8 2.4 6.7 1.1 1.2 2.3 2 3.8 2.3 1.2.3 4 .4 5.2.1zM18.5 95.8c-3.7-.3-8-1.9-10.6-3.8-1.5-1-3.6-3.2-4.5-4.5C1 84.2-.2 79.5 0 75c.2-4.8 1.8-8.8 4.8-12.3 6.3-7.3 18.6-9 26.6-3.5 6.2 4.2 9.5 12.1 8.4 20l-.2 1.3H26c-10.8 0-13.6 0-13.6.3 0 .4 1 2 1.8 2.7 3.4 3 10.5 3 13.9.1l.7-.7 4.4 2.5a117 117 0 014.6 2.7c.2.2-.5 1.1-2 2.5-3 3-7.1 4.8-12.1 5.2-2.3.3-2.8.3-5.2 0zm9.9-24.2c-.5-1.7-2-3.6-3.7-4.5a10.3 10.3 0 00-9 0 8.2 8.2 0 00-3.6 4.5l-.1.4h16.5l-.1-.4zM58.4 95.8c-5-.6-9.2-3.9-11.1-8.6-1.1-2.9-1.1-2.8-1.2-17.1L46 57h11.6l.1 11.9v11.9l.6 1c1.2 2.6 3.4 3.8 6.6 3.6 2.9-.1 5-1.6 5.9-4 .6-1.6.7-3.6.7-14.4V57H83v38H71.5v-1.7-1.7c-.2 0-.6.4-1.2.9-1.8 1.8-4.4 3-7.7 3.3-1.8.3-2.4.3-4.2 0zM134.6 95.8a19.8 19.8 0 01-17.5-18 20.1 20.1 0 0137.8-11c1.4 2.9 2.1 5.8 2.1 9.2a20 20 0 01-22.4 19.8zm4.3-11.1a8.2 8.2 0 006.7-8.7c0-1.8 0-2.4-.4-3.3a8.4 8.4 0 00-7.4-5.6c-3.7-.3-7 1.4-8.5 4.6-2.6 5.4.1 11.8 5.7 13 1.5.3 2.4.3 4 0zM227.7 96c-10.5-1.2-17.5-7.9-18.6-17.8a19.6 19.6 0 0115.6-21.7c9.4-2 18 2 22 9.8 1.7 3.2 2.4 6.7 2.3 10.6l-.3 3.2v.5H235c-10.8 0-13.6 0-13.6.2 0 .4 1 2.1 1.8 2.8 3.4 3 10.6 3 14 0l.7-.6 4.5 2.5 4.5 2.6c.4.3-2.3 3.2-4.2 4.4a21.4 21.4 0 01-8.1 3.2c-1.9.3-5.2.4-7 .2zm9.7-24.4a8 8 0 00-8-5.5c-4 0-7 1.9-8 5.2l-.4.7h16.6l-.2-.4zM257.6 95.9c-2-.4-4-2-5-4-.6-.9-.6-1.1-.6-2.9 0-1.8 0-2 .6-3.1.7-1.5 2-2.7 3.5-3.4 1-.4 1.3-.5 2.9-.5 1.7 0 2 0 3 .6 1.5.7 2.8 2 3.5 3.5.4.9.5 1.2.5 2.9s0 2-.5 2.9a7.2 7.2 0 01-6 4h-1.9zM91 76.9V57.7h5.8l5.7.1v3l.2 3.1.6-1.2a11 11 0 014.8-4.4c1.5-.7 3.8-1.3 5.2-1.3h.7v12.9h-1.8c-1 0-2.2 0-2.7.2-3 .6-5.3 2.5-6.5 5.2-.3.8-.3 1.5-.4 10.7l-.1 10H91V76.9zM72.4 39.8c-3.2-.3-6.3-1.3-9.1-2.9-1.8-1-4.7-3.7-5.9-5.4-3.7-5.5-4.4-13-2-19.4C58 6 63.5 1.5 70.4.3c2.2-.4 6.3-.4 8.2 0C86.8 2 92.5 8.3 94 17c.2 1.5.1 6-.2 7v.6H80a107 107 0 00-13.6.2c0 .5 1.1 2.2 2 2.9 3.4 3 10.4 3 13.7 0l.8-.7 4.5 2.6 4.5 2.7c.1.3-1.7 2.4-3 3.4-4.4 3.5-10 5-16.5 4.2zm10-24.2a9 9 0 00-1.8-3.2c-1.9-2-5-2.8-8.3-2.2-2.9.6-5 2.3-6 5l-.3.8h16.6l-.1-.4zM161.3 39.8c-3.9-.4-7.8-1.9-10.6-4-1.1-.7-3-2.7-4-3.8-4.4-6-5-15-1.3-21.8 3.1-5.9 8.9-9.5 16.1-10.1 11-1 20 6.2 21.4 17 .2 1.5.1 5.8-.2 6.9v.5H169c-9.3 0-13.6 0-13.6.2 0 .4.8 1.8 1.6 2.6 3 3.2 10.6 3.4 14.1.3l.8-.7 4.5 2.6 4.5 2.7c.1.3-1.6 2.2-2.8 3.3a22.3 22.3 0 01-16.8 4.3zm10.2-24.2a9 9 0 00-2-3.1c-1.8-2-5-2.8-8.2-2.2-2.9.5-5 2.2-6 5l-.3.7h16.6l-.1-.4zM29 19.9V.8h11.4v3c0 1.8 0 3.2.2 3.2l.5-1C42.6 3 46.3.7 50.7.2L52 0v12.9h-2.3c-1.9.1-2.5.2-3.6.6a8.1 8.1 0 00-5.2 5.2c-.4 1.2-.4 1.5-.5 10.8V39H29V19.9zM100 20V1h11.6v3.3l1.2-1c2.4-2.2 5.6-3.3 9.7-3.3 2.6 0 4.3.4 6.4 1.3 4.2 1.9 7.2 6.1 7.9 11.4.1 1 .2 6 .2 13.9V39h-11.6V27l-.1-12-.6-1a7 7 0 00-1.4-2c-1.3-1.1-2.5-1.5-4.7-1.5-2 0-3.4.5-4.6 1.5-1 .7-1.9 2.4-2.1 3.8-.2.6-.3 4.6-.3 12V39H100V20zM192.2 26.7l-6-18.7-2.2-6.8c0-.1 1.1-.2 6-.2h6.2l2.6 9.8a377.2 377.2 0 003 10l2.6-8.7 2.9-9.9.4-1.2h10.6l.4 1.1a822 822 0 015.5 18.8l.8-2 2.7-10 2.1-7.8h6.1L242 1l-.1.4-5 15.5-6 18.5-1 3.6H219l-2.9-9.5-3-10-.3-.6-.4 1.3-2.4 8.2-2.7 8.8-.5 1.8h-10.7l-4-12.3z"/></g></svg>
