<svg xmlns="http://www.w3.org/2000/svg" width="222.1" height="222.1" viewBox="0 0 208.2 208.2"><text style="line-height:1.25" x="-283.7" y="-1252" font-weight="400" font-size="35.4" font-family="sans-serif" letter-spacing="0" word-spacing="0" fill="#e1151f" stroke="#e1151f" stroke-width="4.2" transform="translate(-565 -880)"><tspan style="-inkscape-font-specification:'FreeSans, Normal';font-variant-ligatures:normal;font-variant-caps:normal;font-variant-numeric:normal;font-feature-settings:normal;text-align:start" font-size="74.3" font-family="FreeSans" letter-spacing=".9">PARTITO DEMOCRATICO DELLA SINISTRA</tspan></text><path fill="#fff" d="M0 0h208v208H0z"/><path d="M0 0h208v208H0V0zm51 178c9-1 15-5 18-11 3-7 2-16-4-21-3-3-8-4-20-7l-10-3c-4-3-3-8 2-10 4-2 11-2 16 0l6 6 1 1a66 66 0 0010-7l-9-8c-6-4-9-4-16-4h-9c-6 2-11 6-14 11-3 6-2 15 3 19 3 3 7 5 18 7 11 3 13 4 14 6 1 3 1 6-1 8-3 2-7 3-13 3-7-1-12-4-15-8l-1-1-5 3-5 3v2c4 5 12 10 20 11h14zm53-1c3-1 6-2 8-5l2-2 3 3c3 3 6 5 9 5h2v-2c0-3 0-3-2-4l-6-4-2-4 2-3 2-10v-2h-2c-4 0-4 0-4 3l-1 6v2l-2-1-12-18 2-1 5-4 4-5c3-6 1-13-5-16s-14-1-17 4-2 13 2 19l1 1-3 3-6 4c-4 5-6 8-6 14v4c1 4 5 9 8 11 2 1 5 3 8 3l10-1zm-9-4c-4-1-8-4-10-7v-9c0-4 4-8 9-11l2-2 5 8 8 10 2 4-2 2-7 4-7 1zm2-39c-2-4-3-5-3-8l1-4c1-2 3-3 5-3l5 1c2 2 2 3 2 6l-2 6-6 4-2-2zm72 42c5-1 10-4 13-8l5-11c3-9 2-21-3-29-3-6-8-10-15-12l-20-1h-13v62h30zm-21-30v-20h7c8 0 9 0 12 2 3 1 5 4 7 6 3 8 3 21-1 27-3 4-8 5-19 5h-6z" fill="red"/></svg>
