<?xml version="1.0" encoding="UTF-8" standalone="no"?>
<!-- Created with Inkscape (http://www.inkscape.org/) -->

<svg
   xmlns:dc="http://purl.org/dc/elements/1.1/"
   xmlns:cc="http://creativecommons.org/ns#"
   xmlns:rdf="http://www.w3.org/1999/02/22-rdf-syntax-ns#"
   xmlns:svg="http://www.w3.org/2000/svg"
   xmlns="http://www.w3.org/2000/svg"
   xmlns:sodipodi="http://sodipodi.sourceforge.net/DTD/sodipodi-0.dtd"
   xmlns:inkscape="http://www.inkscape.org/namespaces/inkscape"
   width="58.758675mm"
   height="58.758667mm"
   viewBox="0 0 208.20003 208.2"
   id="svg2"
   version="1.1"
   inkscape:version="0.92.1 r15371"
   inkscape:export-filename="C:\Users\Nilo\path4164.png"
   inkscape:export-xdpi="90"
   inkscape:export-ydpi="90"
   sodipodi:docname="S&amp;D.svg">
  <defs
     id="defs4">
    <ellipse
       style="color:#000000;clip-rule:nonzero;display:inline;overflow:visible;visibility:visible;opacity:1;isolation:auto;mix-blend-mode:normal;color-interpolation:sRGB;color-interpolation-filters:linearRGB;solid-color:#000000;solid-opacity:1;fill:none;fill-opacity:1;fill-rule:nonzero;stroke:#000000;stroke-width:4;stroke-linecap:butt;stroke-linejoin:round;stroke-miterlimit:2.61299992;stroke-dasharray:none;stroke-dashoffset:0;stroke-opacity:1;color-rendering:auto;image-rendering:auto;shape-rendering:auto;text-rendering:auto;enable-background:accumulate"
       id="path4350-2"
       cx="675.29022"
       cy="548.28119"
       rx="283.98657"
       ry="288.75601" />
    <circle
       style="fill:#00ffff;fill-opacity:1;stroke:none;stroke-width:9.79220867;stroke-miterlimit:4;stroke-dasharray:none;stroke-opacity:1"
       id="path996-3"
       cx="-166.11159"
       cy="-1160.6982"
       r="403.75458"
       transform="rotate(162.7391)" />
  </defs>
  <sodipodi:namedview
     id="base"
     pagecolor="#ffffff"
     bordercolor="#666666"
     borderopacity="1.0"
     inkscape:pageopacity="0.0"
     inkscape:pageshadow="2"
     inkscape:zoom="2"
     inkscape:cx="16.811845"
     inkscape:cy="172.49431"
     inkscape:document-units="px"
     inkscape:current-layer="layer1"
     showgrid="false"
     inkscape:window-width="1600"
     inkscape:window-height="837"
     inkscape:window-x="-8"
     inkscape:window-y="-8"
     inkscape:window-maximized="1"
     showguides="true"
     inkscape:guide-bbox="true"
     inkscape:pagecheckerboard="true"
     fit-margin-top="0"
     fit-margin-left="0"
     fit-margin-right="0"
     fit-margin-bottom="0" />
  <metadata
     id="metadata7">
    <rdf:RDF>
      <cc:Work
         rdf:about="">
        <dc:format>image/svg+xml</dc:format>
        <dc:type
           rdf:resource="http://purl.org/dc/dcmitype/StillImage" />
        <dc:title />
      </cc:Work>
    </rdf:RDF>
  </metadata>
  <g
     inkscape:label="Livello 1"
     inkscape:groupmode="layer"
     id="layer1"
     transform="translate(-565.29448,-880.02081)">
    <text
       xml:space="preserve"
       style="font-style:normal;font-weight:normal;font-size:35.3633728px;line-height:1.25;font-family:sans-serif;letter-spacing:0px;word-spacing:0px;fill:#e1151f;fill-opacity:1;stroke:#e1151f;stroke-width:4.24360466;stroke-miterlimit:4;stroke-dasharray:none;stroke-opacity:1"
       id="text840"
       x="-283.74991"
       y="-1252.0177"><tspan
         id="tspan838"
         style="font-style:normal;font-variant:normal;font-weight:normal;font-stretch:normal;font-size:74.31842041px;font-family:FreeSans;-inkscape-font-specification:'FreeSans, Normal';font-variant-ligatures:normal;font-variant-caps:normal;font-variant-numeric:normal;font-feature-settings:normal;text-align:start;letter-spacing:0.88408422px;writing-mode:lr-tb;text-anchor:start;fill:#e1151f;fill-opacity:1;stroke:#e1151f;stroke-width:4.24360466;stroke-miterlimit:4;stroke-dasharray:none;stroke-opacity:1">PARTITO DEMOCRATICO DELLA SINISTRA</tspan></text>
    <rect
       style="fill:#ffffff;fill-opacity:1;stroke-width:1.48046374"
       id="rect78"
       width="208.20001"
       height="208.20001"
       x="565.29449"
       y="880.02081" />
    <path
       style="fill:#ff0000;fill-opacity:1;stroke-width:0.30000001"
       d="m 565.29448,880.02082 c 69.4,0 138.8,0 208.2,0 0,69.39999 0,138.79998 0,208.19998 -69.4,0 -138.8,0 -208.2,0 0,-69.4 0,-138.79999 0,-208.19998 z m 51.15,178.32848 c 8.38987,-1.4593 14.83515,-5.514 17.56394,-11.0494 3.7331,-7.5727 2.24896,-16.3365 -3.56919,-21.0759 -3.62485,-2.9528 -8.413,-4.6813 -19.80776,-7.1504 -7.28611,-1.5788 -9.00621,-2.144 -10.64926,-3.4992 -3.33612,-2.7517 -2.3664,-7.5152 1.98152,-9.7337 4.40551,-2.2479 11.20409,-2.149 16.04325,0.2333 2.20561,1.0858 5.36816,3.8703 6.58696,5.7995 0.4678,0.7404 0.96422,1.3465 1.10318,1.3468 0.13894,3e-4 2.39043,-1.5791 5.00329,-3.5097 4.31492,-3.1883 4.72172,-3.5667 4.43518,-4.125 -0.73428,-1.4308 -6.4762,-6.64912 -8.80406,-8.00132 -5.54814,-3.2228 -8.6936,-4.0001 -16.18705,-4.0001 -4.99447,0 -6.0342,0.087 -8.4,0.6984 -6.86676,1.7762 -11.82281,5.3709 -14.34004,10.40112 -3.33871,6.6717 -2.16663,15.1919 2.702,19.6416 3.468,3.1695 7.01766,4.5522 18.03296,7.0241 11.31047,2.5382 13.28602,3.3549 14.48114,5.9866 1.14071,2.5119 0.56122,5.311 -1.53549,7.4169 -2.49763,2.5085 -7.11125,3.6032 -12.70094,3.0136 -6.67634,-0.7042 -11.74964,-3.2525 -15.00853,-7.5388 -0.64289,-0.8455 -1.33119,-1.4751 -1.52956,-1.399 -0.19836,0.076 -2.47065,1.5962 -5.04953,3.378 l -4.68888,3.2396 0.66844,1.1224 c 3.38975,5.692 11.13055,10.3742 19.45912,11.7704 3.50384,0.5874 10.86059,0.5927 14.20931,0.01 z m 52.44014,-1.0079 c 3.42599,-0.8839 6.26835,-2.4974 8.74532,-4.9645 l 2.11454,-2.1061 2.70729,2.7577 c 3.17515,3.2342 5.87915,4.7497 9.06771,5.0823 l 1.875,0.1955 v -2.7521 c 0,-2.9576 0.0608,-2.8525 -1.83188,-3.1655 -1.67428,-0.2768 -3.62621,-1.7594 -6.00432,-4.5605 -2.02059,-2.38 -2.15157,-2.6183 -1.84672,-3.3595 0.18047,-0.4388 0.82505,-1.9181 1.4324,-3.2872 1.09076,-2.4589 2.01059,-6.2381 2.40612,-9.8857 l 0.20331,-1.875 h -2.84736 c -3.19046,0 -3.21155,0.015 -3.21155,2.2336 0,1.623 -0.42573,3.9096 -1.24554,6.6897 l -0.64085,2.1733 -1.45925,-1.8733 c -1.79619,-2.3058 -11.65536,-16.8802 -11.65174,-17.2242 0.002,-0.137 0.8452,-0.7872 1.875,-1.4449 1.02981,-0.6577 3.10367,-2.4127 4.60858,-3.9 2.18444,-2.1588 2.95527,-3.1632 3.82253,-4.9805 3.11945,-6.5366 1.24653,-13.21692 -4.45873,-15.90332 -6.25763,-2.9465 -13.95962,-1.0069 -17.06801,4.2983 -2.81903,4.81132 -1.90337,12.39112 2.22104,18.38582 0.52963,0.7697 0.84686,1.502 0.70496,1.6271 -0.14189,0.1251 -1.54049,1.089 -3.10799,2.1419 -1.5675,1.0528 -4.065,3.1321 -5.55,4.6204 -4.34807,4.358 -6.11308,8.0617 -6.3743,13.3762 -0.0807,1.642 0.0107,3.6011 0.21367,4.5787 0.85098,4.0992 4.30927,8.8024 8.15151,11.0859 2.00861,1.1937 4.9469,2.2181 7.55362,2.6335 2.33159,0.3715 6.95574,0.083 9.59564,-0.5976 z m -8.64014,-4.807 c -4.17563,-0.8969 -7.80517,-3.4308 -9.45363,-6.5997 -1.10637,-2.1269 -1.49758,-5.9937 -0.87821,-8.6803 0.86245,-3.7411 4.14593,-7.8051 8.98232,-11.1176 1.45827,-0.9988 2.72835,-1.816 2.8224,-1.816 0.094,0 2.3344,3.241 4.97854,7.2022 2.64416,3.9612 5.96935,8.8541 7.38933,10.8731 l 2.58177,3.6709 -1.96092,1.8216 c -2.14329,1.9911 -4.56829,3.4127 -7.07945,4.1502 -1.99805,0.5868 -5.77649,0.8405 -7.38215,0.4956 z m 2.13165,-38.1885 c -2.42047,-4.3317 -2.73165,-5.263 -2.73165,-8.175 0,-2.4032 0.0904,-2.8539 0.82234,-4.0989 1.09618,-1.8647 2.48388,-2.68462 4.86771,-2.87602 2.59896,-0.2086 3.88342,0.088 5.13404,1.18622 1.74551,1.5326 2.32111,2.9913 2.15906,5.4717 -0.16129,2.4688 -0.88174,4.0778 -2.72946,6.0958 -1.28462,1.403 -5.36576,4.2712 -6.0775,4.2712 -0.21825,0 -0.8683,-0.8438 -1.44454,-1.875 z m 71.62989,41.993 c 5.5804,-1.5112 10.28774,-4.3653 13.38958,-8.1183 1.99798,-2.4173 4.30937,-7.1292 5.24873,-10.6998 2.49678,-9.4903 1.28142,-21.6569 -2.90688,-29.0999 -3.34724,-5.9484 -8.3753,-9.96822 -15.13362,-12.09912 -4.03145,-1.271 -6.45324,-1.4289 -20.50935,-1.3366 l -13.05,0.086 -0.0764,31.14482 -0.0764,31.1449 15.0764,-0.1099 15.0764,-0.1098 z m -21.11154,-30.2525 v -20.4344 l 7.125,0.1524 c 7.78135,0.1664 9.16516,0.3967 12.50611,2.0819 2.3898,1.2054 5.14901,4.037 6.36995,6.5371 3.53787,7.2444 3.16872,20.5304 -0.72531,26.1042 -3.2137,4.6 -7.59927,5.9932 -18.86505,5.9932 h -6.4107 z"
       id="path76"
       inkscape:connector-curvature="0"
       sodipodi:nodetypes="cccccccccccccscccscccccccccccccccccccccsccccccssccccccccccccccccccccccscscccccscccscsccccccccccccccccccsscc" />
  </g>
</svg>
