<svg style="display: none;" xmlns="http://www.w3.org/2000/svg" xmlns:xlink="http://www.w3.org/1999/xlink">
    <symbol id="thumb" viewBox="0 0 20 20">
        <path d="M2 10.5a1.5 1.5 0 113 0v6a1.5 1.5 0 01-3 0v-6zM6 10.333v5.43a2 2 0 001.106 1.79l.05.025A4 4 0 008.943 18h5.416a2 2 0 001.962-1.608l1.2-6A2 2 0 0015.56 8H12V4a2 2 0 00-2-2 1 1 0 00-1 1v.667a4 4 0 01-.8 2.4L6.8 7.933a4 4 0 00-.8 2.4z" />
    </symbol>
    <symbol id="close" viewBox="0 0 20 20">
      <path d="M6.28 5.22a.75.75 0 0 0-1.06 1.06L8.94 10l-3.72 3.72a.75.75 0 1 0 1.06 1.06L10 11.06l3.72 3.72a.75.75 0 1 0 1.06-1.06L11.06 10l3.72-3.72a.75.75 0 0 0-1.06-1.06L10 8.94 6.28 5.22Z" />
    </symbol>
    <symbol id="chevron-down" viewBox="0 0 20 20">
      <path d="M5.22 8.22a.75.75 0 0 1 1.06 0L10 11.94l3.72-3.72a.75.75 0 1 1 1.06 1.06l-4.25 4.25a.75.75 0 0 1-1.06 0L5.22 9.28a.75.75 0 0 1 0-1.06Z" />
    </symbol>
    <symbol id="external-link" viewBox="0 0 20 20">
      <path d="M4.25 5.5a.75.75 0 0 0-.75.75v8.5c0 .414.336.75.75.75h8.5a.75.75 0 0 0 .75-.75v-4a.75.75 0 0 1 1.5 0v4A2.25 2.25 0 0 1 12.75 17h-8.5A2.25 2.25 0 0 1 2 14.75v-8.5A2.25 2.25 0 0 1 4.25 4h5a.75.75 0 0 1 0 1.5h-5Z" />
      <path d="M6.194 12.753a.75.75 0 0 0 1.06.053L16.5 4.44v2.81a.75.75 0 0 0 1.5 0v-4.5a.75.75 0 0 0-.75-.75h-4.5a.75.75 0 0 0 0 1.5h2.553l-9.056 8.194a.75.75 0 0 0-.053 1.06Z" />
    </symbol>
</svg>
