<svg xmlns="http://www.w3.org/2000/svg" xmlns:xlink="http://www.w3.org/1999/xlink" width="900" height="600"><path fill="#fff" d="M0 0h900v600H0z"/><path id="a" d="M463 507v-1l-2-1-5-6-6-8-1-1-7-2-6-3 3-3 10 4 8 2 15 10a140 140 0 00-9 9m-53-16c-7 0-14-2-20-6l3-3c2-1 5-3 11-3 7 0 15 2 24 7-5 3-12 5-18 5zm-30-7l-3-1-1-3-1-4 2-1c3 0 5 3 5 5l1 3-3 1zm52-6c-17-2-25-9-28-13-2-3-3-7-2-10l2-1c5 0 17 3 28 24zm-36-3c-7 0-13-1-16-4l-4-4-1-2a23 23 0 019-2c6 0 15 2 24 11l-12 1zm-35-2c-8 0-19-2-26-9a78 78 0 0117-2c8 0 13 2 17 4l2 3-1 2c-2 2-5 2-9 2zm-26-13l-2-1-1-2-1-4h2l2 1 2 3v2l-2 1zm59-1l-3-1-2-3v-4l1-1h1c2 0 4 2 5 5v3l-2 1zm-29-1c-15-1-24-5-28-9l-4-5-1-3h4c6 0 17 2 29 17zm17-2c-12-2-19-7-23-11-3-3-4-6-5-9h4c7 0 18 3 24 20zm-65-6l-12-1c-6-2-9-4-10-6l-1-3v-1l10-1h1l8 1c7 1 13 5 16 10l-12 1zm30-10l-3-2-2-3v-4h1c3 0 5 2 6 4v3l-2 2zm-22-3c-5-2-9-3-12-6-6-3-13-9-13-19h1c2 0 5 1 9 4 6 4 10 11 15 21zm14-1l-9-6c-8-6-13-14-17-23a8 8 0 014-1c2 0 6 1 10 5 4 5 9 14 12 25zm-37-1c-5 0-7-3-7-4l-1-4h3c3 0 6 1 8 4v3l-3 1zm-11-14l-11-1c-4 0-7-4-8-7l-2-6c13 0 20 4 23 7l3 7h-5zm14-13l-3-5c-2-2-3-5-3-7l-1-8-1-6c1 0 9 3 9 11l-1 15zm-10-1h-1l-11-5c-5-3-9-6-11-9-3-2-4-6-4-11v-8h1l6 3 7 5 7 8a119 119 0 016 15v2h-1 1z" fill="#4e5b31"/><use xlink:href="#a" transform="matrix(-1 0 0 1 900 0)"/><path d="M727 104l-2 1h-4l-3 1-4 4h-5v2l-1 1-1 1h-4l-3 2-4-1-2 1-4 3-3 1h-3l-1 1-2 1-3 1h-1l-2 4-2 1-1 1-1-1h-1v2l-1 1-2 1-2 1-1 1h-3l-2 1-4 1-1 1-1 1h-1l-1 1h-3l-1-1-1 1h-2l-2-1h-3v2l-1 1-2 2h-1l-2 3-5 5-4 2-4 2-3 2-7 4-12 6h-3l-3 1-7 2-5 2h-2l-7 3-4-1-2 1h-12l-5 2-8 4-2 3-4 2-5 1v-2l-2 1h-1l-4 1h-2l-1-1-8 3-9 1-4 1h-3l-2 1h-26l-4-1-6-1-2-1h-9v-1l-3 1h-1l-1-1h-3l-2-2-9 1h-3l-8-3h-1l-2 2h-3l-2 1h-3l-3-1-4-2h-4l-1 1-6-3-7-5-5-2h-2l1 3 1 3v3l-1 1 1 2 2 2v1l1 6v5l-1 9v1l-1 4-1 4-4 11-1 2-2 1-5 4-4 2-2 1h-5l-2-1-3-1-3-2-4-1-4-2-1-2h-2l-3-1h-6l-3-2h-2l-2-1-3 2h-4l-2 2-1 1h-3l-1 1h-3v1h-1l-2-1v-1h-2v3l-1 1-2 2-2 2-1 2-4 8-2 4h-1l-2 3-3 2-4 4-5 1-4 1h-6l-3-1-4-3-4-3-6-6h-1l-1-1h-2v1l-1 1v10l4 6 2 4 1 2 1 1 1 4-1 3 1 2-2 1v1l4 5 1 2-1 3-2 2v2l2 1 3 3 2 4 1 1h1l1 1h1l2 1 2 1 1 1v4l2 5v3l1 2v5l1 2 2-1 1 1 1 1 2 3h3l6 6h2l1 1 1 1 2-1 2-1 1 1 1 1h3l5 2h2l4 3 2 1 1 1 1 1 3 1 3 1h1l1 1v-1 1l5 2h3l3 1 2 1h1l2-2h2l2 1 1-1 3-1v-1l2-1 6-1 2 1 4-2 3 1 3-1 5 1 2 1 2 2h2l-1 2 2 2 3 4 2 5 1 2 1 2v2l-2 1v1h1l1-1h3l1 1 3-1 1-1 2 1h4l3 2h1l1-1v-1l-1-2-3-3-1-1v-2l-1-3v-2l1-3 1-2v-1l1-2 4-2 4-4 3-2 3-1v-1h1l8-2 4-1 25 2 1-1 1-2v-1l3-1h1l4 1h1l3-1h1l4-2h3l4-3 4-1 1-1 4-2 3-2 2-1 3-1h6l1-2 3-1 2-2 1-1 2-1 1-2 2-1h12l1-5 1-1 4-5v-4l1-3-1-4 1-5 2-5 2-2 4-3h2l2-1h15l7 1h1l2 1 3 2 3 3h1l1 1h3l2-1 2-1 2-2 1-2h1l4-2 5-1h1l2-2h1l3 2 2-1 2 1h1l3-1 3 2h1l6 4h1l1-1h1v1l1 1 1-2v-1h-2l-2-3 2-2-3-3-1-1-1-2-4-7-7-5-2-1v-1h-1l-3-3-2-4-1-1-1-3-3-2-2-3-4-5-1-1-1-1h-2l1-1h1l1-2-3-6v-2l2-9v-1l3-6 2-1 2-4 2-3 1-1h1l2-2h3l2-1 4 2 4-1h3l3-1 1-1 1-1 1-5 1-1 1-2 5-6 4-4 9-6 4-3 3-1 20-9 5-6 3-2 5-4 5-2 5-4 1-1 1-4 2-1 1-2v-1l4-2v-1l16-7h2l1-2h5v-1h2v-2l1-4 1-2v-2l1-1v-1l1-1z" fill="#d57800"/></svg>
