<svg xmlns="http://www.w3.org/2000/svg" height="500" width="750"><path fill="#c60b1e" d="M0 0h750v500H0z"/><path fill="#ffc400" d="M0 125h750v250H0z"/><g font-size="12"><path d="M250 225l-29-4c8-2 18-3 29-3s21 1 29 3l-29 4" fill="#b50027"/><path d="M225 200l2-2c2 0 3 1 3 2 0 2-1 2-3 2-1 0-2 0-2-2z" fill="none" stroke="#000" stroke-width=".04200400000000001"/><path d="M250 183l16 2 8 2 7 1c3 0 7 0 11 2l8 5-2 1v4l-5 5-2 2-5 4h-2l-1 3-33-4-33 4-1-3h-3l-5-4-2-2-4-5v-4l-2-1 8-5c4-2 8-2 10-2a33 33 0 0016-3l16-2z" fill="#b50027" stroke="#000" stroke-width=".252024"/><g stroke-width="1.1" fill="none" stroke="#000"><path d="M193 230v-7M192 230v-7" stroke-width=".1" transform="matrix(1.12751 0 0 1.17454 37 -45)"/><path d="M190 230v-7M188 230v-7M187 230v-7M184 229v-6m1 6v-6" stroke-width=".3" transform="matrix(1.12751 0 0 1.17454 37 -45)"/><path d="M181 229v-6m2 6v-6M178 229v-5m1 5v-5m1 5v-5" stroke-width=".5" transform="matrix(1.12751 0 0 1.17454 37 -45)"/><path d="M177 229v-5M176 229v-5M174 229v-5M172 228v-4m1 4v-4" stroke-width=".8" transform="matrix(1.12751 0 0 1.17454 37 -45)"/><path d="M171 228v-4M169 228v-3M168 227v-2M167 227v-2M165 227v-2" transform="matrix(1.12751 0 0 1.17454 37 -45)"/><path d="M200 229v-6m-3 6v-6m-2 6v-6" stroke-width=".1" transform="matrix(1.12751 0 0 1.17454 37 -45)"/></g><path d="M250 216c-12 0-23 2-31 4l-1 1 1 1c8 3 19 4 31 4s23-1 31-4l1-1-1-1c-8-2-19-4-31-4zm0 2c11 0 21 1 29 3a119 119 0 01-58 0c8-2 18-3 29-3z" fill="#a07e00" stroke="#000" stroke-width=".399038"/><path d="M250 216c-12 0-23 2-31 4l-1-3c0-3-2-3-2-3 9-2 21-4 34-4 14 0 26 2 34 4l-2 3v3c-8-2-20-4-32-4" fill="#a07e00" stroke="#000" stroke-width=".399038"/><path d="M250 210c-13 0-25 2-34 4h-1v-2c9-2 21-4 35-4s26 2 35 4l1 2h-2c-8-2-20-4-34-4" fill="#a07e00" stroke="#000" stroke-width=".399038"/><path d="M241 213l1-1 1 1-1 1-1-1" fill="#fff" stroke="#000" stroke-width=".399038"/><path d="M250 214h-3l-1-1 1-1h6l2 1-2 1h-3" fill="#b50027" stroke="#000" stroke-width=".399038"/><path d="M234 215h-3l-1-1 1-1h5l1 1-1 1h-2" fill="#046d44" stroke="#000" stroke-width=".399038"/><path d="M224 215l1-1 1 1-1 1-1-1" fill="#fff" stroke="#000" stroke-width=".399038"/><path d="M217 217l1-1h3l-2 2-2-1h0z" fill="#b50027" stroke="#000" stroke-width=".399038"/><path d="M267 215h2l1-1-1-1h-5l-1 1 1 1h3" fill="#046d44" stroke="#000" stroke-width=".399038"/><path d="M258 213l1-1 1 1-1 1-1-1M274 215l1-1 1 1-1 1-1-1" fill="#fff" stroke="#000" stroke-width=".399038"/><path d="M284 217l-2-1h-3l3 2 1-1h1z" fill="#b50027" stroke="#000" stroke-width=".399038"/><path d="M225 191l2 2 2-4a8 8 0 01-4-7c0-5 6-8 12-8l9 2v-2l-9-2c-7 0-13 4-14 10a9 9 0 003 8l-1 1" fill="#c8b100"/><path d="M225 191l2 2 2-4a8 8 0 01-4-7c0-5 6-8 12-8l9 2v-2l-9-2c-7 0-13 4-14 10a9 9 0 003 8l-1 1" fill="#a07e00" stroke="#000" stroke-width=".399038"/><path d="M225 191c-2-2-4-4-4-7 0-4 2-7 6-9a9 9 0 00-4 8c0 2 1 5 3 7l-1 1" fill="#c8b100"/><path d="M225 191c-2-2-4-4-4-7 0-4 2-7 6-9a9 9 0 00-4 8c0 2 1 5 3 7l-1 1" fill="#a07e00" stroke="#000" stroke-width=".399038"/><path d="M202 195a9 9 0 01-1-10c2-5 9-8 17-8l6 1-1 1h-5c-8 0-14 3-16 7v3l2 6-2 4-2-1 2-3" fill="#c8b100"/><path d="M202 195a9 9 0 01-1-10c2-5 9-8 17-8l6 1-1 1h-5c-8 0-14 3-16 7v3l2 6-2 4-2-1 2-3h0z" fill="#a07e00" stroke="#000" stroke-width=".399038"/><path d="M205 180l-4 5a9 9 0 001 10l-1 2-3-6c0-4 3-8 7-11" fill="#c8b100"/><path d="M205 180l-4 5a9 9 0 001 10l-1 2-3-6c0-4 3-8 7-11z" fill="#a07e00" stroke="#000" stroke-width=".399038"/><path d="M250 171c2 0 3 1 4 3v6l1 8-5 5-5-5 1-8v-1-5c1-2 2-3 4-3" fill="#c8b100"/><path d="M250 171c2 0 3 1 4 3v5s0 0 0 0v1l1 8-5 5-5-5 1-8v-1s0 0 0 0v-5c1-2 2-3 4-3h0z" fill="#a07e00" stroke="#000" stroke-width=".399038"/><path d="M250 173l2 1v6l2 8-4 3-4-3 2-8v-1-5l2-1" fill="#c8b100"/><path d="M250 173l2 1v5s0 0 0 0v1l2 8-4 3-4-3 2-8v-1s0 0 0 0v-5l2-1z" fill="#a07e00" stroke="#000" stroke-width=".399038"/><path d="M275 191l-2 2-2-4a8 8 0 004-7c0-5-6-8-12-8l-9 2v-2l9-2c7 0 13 4 14 10v1c0 2-1 5-3 7l1 1" fill="#c8b100"/><path d="M275 191l-2 2-2-4a8 8 0 004-7c0-5-6-8-12-8l-9 2v-2l9-2c7 0 13 4 14 10v1c0 2-1 5-3 7l1 1" fill="#a07e00" stroke="#000" stroke-width=".399038"/><path d="M275 191c2-2 4-4 4-7 0-4-2-7-6-9a9 9 0 014 8c0 2-1 5-3 7l1 1" fill="#c8b100"/><path d="M275 191c2-2 4-4 4-7 0-4-2-7-6-9a9 9 0 014 8c0 2-1 5-3 7l1 1" fill="#a07e00" stroke="#000" stroke-width=".399038"/><path d="M298 195a9 9 0 001-10c-2-5-9-8-16-8l-7 1 1 1h6c7 0 13 3 15 7v3l-2 6 2 4 2-1-2-3" fill="#c8b100"/><path d="M298 195a9 9 0 001-10c-2-5-9-8-16-8l-7 1 1 1h6c7 0 13 3 15 7v3l-2 6 2 4 2-1-2-3h0z" fill="#a07e00" stroke="#000" stroke-width=".399038"/><path d="M295 180l4 5a9 9 0 01-1 10l1 2 3-6c0-4-3-8-7-11" fill="#c8b100"/><path d="M295 180l4 5a9 9 0 01-1 10l1 2 3-6c0-4-3-8-7-11z" fill="#a07e00" stroke="#000" stroke-width=".399038"/><path d="M248 189l2-2 2 2-2 2-2-2" fill="#fff"/><path d="M248 189l2-2 2 2-2 2-2-2z" fill="none" stroke="#000" stroke-width=".399038"/><path d="M248 185l2-1 2 1-2 2-2-2M249 182l1-2 2 2-2 1-1-1M249 178l1-1 1 1-1 1-1-1M249 175l1-1 1 1-1 1-1-1" fill="#fff" stroke="#000" stroke-width=".399038"/><path d="M250 200h1v2c0 2 2 4 5 4 2 0 4-1 5-3v-2l1 2c0 2 2 4 5 4a5 5 0 004-5l2-2 1 2-1 2c0 3 2 5 5 5l4-2 1-1v1c0 2 1 3 2 3l4-1 4-4v2l-4 4c-1 1-3 2-4 1-2 0-3-1-3-2l-4 1c-3 0-5-2-6-4l-5 2c-3 0-5-1-6-3-1 2-3 2-5 2s-5-1-6-3c-1 2-3 3-6 3-2 0-3 0-5-2a7 7 0 01-10 1c-1 2-4 4-7 4l-3-1-3 2c-2 1-3 0-4-1-3-1-4-4-4-4v-2l3 4 4 1c2 0 2-1 2-3v-1l1 1 4 2c3 0 5-2 5-5v-4l2 2s0 0 0 0c0 3 2 5 5 5 2 0 4-2 5-4v-2l1 2c0 2 2 3 4 3a5 5 0 005-6h1" fill="#a07e00" stroke="#000" stroke-width=".399038"/><path d="M284 206l-1-2-1 1v2l2-1M263 202l-1-2-2 1 1 2 2-1M238 202l1-2 1 1-1 2-1-1M216 206l1-2 2 1-1 2-2-1" fill="#fff" stroke="#000" stroke-width=".399038"/><path d="M226 192c1 0 2 1 2 3l1-1h1v1l-1 2v2h-2l-1 1-2-2-1-2v-1h2l1-3M226 202l-1-1 1-1-2-1h-4 1v1l-3 2 4 1v1h-1 2l2-1 1-1M229 201a2 2 0 000-2l1-1 2-1 1-1v2l4 1-3 2a7 7 0 000 1h-1-2l-2-1" fill="#a07e00" stroke="#000" stroke-width=".399038"/><path d="M225 200l2-2c2 0 3 1 3 2 0 2-1 2-3 2-1 0-2 0-2-2" fill="#b50027" stroke="#000" stroke-width=".399038"/><path d="M250 188l2 4h1l1-1v2l-1 2-1 2-2-1-2 1-1-2v-2l-1-2 1 1h1l2-4M248 200v-2-1l-1-1-3-1h-1v2l-3 1 3 2v2h1l3-1 1-1M252 200v-2-1l2-1 2-1h2l-1 1v1l4 1-4 2v1l1 1h-2l-2-1-2-1M275 192l-3 3v-1h-1v3l1 2h1l2 1 1-2 1-2 1-1h-2l-1-3M274 202l1-1v-1l1-1h4s0 0 0 0l-1 1 3 2-3 1v1s0 0 0 0h-1l-2-1-2-1M271 201v-1l1-1-2-1-2-1-1-1v2l-3 1 3 2-1 1s0 0 0 0h4l1-1" fill="#a07e00" stroke="#000" stroke-width=".399038"/><path d="M271 200l2-2 2 2c0 2-1 2-2 2s-2 0-2-2M295 205h-2l-1 2h3v-2" fill="#b50027" stroke="#000" stroke-width=".399038"/><path d="M292 206l1-1h2s0 0 0 0l3-3h3c0-2-1-3-3-3l-2 1-1-1-2 2v2l-3-2h-1s0 0 0 0v1l-4 1 3 2-1 1h-1 6M208 206v-1h-3s0 0 0 0l-2-3h-4c0-2 2-3 3-3l3 1v-1l2 2v4l1-2 2-2h2s0 0 0 0v1l3 1-2 2 1 1s0 0 0 0h-4-2" fill="#a07e00" stroke="#000" stroke-width=".399038"/><path d="M205 205h3v2h-2l-1-2M248 198l2-2 2 2c0 2-1 3-2 3s-2-1-2-3" fill="#b50027" stroke="#000" stroke-width=".399038"/><path d="M246 167c0-2 2-4 4-4s4 2 4 4c0 3-2 4-4 4s-4-1-4-4" fill="#0044ad" stroke="#000" stroke-width=".252024"/><path d="M249 156v2h-3v2h3v7h-3s0 0 0 0v2s0 0 0 0h8s0 0 0 0v-2s0 0 0 0h-3v-7h3v-2h-3v-2h-2z" fill="#a07e00" stroke="#000" stroke-width=".252024"/><path d="M300 199l1-1 1 1-1 1-1-1" fill="#fff"/><path d="M300 199l1-1 1 1-1 1-1-1z" fill="none" stroke="#000" stroke-width=".399038"/><path d="M301 196l2-1 1 1-1 1-2-1" fill="#fff"/><path d="M301 196l2-1 1 1-1 1-2-1z" fill="none" stroke="#000" stroke-width=".399038"/><path d="M302 193l2-1 1 1-1 1-2-1" fill="#fff"/><path d="M302 193l2-1 1 1-1 1-2-1z" fill="none" stroke="#000" stroke-width=".399038"/><path d="M303 190l1-1 1 1-1 1-1-1" fill="#fff"/><path d="M303 190l1-1 1 1-1 1-1-1z" fill="none" stroke="#000" stroke-width=".399038"/><path d="M302 186l1-1 1 1-1 1-1-1" fill="#fff"/><path d="M302 186l1-1 1 1-1 1-1-1z" fill="none" stroke="#000" stroke-width=".399038"/><path d="M300 183l1-1 1 1-1 1-1-1" fill="#fff"/><path d="M300 183l1-1 1 1-1 1-1-1z" fill="none" stroke="#000" stroke-width=".399038"/><path d="M298 181l1-1 1 1-1 1-1-1" fill="#fff"/><path d="M298 181l1-1 1 1-1 1-1-1z" fill="none" stroke="#000" stroke-width=".399038"/><path d="M295 179l1-1 1 1-1 1-1-1" fill="#fff"/><path d="M295 179l1-1 1 1-1 1-1-1z" fill="none" stroke="#000" stroke-width=".399038"/><path d="M292 177l1-1 1 1-1 1-1-1" fill="#fff"/><path d="M292 177l1-1 1 1-1 1-1-1z" fill="none" stroke="#000" stroke-width=".399038"/><path d="M289 176l1-1 1 1-1 1-1-1" fill="#fff"/><path d="M289 176l1-1 1 1-1 1-1-1z" fill="none" stroke="#000" stroke-width=".399038"/><path d="M285 176l1-2 1 2-1 1-1-1" fill="#fff"/><path d="M285 176l1-2 1 2-1 1-1-1z" fill="none" stroke="#000" stroke-width=".399038"/><path d="M282 175l1-1 1 1-1 1-1-1" fill="#fff"/><path d="M282 175l1-1 1 1-1 1-1-1z" fill="none" stroke="#000" stroke-width=".399038"/><path d="M278 175l2-1 1 1-1 2-2-2" fill="#fff"/><path d="M278 175l2-1 1 1-1 2-2-2z" fill="none" stroke="#000" stroke-width=".399038"/><path d="M275 175l1-1 1 1-1 2-1-2" fill="#fff"/><path d="M275 175l1-1 1 1-1 2-1-2z" fill="none" stroke="#000" stroke-width=".399038"/><path d="M277 178l1-1 1 1-1 1-1-1M277 182l2-1 1 1-1 1-2-1M278 185l1-1 1 1-1 1-1-1M277 188l1-1 1 1-1 1-1-1M275 190l1-1 1 1-1 1-1-1" fill="#fff" stroke="#000" stroke-width=".399038"/><path d="M273 173l1-1 1 1-1 1-1-1" fill="#fff"/><path d="M273 173l1-1 1 1-1 1-1-1z" fill="none" stroke="#000" stroke-width=".399038"/><path d="M270 172l1-1 1 1-1 1-1-1" fill="#fff"/><path d="M270 172l1-1 1 1-1 1-1-1z" fill="none" stroke="#000" stroke-width=".399038"/><path d="M266 171l1-1 1 1-1 1-1-1" fill="#fff"/><path d="M266 171l1-1 1 1-1 1-1-1z" fill="none" stroke="#000" stroke-width=".399038"/><path d="M263 170l1-1 1 1-1 1-1-1" fill="#fff"/><path d="M263 170l1-1 1 1-1 1-1-1z" fill="none" stroke="#000" stroke-width=".399038"/><path d="M259 170l2-1 1 1-1 1-2-1" fill="#fff"/><path d="M259 170l2-1 1 1-1 1-2-1z" fill="none" stroke="#000" stroke-width=".399038"/><path d="M256 171l1-1 1 1-1 1-1-1" fill="#fff"/><path d="M256 171l1-1 1 1-1 1-1-1z" fill="none" stroke="#000" stroke-width=".399038"/><path d="M253 172l1-1 1 1-1 1-1-1" fill="#fff"/><path d="M253 172l1-1 1 1-1 1-1-1z" fill="none" stroke="#000" stroke-width=".399038"/><path d="M198 199l1-1 1 1-1 1-1-1" fill="#fff"/><path d="M198 199l1-1 1 1-1 1-1-1z" fill="none" stroke="#000" stroke-width=".399038"/><path d="M196 196l1-1 2 1-2 1-1-1" fill="#fff"/><path d="M196 196l1-1 2 1-2 1-1-1z" fill="none" stroke="#000" stroke-width=".399038"/><path d="M195 193l1-1 2 1-2 1-1-1" fill="#fff"/><path d="M195 193l1-1 2 1-2 1-1-1z" fill="none" stroke="#000" stroke-width=".399038"/><path d="M195 190l1-1 1 1-1 1-1-1" fill="#fff"/><path d="M195 190l1-1 1 1-1 1-1-1z" fill="none" stroke="#000" stroke-width=".399038"/><path d="M196 186l1-1 1 1-1 1-1-1" fill="#fff"/><path d="M196 186l1-1 1 1-1 1-1-1z" fill="none" stroke="#000" stroke-width=".399038"/><path d="M198 183l1-1 1 1-1 1-1-1" fill="#fff"/><path d="M198 183l1-1 1 1-1 1-1-1z" fill="none" stroke="#000" stroke-width=".399038"/><path d="M200 181l1-1 1 1-1 1-1-1" fill="#fff"/><path d="M200 181l1-1 1 1-1 1-1-1z" fill="none" stroke="#000" stroke-width=".399038"/><path d="M203 179l1-1 1 1-1 1-1-1" fill="#fff"/><path d="M203 179l1-1 1 1-1 1-1-1z" fill="none" stroke="#000" stroke-width=".399038"/><path d="M206 177l1-1 1 1-1 1-1-1" fill="#fff"/><path d="M206 177l1-1 1 1-1 1-1-1z" fill="none" stroke="#000" stroke-width=".399038"/><path d="M209 176l1-1 1 1-1 1-1-1" fill="#fff"/><path d="M209 176l1-1 1 1-1 1-1-1z" fill="none" stroke="#000" stroke-width=".399038"/><path d="M213 176l1-2 1 2-1 1-1-1" fill="#fff"/><path d="M213 176l1-2 1 2-1 1-1-1z" fill="none" stroke="#000" stroke-width=".399038"/><path d="M216 175l1-1 1 1-1 1-1-1" fill="#fff"/><path d="M216 175l1-1 1 1-1 1-1-1z" fill="none" stroke="#000" stroke-width=".399038"/><path d="M219 175l1-1 2 1-2 2-1-2" fill="#fff"/><path d="M219 175l1-1 2 1-2 2-1-2z" fill="none" stroke="#000" stroke-width=".399038"/><path d="M223 175l1-1 1 1-1 2-1-2" fill="#fff"/><path d="M223 175l1-1 1 1-1 2-1-2z" fill="none" stroke="#000" stroke-width=".399038"/><path d="M221 178l1-1 1 1-1 1-1-1M220 182l1-1 2 1-2 1-1-1M220 185l1-1 1 1-1 1-1-1M221 188l1-1 1 1-1 1-1-1M223 190l1-1 1 1-1 1-1-1" fill="#fff" stroke="#000" stroke-width=".399038"/><path d="M225 173l1-1 2 1-2 1-1-1" fill="#fff"/><path d="M225 173l1-1 2 1-2 1-1-1z" fill="none" stroke="#000" stroke-width=".399038"/><path d="M228 172l1-1 2 1-2 1-1-1" fill="#fff"/><path d="M228 172l1-1 2 1-2 1-1-1z" fill="none" stroke="#000" stroke-width=".399038"/><path d="M232 171l1-1 1 1-1 1-1-1" fill="#fff"/><path d="M232 171l1-1 1 1-1 1-1-1z" fill="none" stroke="#000" stroke-width=".399038"/><path d="M235 170l1-1 1 1-1 1-1-1" fill="#fff"/><path d="M235 170l1-1 1 1-1 1-1-1z" fill="none" stroke="#000" stroke-width=".399038"/><path d="M238 170l2-1 1 1-1 1-2-1" fill="#fff"/><path d="M238 170l2-1 1 1-1 1-2-1z" fill="none" stroke="#000" stroke-width=".399038"/><path d="M242 171l1-1 1 1-1 1-1-1" fill="#fff"/><path d="M242 171l1-1 1 1-1 1-1-1z" fill="none" stroke="#000" stroke-width=".399038"/><path d="M245 172l1-1 1 1-1 1-1-1" fill="#fff"/><path d="M245 172l1-1 1 1-1 1-1-1z" fill="none" stroke="#000" stroke-width=".399038"/></g><g font-size="12"><path d="M325 220l-1 1h-2-1-1l-1 1-1-1-1 1h-1l-1-1-1-1v-1l3-2h2l3-1 3 1 3-1 3 1h2c2 1 3 1 2 2v2h-1v1h-1l-1-1-1 1-1-1h-2-1-1l-1-1" fill="#b50027"/><path d="M325 220l-1 1h-2-1-1l-1 1-1-1-1 1s0 0 0 0h-1l-1-1h0l-1-1v-1l3-2h2l3-1 3 1 3-1 3 1h2c2 1 3 1 2 2v2h-1v1h-1s0 0 0 0l-1-1-1 1-1-1h-2-1-1l-1-1h0z" fill="none" stroke="#000" stroke-width=".21002"/><path d="M323 216l2-2 1 2-1 2-2-2z" fill="#a07e00" stroke="#000" stroke-width=".21002"/><path d="M324 216l1-2 1 2-1 2-1-2z" fill="#a07e00" stroke="#000" stroke-width=".21002"/><path d="M318 224l-1-1 8-1 8 1-1 1v1l-7-1-7 1v-1" fill="#a07e00"/><path d="M318 224l-1-1 8-1 8 1-1 1v1l-7-1-7 1v-1h0" fill="none" stroke="#000" stroke-width=".21002"/><path d="M325 227l6-1 1-1-7-1-7 1 1 1 6 1" fill="#c8b100"/><path d="M325 227l6-1 1-1s0 0 0 0l-7-1-7 1s0 0 0 0l1 1 6 1z" fill="#a07e00" stroke="#000" stroke-width=".21002"/><path d="M331 217s0 0 0 0h0s0 0 0 0M330 215h1s0 0 0 0v1l-1-1zm-1 0l1-1v1s0 0 0 0h-1zm-1-1s0 0 0 0h1l-1 1v-1zm-1 0s0 0 0 0 0 0 0 0v0z" fill="#e6e6e6" stroke="#000" stroke-width=".21002"/><path d="M335 220a3 3 0 00-2-4h-2" fill="none" stroke="#000" stroke-linecap="round" stroke-width=".21002"/><path d="M330 218v-1l-2-2h-2" fill="none" stroke="#000" stroke-width=".21002"/><path d="M336 219v-1l1 1h-1s0 0 0 0zm-1-2h1s0 0 0 0 0 0 0 0h-1zm-1-1l1-1v1s0 0 0 0h-1zm-1-1h1s0 0 0 0v1l-1-1zm-1 0s0 0 0 0h1l-1 1v-1z" fill="#e6e6e6" stroke="#000" stroke-width=".21002"/><path d="M333 222l-1-1-1 1-1-1h-2-1-1l-1-1-1 1h-2-1-1l-1 1-1-1-1 1v1l8-1 7 1 1-1" fill="#a07e00"/><path d="M333 222l-1-1-1 1-1-1h-2-1-1l-1-1-1 1h-2-1-1l-1 1-1-1-1 1s0 0 0 0v1l8-1 7 1 1-1h0z" fill="none" stroke="#000" stroke-width=".21002"/><path d="M318 217s0 0 0 0h0s0 0 0 0zM318 215h1s0 0 0 0v1l-1-1zm1 0l1-1v1s0 0 0 0h-1zm2-1s0 0 0 0h1l-1 1v-1zm1 0h1s0 0 0 0v1l-1-1z" fill="#e6e6e6" stroke="#000" stroke-width=".21002"/><path d="M314 220v-1c0-2 1-3 3-3h1" fill="none" stroke="#000" stroke-linecap="round" stroke-width=".21002"/><path d="M320 218l-1-1c0-1 1-2 3-2h1" fill="none" stroke="#000" stroke-width=".21002"/><path d="M313 219l1-1v1s0 0 0 0h-1zm0-2h1s0 0 0 0 0 0 0 0h-1zm1-1l1-1v1s0 0 0 0h-1zm2-1s0 0 0 0h1l-1 1v-1zm1 0h1s0 0 0 0v1l-1-1z" fill="#e6e6e6" stroke="#000" stroke-width=".21002"/><path d="M325 219h0v1l1 1 1-1s0 0 0 0 0 0 0 0l2 1 1-1s0 0 0 0h0s0 0 0 0l1 1h1l1 1 1-1s0 0 0 0h1l-1 1h-2-1l-1-1-1 1-2-1-1 1-1-1a2 2 0 01-3 0l-1 1-1-1-1 1h-1-1-1l-1-1h1l1 1v-1h2l1-1s0 0 0 0h0s0 0 0 0l1 1 1-1s0 0 0 0 0 0 0 0l2 1a1 1 0 001-2h0z" fill="#a07e00" stroke="#000" stroke-width=".21002"/><path d="M325 222l-8 1 8-1 8 1-8-1" fill="#c8b100"/><path d="M325 222l-8 1s0 0 0 0 0 0 0 0l8-1 8 1s0 0 0 0 0 0 0 0l-8-1z" fill="#a07e00" stroke="#000" stroke-width=".21002"/><path d="M322 223h1l-1 1v-1" fill="#fff"/><path d="M322 223s0 0 0 0h1l-1 1v-1z" fill="#e6e6e6" stroke="#000" stroke-width=".21002"/><path d="M325 223h-1 2-1" fill="#b50027"/><path d="M325 223h-1s0 0 0 0 0 0 0 0h2s0 0 0 0 0 0 0 0h-1" fill="none" stroke="#000" stroke-width=".21002"/><path d="M320 224h-1v-1h2v1h-1" fill="#046d44"/><path d="M320 224h-1s0 0 0 0v-1h2s0 0 0 0v1h-1" fill="none" stroke="#000" stroke-width=".21002"/><path d="M317 224h1-1" fill="#b50027"/><path d="M317 224h0z" fill="none" stroke="#000" stroke-width=".21002"/><path d="M327 223h1l-1 1v-1" fill="#fff"/><path d="M327 223s0 0 0 0h1l-1 1v-1z" fill="#e6e6e6" stroke="#000" stroke-width=".21002"/><path d="M330 224h1l-1-1h-1v1h1" fill="#046d44"/><path d="M330 224h1l-1-1h0-1s0 0 0 0v1h1" fill="none" stroke="#000" stroke-width=".21002"/><path d="M332 224" fill="#b50027"/><path d="M332 224h0s0 0 0 0z" fill="none" stroke="#000" stroke-width=".21002"/><path d="M325 226l-6-1a27 27 0 0112 0l-6 1" fill="#b50027"/><path d="M325 226l-6-1a27 27 0 0112 0l-6 1z" fill="none" stroke="#000" stroke-linejoin="round" stroke-width=".21002"/><path d="M333 221l-1-1v1h1" fill="#c8b100"/><path d="M333 221l-1-1v1s0 0 0 0h1z" fill="#e6e6e6" stroke="#000" stroke-width=".21002"/><path d="M328 220l-1-1v1h1" fill="#c8b100"/><path d="M328 220l-1-1v1s0 0 0 0h1z" fill="#e6e6e6" stroke="#000" stroke-width=".21002"/><path d="M322 220v-1l1 1h-1" fill="#c8b100"/><path d="M322 220v-1l1 1h-1s0 0 0 0z" fill="#e6e6e6" stroke="#000" stroke-width=".21002"/><path d="M317 221v-1l1 1h-1" fill="#c8b100"/><path d="M317 221v-1l1 1s0 0 0 0h-1z" fill="#e6e6e6" stroke="#000" stroke-width=".21002"/><path d="M325 217l-1 1 1 1h0l1-1-1-1zM323 219v1l2-1h0-2s0 0 0 0zM327 219l-1 1-1-1h2zM319 218h0v1l1 1v-2h-1z" fill="#a07e00" stroke="#000" stroke-width=".21002"/><path d="M318 220h2v-1h-2v1zM322 219l-1 1h-1 0v-1h2zM317 220l-1 1h-1 0l1-1h1z" fill="#a07e00" stroke="#000" stroke-width=".21002"/><path d="M319 220l1-1v1h-1" fill="#c8b100"/><path d="M319 220l1-1v1s0 0 0 0h-1z" fill="#b50027" stroke="#000" stroke-width=".21002"/><path d="M330 218h1l-1 1v1-2s0 0 0 0z" fill="#a07e00" stroke="#000" stroke-width=".21002"/><path d="M332 220h-2 0v-1h2v1zM328 219v1h2v-1h-1-1z" fill="#a07e00" stroke="#000" stroke-width=".21002"/><path d="M333 220v1h2l-1-1h-1" fill="#c8b100"/><path d="M333 220v1h2l-1-1h-1z" fill="#a07e00" stroke="#000" stroke-width=".21002"/><path d="M324 219h1v1l-1-1" fill="#c8b100"/><path d="M324 219h1s0 0 0 0v1l-1-1z" fill="#b50027" stroke="#000" stroke-width=".21002"/><path d="M330 220v-1l1 1h-1" fill="#c8b100"/><path d="M330 220v-1l1 1h-1s0 0 0 0z" fill="#b50027" stroke="#000" stroke-width=".21002"/><path d="M326 214h-2 1v-2h-1 1v-1 1h1-1v2h1" fill="#c8b100"/><path d="M326 214h0-2 1v-2h-1 1v-1h0v1h1-1v2h1z" fill="none" stroke="#000" stroke-width=".21002"/><path d="M325 213l1 1-1 1-1-1 1-1" fill="#0044ad" stroke="#000" stroke-width=".21002"/><path d="M315 221l-1-1h-1 1s0 0 0 0h1v1s0 0 0 0z" fill="#a07e00" stroke="#000" stroke-width=".21002"/><path d="M315 221s0 0 0 0 0 0 0 0 0 0 0 0 0 0 0 0z" fill="#b50027" stroke="#000" stroke-width=".21002"/><path d="M335 221l1-1h-1v1" fill="#c8b100"/><path d="M335 221l1-1s0 0 0 0 0 0 0 0h-1 0s0 0 0 0v1s0 0 0 0z" fill="#a07e00" stroke="#000" stroke-width=".21002"/><path d="M335 221h-1 1" fill="#c8b100"/><path d="M335 221h-1s0 0 0 0h1s0 0 0 0z" fill="#b50027" stroke="#000" stroke-width=".21002"/><path d="M326 214h0-2 1v-2h-1 1v-1h0v1h1-1v2h1z" fill="#a07e00" stroke="#000" stroke-width=".21002"/><g stroke-width="1.1" fill="none" stroke="#000"><path d="M325 226v-1M324 226v-1" stroke-width=".019417000000000004"/><path d="M324 226v-1M324 226v-1M324 226v-1M323 226v-1m0 1v-1" stroke-width=".058251"/><path d="M323 226v-1m0 1v-1M322 226v-1m0 1v-1m0 1v-1" stroke-width=".097085"/><path d="M322 226v-1M321 226v-1M321 226v-1M321 226v-1m0 1v-1" stroke-width=".15533600000000003"/><path d="M320 226v-1M320 226v-1M320 226v-1M320 226v-1M319 226v-1" stroke-width=".21358700000000003"/><path d="M326 226v-1m0 1v-1m-1 1v-1" stroke-width=".019417000000000004"/></g><g><path d="M314 232h22v-6h-22z" fill="#dead00"/><path d="M314 232h22v-6h-22z" fill="#a07e00" stroke="#000" stroke-width=".399038"/><path d="M334 236h-18l1-1-1-1h18l-1 1 1 1" fill="#dead00"/><path d="M334 236h-18l1-1-1-1s0 0 0 0h18l-1 1 1 1z" fill="#a07e00" stroke="#000" stroke-width=".399038" stroke-linejoin="round"/><path d="M317 236h16l1 1-1 1h-16l-2-1 2-1" fill="#dead00"/><path d="M317 236h16l1 1-1 1h-16l-2-1 2-1z" fill="#a07e00" stroke="#000" stroke-width=".399038"/><path d="M316 232h17l1 1-1 1h-17l-1-1 1-1" fill="#dead00"/><path d="M316 232h17l1 1-1 1h-17l-1-1 1-1z" fill="#a07e00" stroke="#000" stroke-width=".399038"/><path d="M334 321h-1c0 2 2 3 3 3h-23c2 0 3-1 3-3h18" fill="#dead00"/><path d="M334 321h-1c0 2 2 3 3 3h-23c2 0 3-1 3-3 0 0 0 0 0 0s0 0 0 0h18z" fill="#a07e00" stroke="#000" stroke-width=".399038" stroke-linejoin="round"/><path d="M317 319h16l1 1-1 1h-16l-2-1 2-1" fill="#dead00"/><path d="M317 319h16l1 1-1 1h-16l-2-1 2-1z" fill="#a07e00" stroke="#000" stroke-width=".399038"/><path d="M313 330h23v-6h-23z" fill="#dead00"/><path d="M313 330h23v-6h-23z" fill="#a07e00" stroke="#000" stroke-width=".399038"/><path d="M338 298l4 4-2 2c-2 1-3 3-2 4a6 6 0 010-10" fill="#ce1126"/><path d="M338 298l4 4-2 2c-2 1-3 3-2 4a6 6 0 010-10z" fill="#b50027" stroke="#000" stroke-width=".399038"/><path d="M317 318h16v-79h-16z" fill="#c3c3c3"/><path d="M328 239v79m2-79v79M317 318h16v-79h-16z" fill="none" stroke="#000" stroke-width=".399038"/><path d="M300 268a52 52 0 0124-2c10 2 18 6 17 9l4-8c0-4-8-8-19-10l-9-1c-7 0-13 1-17 3v9" fill="#ce1126"/><path d="M300 268a52 52 0 0124-2c10 2 18 6 17 9 0 0 0 0 0 0l4-8c0-4-8-8-19-10l-9-1c-7 0-13 1-17 3v9" fill="#b50027" stroke="#000" stroke-width=".399038" stroke-linejoin="round"/><path d="M333 278c4 0 8-1 8-3s-1-3-4-5l-4 1v7" fill="#ce1126"/><path d="M333 278c4 0 8-1 8-3s-1-3-4-5l-4 1v7" fill="#b50027" stroke="#000" stroke-width=".399038"/><path d="M317 272l-6 2c-1 1 2 4 6 6v-8" fill="#ce1126"/><path d="M317 272l-6 2h0c-1 1 2 4 6 6v-8" fill="#b50027" stroke="#000" stroke-width=".399038"/><path d="M343 294c0-2-4-4-10-6l-8-4c-9-4-15-8-14-10l-1 9c-1 1 5 5 13 9l10 4 9 6 1-8" fill="#b50027"/><path d="M343 294c0-2-4-4-10-6l-8-4c-9-4-15-8-14-10h0l-1 9c-1 1 5 5 13 9l10 4 9 6 1-8h0z" fill="none" stroke="#000" stroke-width=".399038" stroke-linejoin="round"/><path d="M310 265l2-7a5 5 0 01-1 0l-1 5-3-4h-1-1l4 6h1s0 0 0 0M316 258s0 0 0 0h-1v6l4 1v-1s0 0 0 0h-3v-6M323 259h3s0 0 0 0 0 0 0 0l-6-1v1h-1 3l-1 6h2v-6M326 265l1 1h1v-3h0l1 1 1 2h1l1 1v-1l-2-3 2-1v-2h-2l-3-1-1 6m3-5l2 1v1h-3l1-2M337 267v2l1 1h1l1-7a4 4 0 01-1 0l-7 4h1s0 0 0 0l2-1 2 1h0zm-1-1l2-2v3l-2-1" fill="#a07e00" stroke="#000" stroke-width=".10501"/><path d="M309 331l4-1 4-1 4 1 4 1 4-1 4-1 3 1 4 1v2l-4-1-3-1-4 1-4 1-4-1-4-1-4 1-4 1v-2" fill="#005bbf"/><path d="M309 331l4-1 4-1 4 1 4 1 4-1 4-1 3 1 4 1v2l-4-1-3-1-4 1-4 1-4-1-4-1-4 1-4 1v-2z" fill="#0045af" stroke="#000" stroke-width=".399038"/><path d="M309 333l4-1 4-1 4 1 4 1 4-1 4-1 3 1 4 1v2l-4-1h-7l-4 1-4-1h-8l-4 1v-2" fill="#c3c3c3"/><path d="M309 333l4-1 4-1 4 1 4 1 4-1 4-1 3 1 4 1v2l-4-1h-7l-4 1-4-1h-8l-4 1v-2" fill="none" stroke="#000" stroke-width=".399038"/><path d="M309 335l4-1h8l4 1 4-1h7l4 1v3l-4-1-3-1-4 1-4 1-4-1-4-1-4 1-4 1v-3" fill="#005bbf"/><path d="M309 335l4-1h8l4 1 4-1h7l4 1v3l-4-1-3-1-4 1-4 1-4-1-4-1-4 1-4 1v-3" fill="#0045af" stroke="#000" stroke-width=".399038"/><path d="M309 340l4-1 4-1 4 1 4 1 4-1 4-1 3 1 4 1v-2l-4-1-3-1-4 1-4 1-4-1-4-1-4 1-4 1v2" fill="#c3c3c3"/><path d="M309 340l4-1 4-1 4 1 4 1 4-1 4-1 3 1 4 1v-2l-4-1-3-1-4 1-4 1-4-1-4-1-4 1-4 1v2" fill="none" stroke="#000" stroke-width=".399038"/><path d="M309 343l4-1 4-1 4 1 4 1 4-1 4-1 3 1 4 1v-3l-4-1-3-1-4 1-4 1-4-1-4-1-4 1-4 1v3" fill="#005bbf"/><path d="M309 343l4-1 4-1 4 1 4 1 4-1 4-1 3 1 4 1v-3l-4-1-3-1-4 1-4 1-4-1-4-1-4 1-4 1v3z" fill="#0045af" stroke="#000" stroke-width=".399038"/></g></g><g font-size="12"><path d="M168 222h-1l-1-1-1-1v-2l1-2h2l1-1h1l1-1h8l2 1h2l2 1 1 1 1 1v1l-1 1v1l-1 1h-1l-8-1-8 1" fill="#ce1126"/><path d="M168 222h-1l-1-1h0l-1-1v-2l1-2h2l1-1h1l1-1h8l2 1h2l2 1 1 1 1 1v1l-1 1v1l-1 1h-1l-8-1-8 1h0z" fill="#b50027" stroke="#000" stroke-linejoin="round" stroke-width=".21002"/><path d="M175 216l1-3 1 3-1 2-1-2z" fill="#a07e00" stroke="#000" stroke-width=".21002"/><path d="M175 216l1-3 1 3-1 2-1-2z" fill="#a07e00" stroke="#000" stroke-width=".21002"/><path d="M176 222h-5v-4l-3-3s0 0 0 0c1-1 4 1 5 3l1 1h4v-1c2-2 5-4 6-3 0 0 0 0 0 0l-3 3v4h-5 0z" fill="#a07e00" stroke="#000" stroke-width=".21002"/><path d="M168 215c1 0 3 1 5 4m11-4c-1 0-3 1-5 4" fill="none" stroke="#000" stroke-width=".21002"/><path d="M169 224l-1-1 8-1 8 1-1 1v1l-7-1-7 1v-1" fill="#a07e00"/><path d="M169 224l-1-1 8-1 8 1-1 1v1l-7-1-7 1v-1h0" fill="none" stroke="#000" stroke-width=".21002"/><path d="M176 227l6-1 1-1-7-1-7 1 1 1 6 1" fill="#c8b100"/><path d="M176 227l6-1 1-1s0 0 0 0l-7-1-7 1s0 0 0 0l1 1 6 1z" fill="#a07e00" stroke="#000" stroke-width=".21002"/><path d="M184 222l-1-1-1 1-1-1h-2-1-1l-1-1-1 1h-2-1-1l-1 1-1-1-1 1v1l8-1 7 1 1-1" fill="#a07e00"/><path d="M184 222l-1-1-1 1-1-1h-2-1-1l-1-1-1 1h-2-1-1l-1 1-1-1-1 1s0 0 0 0v1l8-1 7 1 1-1h0z" fill="none" stroke="#000" stroke-width=".21002"/><path d="M176 219h0v1l1 1 1-1s0 0 0 0 0 0 0 0l2 1 1-1s0 0 0 0h0s0 0 0 0l1 1h1l1 1 1-1h1l-1 1h-2-1l-1-1-1 1-2-1-1 1-1-1a2 2 0 01-3 0l-1 1-1-1-1 1h-1-1-1l-1-1h1l1 1v-1h2l1-1s0 0 0 0h0s0 0 0 0l1 1 1-1s0 0 0 0 0 0 0 0l2 1a1 1 0 001-2h0z" fill="#a07e00" stroke="#000" stroke-width=".21002"/><path d="M176 222l-8 1 8-1 8 1-8-1" fill="#c8b100"/><path d="M176 222l-8 1s0 0 0 0 0 0 0 0l8-1 8 1s0 0 0 0 0 0 0 0l-8-1z" fill="#a07e00" stroke="#000" stroke-width=".21002"/><path d="M173 223h1l-1 1v-1" fill="#fff"/><path d="M173 223s0 0 0 0h1l-1 1v-1z" fill="#e6e6e6" stroke="#000" stroke-width=".21002"/><path d="M176 223h-1 2-1" fill="#ce1126"/><path d="M176 223h-1s0 0 0 0 0 0 0 0h2s0 0 0 0 0 0 0 0h-1" fill="none" stroke="#000" stroke-width=".21002"/><path d="M171 224h-1v-1h2v1h-1" fill="#046d44"/><path d="M171 224h-1s0 0 0 0v-1h2s0 0 0 0v1h-1" fill="none" stroke="#000" stroke-width=".21002"/><path d="M168 224h1-1" fill="#ce1126"/><path d="M168 224h0z" fill="none" stroke="#000" stroke-width=".21002"/><path d="M178 223h1l-1 1v-1" fill="#fff"/><path d="M178 223s0 0 0 0h1l-1 1v-1z" fill="#e6e6e6" stroke="#000" stroke-width=".21002"/><path d="M181 224h1v-1h-2v1h1" fill="#046d44"/><path d="M181 224h1v-1h-2s0 0 0 0v1h1" fill="none" stroke="#000" stroke-width=".21002"/><path d="M183 224" fill="#ce1126"/><path d="M183 224h0s0 0 0 0z" fill="none" stroke="#000" stroke-width=".21002"/><path d="M176 226l-6-1a27 27 0 0112 0l-6 1" fill="#ce1126"/><path d="M176 226l-6-1a27 27 0 0112 0l-6 1z" fill="none" stroke="#000" stroke-linejoin="round" stroke-width=".21002"/><path d="M184 221l-1-1v1h1" fill="#c8b100"/><path d="M184 221l-1-1v1s0 0 0 0h1z" fill="#e6e6e6" stroke="#000" stroke-width=".21002"/><path d="M179 220l-1-1v1h1" fill="#c8b100"/><path d="M179 220l-1-1v1s0 0 0 0h1z" fill="#e6e6e6" stroke="#000" stroke-width=".21002"/><path d="M173 220v-1l1 1h-1" fill="#c8b100"/><path d="M173 220v-1l1 1h-1s0 0 0 0z" fill="#e6e6e6" stroke="#000" stroke-width=".21002"/><path d="M168 221v-1l1 1h-1" fill="#c8b100"/><path d="M168 221v-1l1 1s0 0 0 0h-1z" fill="#e6e6e6" stroke="#000" stroke-width=".21002"/><path d="M176 217l-1 1 1 1h0l1-1-1-1zM174 219v1l2-1h0-2s0 0 0 0zM178 219l-1 1-1-1h2zM170 218h0v1l1 1v-2h-1z" fill="#a07e00" stroke="#000" stroke-width=".21002"/><path d="M169 220h2v-1h-2v1zM173 219l-1 1h-1 0v-1h2zM168 220l-1 1h-1 0l1-1h1z" fill="#a07e00" stroke="#000" stroke-width=".21002"/><path d="M170 220l1-1v1h-1" fill="#c8b100"/><path d="M170 220l1-1v1s0 0 0 0h-1z" fill="#ce1126" stroke="#000" stroke-width=".21002"/><path d="M181 218h1l-1 1v1-2s0 0 0 0z" fill="#a07e00" stroke="#000" stroke-width=".21002"/><path d="M183 220h-2 0v-1h2v1zM179 219v1h2v-1h-1-1z" fill="#a07e00" stroke="#000" stroke-width=".21002"/><path d="M184 220v1h2l-1-1h-1" fill="#c8b100"/><path d="M184 220v1h2l-1-1h-1z" fill="#a07e00" stroke="#000" stroke-width=".21002"/><path d="M175 219h1v1l-1-1" fill="#c8b100"/><path d="M175 219h1s0 0 0 0v1l-1-1z" fill="#ce1126" stroke="#000" stroke-width=".21002"/><path d="M181 220v-1l1 1h-1" fill="#c8b100"/><path d="M181 220v-1l1 1h-1s0 0 0 0z" fill="#ce1126" stroke="#000" stroke-width=".21002"/><path d="M166 221l-1-1h-1 1s0 0 0 0h1v1s0 0 0 0z" fill="#a07e00" stroke="#000" stroke-width=".21002"/><path d="M166 221s0 0 0 0 0 0 0 0 0 0 0 0 0 0 0 0z" fill="#ce1126" stroke="#000" stroke-width=".21002"/><path d="M186 221l1-1h-1v1" fill="#c8b100"/><path d="M186 221l1-1s0 0 0 0 0 0 0 0h-1 0s0 0 0 0v1s0 0 0 0z" fill="#a07e00" stroke="#000" stroke-width=".21002"/><path d="M186 221h-1 1" fill="#c8b100"/><path d="M186 221h-1s0 0 0 0h1s0 0 0 0z" fill="#ce1126" stroke="#000" stroke-width=".21002"/><g stroke="#000"><path d="M176 211l1 2-1 1-1-1 1-2" fill="#0044ad" stroke-width=".21002"/><path d="M177 212v1h-2v-1h1v-1h-1v-1h2v1h-1v1h1z" fill="#a07e00" stroke-width=".21002"/></g><g stroke-width="1.1" fill="none" stroke="#000"><path d="M176 226v-1M175 226v-1" stroke-width=".019417000000000004"/><path d="M175 226v-1M175 226v-1M175 226v-1M174 226v-1m0 1v-1" stroke-width=".058251"/><path d="M173 226v-1m1 1v-1M173 226v-1m0 1v-1m0 1v-1" stroke-width=".097085"/><path d="M173 226v-1M172 226v-1M172 226v-1M172 226v-1m0 1v-1" stroke-width=".15533600000000003"/><path d="M171 226v-1M171 226v-1M171 226v-1M171 226v-1M170 226v-1" stroke-width=".21358700000000003"/><path d="M177 226v-1m0 1v-1m-1 1v-1" stroke-width=".019417000000000004"/></g><g><path d="M165 232h22v-6h-22z" fill="#a07e00"/><path d="M165 232h22v-6h-22z" fill="none" stroke="#000" stroke-width=".399038"/><path d="M167 236h18l-1-1 1-1h-18l1 1-1 1" fill="#dead00"/><path d="M167 236s0 0 0 0h18l-1-1 1-1h-18s0 0 0 0h0l1 1-1 1z" fill="#a07e00" stroke="#000" stroke-width=".399038" stroke-linejoin="round"/><path d="M167 236h17l1 1-1 1h-17l-1-1 1-1" fill="#9f7e00"/><path d="M167 236h17l1 1-1 1h-17l-1-1 1-1z" fill="#a07e00" stroke="#000" stroke-width=".399038"/><path d="M167 232h17l1 1-1 1h-17l-1-1 1-1" fill="#dead00"/><path d="M167 232h17l1 1-1 1h-17l-1-1 1-1z" fill="#a07e00" stroke="#000" stroke-width=".399038"/><path d="M167 321c0 2-1 3-3 3h23c-1 0-3-1-3-3h1-18" fill="#dead00"/><path d="M167 321s0 0 0 0c0 2-1 3-3 3h23c-1 0-3-1-3-3h1-18s0 0 0 0z" fill="#a07e00" stroke="#000" stroke-width=".399038" stroke-linejoin="round"/><path d="M167 319h17l1 1-1 1h-17l-1-1 1-1" fill="#dead00"/><path d="M167 319h17l1 1-1 1h-17l-1-1 1-1z" fill="#a07e00" stroke="#000" stroke-width=".399038"/><path d="M164 330h23v-6h-23z" fill="#a07e00"/><path d="M164 330h23v-6h-23z" stroke="#000" stroke-width=".399038" fill="none"/><path d="M163 298l-4 4 2 2 2 4a6 6 0 000-10" fill="#ce1126"/><path d="M163 298l-4 4 2 2 2 4a6 6 0 000-10z" fill="#b50027" stroke="#000" stroke-width=".399038"/><path d="M168 318h16v-79h-16z" fill="#c3c3c3"/><path d="M179 239v79m2-79v79M168 318h16v-79h-16z" fill="none" stroke="#000" stroke-width=".399038"/><path d="M200 268a52 52 0 00-24-2c-10 2-17 6-16 9l-4-8c-1-4 8-8 18-10l10-1c7 0 13 1 16 3v9" fill="#b50027"/><path d="M200 268a52 52 0 00-24-2c-10 2-17 6-16 9 0 0 0 0 0 0l-4-8c-1-4 8-8 18-10l10-1c7 0 13 1 16 3v9" fill="none" stroke="#000" stroke-width=".399038" stroke-linejoin="round"/><path d="M168 278c-5 0-8-1-8-3-1-2 1-3 4-5l4 1v7" fill="#ce1126"/><path d="M168 278c-5 0-8-1-8-3-1-2 1-3 4-5l4 1v7" fill="#b50027" stroke="#000" stroke-width=".399038"/><path d="M184 272l6 2c0 1-2 4-6 6v-8" fill="#ce1126"/><path d="M184 272l6 2h0c0 1-2 4-6 6v-8" fill="#b50027" stroke="#000" stroke-width=".399038"/><path d="M158 294c-1-2 3-4 10-6l8-4c8-4 15-8 14-10l1 9c1 1-5 5-13 9l-10 4c-5 2-9 5-9 6l-1-8" fill="#b50027"/><path d="M158 294c-1-2 3-4 10-6l8-4c8-4 15-8 14-10h0l1 9c1 1-5 5-13 9l-10 4c-5 2-9 5-9 6l-1-8h0z" fill="none" stroke="#000" stroke-width=".399038" stroke-linejoin="round"/><path d="M166 265c2-1 4-2 3-4h-3l-3 1 3 6 1-1h1l-2-2h0zm-1-3l1-1 2 1-1 2h-1l-1-2M173 259h-1-1l2 7 4-1v-1s0 0 0 0l-3 1-1-6M182 265l2-7a5 5 0 01-1 0l-2 5-2-5h-1-1l4 7s0 0 0 0h1M191 260v-1l-2-1-2 2c-1 2 3 2 3 3l-2 1-1-1h-1v1l2 1c2 0 3-1 3-2 0-2-3-2-3-3l1-1 2 1h0" fill="#a07e00" stroke="#000" stroke-width=".10501"/><path d="M191 331l-4-1-3-1-4 1-4 1-4-1-4-1-4 1-4 1v2l4-1 4-1 4 1 4 1 4-1 4-1 3 1 4 1v-2" fill="#005bbf"/><path d="M191 331l-4-1-3-1-4 1-4 1-4-1-4-1-4 1-4 1v2l4-1 4-1 4 1 4 1 4-1 4-1 3 1 4 1v-2z" fill="#0044ad" stroke="#000" stroke-width=".399038"/><path d="M191 333l-4-1-3-1-4 1-4 1-4-1-4-1-4 1-4 1v2l4-1h8l4 1 4-1h7l4 1v-2" fill="#c3c3c3"/><path d="M191 333l-4-1-3-1-4 1-4 1-4-1-4-1-4 1-4 1v2l4-1h8l4 1 4-1h7l4 1v-2" fill="none" stroke="#000" stroke-width=".399038"/><path d="M191 335l-4-1h-7l-4 1-4-1h-8l-4 1v3l4-1 4-1 4 1 4 1 4-1 4-1 3 1 4 1v-3" fill="#005bbf"/><path d="M191 335l-4-1h-7l-4 1-4-1h-8l-4 1v3l4-1 4-1 4 1 4 1 4-1 4-1 3 1 4 1v-3" fill="#0044ad" stroke="#000" stroke-width=".399038"/><path d="M191 340l-4-1-3-1-4 1-4 1-4-1-4-1-4 1-4 1v-2l4-1 4-1 4 1 4 1 4-1 4-1 3 1 4 1v2" fill="#c3c3c3"/><path d="M191 340l-4-1-3-1-4 1-4 1-4-1-4-1-4 1-4 1v-2l4-1 4-1 4 1 4 1 4-1 4-1 3 1 4 1v2" fill="none" stroke="#000" stroke-width=".399038"/><path d="M191 343l-4-1-3-1-4 1-4 1-4-1-4-1-4 1-4 1v-3l4-1 4-1 4 1 4 1 4-1 4-1 3 1 4 1v3" fill="#005bbf"/><path d="M191 343l-4-1-3-1-4 1-4 1-4-1-4-1-4 1-4 1v-3l4-1 4-1 4 1 4 1 4-1 4-1 3 1 4 1v3z" fill="#0044ad" stroke="#000" stroke-width=".399038"/></g></g><path d="M250 344c-13 0-26-3-36-8-8-4-14-12-14-22v-33h101v33c0 10-6 18-14 22-11 5-23 8-37 8" font-size="12" fill="#c3c3c3"/><path d="M250 344c-13 0-26-3-36-8-8-4-14-12-14-22v-33h101v33c0 10-6 18-14 22-11 5-23 8-37 8z" font-size="12" fill="none" stroke="#000" stroke-width=".52505"/><g font-size="12"><path d="M250 314c0 14-11 24-25 24s-25-10-25-24v-33h50v33" fill="#b50027"/><path d="M211 334l6 3v-57h-6z" fill="#a07e00" stroke="#000" stroke-width=".52505"/><path d="M200 314c0 7 3 12 6 16v-50h-6v34z" fill="#a07e00" stroke="#000" stroke-width=".504048" stroke-linejoin="round"/><path d="M222 338h6v-58h-6zM233 337l6-3v-54h-6zM245 329c2-2 5-7 5-13l1-36h-6z" fill="#a07e00" stroke="#000" stroke-width=".52505"/><path d="M250 314c0 14-11 24-25 24s-25-10-25-24v-33h50v33" fill="none" stroke="#000" stroke-width=".52505"/></g><path d="M200 281h50v-56h-50z" font-size="12" fill="#b50027"/><path d="M210 271v-5h4v-14h-2v-2-5h4v-4h-2v-1-3h1v1h2v-1h2v1h1v-1h2v4h-2v4h3v-9h-2v-4h2v1h1v-1h3v1l1-1h2v4h-2v9h2v-4h-2v-1-3h2l1 1v-1h3v1h1l1-1h1v4h-1-1v4h3v7h-2v14h4v9h-30z" style="isolation:auto;mix-blend-mode:normal;solid-color:#000;solid-opacity:1;marker:none" color="#000" overflow="visible" fill="#2b1100" paint-order="markers stroke fill"/><g transform="translate(154 153) scale(.21002)" stroke="#000"><path d="M290 469v71h-20v37l140-1v-36h-19v-71z" fill="#a07e00" stroke-width="1.5"/><path d="M270 577l139-1M270 568h140M270 559h140M270 550h140M270 540h140M290 530h101M290 521h101M290 513h101M290 504h101M290 496h101" fill="#9f7e00"/><path d="M290 487h101" fill="#dead00"/><path d="M370 478v9M290 478h101" fill="#9f7e00"/><path d="M290 576v-8" fill="#dead00"/><path d="M290 559v-9M281 559v9" fill="#9f7e00"/><path d="M300 568v-9" fill="#dead00"/><path d="M311 540v-10M311 521v-8M300 550v-10" fill="#9f7e00"/><path d="M281 550v-10" fill="#dead00"/><path d="M300 521v9M320 521v9M340 521v9M330 521v-8M340 504v9M330 478v9M340 469v9M320 469v9M301 469v9M391 576v-8M391 559v-9M400 559v9M380 568v-9M370 540v-10M370 521v-8" fill="#9f7e00"/><path d="M380 550v-10" fill="#dead00"/><path d="M400 550v-10" fill="#9f7e00"/><path d="M380 521v9" fill="#dead00"/><path d="M360 521v9M350 521v-8M350 496v9" fill="#9f7e00"/><path d="M340 487v9" fill="#dead00"/><path d="M350 478v9M360 469v9M380 469v9M330 504v-8" fill="#9f7e00"/><path d="M360 576v-23c0-5-2-19-20-19s-20 14-20 19v23z" fill="#a07e00"/><path d="M351 559h19v-9l-7-10-13 9 1 10zM346 545l6-15h-22l5 14 11 1zM360 513v-21c0-5 4-10 10-10s10 5 10 10v21z" fill="#a07e00"/><rect ry=".2" y="567.6" x="310.5" height="8.8" width="19.4" rx=".2" fill="#a07e00"/><path fill="#a07e00" d="M351 568h19v8h-19zM330 559h-19v-9l5-10 14 9v10z"/><path d="M310 478v9" fill="#9f7e00"/><path d="M300 513v-21c0-5 4-10 10-10 7 0 10 5 10 10v21z" fill="#a07e00"/><g fill="#a07e00" stroke-width="2.7"><path d="M-615 44h36v98h-36zM-553-1h35v143h-35zM-494 44h35v98h-35z" transform="matrix(.56363 0 0 .52949 642 395)"/></g><path d="M331 441h19M330 448h20M364 423h19M363 433h20M363 440h20M364 449h20M373 423v-5M374 440v-7M373 456v-7M296 441h19M296 449h20" fill="#9f7e00"/><path d="M280 470v-33h16l4 3v16h13v-16l4-3h13l4 3v16h13v-16l4-3h13l3 3 1 16h12v-16l4-3h16v33H280z" fill="#a07e00" fill-rule="evenodd" stroke-width="1.5"/><path d="M280 461h120M290 461v9M310 461v9" fill="#9f7e00"/><path d="M330 461v9" fill="#dead00"/><path d="M350 461v9M370 461v9M391 461v9M300 451v10M300 442h-19M300 452h-19M334 442h-21M368 442h-21M400 442h-20M334 452h-21M368 452h-21M400 452h-20M290 442v10M320 452v9M330 442v10M350 442v10M391 442v10M320 437v5" fill="#9f7e00"/><path d="M340 456v5" fill="#dead00"/><path d="M360 452v8M360 437v5" fill="#9f7e00"/><path d="M380 452v9" fill="#dead00"/><g fill="#0044ad" stroke-width="1.8"><path d="M-239 351v-38c0-6 1-25-20-24-21-1-17 18-17 24v38z" stroke-width="2.7" transform="matrix(.56363 0 0 .52949 486 391)"/><path d="M-195 225v-30c0-8-3-15-10-15-6 0-9 7-9 15v30zM-302 225v-30c0-8-3-16-9-16-7 0-10 8-10 16v30z" transform="matrix(.56363 0 0 .52949 486 391)"/></g><path d="M330 433h20M330 423h20M330 415h20M330 407h20M330 399h20M340 407v-8" fill="#9f7e00"/><path d="M340 423v-8" fill="#dead00"/><path d="M340 441v-8M340 456v-8M296 423h19M296 433h19M306 423v-5M306 440v-7" fill="#9f7e00"/><path d="M305 456v-7" fill="#dead00"/><g fill="#dead00" stroke-width="1.8"><path d="M-291-29l-1 36 69-1v-35h-12l-1 9h-13v-9h-17v9h-13v-9z" fill="#a07e00" stroke-width="2.7" transform="matrix(.56363 0 0 .52949 486 391)"/><path d="M-291-8h68M-258 6V-8" transform="matrix(.56363 0 0 .52949 486 391)"/></g><g fill="#dead00" stroke-width="1.8"><path d="M-291-29l-1 36 69-1v-35h-12l-1 9h-13v-9h-17v9h-13v-9z" fill="#a07e00" stroke-width="2.7" transform="matrix(.56363 0 0 .52949 451 415)"/><path d="M-291-8h68M-258 6V-8" transform="matrix(.56363 0 0 .52949 451 415)"/></g><g fill="#dead00" stroke-width="1.8"><path d="M-291-29l-1 36 69-1v-35h-12l-1 9h-13v-9h-17v9h-13v-9z" fill="#a07e00" stroke-width="2.7" transform="matrix(.56363 0 0 .52949 519 415)"/><path d="M-291-8h68M-258 6V-8" transform="matrix(.56363 0 0 .52949 519 415)"/></g></g><path d="M200 281h50v-56h-50z" font-size="12" fill="none" stroke="#000" stroke-width=".52505"/><g font-size="12" stroke="#000"><g fill="none" stroke-width="1.1"><path d="M285 295l-2-1-3 4 1 1 4-4M286 296l1 2-3 3h-2l4-5" stroke-width=".23102200000000003"/></g><path d="M301 281v33c0 14-12 24-26 24-13 0-25-10-25-24v-33h51" fill="#b60028" stroke-width=".52505"/><path d="M258 284c-2 0-3 2-3 3l2 3v4l-2 1v4l2 1v-2h0v-2h1v-6h1l5 6-1 2 4 3h1l5 5s0 0 0 0h-3l-1-2h-5v2h-4l-2-2v-6h-1v2h0v4l-2 2s0 0 0 0v1c0 1 0 2 2 3v2l-2 1v5h2l1 4h0v4l3 1 3 2-1 2 5 2 1-1 4 1c0 1 1 2 3 2l2-2 4-1h0l1-1-1-1 3-2 1 2-3 1-1 1 1 1 5-2-1-2 3-2 3-1v-4h0l1-4h2v-5l-2-1v-2l2-3v-1s0 0 0 0l-2-2v-4l2-1v-4l-2-1v-4c1 0 2-1 2-3 0-1-1-3-3-3l-2 2h-5v2h-3v-2h-5c0-1-1-2-3-2l-2 2h-5v2h-3v-2h-5l-2-2z" fill="#a07e00" stroke-width=".23102200000000003"/><path d="M264 285v1h6l-1-1zM282 285l-1 1h6v-1zM258 286l1 1-1 1-2-1 2-1z" fill="#c8b100" stroke-width=".23102200000000003"/><path d="M260 288h4v2h5l1-2h3l2 2v2h-2v5l2 1v6l-1 1-4-5 1-2-3-4-2 1-6-6v-1zM278 288h3l1 2h5v-2h4s0 0 0 0l-6 7-2-1-3 4 1 1 1-1 2-2 1 1-3 4h2l3-3-1-2 6-6s0 0 0 0v4l-1 1v4l1 1v4l-1 2h-4v-2h-5l-1 2h-3s0 0 0 0l4-5 1-2-1-1-5 6h-1v-8h-1v-3h1v5l2-1v-5h-2v-2l2-2z" fill="#b50027" stroke-width=".23102200000000003"/><path d="M259 294v6l1-1v-4z" fill="#c8b100" stroke-width=".23102200000000003"/><path d="M292 296h2v2h-2zM267 296l2 2-2 2-2-3z" fill="#b50027" stroke-width=".23102200000000003"/><path d="M258 306h1s0 0 0 0v1l-1 1-2-1v-1s0 0 0 0h2zM293 306h1l1 1-2 1-1-1v-1h1z" fill="#c8b100" stroke-width=".23102200000000003"/><path d="M265 306h3v2h5s0 0 0 0l-4 5-2-1-3 4 1 1-4 4h-1a15 15 0 01-1-4h-2v-3h2v4l2-1-1-2v-2l-1-1v-2l1-2h5v-2h0zM283 306h3v2h5l1 2v2l-1 1-1 2v2l2 1-1 3h-1l-4-4 1-1-3-4-2 1-4-5s0 0 0 0h5v-2h0z" fill="#b50027" stroke-width=".23102200000000003"/><g fill="#dead00" stroke-width="1.1"><path d="M294 314v-4l2-3-2-3v-6h-2v6l-1 2h-5v2h5l1 2v4h2zM294 290v6h-2v-6s0 0 0 0l-7 7-1-1 7-8s0 0 0 0h-5v-2h5l2-2c2 0 3 2 3 3l-2 3zM276 290v3h-1v-3l-2-2h-5v-2h5l2-2c2 0 3 1 3 2h5v2h-5l-2 2zM285 319h-2l-3-3 1-2 4 5" fill="#a07e00" stroke-width=".23102200000000003"/><path d="M270 288l-1 2h-5v-2h6M270 286l-1-1h-5v1h6" fill="#a07e00" stroke-width=".23102200000000003"/><g fill="#a07e00"><path d="M266 319h2l3-3-1-2-4 5M265 317l-1-1 3-4 2 1-4 4" stroke-width=".23102200000000003"/></g><g fill="#a07e00"><path d="M266 328l-1 2-4-3-3-1v-4h0l-1-5h2l1 4h1l5-5 1 1-4 5v4l3 2z" stroke-width=".23102200000000003"/><path d="M265 327c1 2 3 3 5 3v-1l-4-3-1 1M264 329l5 3-1 1-5-2 1-2" stroke-width=".23102200000000003"/></g><path d="M257 314v-4l-2-3 2-3v-6h1v6l2 2h5v2h-5l-1 2v4h-2" fill="#a07e00" stroke-width=".23102200000000003"/><path d="M257 318h-2v-5l2-1v6zM259 312l1 1v2l1 2-2 1v-6h0zM257 294l-2 1v4l2 1v-6M259 294l1 1v4l-1 1v-6M264 306v-2h5l1 2h-6" fill="#a07e00" stroke-width=".23102200000000003"/><path d="M264 308v2h5l1-2h-6" stroke-width=".23102200000000003"/><g fill="#a07e00"><path d="M278 331l4-1 1 1-5 2-2 2c-2 0-3-1-3-2l-5-2 1-1 4 1 2-2v-7h1v7l2 2h0z" stroke-width=".23102200000000003"/><path d="M286 327c-1 2-3 3-5 3l-1-1 5-3 1 1M287 329l-5 3 1 1 5-2-1-2M276 323h2v-5h-2v5M275 323h-2v-5h2v5" stroke-width=".23102200000000003"/></g><path d="M281 288l1 2h5v-2h-6M281 286l1-1h5v1h-6" fill="#a07e00" stroke-width=".23102200000000003"/></g><path d="M264 308v2h5l1-2z" fill="#a07e00" stroke-width=".23102200000000003"/><path d="M281 308l1 2h5v-2z" fill="#dead00" stroke-width=".23102200000000003"/><path d="M274 309l1 1v8h-2v5h2v6l-2 2-3-1v-1l-4-3-1 1a18 18 0 00-2-1v-4l3-3h2l3-3-1-2 4-5zM277 309l5 6 1-1 2 2-1 1-2-2-1-1-1 2 3 3h2l3 3v4a17 17 0 01-2 1l-1-1-5 3 1 1-3 1-2-2v-6h2v-5h-2v-8l1-1zM294 314v3h-2v-3h2z" fill="#b50027" stroke-width=".23102200000000003"/><path d="M268 314l1 1-2 2-1-1zM275 319h1v3h-1zM266 328l3 2-1 1-3-1z" fill="#b50027" stroke-width=".23102200000000003"/><path d="M273 308s0 0 0 0h-5v-2h5s0 0 0 0l-6-7 2-1 5 6h1v-8h1v8h1l5-6 1 1-5 6v1h5v2h-5s0 0 0 0l5 6-1 1-5-6-1 1v9h-1v-9l-1-1-5 6-1-1 5-6" fill="#a07e00" stroke-width=".23102200000000003"/><path d="M259 323h2v2h-2v-2zM256 307l2-1 1 1-1 1-2-1z" fill="#b50027" stroke-width=".23102200000000003"/><path d="M285 328l1 2 4-3 3-1v-4h0l1-5h-2l-1 4h-1l-5-5-1 1 4 5v4l-3 2z" fill="#a07e00" stroke-width=".23102200000000003"/><path d="M292 323h-2v2h2v-2z" fill="#b50027" stroke-width=".23102200000000003"/><path d="M294 318h2v-5l-2-1v6zM292 312l-1 1-1 2v2l2 1v-6M292 294l-1 1v4l1 1v-6M294 294l2 1v4l-2 1v-6M286 317l1-1-3-4-2 1 4 4" fill="#a07e00" stroke-width=".23102200000000003"/><path d="M256 287l2-1 1 1-1 1-2-1z" fill="none" stroke-width=".23102200000000003"/><path d="M292 307l1-1 2 1-2 1-1-1z" fill="#b50027" stroke-width=".23102200000000003"/><path d="M287 306v-2h-5l-1 2h6M287 308v2h-5l-1-2h6" fill="#a07e00" stroke-width=".23102200000000003"/><path d="M274 332l2-1 1 1-1 1-2-1zM292 287l1-1 2 1-2 1-1-1zM274 287l1-1 2 1-2 1-1-1z" fill="#b50027" stroke-width=".23102200000000003"/><g fill="#a07e00" stroke-width="1.1"><path d="M259 290l7 7 1-1-7-7v-1h5v-2h-5l-2-2c-2 0-3 2-3 3l2 3v6h1v-6h1z" stroke-width=".23102200000000003"/><path d="M266 295l2-1 3 4-1 2-4-5M264 296l-1 2 4 3h1l-4-5" stroke-width=".23102200000000003"/></g><path d="M275 292h-2v5l2 1v-6m1 0h2v5l-2 1v-6" fill="#a07e00" stroke-width=".23102200000000003"/><path d="M273 307c0-2 1-3 3-3 1 0 2 1 2 3s-1 3-2 3c-2 0-3-1-3-3" fill="#046d44" stroke-width=".23102200000000003"/><path d="M253 281h5v-1h-5z" fill="#c8b100" stroke-width=".21002"/><path d="M253 281h5v-1h-5z" fill="#dead00" stroke-width=".21002"/></g><g font-size="12" stroke="#000" stroke-width="2.5"><path d="M253 329l3 4c0 3-2 5-5 5s-6-2-6-5l3-4s0 0 0 0v-1h1l1 1v-1h1s0 0 0 0l1 1v-1h1v1s0 0 0 0h0z" fill="#f6cb7e" stroke-width=".52505"/><path d="M250 340l-5-3h-6l2 1 3 2h6M251 340l6-3 6 1-1 1-5 1h-5-1" fill="#046d44" stroke-width=".52505"/><path d="M250 337l-1-4 2-3 1 3-1 4h0z" fill="#b50027" stroke-width=".52505"/><path d="M250 342v-2-2h1v4h-1v1h0z" fill="#046d44" stroke-width=".52505"/></g><g><path d="M250 281h51v-56h-51z" font-size="12" fill="#c3c3c3"/><path d="M250 281h51v-56h-51z" font-size="12" fill="none" stroke="#000" stroke-width=".52505"/><g transform="translate(154 154) scale(.21002)"><path d="M609 570s-3 3-2 5l3 6 1-5c2-2 5-2 5-2l-4-3-3-1zM624 574s-2 4 1 6c3 3 5 3 5 3s-2-4-1-6c0-2 2-3 2-3l-4-1-3 1zM582 409v-3l1-2h-12l-12-6-7-6c-7-1-12 2-12 2s5 2 9 6c3 5 7 7 9 8h15l9 1v0z" font-size="12" fill="#b50027" stroke="#000"/><g stroke="#000" font-size="12" fill="#fff"><path d="M568 413l2-3 2 3h-4M572 413l2-3 2 3h-4M570 397l4 2-3 1-1-3M575 399h4l-3 3-1-3"/></g><path d="M618 398v14l1 5 1 4-4-2-2-2a1100 1100 0 003 10l5 7v7l-4-5-6-3s4 4 4 8l-2 7s-1-3-4-5l-5-4 2 9v12l-4-5-5-4 3 6c0 2 1 11 9 22 4 7 11 18 26 15 15-4 9-24 6-33-3-10-4-20-4-24l2-16c0-2-1-9 1-15l4-12 3-6v-7l3 7 1 7s0-5 5-8l10-6 1-3s0 9-3 13l-8 10 6-2h4l-7 8c-4 6-2 6-5 11-3 4-5 4-8 7-5 4-3 21-2 23 1 3 10 23 10 28s1 16-8 23c-5 4-14 4-16 6-2 1-7 5-7 13 0 9 4 10 6 12s5 1 6 3l2 4 2 3-6 9-4 12c0 1-1 5 1 7 0 0 4 5 1 6-2 0-4-2-5-1l-4 2c-2-1-2-1-2-4l-1-3-2 2-1 4-4-3-4-2 3-4c2-1 4-2 3-3h-4c-1 1-4 0-3-1v-4c0-1-2-3 0-4 3-2 4 1 7 1l5-3c1-2 1-5-1-8l-4-3-2-5v11l-3-4c-2-1-3-6-3-6l-1 6 2 4c-1 1-4-3-5-4l-5-5-2-7-1-7 3-5h-7c-4 0-6-2-8 1-1 2 0 7 1 14l3 10-4 4h-4l-6-1h-7l-5-2c-2 1-4 2-3 4 1 3-2 3-3 3l-4-1c-2-1-4 0-4-2l2-4v-2h-3c-1 1-3 3-4 2-1 0-2-2-2-5s-3-6 0-5c3 0 6 2 7 0s0-2-1-4c-2-1-4-2-2-3l4-3c0-1 2-4 3-3 3 2 0 4 3 7s5 4 10 4c5-1 6-1 6-3v-5-4l-2 2-2 4-1-5 1-4-1-5-2 5-1 5s-3-3-2-7l1-10c1-2 3-8 9-8h14l9-2-17-9-10-10-3-8-5 1-6 5-3 5v-6-4s-1 6-5 9l-7 5 1-4v-5s-2 4-5 4c-4 1-9 1-9 3v7l-3 2-3-2-4 1-1-3 3-4c-1-1-3 0-4 1-2 0-5 1-4-1v-5c-1-2 0-3 1-3l6-1-4-3c-3 0-5-2-3-3l3-4c0-1 0-3 3-2s2 4 5 5c2 1 9 0 10-1l7-5 8-5-5-4-5-5-9-3-8-2 3-2c1-1 3-3 5-3l1 1-7-1-6-3-4 1 6-3h6l-6-3-3-5c-1-1-1-3-3-3l-5 2c-2 0-3-1-3-3l-1-3c0-1-2-4 0-4l6-1-4-4c-1-1-4-2-3-3l4-3c1-1 2-5 4-4l5 6c2 0 2-4 1-5 0-2 0-5 2-4l4 2c2 0 6-1 5 1l-3 5c-1 2-2 5-1 7l6 7 8 4 11 7 4 1 5-1h13c3-1 6-3 5-6-1-2-7-4-6-6 0-2 3-2 6-2 4 0 9 0 10-5s1-8-4-9-9-1-10-5-2-4-1-5 3-2 7-2l9-1 3-5 7-2 14 8 11 11" font-size="12" fill="#da5aad" stroke="#000" stroke-linejoin="round"/><path d="M568 394l-1-3v-1l4 1c0 2-2 2-2 2l-1 1" font-size="12" stroke="#000"/><path d="M587 388v-2l5 1 5 5-4-2h-2l-2-1v-1h-2v0z" font-size="12" stroke="#000" stroke-width=".8"/><path d="M614 417l-2-3-2-3" font-size="12" fill="none" stroke="#000" stroke-linecap="round"/><path d="M515 394l4 2h4l1-5c-1-5-7-7-7-7s2 4 1 6l-3 4" font-size="12" fill="#db4446" stroke="#000"/><path d="M515 394l4 2h4l1-5c-1-5-7-7-7-7s2 4 1 6l-3 4z" font-size="12" fill="#b50027" stroke="#000"/><path d="M504 399s-2-4-6-4c-4 1-7 4-7 4l6 1 2 4 3-3 2-2" font-size="12" fill="#db4446" stroke="#000"/><path d="M504 399s-2-4-6-4c-4 1-7 4-7 4l6 1 2 4 3-3 2-2z" font-size="12" fill="#b50027" stroke="#000"/><path d="M499 414s-4 0-6 2c-2 3-1 7-1 7s2-3 4-3l6 1-1-4-2-3" font-size="12" fill="#db4446" stroke="#000"/><path d="M499 414s-4 0-6 2c-2 3-1 7-1 7s2-3 4-3l6 1-1-4-2-3z" font-size="12" fill="#b50027" stroke="#000"/><path d="M549 428l-5 4c-2 2-2 5-2 5s3-3 8-2l6 2 6-2s-4 4-3 7l1 5-3 8 5-2 8-4 4-4v6l1 8 4-3c1 0 4-1 5-3l1-5 2 6 3 9 3-6 4-5-1-4 2 4m-54 3l4-6 6-3 5-3m4 25l7-4c3-1 5-5 5-5" font-size="12" fill="none" stroke="#000" stroke-linejoin="round"/><path d="M511 462s-2-2-5-2c-4 1-6 5-6 5l5-1 3 3 2-3 1-2" font-size="12" fill="#db4446" stroke="#000"/><path d="M511 462s-2-2-5-2c-4 1-6 5-6 5l5-1 3 3 2-3 1-2h0z" font-size="12" fill="#b50027" stroke="#000"/><path d="M507 476s-3-1-5 1c-3 2-3 6-3 6s2-2 4-1l4 1 1-3-1-4" font-size="12" fill="#db4446" stroke="#000"/><path d="M507 476s-3-1-5 1c-3 2-3 6-3 6s2-2 4-1l4 1 1-3-1-4z" font-size="12" fill="#b50027" stroke="#000"/><path d="M514 489s0 4 2 6l5 3-1-4c-1-2 1-4 1-4l-3-1h-4" font-size="12" fill="#db4446" stroke="#000"/><path d="M514 489s0 4 2 6l5 3-1-4c-1-2 1-4 1-4l-3-1h-4z" font-size="12" fill="#b50027" stroke="#000"/><path d="M593 495s10 6 10 11c-1 5-6 12-6 12" font-size="12" fill="none" stroke="#000"/><path d="M549 522s-2-3-6-3c-3 0-7 4-7 4s4-1 6 1l2 3 2-2 3-3" font-size="12" fill="#db4446" stroke="#000"/><path d="M549 522s-2-3-6-3c-3 0-7 4-7 4s4-1 6 1l2 3 2-2 3-3z" font-size="12" fill="#b50027" stroke="#000"/><path d="M539 536s-5-1-7 1c-2 3-2 7-2 7s3-3 5-3c3 0 5 2 5 2v-4l-1-3" font-size="12" fill="#db4446" stroke="#000"/><path d="M539 536s-5-1-7 1c-2 3-2 7-2 7s3-3 5-3c3 0 5 2 5 2v-4l-1-3z" font-size="12" fill="#b50027" stroke="#000"/><path d="M548 550s-2 3 0 5c1 3 5 4 5 4s-2-2-1-4c0-2 3-4 3-4l-7-1" font-size="12" fill="#db4446" stroke="#000"/><path d="M548 550s-2 3 0 5c1 3 5 4 5 4s-2-2-1-4c0-2 3-4 3-4l-7-1v0zM607 556h-6c-2 1-4 7-4 7l6-3 5 1v-3l-1-2" font-size="12" fill="#b50027" stroke="#000"/><path d="M607 556h-6c-2 1-4 7-4 7l6-3 5 1v-3l-1-2z" font-size="12" fill="#b50027" stroke="#000"/><path d="M615 378h-1l-2 1c-1 2-3 2-4 1v-2h-3v-4-2h-2v1l-4 1v-2l-1 1c-3 1-4-5-4-7v8l-1 6c3 0 8 3 14 7l11 12 5-3h7l1-1c-2 0-8 0-7-3v-1h-2l1-3v-2h-1l-1 1h-4v-2l-3-1v-3l1-2v-1" font-size="12" fill="#a07e00" stroke="#000" stroke-width=".8"/><path d="M609 385l-2-2s0 0 0 0h1l1 1 2 1v1h-1l-1-1M601 379l-2-1s0 0 0 0l1-1 1 1 1 1 1 1h-1l-1-1" font-size="12" fill="#a07e00" stroke="#000" stroke-width=".8"/><ellipse transform="matrix(.82291 .56817 -.612 .79086 0 0)" ry=".7" rx="1" cy="-29.4" cx="723.2" fill="#a07e00" fill-rule="evenodd" stroke="#000" stroke-width=".8"/><path d="M617 391l1 1c0 1 0 1 0 0 1 0 1 0 0 0l-1-1-1-1h-1 1l1 1" font-size="12" fill="#a07e00" stroke="#000" stroke-width=".8"/><ellipse transform="matrix(.59251 .80556 -.83654 .54791 0 0)" ry=".7" rx="1" cy="-266.3" cx="671" fill="#a07e00" fill-rule="evenodd" stroke="#000" stroke-width=".8"/><path d="M608 366l-3 1v4h1l3-2-1-3zM600 369v2l5 1h0v-1l-2-4-3 2z" font-size="12" fill="#a07e00" stroke="#000" stroke-width=".8"/><path d="M609 374l-2 1-3-3v-1h5v3z" font-size="12" fill="#a07e00" stroke="#000" stroke-width=".8"/><circle r="1.5" cy="371.1" cx="604.8" fill="#a07e00" fill-rule="evenodd" stroke="#000" stroke-width=".8"/><path d="M593 366l-1-3-2-2h5c1 2-1 5-1 5h-1" font-size="12" fill="#a07e00" stroke="#000" stroke-width=".8"/><path d="M598 368l-2 2-3-3v-1h1l4-1v3z" font-size="12" fill="#a07e00" stroke="#000" stroke-width=".8"/><path d="M593 366l1-1 1 1-1 2-1-2M619 373h-3l-1 4v1h1l4-2-1-3zM611 374l-1 3 5 1h0v-1l-2-4-2 1z" font-size="12" fill="#a07e00" stroke="#000" stroke-width=".8"/><path d="M619 381l-2 1-2-4v-1h0l5 1-1 3z" font-size="12" fill="#a07e00" stroke="#000" stroke-width=".8"/><circle r="1.5" cy="377.6" cx="614.9" fill="#a07e00" fill-rule="evenodd" stroke="#000" stroke-width=".8"/><path d="M628 382l1 3-5 1h0v-1l1-4 3 1z" font-size="12" fill="#a07e00" stroke="#000" stroke-width=".8"/><path d="M627 389l-2 1-2-4v-1h1l4 2-1 2z" font-size="12" fill="#a07e00" stroke="#000" stroke-width=".8"/><path d="M620 382l-1 3 4 1h1v-1l-1-3h-3z" font-size="12" fill="#a07e00" stroke="#000" stroke-width=".8"/><circle r="1.5" cy="385.6" cx="623.7" fill="#a07e00" fill-rule="evenodd" stroke="#000" stroke-width=".8"/><path d="M631 395l4 1 2 1c1 0 1-2-1-4-2-1-4 1-4 1l-1 1" font-size="12" fill="#a07e00" stroke="#000" stroke-width=".8"/><path d="M629 391l-2 2 4 3v-1h1l-1-4h-2z" font-size="12" fill="#a07e00" stroke="#000" stroke-width=".8"/><path d="M631 396l1-1-1-1-1 1 1 1" font-size="12" fill="#a07e00" stroke="#000" stroke-width=".8"/><path d="M590 389v1h1v-1h-1z" style="isolation:auto;mix-blend-mode:normal;solid-color:#000;solid-opacity:1;marker:none" color="#000" overflow="visible" fill="#fff" paint-order="markers stroke fill"/><ellipse transform="matrix(.84817 .52972 -.57498 .81817 0 0)" ry=".7" rx="1" cy="3.2" cx="705.1" fill="#a07e00" fill-rule="evenodd" stroke="#000" stroke-width=".8"/><ellipse transform="matrix(.84817 .52972 -.57498 .81817 0 0)" ry=".7" rx="1" cy="3" cx="715.3" fill="#a07e00" fill-rule="evenodd" stroke="#000" stroke-width=".8"/></g></g><g font-size="12"><path d="M234 281c0-10 7-18 16-18s17 8 17 18-8 18-17 18-16-8-16-18" fill="#ce1126"/><path d="M234 281c0-10 7-18 16-18s17 8 17 18-8 18-17 18-16-8-16-18z" fill="#b50027" stroke="#000" stroke-width=".609058"/><path d="M239 281c0-8 5-14 11-14 7 0 12 6 12 14 0 7-5 13-12 13-6 0-11-6-11-13" fill="#005bbf" fill-opacity=".9"/><path d="M239 281c0-8 5-14 11-14 7 0 12 6 12 14 0 7-5 13-12 13-6 0-11-6-11-13z" fill="#0044ad" stroke="#000" stroke-width=".609058"/><path d="M245 272l-1 3v2l-1-1-2 2h1v1h1l1 1s0 0 0 0h-1v1h1l-1 2 1-1 1 1 1-1 1 1-1-2h1v-1h-1s0 0 0 0l1-1h1l1-1s0 0 0 0l-2-2-1 1v-2l-1-3" fill="#a07e00" stroke="#000" stroke-width=".21002"/><path d="M243 281h4v-1h-4zM256 272s-2 1-2 3l1 2-2-1-1 2s0 0 0 0l1 1h1l1 1s0 0 0 0h-2v1h2l-1 2 1-1 1 1v-1l2 1-1-2h1v-1h-1s0 0 0 0l1-1h1v-1s0 0 0 0l-1-2-2 1 1-2-1-3M250 281l-1 3 1 2-2-1-1 2s0 0 0 0v1h1l1 1s0 0 0 0h-1v1h1l-1 2 2-1v1l1-1 1 1-1-2h2v-1h-2s0 0 0 0l1-1h1l1-1s0 0 0 0l-1-2-2 1 1-2c0-2-2-3-2-3" fill="#a07e00" stroke="#000" stroke-width=".21002"/><path d="M248 290h5v-1h-5zM253 281h5v-1h-5z" fill="#a07e00" stroke="#000" stroke-width=".21002"/></g><path d="M250 344c-13 0-26-3-36-8-8-4-14-12-14-22v-89h101v89c0 10-6 18-14 22-11 5-23 8-37 8z" font-size="12" fill="none" stroke="#000" stroke-width=".84008"/></svg>
