<svg xmlns="http://www.w3.org/2000/svg" viewBox="0 0 15000 10000"><path fill="#171796" d="M0 6667h15000v3333H0z"/><path fill="#FFF" d="M0 3333h15000v3334H0z"/><path fill="red" d="M0 0h15000v3333H0zM7501 7724c1103 0 2006-903 2006-2006V3333H5494v2385c0 1103 903 2006 2007 2006z"/><path fill="#FFF" d="M7501 7692c1082 0 1968-886 1968-1968V3372H5532v2352c0 1082 886 1968 1969 1968z"/><path fill="red" d="M6363 3446h-757v832h757v-832zM6363 5110h758v-832h-758v832zM5606 5719c0 76 4 150 13 224h744v-833h-757v609zM7878 5110h-757v833h757v-833zM7878 6775h758v-832h-758v832zM8636 7230c168-127 314-281 432-455h-432v455zM6363 6775h758v-832h-758v832zM5930 6775c118 175 265 329 433 456v-456h-433zM7631 7607c84-6 167-17 247-34v-798h-757v798a1863 1863 0 00510 34zM9379 5943c9-74 14-149 14-225v-608h-757v833h743zM7878 5110h758v-832h-758v832zM7878 3446h-757v832h757v-832zM9392 4278v-832h-756v832h756z"/><path fill="#FFF" d="M9435 3309l469-1065-357-578-593 220-416-476-549 314-489-400-489 400-548-314-417 476-592-220-358 578 469 1065a4683 4683 0 011935-416c689 0 1344 149 1935 416z"/><path fill="#0093DD" d="M6059 1933l-1 1-587-218-329 531 126 287 319 725c238-106 487-192 744-258l-272-1068z"/><path fill="#FFF" d="M6026 2458a288 288 0 11-536 188 289 289 0 00536-188z"/><path d="M5762 2061l-1 4-20 103 79 70 4 3-5 1-99 35-20 103-1 4-4-3-79-69-100 34-4 2 1-5 20-103-79-69-4-3 5-2 99-34 20-103 1-5 4 3 79 69 100-34z"/><path fill="#F7DB17" d="M5643 2207l74 65 93-32-167-33zM5643 2204l167 33-74-65-93 32zM5464 2169l167 32-74-64-93 32zM5631 2205l-167-33 73 65 94-32zM5640 2198l112-128-93 32-19 96zM5520 2336l111-128-92 32-19 96zM5634 2210l-112 128 93-31 19-97zM5754 2072l-112 129 93-32 19-97zM5633 2199l-55-161-19 96 74 65zM5693 2372l-56-161-18 96 74 65zM5641 2210l55 161 19-97-74-64zM5581 2037l56 161 18-97-74-64z"/><path fill="#171796" d="M7016 1773l-1 1-544-312-412 471 271 1068c252-64 512-107 777-129l-91-1099z"/><path fill="red" d="M6263 2736c266-68 541-114 822-137l-23-278c-297 25-587 74-867 145l68 270zM6127 2199c295-75 600-126 912-152l-23-273c-327 27-647 81-956 160l67 265z"/><path fill="#0093DD" d="M7986 1773l-1 1-485-397-484 396 91 1099a4771 4771 0 01788 0l91-1099z"/><path d="M7499 2267l-3 2-28 37c-10 3-13 9-9 18-13-1-15 10-15 22-13-19-27-25-42-16 0-11-9-17-22-20-9 0-16-3-22-7l-9-6c-6-4-11 0-9 4l41 67c-1 4 0 7 5 10l7 20-2 6c-11-5-22-6-34-7-8 0-14-2-18-7-3-3-5-1-5 4 0 28 9 52 31 76l-36 1c-4 1-4 2-3 6 6 15 17 29 42 39-11 5-17 14-19 26 0 12-3 20-10 23-4 2-5 4-2 6 13 9 29 10 46 6-8 13-12 28-10 43 10 3 21 1 31-3l-2 16c-1 6-3 12-6 17-1 2-3 5 0 6 18 4 33 2 47-3 0 13 0 25 4 37 1 3 4 5 6 2 8-11 17-21 27-27 2 5 4 9 8 11 5 3 8 9 8 18 0 1 0 3 2 4 7 1 26-19 30-30 10 6 14 12 22 23 3 4 5 2 7-1 3-12 3-24 3-37 14 5 29 7 47 3 3-1 1-4 0-6-3-5-6-12-6-18l-2-15c10 4 20 6 31 3 2-15-3-30-11-43 17 4 34 3 47-6 2-2 1-4-2-6-7-3-10-11-10-23-2-12-8-21-19-26 25-10 36-24 42-39 1-4 1-5-3-6l-37-1c23-24 31-49 31-76 0-6-2-8-5-4s-9 7-17 7c-11 1-22 1-34 7l-1-6 8-20c4-3 5-7 4-11l40-66c3-4-2-8-9-4l-8 6c-6 4-14 6-23 7-13 3-21 9-22 20-14-9-28-3-41 16-1-12-2-23-15-22 3-9 0-15-10-18-9-13-23-24-32-37l-4-2z"/><path fill="#F7DB17" d="M7628 2338c-3-1-6 1-8 5s-2 9 1 10c2 1 4 0 6-3l1-2c2-4 3-9 0-10zM7373 2338c2-1 6 1 8 5s2 8-1 10-5-2-7-6c-2-3-3-7 0-9zM7604 2384c-2 0-3 2-3 3s1 3 3 3 3-1 3-3c0-1-1-3-3-3zM7399 2384c-2 0-3 2-3 3 0 2 1 3 3 3s3-1 3-3-2-3-3-3zM7617 2369a966 966 0 00-230-1c-2 0-2 5 0 4a1202 1202 0 01229 1c2 0 3-4 1-4z"/><path fill="#F7DB17" d="M7386 2365a1175 1175 0 01231 0l6-9h-4c-4-2-5-9-2-14 3-6 8-9 12-7 2 1 3 3 3 5l23-37c-10 6-17 11-30 13-14 2-20 7-18 15s-3 7-11 3c-16-9-27 4-33 18-3 10-8 9-8-1l-1-10c-1-11-4-14-11-11-8 4-9 1-7-3 2-3 5-7 4-12-1-3-4-4-8-5-9-12-24-24-33-37l-28 37c-5 1-8 2-8 5-1 5 2 8 4 12s1 6-7 2c-7-3-10 0-11 12v10c-1 10-5 10-9 1-6-14-18-27-34-18-7 4-10 5-9-3 1-9-6-13-20-15-13-2-19-7-30-13l22 35c0-2 1-3 3-3 3-2 9 1 12 7 3 5 2 12-2 14h-2l5 8 1 1zM7609 2411l-1 1-7 6-11 9h-2v-2a90 90 0 0015-14l-15-2-11 5c-3 2-6 4-7 7h-2c-2-1-1-1-1-2l8-7 6-3-17-2a23 23 0 00-6 6c0 1-1 2-2 1v-3l3-3 1-1-13-1v1a16 16 0 00-5 6c0 1 0 2-2 1l-1-2 2-4 2-2h-18l-4 3-2 3-2 1c-2-1-1-2-1-3a16 16 0 014-5h-37l1 1 3 4v3l-2-1-3-3-3-3h-19l2 2 2 4c0 1 1 2-1 2-1 1-2 0-2-1a16 16 0 00-5-6v-1l-12 1v1l4 4-1 2c-1 1-2 0-2-1a19 19 0 00-6-6h-1l-16 1 6 4 8 7c0 1 1 1-1 2h-2c-1-3-4-5-7-7l-12-5-14 1 4 6 11 9v2h-2l-11-9-7-7c-10-5-18-7-29-8-8 0-16 0-24-4 2 5 4 9 7 12s6 6 11 7l1 2c1 8 4 14 8 19 3 4 6 6 10 8-4-4-7-8-9-13-3-7-5-14-4-21 0-1 0-2 2-2l1 2c0 6 1 13 4 20 3 6 8 12 15 17 1 1 0 4-2 3-7-2-14-6-19-12-5-5-8-12-9-20-5-1-9-4-12-8l-6-11c2 22 10 41 24 58 3 4 8 10 13 11 4 2 4 5-1 5l-6 1 12 5c7 4 11 8 11 14 1 1 1 1-1 2-2 0-2-1-2-2 0-4-4-8-10-11-5-4-13-6-20-9l-23 1 6 4 18 6 12 5 9 7c0 1 1 2-1 3-1 1-1 0-2-1l-8-7-11-4a69 69 0 01-28-13c10 20 23 29 43 35l3 1h1a181 181 0 0026 5c1 0 2 0 2 2l-2 1a186 186 0 01-22-3h-6c-11 1-21 12-22 26 5-4 9-8 14-10 6-4 12-6 19-4l1 2c-1 2-2 1-2 1-6-1-11 0-16 3l-17 13c-1 8-4 15-10 19 3 2 5 4 8 3l14-6 14-3c1 0 2 0 2 2s-1 2-2 2l-13 2-12 5c12 2 24 0 34-4l7-2 9-4 9-3 2 1-1 2c-6 1-7 1-12 4l-6 5a34 34 0 00-14 18l-4 11 11-15c4-5 10-10 17-13h2v2c-7 4-12 8-17 13s-8 11-11 18l-2 4 16-15c7-6 15-8 22-7l1 2-2 1c-6-1-13 2-19 6l-19 19c10 1 19-2 28-5 5-1 9-7 12-7l3-4 5-5h3c1 1 0 2-1 3l-4 4-5 6-1 1c-3 4-8 8-9 12-3 11-1 19-6 30l9-7 6-12c2-5 5-10 9-14 3-4 8-7 13-9l2 1c1 1 0 2-1 3-4 1-9 4-12 8-4 3-6 7-8 12l-7 13-8 6h6c4 0 11-3 14-6 4-3 6-6 8-11h2c2 0 1 1 1 2-2 5-5 9-9 11-3 3-6 4-10 5 8 0 16-2 24-5 3-1 4-9 7-11l5-8c2-3 5-5 8-6 1 0 2-1 2 1v2l-8 5-5 8c1 4-2 11-2 15-1 11 0 21 2 32l9-10v-1a153 153 0 002-34c-1-1-1-1 1-2 2 0 2 1 2 2a100 100 0 01-1 31l4-5a37 37 0 002-24l1-2 2 1c1 4 2 9 1 13l-2 10 9-6-1-12 1-9c1-1 1-2 3-2s2 1 1 2v22c0 4 2 9 6 11 5 4 8 9 10 14v-20c-1-7-3-14-6-19 0-1-1-1 1-2 1-1 2 0 2 1 3 5 5 12 6 20 1 7 1 15-1 24 6-4 20-13 18-30l-1-4s-1-1 1-2l2 1 2 6v3l3-2 4 3a39 39 0 01-1-22l2-1 1 2-1 12 3 12 1 1 3 3a143 143 0 01-1-30c0-1 1-2 2-1l2 1-1 17a178 178 0 002 18l8 10c3-11 4-21 3-32l-3-15-5-8-7-5c-1-1-2-1-1-2 1-2 1-2 2-1l9 6 5 8c3 0 4 9 7 11 8 3 15 5 23 5a27 27 0 01-19-17l1-2 2 1c2 5 5 8 8 11 4 3 15 6 21 6l-8-6-8-13a35 35 0 00-20-21l-1-2 3-1a38 38 0 0122 23c1 5 3 9 6 12 2 2 5 5 9 6-5-10-4-18-6-29-2-7-12-14-10-16 2-3 7 4 12 6 9 3 19 6 28 5-6-7-12-14-19-19-6-4-12-7-18-6l-2-1c0-2 1-2 2-2 7-1 13 1 20 7 6 4 10 8 16 15l-2-4c-3-6-6-12-11-18-4-5-10-9-16-12-1-1-2-1-1-3h2c7 3 13 8 18 13l10 16-4-12c-2-5-4-10-9-14-3-3-11-8-11-10l-3-1-8-2-2-2c0-2 1-2 2-2l9 3 5 3 11 4c10 4 23 7 34 4l-12-4c-4-2-8-3-13-3-1 0-2 0-2-2l2-1c5 0 10 1 14 3l14 5c3 2 5 0 8-2-6-5-9-12-10-19-6-5-11-10-17-13-5-3-10-5-16-4 0 1-1 1-2-1l1-2c7-1 13 0 19 4l14 11v-1c-1-14-10-25-22-25-4-1-10 1-10-2s5-2 12-4c20-6 33-15 43-36l-10 7-18 6-11 5-8 6c-1 1-1 2-2 1-2-1-1-2-1-3l9-7 12-5a70 70 0 0024-10h-23c-7 2-15 4-21 8-5 3-9 7-9 11 0 1 0 2-2 2s-2-1-2-2c1-6 5-10 12-14l12-5h-6c-5-1-5-4-1-6 5-1 10-7 13-11 14-17 21-36 23-57l-5 10c-3 4-7 7-12 8-1 9-4 15-9 21-5 5-11 9-19 11-1 1-2-2-1-3 6-5 11-11 14-17 3-7 4-14 4-20 0-1-1-1 1-2 2 0 2 1 2 2 0 7-1 14-4 21-2 5-5 9-9 13l10-7c4-6 7-12 8-20l1-1c5-2 8-4 11-8 3-3 5-7 6-12-7 4-15 4-23 4-10 1-18 4-28 8z"/><path fill="#F7DB17" d="M7606 2402a806 806 0 00-209 2c0 2 2 2 6 2a1044 1044 0 01202 0c2 1 4-4 1-4z"/><path fill="#F7DB17" d="M7398 2398a1009 1009 0 01207 1l2-6-3 1c-3 0-6-3-6-7s3-6 6-6 5 2 6 4l3-9a954 954 0 00-222-1l3 9c1-2 3-3 5-3 3 0 6 3 6 6s-3 7-6 7l-2-1 2 5h-1zm157-21c-4 0-7 3-7 6s3 7 7 7c3 0 6-3 6-6s-3-7-6-7zm0 4c-2 0-3 1-3 3s1 3 3 3l3-3-3-3zm-55-5c-4 0-7 3-7 6 0 4 3 6 6 6 4 0 7-2 7-6 0-3-3-6-6-6zm0 3c-2 0-3 1-3 3s1 3 3 3 3-1 3-3l-3-3zm-55-2c-3 0-6 3-6 6 0 4 3 7 6 7 4 0 7-3 7-7 0-3-3-6-7-6zm0 3l-3 3 3 3c2 0 3-1 3-3 0-1-1-3-3-3z"/><path d="M7502 2338l-5-9c-3-2-6-4-10-4-1-1-2-3 0-4 3-1 6-3 8-7l5-13c0-1 3-2 3 0a23 23 0 0015 18c1 0 1 3-1 3-2 1-5 2-7 5l-5 11c0 2-3 2-3 0zm2-6l4-7 5-5-8-6-3-6-4 8-6 6a23 23 0 0112 10zM7544 2593l-26 10c-1 0-2 1-2-1-1-2 0-2 1-2l26-11c1 0 2-1 2 1 1 2 0 2-1 3zm3-17l-30 17c-1 0-2 1-3-1s0-2 1-3l30-16h3c1 2 0 3-1 3zm-93-3l31 16c1 1 2 1 1 3s-2 1-3 1l-31-17v-3h2zm3 16l26 11c1 0 2 0 1 2s-1 1-2 1l-27-10-1-3c1-2 2-1 3-1zm11 22c7 2 13 3 18 2s8-3 10-8v-25l-15-2c-6-1-9-5-11-9-2-5-1-12 0-17 1-1 1-2 3-1l1 2c-1 4-2 10 0 15 1 3 4 5 8 6a59 59 0 0031 0c4-1 7-3 10-6s3-6 3-9l-3-4-6-2-8 1-3 1c-1 0-2 0-3-2 0-2 1-2 2-2a292 292 0 0112-2c3 1 6 1 8 3 3 2 4 4 5 7 0 4-1 8-4 12-3 3-7 6-12 7l-14 2v26c2 4 5 6 10 7s11 0 18-2c1 0 2 0 2 2 1 1 0 2-1 2-7 2-14 3-20 2-5-1-8-3-11-7-2 4-6 6-11 7s-12 0-20-2c-1 0-2 0-1-2 0-2 1-2 2-2zm18 11l21-1c1 0 2 0 2 2s-1 2-2 2l-21 1c-1 0-2 0-2-2s1-2 2-2zM7517 2465c7-6 15-12 21-15 7-4 13-6 19-6l1 2c0 2-1 2-2 2-4 0-10 2-16 5l-21 15h-3c-1-2 0-2 1-3zm-31 3c-7-7-15-13-23-16-7-4-14-6-18-5-1 0-2 0-2-2-1-2 0-2 1-2 6-1 13 2 21 5 8 4 16 10 23 17 1 1 2 1 1 3h-3zm-11 51a50 50 0 0116-20h2v3l-8 8-7 10c0 1-1 2-2 1-2 0-1-1-1-2zm19-88l6 11 2 14-1 13c0 4-2 8-5 12-2 3-5 5-8 6h-8c1 5 2 10 0 15-1 1-2 2-3 1l-6-3-7-3-12-5c-3-2-6-4-7-7v1c-3-3-4-6-5-9l-1-9-10-6-8-7v-2c1-2 2-1 3 0l7 6 11 6 19 6 16 9 1 2 2 1h7c3 0 5-2 6-4 3-3 4-7 5-11v-12l-2-13-5-10v-3c2-1 3 0 3 1zm-19 53l-16-10-16-5 1 7c0 3 2 5 3 7l7 6 12 5a65 65 0 0111 5c1-4 0-9-2-14v-1zm39-51l-5 10-2 13v12c1 4 2 8 5 11 1 2 4 4 6 4h8l1-1 1-1c6-4 11-8 17-10l18-6a110 110 0 0018-12c1-1 2-2 3 0 2 1 1 2 0 2l-8 7-10 6-1 9c-1 3-2 6-5 9l1-1-8 7-12 5v1a88 88 0 00-13 5c-1 1-2 0-3-1-2-5-1-10 0-15h-8c-3-1-6-3-8-6-3-4-5-8-5-12l-1-13 2-14 6-11c1-1 1-2 3-1v3zm48 36l-16 5-16 10v1c-1 5-3 10-2 14l5-2 7-3h-1l12-5 7-6c2-2 3-4 3-7l1-7z"/><path d="M7546 2472a11 11 0 000 22c6 0 11-5 11-11s-5-11-11-11zm0 3c-4 0-8 4-8 8s4 7 8 7 7-3 7-7-3-8-7-8zm0 4c-3 0-5 2-5 4s2 4 5 4c2 0 4-2 4-4s-2-4-4-4zm-87-7a11 11 0 110 22 11 11 0 010-22zm0 4c4 0 8 3 8 7s-4 8-8 8-7-4-7-8 3-7 7-7zm0 3c3 0 5 2 5 4s-2 4-5 4c-2 1-4-1-4-4s2-4 4-4zM7278 1773c-1-1-3 0-4 2l-26 38c-10 3-12 9-8 18-13-1-14 10-14 22-14-19-28-23-42-14-1-11-11-17-24-19-9 0-16-3-22-6l-9-5c-7-5-11 0-9 4l44 64c-1 5 0 8 5 11l8 20-2 5c-11-5-23-5-34-5-9 0-15-2-19-6-2-4-4-2-4 4 1 27 10 51 33 75l-35 2c-4 1-5 2-3 6 7 15 18 28 43 37-11 6-16 15-17 27 0 12-3 20-10 24-3 1-4 3-1 5 13 9 29 9 46 4-8 14-11 29-9 44 11 2 21 0 31-4l-2 16c0 6-1 12-4 18-2 1-3 4 0 5 17 4 33 1 47-5 0 13 1 25 5 37 1 3 4 6 6 2 8-12 16-21 26-28 2 5 4 9 8 11 5 2 8 8 9 17 0 1 0 3 2 4 8 1 25-20 29-31 10 6 15 12 23 23 3 3 5 1 6-2 3-12 3-25 2-37 14 5 30 6 47 1 4-1 2-4 0-6-3-5-6-12-6-18-1-7-1-11-3-14 10 3 21 4 31 1 1-15-3-29-12-43 17 4 33 3 46-7 3-3 2-4-1-6-8-3-11-11-12-23-2-11-9-20-19-25 24-11 34-25 40-41 1-3 0-5-4-5h-36c21-25 29-50 28-77-1-6-2-8-5-4-4 4-9 7-17 8-12 1-23 2-34 7l-1-5 7-21c4-2 5-6 4-10l37-68c3-4-3-8-9-3l-8 5c-6 5-13 8-22 9-13 3-21 9-21 21-16-9-29-3-41 17-1-12-3-23-17-22 4-8 1-15-9-17-10-13-24-23-34-36-2-1-3-2-4-1z"/><path fill="#F7DB17" d="M7409 1839c-2-2-6 1-8 5s-1 8 1 10c2 1 5-1 6-3l1-2 1-1c1-4 2-8-1-9zM7154 1848c3-1 6 1 9 5 2 4 2 8-1 10s-5-1-7-5-3-8-1-10zM7387 1886c-2 0-3 1-3 3l3 3c2-1 3-2 3-4 0-1-1-2-3-2zM7182 1893c-2 1-3 2-3 4 0 1 1 3 3 2 2 0 3-1 3-3l-3-3zM7400 1870a945 945 0 00-231 7c-1 1-1 5 1 5a1174 1174 0 01228-8c2 0 3-4 2-4z"/><path fill="#F7DB17" d="M7168 1874a1181 1181 0 01232-8l5-9h-5c-4-2-5-8-2-14s8-10 12-8c2 1 3 3 4 6l21-39c-10 7-16 12-29 14-14 3-21 8-18 17 2 8-3 7-10 3-17-8-28 4-33 19-3 10-8 9-8 0l-1-11c-2-11-5-14-12-11-8 5-8 2-7-2 2-3 4-7 3-12 0-3-3-4-8-4-9-13-24-24-34-36l-27 38c-4 0-7 2-8 5 0 5 3 8 5 11 2 4 1 7-7 3-7-3-10 0-10 12v11c-1 9-5 10-9 1-6-15-19-26-35-17-7 4-10 5-9-3s-6-13-20-14c-13-2-20-6-30-12l22 34 3-3c4-2 9 1 12 6 3 6 3 12-1 14l-2 1 6 8zM7393 1912l-1 1-7 6-10 10h-2v-2a85 85 0 0014-15l-15-1-11 5-7 7-2 1-1-3 8-7 6-3-17-1a18 18 0 00-5 6h-3v-2l3-4h-12l-3 3-2 4-2 1-1-3 2-4 2-1h-18-1l-3 3-2 3c-1 1-1 2-2 1-2-1-2-1-1-2l3-4 1-1h-19l-18 1 1 1 3 4v2h-3l-2-4-4-2-1-1a497 497 0 00-16 3l3 4c0 1 1 2-1 2h-2l-2-4a20 20 0 00-4-3l-12 1 1 1 3 3v3c-1 1-2 0-2-1a19 19 0 00-7-5l-17 1 6 3 9 7c0 1 1 2-1 3-1 1-2 0-2-1l-7-6-13-5-14 2 5 5 11 9v2c-1 2-2 1-2 1l-11-9-7-7c-11-4-19-6-30-7-8 0-16 1-23-3l6 12c3 3 7 6 11 7l2 1c1 8 4 14 9 19 3 3 6 6 10 7l-9-12c-4-7-5-14-5-21 0-1 0-2 2-2l1 2c0 6 1 13 5 20 3 6 8 11 15 17 1 1 0 3-1 3-8-2-15-6-20-11s-8-12-10-20c-5-2-9-5-12-8l-6-10c2 21 11 40 25 57 4 3 9 9 14 10 4 2 5 5-1 5l-5 1 12 5c6 3 11 7 12 13 0 1 0 2-2 2l-2-2c0-4-4-8-10-11l-21-7-23 1 7 4 17 6c5 0 9 2 12 4l10 7v2h-3l-8-6-11-4-19-6-9-6c9 20 24 28 43 33l4 1 14 3 13 1c1 0 2 0 2 2l-2 1-14-1-8-1h-6c-12 2-21 13-21 26v1l13-11c6-4 12-6 19-4l1 2-2 1c-5-1-11 0-16 4-5 3-10 8-15 13-1 8-4 15-10 20 3 1 5 3 8 2l13-6 15-4 1 2-1 1-14 4-11 5c12 2 24-1 34-6l7-2 8-4 10-4 1 2c1 1 0 2-1 2-6 1-6 1-11 4l-6 5-5 4c-4 4-7 9-9 15l-3 11c3-5 6-11 10-15 5-6 10-11 17-15l2 1v2c-7 4-12 8-16 14-5 5-8 11-11 18l-2 4c5-6 10-12 16-16 6-5 14-9 21-8 1 0 2 0 1 2l-1 1c-6 0-13 3-19 7l-18 19c9 1 19-2 27-5 5-2 10-7 12-8l3-4 5-5h2c2 1 1 2 0 2l-4 5-5 6-1 1c-3 4-7 9-8 13-3 11-1 19-5 29l8-7c3-3 5-7 6-12l8-14c4-4 8-7 13-9 1 0 2-1 2 1v2c-5 2-9 5-12 8l-8 13c-1 6-3 10-6 13l-8 7 6-1c4 0 11-3 14-6s6-6 8-11l2-1 1 2c-2 5-5 9-9 12-3 3-6 4-10 5 9 0 16-2 24-6 3-1 4-8 6-10l5-9 8-6h2c1 2 0 2-1 3l-6 5-5 8c1 4-2 12-2 16 0 10 0 20 4 31l8-10v-1a154 154 0 000-34l1-2c2 0 2 1 2 2a99 99 0 010 31l4-6 3-12-1-11c0-1-1-2 1-2 1-1 2 0 2 1l1 12-2 11 9-7a150 150 0 010-21c0-1 0-2 2-2s2 1 2 2l-1 9 1 13c0 4 3 9 7 11 5 3 8 8 10 14l-1-21c-1-7-3-13-6-18v-2h2c4 6 6 12 7 20 1 7 2 16 1 25 5-5 19-14 16-31l-1-4v-2c2-1 2 0 3 1a23 23 0 013 9l2-2 4 2-2-9v-13l2-1 1 2v12l4 12v1l4 3a191 191 0 01-2-30l1-2c2 0 2 1 2 2v17a178 178 0 003 17l8 10c2-11 3-21 2-32 0-3-4-11-4-15l-5-7-7-6c-1 0-2 0-1-2l2-1 8 7 6 7c3 0 4 9 7 11 8 2 16 4 24 4-4-1-7-2-10-5-4-2-7-6-10-11l1-2c1-1 2 0 2 1l8 10c5 3 15 6 21 5-3-1-6-3-8-6-3-3-6-7-8-12l-8-13c-4-3-8-6-13-7l-1-2c1-2 2-1 3-1 5 1 9 4 13 8s7 8 9 14l7 11 9 7c-5-11-4-19-7-30-2-6-12-13-10-15 2-3 7 4 13 6 9 2 18 5 27 3l-19-18c-6-4-12-7-18-5-1 0-2 0-2-2l1-1c7-2 14 1 21 5l16 15-1-4c-4-6-7-12-12-17s-11-9-17-12c-1 0-2-1-1-2 1-2 1-1 2-1 7 3 13 8 18 13l11 15-4-11c-2-6-5-10-10-15-3-2-11-6-11-8l-3-1-9-3-1-1c0-2 1-2 2-2l9 3 5 2 11 4c10 3 23 5 34 3l-12-5-13-2-2-1c0-2 1-2 2-2l14 2 14 5c3 2 5 0 8-2-6-5-10-12-11-19-6-5-11-9-17-12-5-3-11-5-16-3l-2-1 1-2c6-2 13 0 19 3 5 2 9 6 14 10v-1c-1-14-11-24-23-24-4 0-10 1-10-1 1-3 5-3 12-5 20-7 33-17 41-37l-9 7c-4 2-10 5-18 7l-11 5-7 7h-3v-2c2-3 5-6 9-8l11-5a68 68 0 0024-12l-23 1c-8 2-15 5-21 9-5 3-9 7-9 12l-2 1-1-2c0-5 5-10 11-14l12-6h-6c-6 1-6-3-1-5s9-7 12-11c14-18 20-37 21-59l-5 11c-3 4-6 7-11 9-1 8-4 15-8 20-5 6-11 10-19 13-1 0-2-2-1-3 6-6 10-12 13-18 3-7 4-14 3-20l1-2c2 0 2 1 2 2 1 6 0 14-3 21l-8 13 9-8c4-5 7-12 8-20l1-1c4-2 8-4 10-8 3-3 5-7 6-12-7 4-15 4-23 5-11 2-19 5-28 9z"/><path fill="#F7DB17" d="M7390 1903a824 824 0 00-209 8l-1 2c1 2 2 2 7 2a1075 1075 0 01202-8c2 1 4-4 1-4z"/><path fill="#F7DB17" d="M7182 1908a1010 1010 0 01207-7l1-7-3 1c-3 0-6-3-6-6s3-6 6-6c3-1 5 1 6 3l3-9a953 953 0 00-223 8l3 8c2-1 3-3 6-3a6 6 0 010 13h-2l2 4v1zm155-28c-3 1-6 3-6 7s3 6 7 6c3 0 6-3 6-7s-3-6-7-6zm1 4c-2 0-3 1-3 3 0 1 1 3 3 3l3-3c0-2-2-3-3-3zm-56-3c-3 0-6 3-6 7s3 6 7 6c3-1 6-3 6-7 0-3-3-6-7-6zm0 3c-1 1-3 2-3 4 1 1 2 3 4 2 1 0 3-1 3-3-1-1-2-3-4-3zm-54 0c-3 1-6 3-6 7 0 3 3 6 7 6 3 0 6-3 6-7s-3-6-7-6zm0 4c-2 0-3 1-3 3l3 3c2 0 3-2 3-3 0-2-1-3-3-3z"/><path d="M7283 1843l-5-8c-3-3-6-4-10-5-2 0-2-2 0-3 3-1 5-4 7-7l5-13c0-2 3-2 3 0l5 10 10 7c2 0 2 3 0 3-3 1-5 2-7 5l-5 11c0 2-2 2-3 0zm2-6l3-8 5-4-7-6c-2-1-3-3-4-6l-4 9-5 6 7 4 5 5zM7335 2096l-26 12-2-1c-1-2 0-3 1-3l26-11c1-1 1-1 2 1 1 1 0 2-1 2zm3-17l-31 18h-2v-3l31-18s1-1 2 1v2zm-94 1l32 15 1 3h-3l-31-15c-1 0-2-1-1-3h2zm4 16l26 9c1 1 2 1 2 3-1 2-2 1-3 1l-27-10-1-2c1-2 2-1 3-1zm12 22h18c5-1 8-3 10-7l-1-26c-6 1-11 0-16-1-6-1-9-5-11-9-2-5-1-12 0-16 0-1 0-2 2-2s2 1 1 2c-1 5-1 10 1 15 1 3 4 5 8 6l16 2c5-1 11-1 15-3 4-1 7-4 10-7s3-6 2-9l-2-4-7-1-7 1-4 1c-1 0-2 0-2-2s0-2 1-2l4-1 8-1 9 2 4 7c1 4-1 8-3 12-3 3-7 6-12 8l-14 2 1 25v1c2 4 6 6 10 7l18-3c1 0 2 0 3 2l-2 2c-7 2-14 3-19 2-5 0-9-2-12-6-2 4-6 6-10 7-6 1-12 1-20-1-1 0-2 0-1-2 0-2 1-2 2-1zm18 10l21-2c1 0 2 0 2 2s-1 2-2 2l-20 1-2-1 1-2zM7303 1969c7-6 14-12 21-15 6-4 12-7 18-7 1 0 2 0 2 2s-1 2-2 2c-5 0-10 2-16 6l-21 15c0 1-1 2-2 0-2-1-1-2 0-3zm-31 5c-7-7-16-12-23-16-8-3-14-5-19-4-1 0-2 0-2-2s1-2 2-2c5 0 12 1 20 5s17 9 24 16c1 0 2 1 1 2-2 2-2 1-3 1zm-9 51l7-11c2-4 5-7 8-9 1-1 2-2 3 0v2l-8 9c-3 3-5 7-6 11l-3 1c-2-1-1-2-1-3zm16-89l6 11 2 14v13c0 4-1 9-4 13-2 3-5 5-8 6h-9c2 5 3 10 1 15 0 1-1 2-2 1a337 337 0 00-14-5l-12-5-8-6c-2-2-4-5-4-9l-2-8a115 115 0 01-19-12v-3h3l8 6 10 6c7 0 13 2 20 4l16 10 1 1 2 1h8l6-4 3-12v-12l-2-13c-1-3-3-7-6-10 0 0-1-1 1-2 1-2 2-1 2 0h1zm-17 54c-6-4-11-7-17-9-5-2-11-4-16-4l1 6 4 7 7 5 12 5 7 3 4 2c1-4-1-9-2-13v-2zm37-53l-5 11-1 13 1 12c1 4 2 8 5 11 1 2 4 3 6 4l8-1 1-1 1-1c5-5 11-8 16-11l18-6a129 129 0 0018-13c1-1 1-2 3 0v2l-8 7-10 7v9c-1 3-2 6-5 8-1 3-4 5-7 7l-12 6-6 3-7 3h-2c-3-5-2-11-1-16l-8 1-9-6-5-12-1-13 2-14 5-12h3v2zm49 35l-15 6c-6 2-11 6-16 10v1c-2 5-3 10-2 14a204 204 0 0112-5l11-6 7-6 3-7 1-7h-1z"/><path d="M7332 1975c-6 1-11 6-11 12s6 11 12 10c6 0 10-5 10-11s-5-11-11-11zm0 4a7 7 0 101 15c4 0 7-4 7-8s-4-7-8-7zm0 3c-2 0-4 2-4 5s2 4 4 4 5-2 5-5-2-4-5-4zm-86-3c6 0 11 4 11 11 0 6-4 11-11 11-6 0-11-4-11-11 0-6 5-11 11-11zm0 3c4 0 7 4 7 8 1 4-3 7-7 7s-7-3-8-7c0-4 4-7 8-8zm0 4a4 4 0 110 8 4 4 0 010-8zM7721 1772l-3 3-30 35c-10 3-12 9-9 18-13-2-15 9-16 21-12-20-26-26-41-17 0-12-9-18-21-21-10-1-17-4-22-8l-9-6c-6-5-11-1-9 4l39 67a1227 1227 0 0011 31l-3 6c-11-6-22-7-33-8-9-1-15-3-18-8-3-3-5-1-5 4-2 28 6 52 27 78l-35-1c-4 0-5 2-4 5 6 16 16 31 40 41-10 5-17 14-19 26-1 11-4 19-11 23-4 1-5 3-2 5 13 10 29 11 46 7-9 14-13 28-12 43 10 4 21 2 31-1l-3 15c-1 6-2 12-6 18-2 1-3 4 0 5 17 5 33 4 47-1-1 13-1 25 2 38 1 3 4 5 7 1 8-10 17-19 27-25 2 4 4 9 8 11 5 3 7 9 7 18 0 1 0 3 2 5 7 0 26-19 31-30 10 7 14 13 21 25 3 4 5 1 7-1 3-13 4-25 5-37 13 6 29 8 46 4 4-1 2-3 0-5l-5-19-1-15c10 4 20 7 31 4 2-15-2-29-9-43 17 4 33 5 46-4 3-2 2-4-1-6-6-4-9-12-9-23-2-12-7-21-18-28 25-8 37-22 44-37 1-3 0-5-4-5l-36-3c23-24 33-48 34-75 0-6-2-8-5-5-4 5-9 7-18 7-11 1-22 1-34 5l-1-5 9-20c4-3 5-6 5-10l42-65c3-4-2-8-9-4l-9 5c-6 4-13 6-22 6-13 3-22 8-23 20-14-10-28-5-42 14 0-12-1-23-14-23 4-8 1-14-9-18-9-13-22-25-31-38l-4-3z"/><path fill="#F7DB17" d="M7847 1848c-2-1-6 1-8 5s-2 8 1 10c2 1 4 0 6-3l1-2c2-4 3-8 1-10h-1zM7592 1839c3-2 7 1 8 5 2 4 2 8-1 9s-5-1-7-5c-1-4-2-8 0-9zM7822 1893c-2 0-3 2-3 3s1 3 2 3c2 1 3-1 3-2 1-2-1-3-2-4zM7616 1886c-1-1-3 1-3 2 0 2 1 4 3 4s3-2 3-3-1-3-3-3zM7836 1879a965 965 0 00-231-10c-1 0-1 4 1 4a1196 1196 0 01228 10c2 0 3-4 2-4z"/><path fill="#F7DB17" d="M7604 1865a1200 1200 0 01232 10l6-9h-5c-4-3-4-9-1-14 3-6 9-9 12-7 2 1 3 3 4 6l24-37c-11 6-17 10-30 12-15 1-22 6-20 15 2 8-3 6-10 2-16-9-28 3-34 17-4 9-8 9-8-1v-10c-1-12-4-15-11-12-8 3-9 1-7-3 2-3 5-7 4-12 0-3-3-4-8-5-8-13-22-25-31-38l-30 36c-4 0-7 1-8 4-1 5 2 9 4 12 2 4 1 7-7 2-7-3-10 0-11 11l-1 11c-1 10-6 10-9 0-5-15-17-27-33-19-8 3-11 4-9-3 1-9-5-14-20-17-12-2-19-7-29-14l20 36 3-3c4-2 9 1 12 7s2 12-2 14l-2 1 5 8zM7826 1920l-1 1c-3 1-5 3-7 6l-12 9h-2c-1-1 0-2 1-3a85 85 0 0014-13l-14-2-11 4-8 6c0 1-1 2-2 1v-2c1-3 4-6 8-8l5-2-16-2-3 2-3 4h-2c-2-1-1-2-1-2l4-4v-1l-12-1-1 1a20 20 0 00-4 6l-3 1v-3l2-4 1-1-17-1h-1l-3 3-3 3h-2c-2-1-1-1-1-2l4-4 1-1-19-1h-18l1 1 3 4c0 1 1 1-1 2s-2 0-2-1a15 15 0 00-6-6h-18l1 2 2 4v2l-3-1-1-4-3-3h-13l1 1 3 4s1 1-1 2c-1 1-2 0-2-1a20 20 0 00-6-6h-17l6 4c4 2 6 5 8 8v2c-2 1-2 0-3-1-1-2-3-5-6-6-4-3-8-5-13-6l-14 1 5 5 10 10v2h-2c-5-3-8-6-11-10l-6-7c-10-5-18-7-29-9-8-1-17-1-24-5l6 12c3 4 6 7 11 8l1 2c1 8 4 14 8 20l9 8-8-14c-3-7-4-14-3-21 0-1 0-2 1-1l2 1c-1 7 0 13 3 20 2 6 7 13 14 18 1 1 0 4-2 3-8-2-14-7-19-12-4-6-7-13-8-21-5-2-8-5-11-9-3-3-4-7-6-11 1 22 8 42 21 59 3 4 8 10 13 12 4 2 4 5-1 5h-6l12 5c6 4 11 9 11 15l-2 1-1-1c0-4-4-8-10-12l-20-9h-23l6 4c4 3 10 5 17 7l12 5c4 2 7 5 9 8v2h-3c-2-3-4-5-8-7l-10-5c-8-2-14-4-18-7-4-2-7-4-9-7 8 21 21 31 41 37l3 1 14 4 13 2c1 0 2 0 1 2l-1 1a180 180 0 01-23-4h-5c-12 0-22 11-23 24v1l14-10c6-3 12-5 19-3l1 2c-1 2-1 1-2 1-6-1-11 0-16 3-6 3-12 7-17 12-1 7-5 14-11 19 3 2 5 3 8 2l14-5 14-2c1 0 2 0 2 2l-2 1-13 2-12 5c11 2 23 0 34-3l7-2 9-4 9-2 2 1-1 2c-6 1-7 1-12 4 0 1-3 3-7 4l-4 4c-5 4-8 8-10 14l-4 11c3-5 6-10 11-15s11-10 18-13l2 1-1 2c-7 3-12 7-17 12s-9 11-12 17l-2 5 17-15c7-5 15-8 21-6 1 0 2 0 2 2l-2 1c-6-1-13 1-19 5l-19 18c9 2 18-1 27-3l13-8a49 49 0 018-8c1 0 2-1 3 1 1 1 0 1-1 2a71 71 0 00-10 10l-1 1c-3 3-8 8-9 12-4 10-2 19-8 29l10-7 7-11c2-5 5-10 9-14l13-8 2 1c1 2 0 2-1 2a34 34 0 00-20 20l-8 13-8 6h6c4-1 11-3 14-6 4-2 6-6 9-10 0-1 0-2 2-1v2c-2 5-5 9-9 12l-10 4c8 0 16-1 24-4 3-1 5-8 7-10 2-3 3-6 6-8 2-3 5-5 8-6 1 0 2-1 2 1 1 1 0 2-1 2l-7 5-5 7-4 16c0 10 0 21 2 31l9-9v-1a178 178 0 004-35c2-1 2 0 2 1l-1 17-2 14 5-5 3-12v-12l2-2c2-1 1 1 1 2l1 13-3 10 9-6a112 112 0 012-22c0-1 0-2 2-1 2 0 2 1 2 2l-1 9-1 13c0 4 2 9 6 12 5 3 8 8 9 14l1-20c-1-8-2-14-5-19-1-1-1-2 1-3l2 1c3 6 5 13 5 20 1 8 0 16-1 25 5-4 20-12 19-29l-2-4 1-2h2a24 24 0 013 10l2-2 4 3-2-9 2-13c0-1 0-2 2-1l1 2c-1 4-2 8-1 12l3 12v1l3 4a142 142 0 010-31l2-1c1 0 2 1 1 2v16l1 17v1l7 10c4-10 5-21 5-31l-3-16-5-7c-2-3-4-5-7-6v-2c0-2 1-2 2-1 3 1 6 4 8 7l5 8c3 0 3 9 7 11 7 3 15 5 23 6l-10-5c-4-3-7-7-9-12l1-3c1-1 2 1 2 1 2 5 5 8 8 11 4 4 14 7 20 7a34 34 0 01-14-19 35 35 0 00-20-22v-2l2-1c4 2 9 5 13 9 3 4 6 9 8 15l6 12 9 7c-5-11-3-19-6-30-1-6-11-14-9-17 3-2 7 5 13 7 8 4 18 7 27 6-6-8-12-14-18-19s-12-8-18-7l-1-2c-1-1 0-1 1-1 7-1 14 2 20 7s10 9 15 16l-1-4c-3-6-6-13-10-18-5-5-10-10-16-13-1-1-2-1-1-3h2c7 3 13 8 17 14l10 16-3-12c-2-5-4-10-9-15-3-3-11-7-10-9l-4-2-8-3-1-1c0-2 1-2 2-2l9 3 5 4 10 4c10 4 23 7 34 5l-11-5c-5-2-9-3-14-3l-1-2c0-2 1-1 2-1 5 0 9 1 14 3l13 6c3 1 5 0 8-2-6-5-9-12-9-20h-1c-5-5-10-10-15-13s-11-5-16-4l-2-1 1-2c7-1 13 0 19 4l13 12v-1c0-14-9-25-21-26-4-1-10 0-9-2 0-3 5-2 12-4 19-5 34-14 44-34l-10 6c-5 2-10 5-19 6l-11 4-8 7h-3v-3l10-7 12-4 17-6 7-4-23-1-21 8c-6 3-10 6-10 11l-2 1c-2 0-2-1-2-2 1-5 6-10 12-13l12-5h-5c-6-1-5-4-1-5 5-2 10-7 14-11 14-16 22-36 25-57l-6 10c-3 4-7 7-12 8-2 8-5 15-10 20s-11 9-19 11c-1 0-3-2-1-3 7-5 11-11 14-17 4-6 5-13 5-19l1-2 2 1c0 7-1 14-5 22l-9 12 10-7c4-5 7-12 9-20l1-1c5-1 8-3 11-7l7-11c-7 3-15 2-23 3-12 0-20 2-29 6z"/><path fill="#F7DB17" d="M7823 1911a823 823 0 00-209-8v2a1081 1081 0 01208 10c2 1 4-4 1-4z"/><path fill="#F7DB17" d="M7616 1900a1005 1005 0 01207 8l1-6-3 1c-3 0-6-3-6-7 0-3 3-6 7-6 2 0 5 2 5 4l4-8a952 952 0 00-222-9l2 8c1-2 3-3 5-3 4 1 7 3 6 7a6 6 0 01-8 6l2 4v1zm157-15c-4-1-7 2-7 6s3 6 6 6c4 0 7-3 7-6s-3-6-6-6zm-1 3c-1 0-3 1-3 3 0 1 1 3 3 3s3-2 3-3c0-2-1-3-3-3zm-54-7c-4 0-7 3-7 6 0 4 3 6 6 7s6-3 7-6-3-7-6-7zm-1 3c-1 0-3 1-3 3s1 3 3 3 3-1 3-3c0-1-1-3-3-3zm-54-4c-3 0-6 3-6 6s2 7 6 7c3 0 6-3 6-6s-2-7-6-7zm0 3c-2 0-3 2-3 3 0 2 1 3 3 3 2 1 3-1 3-2 0-2-1-3-3-4z"/><path d="M7721 1843c0-3-2-6-4-9l-10-5c-2 0-2-3 0-3 3-1 6-3 8-7 3-3 5-7 6-13 0-1 3-1 3 1a23 23 0 0014 18c2 0 1 3 0 3-3 0-6 2-8 4l-5 11c-1 2-3 2-4 0zm2-6l5-7 5-4a28 28 0 01-11-12l-4 7c-2 3-3 5-6 6l7 5 4 5zM7754 2099l-27 10-2-1c-1-2 0-2 1-3l27-9c1-1 2-1 2 1 1 2 0 2-1 2zm4-16l-32 15c-1 1-1 1-2-1s0-2 1-2l31-16c1 0 2-1 2 1v3zm-93-7l30 18c1 0 2 1 1 3s-2 1-3 0l-30-18c-1 0-2-1-1-2l3-1zm2 17l25 11c1 0 2 1 2 3l-3 1-26-12c-1 0-2-1-1-2 1-2 2-2 3-1zm10 22c7 2 14 3 19 2 4 0 8-2 10-7l1-25c-6 0-11-1-16-3-5-1-8-5-10-9-2-6-1-12 1-17 0-1 0-2 2-1 2 0 2 1 1 2-1 4-2 10 0 15 1 3 3 5 7 7a62 62 0 0032 1c4-1 7-3 10-6l3-9c0-2-1-3-3-4l-6-2h-7l-4 1c-1 0-2 0-2-2l1-2 4-1h8l9 3c2 1 3 4 4 7 0 4-2 8-5 11-2 3-7 6-12 7l-14 2v25c1 4 5 7 9 8 5 1 11 0 18-1 1 0 2-1 2 1 1 2 0 2-1 3-8 1-14 2-20 0-5-1-8-3-11-7-2 4-6 6-11 7l-19-3c-1 0-2 0-2-2s1-1 2-1zm18 11l21 1 1 2c0 2-1 2-2 2l-20-1c-1 0-2 0-2-2s1-2 2-2zM7731 1971c8-7 16-11 22-15 7-3 13-5 19-4 1 0 2 0 2 2s-1 1-2 1c-5 0-11 2-17 5-7 3-14 8-22 14 0 0-1 1-2-1v-2zm-31 1c-7-7-14-13-22-17-7-4-13-6-18-5-1 0-2 0-2-2s1-2 2-2c5-1 12 2 20 6s16 10 23 17v3c-1 2-2 1-3 0zm-12 51l7-11 9-8h3c1 2 0 2-1 3l-8 8-7 10-3 1c-2 0-1-2 0-3zm22-88l5 12c1 4 2 9 1 14v13c-1 4-3 9-6 12-2 3-5 5-8 6l-9-1c2 5 3 11 0 16l-3 1-6-4-6-3-12-6-8-7v1l-4-9-1-9a102 102 0 01-17-13v-3h3l7 7 10 6c7 1 13 3 19 6l16 11 1 1 1 1 8 1c2-1 5-2 6-4 3-3 4-7 5-11l1-12-1-13-5-10v-3c2-1 2 0 3 1v-1zm-21 53l-16-10c-5-3-10-5-16-6l1 7 3 7 7 6 11 6 7 3 4 2c1-4 0-9-1-14v-1zm41-50l-5 10c-2 4-3 9-3 14v11l4 12c1 2 4 3 6 4h8l1-1 1-1 17-10c6-2 13-4 19-4l11-6 7-6h3v3l-8 6-11 6-1 8c-1 4-3 7-5 9l-8 6-12 5a87 87 0 00-13 5c-1 1-2 0-3-1-2-5-1-10 1-15h-8c-4-1-6-3-9-6-2-4-4-9-4-13v-13c0-5 1-10 3-14 1-4 3-8 6-11h2c2 1 2 2 1 2zm47 39c-6 0-11 2-17 4l-16 9v2c-2 4-4 9-3 13l5-2 7-2 12-5 6-6c2-1 4-4 4-6l2-7z"/><path d="M7760 1979c-6 0-11 4-12 10 0 6 5 11 11 12 6 0 11-5 12-11 0-6-5-11-11-11zm0 3c-4 0-8 3-8 7 0 5 3 8 7 8s8-3 8-7-3-8-7-8zm0 3a4 4 0 10-1 9 4 4 0 001-9zm-86-9c6 0 10 5 10 11s-5 11-11 11-11-6-11-12 5-10 12-10zm-1 3a7 7 0 110 15c-4 0-8-3-8-8 1-4 4-7 8-7zm0 3c3 0 5 2 4 5 0 2-2 4-4 4-3 0-5-2-4-4 0-3 2-5 4-5z"/><path fill="#171796" d="M8943 1933l-1 1-413-472-543 311-91 1099c265 22 525 66 776 130l272-1069z"/><path d="M8093 2001c19-5 38-6 56 6 8 3 14 7 17 12l26-17c12-10 25-18 38-22 20-10 39-16 59-18 20-3 41-3 62-2 17 1 33 6 49 15l43 21 46 23a195 195 0 0097 8c9-2 15 4 5 9-71 44-127 5-175-12 18 12 33 24 46 36 18 18 38 36 74 52a179 179 0 00109 16c7-1 9-1 9 2s0 7-4 9c-18 13-36 16-55 17-37 2-76-10-112-29-29-15-48-34-71-51s-43-26-64-31c-21-4-44-4-63 2 6 1 11 4 14 7 10 6 22 9 41 11 9 1 6 7-8 15-9 12-21 18-36 16-21 14-28 6-35-3l-5 16c0 3 1 7-1 10 4 5 5 10 4 15 1 3 2 6 5 9 4 4 7 9 8 14 0 4 2 7 5 10 4 3 8 6 12 12 13 4 19 14 21 26 10 4 14 10 15 19 6 2 11 5 14 10 19 0 38 0 56 2 17 1 31 12 43 25 8 2 17 2 25 0 9-4 18-7 29-8 16-1 33-2 49 2 11 2 19 8 26 16 10 11 26 10 39 4 18-7 33-7 51 1 8-3 15-4 23-4 7-7 14-9 21-9 12 0 21 2 18 17 0 4-3 8-6 9-5 12-16 16-29 14-1 9-5 15-10 18 6 19 0 27-13 26-3 6-8 9-15 8-5 7-12 10-19 11 1 5 3 7 7 13 9 14-5 20-18 20 3 9 4 19 2 28 14 8 15 16 3 25 9 15 6 27-11 35 0 9-1 18-7 23-4 3-10 4-6 10 7 11 5 25-5 26-2-1-4 0-4 3l-3 4c-12 6-23 14-33 22-2 1-4 2-5 0-8 17-22 34-37 50-3 13-10 21-21 25-1 4-3 6-7 7 7 7 9 14 3 21-8 9-18 17-28 19-22 6-35 5-44-3-8-8-5-13 0-16-13 2-16-6-15-15 0-5 2-4 7-4 7 0 13-3 20-6 3-4 6-8 11-11 2-15 11-24 24-29 11-4 21-14 31-27l17-31c-4-5-5-11-5-16-6-3-9-7-12-11-9-1-13-5-15-11l-7-1c-4 3-9 6-15 5-7 8-15 15-23 20-3 8-8 11-15 12-19 2-31 26-42 36-4 3-6 9-8 15-1 13-3 23-10 23l-8-1h-8c5 6 6 13 1 19-4 6-11 8-18 9-14 1-25-1-35-5s-11-10-11-15c-7-4-8-7-7-10 1-5 4-7 9-5l13-5c13-13 25-25 39-30l15-13c2-12 10-22 19-30l5-13v-7c-4-7-6-16-3-23-1-4-2-8-1-12-23 14-31 9-33-2-9 7-17 11-22 0-8 3-17 6-25 2l-17 5c-2 5-6 10-10 15-1 10-4 20-11 31-4 11-8 22-15 33 0 4 0 7-2 11 2 13-3 19-10 22-1 5-4 10-9 16v5c3 7 3 15-5 22l-19 11c-8 4-15 2-21 0-12-4-11-8-9-12-4 1-8 2-11 0l-8-5c-2-5-3-9 3-12 8-3 13-6 19-12 2-4 4-8 8-9 3-8 8-14 14-15l14-32c2-3 4-6 3-9 0-3 0-6 2-7 1-2 4-3 1-4-3-9-1-18 3-25 6-9 13-31 7-42-1-6-3-12-2-18l-6-1c-5-3-9-1-13 5-2 7-5 13-8 13-2 17-11 31-20 35-2 8-3 16-2 24 1 9 0 15-4 16-5 1-9 3-12 11l-1 7c6 6 4 14-2 20-13 13-30 11-48 6-12-5-15-10-14-16-18-1-15-15 0-19 17-5 30-15 40-30 1-17 5-29 15-31 1-11 4-21 9-30 4-8 7-17 6-28-10-7-11-13-2-20 3-1 3-3-1-5-6-1-5-7-5-12 0-3-1-4-4-5-14-2-10-7-4-13 2-3 4-7 1-9-2-1-3-6-4-10-8-6-5-12 0-19-5-4-7-9-7-16-16-1-22-9-13-20 3-5 8-10 13-14 4-6 7-11 6-17-5-12 9-20 22-29l-3-9c-7-6-5-12 2-18l-2-9c-17 3-17-7-9-23-10-6-8-16 10-31l2-8c-8 0-15 2-21 6-7 5-14 4-21 1-2-3-5-6-9-8-4-5-5-9-4-14-20 1-24-14-12-22 7-6 12-11 13-17 6-14 17-23 28-33l2-12c-4-3-10-6-15-6-2-5-6-11-13-14-3-2-5-4-2-9-11-10-8-15-6-21z"/><path fill="#F7DB17" d="M8456 2516h-4l-17 15c-5-6-12 0-5 4l-4 2c-2 7-4 9-11 10l-4 1a65 65 0 012-17l-1-1c-1-1-1 0-1 1a100 100 0 00-2 18c-17 5-27 23-39 36-5 5-8 11-10 17-1 4-1 19-5 19l-5 1c-2-3-5-3-8-1l-21 1c-5 5 7 3 14 7 3 2 4 5 3 10-6 15-39 10-50 4-5-3-6-6-5-10l7-1c4 0 8-1 11-3 2-1 3-2 1-4s-2-1-3-1c-3 2-7 3-10 3l-10 1h-1c-2-1-4-3-3-4s4 0 5 1c5-3 9-4 15-5 12-13 24-25 40-31 5-6 10-11 16-15 2-14 9-21 19-31l6-14v-9c-4-7-6-14-3-22-2-6-2-10-1-15v-3a255 255 0 0118-13c-1 6 0 11 1 17v1l-5 5-1 6 1 1 1-1 1-5 4-5h1c5 0 10-3 15-7l15-15-1 23c-4 4-8 9-11 15v2l2-1 10-14 2-1 2-2c5-4 11-7 17-9v20c1 6 5 13 11 19h1z"/><path fill="#F7DB17" d="M8123 2322l4-4a120 120 0 0118-25h2v2l-11 12-7 12 1 4c1 7 2 11 5 15l1-1a30 30 0 0115-16 37 37 0 0010-14h2v1a35 35 0 01-11 15c-4 2-7 4-9 7l-5 7c2 1 2 5 1 7-5 6-10 10-2 16 0 4 1 8 4 11 2 2 2 9-3 15-4 4-1 3 4 4h1l6-9 7-8 8-11c2-4 3-7 3-11l2-1 1 1-4 12-8 11a71 71 0 00-13 17c6 3 4 10 5 15l3 1 3-6 6-8h1l1 1-6 9-3 5c3 3 3 8-1 12-8 7-6 9 2 14 1 7 1 13-1 20l1 6v7l-1 1-1-1v-6-2l-2 3c-5 13-11 23-13 37-13 3-11 17-12 29a84 84 0 01-41 32c-3 1-11 3-12 7 0 1 6 4 9 3 10-10 15-5 4 5-1 2-1 4 1 5 10 9 35 12 46 5 8-5 13-11 5-19 1-11 5-22 17-25 2-3 1-7 1-10-2-10 0-18 2-28l4-2c4-1 13-14 15-27l2-8c1-4 2-5 5-3 2-2 2-4 3-7 4-7 11-12 19-9a65 65 0 01-2-40c1-1 1-2 3-1l6-16 7-16 2-1v2l-7 16-6 15v3c-2 6-3 13-2 20 0 8 2 15 5 21l1 1c3 3 3 3 3 8l1 12c8 14 0 36-7 47-3 6-4 12-3 18 4 4 2 9-2 12v3c0 4-1 8-4 12l-15 33c-9 3-10 8-14 16-5 1-5 3-8 7-5 6-11 10-18 13s-1 5 4 8c4 3 9-3 12-8 4-5 7-3 5 1-3 4-5 11-5 14-1 4 13 7 15 7 9 0 19-8 26-12 6-6 5-11 2-18l-10-1-12-4v-2h1l12 3 10 1v-5c5-6 8-11 10-17 10-5 10-9 9-19 2-5 2-7 2-12 6-11 11-22 15-34 8-10 11-19 11-31 0-4 2-7 5-7l7-11h1l2-8 3-4c2-4 2-7 2-10l-3-10c-2-1-3-2-3-4l1-4h2v1l-1 3 2 3c2 4 4 7 4 11 1 3 0 7-2 11l-3 4-2 7c5 0 10-1 15-4 3-2 6-5 8-9l4-13h1c2 0 1 0 1 1l-4 13-6 8c8 2 15 0 23-3v-25c2-7 4-12 7-16h2v1c-3 4-5 9-6 15-2 6-2 14-1 25h1c3 5 5 9 11 5l7-5 1-2a279 279 0 0139-33h1v2a267 267 0 00-35 30v5c1 7 2 12 13 8l12-6 7-4a140 140 0 0121-14l2-11a89 89 0 0117-28l14-11c4-4 7-9 9-14l1-1 1 2a53 53 0 01-24 26 85 85 0 00-18 36l1 1-1 2v17c5 0 10-3 14-6l16-16v-1l5-10c3-4 5-6 9-7h1v2c-3 1-6 3-8 6l-5 10v24h1c6-5 13-8 20-11l1 1v21c1 6 4 12 9 17a58 58 0 0110-13l1-1 6-6 5-4 5-5h1v2l-5 5-5 4-6 6 1 6v3l12 1c2 10 2 11 11 11a63 63 0 012-20l2-1v2l-2 10v9h1c3 7 7 10 14 13l4-9 1-10 1-1 1 1c1 3 0 7-1 11l-5 11h-1l2 10 3-6 6-8h2v1l-6 8-3 8 2 4c-13 22-27 53-52 63-14 6-19 12-22 27-5 3-9 7-12 13-9 3-16 7-26 7 0 6 2 8 8 8 12-5 15-7 16-6s-2 10-12 17v3c8 12 29 8 41 5 8-2 23-12 27-20 1-4-2-9-6-13-16 3-13-13 1-7 5-1 5-1 7-6 12-5 17-10 20-24 13-13 25-27 34-44 3-3 4-8 4-11 2-2 3-6 4-9l1-10 1-1 1 1c1 4 0 7-1 11l-2 7c0 2 1 4 3 3 10-8 21-15 33-22 1-5 4-7 9-7 2 0 3-1 4-3 2-7-1-11-4-17-3-9 2-11 7-15 6-4 6-15 6-22l-1-3-2-7 1-1h2l2 8v2c6-3 11-6 13-12 2-7-1-13-5-19l-4 2-8 4-2-1 1-1 8-4 7-3 6-5c4-6-6-11-10-13v-1l-16-15v-1h2l15 13c0-8 0-16-2-24l-3-8c-5-3-8-5-10-9l-4-10 2-2 1 2 3 9c2 3 4 6 9 8 4 2 13 1 19-2 7-4-2-13-5-18l-3-11h2l-3-3-4-3v-1l1-1 5 3 4 4h2c7-2 12-6 16-11l-8-8-9-8-1-2h2a174 174 0 0118 17v1c7 0 8-1 11-7 0-3-2-6-4-9l-6-8v-2h1l7 9c2 3 4 6 4 9 4 0 7 1 10-1 6-4 1-16-1-21l-2-2-4-2v-2h1a96 96 0 007 4l2-1c4-3 6-8 7-13 2-7 2-4 11-5s14-2 20-13c3-2 4-3 4-6 1-7 1-10-6-11-11 0-17 2-24 8l3 4v2h-2l-2-4c-10-1-17 0-26 4l-2-2 4 8 2 9-1 1-1-1-2-9-7-9c-7-3-14-4-20-4l3 3 5 5v1h-2l-4-4-5-4v-1c-6 1-12 2-19 5l-12 4 8 10 4 13v1l-2-1-4-12-8-10v-1h-12l5 8-1 1h-1l-4-9-11-4c2 4 2 8 3 13l1 19c0 1 1 1-1 1s-1 0-1-1a184 184 0 00-4-34l-5-5-12-9v5c-1 4-2 7-5 11h-1v-2a18 18 0 003-15c-7-4-14-5-22-6a119 119 0 0111 19c4 2 5 6 6 9l2 11-2 1-1-1-1-10c-1-3-2-6-5-9a103 103 0 00-13-20h-9l2 2 2 5-1 1-2-1-1-4-3-3-16 1a111 111 0 0122 48l-1 2-2-1a102 102 0 00-22-49c-5 1-9 1-13 3a42 42 0 019 8v1h-1l-5-4-6-5a87 87 0 00-11 4 102 102 0 0123 23v1h-2a83 83 0 00-23-23l-14 1a113 113 0 0111 36l-1 1-1-1-4-18-8-18-8-1a197 197 0 017 36c1 0 1 1-1 1l-1-1a209 209 0 00-8-37c-8-9-17-17-28-22l5 9 3 15-1 1-1-1a35 35 0 00-10-25l-8-2-21-1c5 5 9 9 9 15l-1 1-1-1c0-5-5-10-11-15l-13-1 6 7 5 10c0 5 2 10 4 14 2 3 5 6 9 8l1 1-1 1c-5-2-9-5-11-9-3-4-4-9-4-14-1-3-2-6-5-9-1-3-4-6-7-9h-14l4 18 2 22-1 1-1-1a156 156 0 00-7-40h-1c-3-5-6-7-10-9l-1 1-2 5h-1l-1-1a11 11 0 002-6l-2-1c-2-10-4-14-12-17l-1 8c0 4-1 7-3 11h-2v-2l3-9 1-9h-1c-2-14-5-21-19-26a31 31 0 01-2 14l-1 1-1-2 2-8v-8l-11-10-2 15c-2 6-4 12-8 17l-2 1v-2c4-5 6-11 8-17 2-5 2-11 2-17l-4-5v1l-2 3-2 1v-2l1-3 2-3-1-2c0-5-2-8-5-11h-1l-1 4-4 6-2 1v-2a31 31 0 006-11l-4-5a20 20 0 01-6 8h-2c-1-1 0-1 1-2l3-4 2-3 1-4c1-7-1-10-5-16l-6 2-10 5h-2l1-1c3-3 7-5 10-6 3-2 6-2 8-2l1-5c-11 4-19 5-25 6-7 0-12-1-16-3l-1-1 2-1c4 2 8 3 15 3l24-6v-1l4-12-10 1h-1l-1-1 1-1h1l11-1 1-4c0-5 5-6 9-2l9 9c6 2 13 0 18-4l-5-2v-1l1-1 6 2 1-1c13 1 21-2 29-10l-19-1c-6 0-12-2-15-3l-1-2h2l14 3 21 1 2-3c4-1 7-3 10-6-15-1-29-4-42-11-4-4-9-6-15-8-10-1-20 2-29 6l-6-6-10-2-13-1c-1 0-2 0-1-1l1-1h13l13 3c15-5 27-8 37-8 12-3 25-5 37-4v-1c-2-1-1-2 0-3 6-7 8-13 6-19s-9-11-17-16c-9 1-18-2-27-1l-18 4c5 2 9 5 12 9 5 5 8 12 9 20 1 1 1 3-1 3s-3-1-3-2c-1-8-4-14-8-19s-13-8-16-9l-28 4c-6 2-11 4-15 7 6-1 12-1 18 2 5 3 10 8 13 16 0 1 0 2-2 2l-2-1c-3-7-6-11-11-13-9-5-27-1-35 5l-13 13h-4c-2-2-1-3 0-4 5-5 9-10 14-13 5-4 10-6 15-7 5-6 12-9 21-12l28-4c-3-6-6-9-11-11-4-2-9-2-15-2-12 4-22 10-33 18h11c1 1 2 1 2 3-1 3-8 1-10 1l-9 1h-1c-13 7-21 15-32 24l-1 1c-10-1-16 0-20 3-3 3-3 7-3 13l-4 16c-11 10-22 19-28 32-1 4-3 8-6 11l5 2 2 1 1-7 3-8h2v1l-3 8-1 11h-2l-3-4-6-2-7 7c-2 1-4 3-5 6 0 5 6 6 12 6 13 1 2 8 10 15l9 8c5 2 8 2 11 0 1-9 0-13 4-13l1-4 3-4 2-1v2l-3 4-1 4 1 9c7-4 14-5 22-5 14-17 20-13 7-1l-2 4-4 13c-3 3-21 18-14 23 4 0 7 0 5 3-2 5-8 15-6 20 1 2 4 2 6 1l1-1c5-3 9-8 14-13s9-10 12-17c1-1 1-2 2-1a222 222 0 0112-31l1-1 6 7 5 1 5-1 6-6h1l1 1-6 7-7 2-6-3-5-5a267 267 0 00-11 30c2 1 1 2 1 3a95 95 0 01-25 29c0 4 1 7 3 11 8-6 15-13 21-20 7-7 12-14 16-22h2v1l-7 12v1c-1 1-2 3-2 7l1 14-1 2c-1 1-2-1-2-1v-15-4a278 278 0 01-27 27l1 1c-7 5-13 7-5 14l8-6 8-6h1v2l-8 6-8 6 2 7h2l17-12h1v2l-17 12-2 2c-5 4-25 16-23 25l14-5 14-10h1v1c-4 5-9 8-14 11v4l-1 2-1-2v-2-1l-12 4c2 8-2 15-7 22-2 1-22 17-14 22l8 2-1 1z"/><path fill="#F7DB17" d="M8132 2046l-15-6c-2-5-6-9-11-12-3-3-3-3-2-5l6-3 6 1 4 3h2v-2c-1-1-3-3-5-3l-8-1h-1c-1-1-4-2-7-1-3-3-5-6-4-10h1l6 2 4 3h2v-1l-5-4-5-2c17-3 32-3 47 6 8 3 12 7 16 13l-4 4c-10-1-18 1-22 4s-5 9-5 14z"/><path d="M8466 2512l-10 4 1-1a58 58 0 019-12v9zM8508 2602l-8 9-10 8-2-1v-1l10-8c3-2 6-5 8-9h2v2zM8536 2569l-4 6h-2v-1l4-7h2v2zM8521 2566l-4 10c-2 2-5 5-10 7l-1-1 1-1c4-2 6-4 8-7l4-8 1-1 1 1zM8548 2533l-3 4-2 5h-1l-1-1 2-5 3-5 2 1v1zM8570 2535l-3 10-4 9-2 1v-2l4-9 3-9c0-1 1-2 2-1v1zM8560 2405c7 10 9 20 9 31l3-12 6-12v-12l1-2 1 1v13c-1 4-3 9-6 13l-5 21v2h-2v-3c0-13 0-27-8-39v-2l2 1h-1zM8543 2427v5l-1 1c-2-1-2-1-1-2v-2-3l1-1 1 2zM8539 2456a128 128 0 015 30l1-2 7-6h2v1l-7 6c-1 2-3 4-3 7h-2a105 105 0 00-6-35l1-2 2 1zM8562 2467a80 80 0 012 25l-2 1-1-1a67 67 0 00-1-25l1-1 1 1zM8583 2463l1 12-3 12c-2 4-2 8-1 12l4 13v2l-2-1-4-13c-1-5-1-10 1-14l2-11-1-12 1-1 2 1zM8592 2429l-1 7-2 6-1 1-1-1 2-7 1-6 2-1v1zM8582 2374l2 5-1 2-1-1-2-6 1-1 1 1zM8587 2331v17c-2 2-4 4-5 8v12l-1 2-1-1v-14c1-4 3-7 6-9l-1-7v-8l1-1 1 1zM8545 2316c7 5 12 9 16 15s6 12 6 20l-1 1-12-5c3 16 2 29-1 38-4 10-11 17-20 21-1 1-2 0-2-1a82 82 0 003-36l1-1c1-1 1 0 1 1a77 77 0 01-2 34c8-4 13-10 17-19 3-9 4-22 1-39l1-1 12 5c0-6-2-12-6-17-3-5-9-10-15-14v-1l1-1zM8656 2295l-1 2-1 2-2 1v-2l1-2 1-2 1-1 1 2zM8630 2294l5 4 3 4v2l-2-1-3-4-4-3-1-1 2-1zM8591 2305c3 3 5 7 6 11v13l-1 1-1-1v-12c-1-4-3-7-6-10v-2h2zM8461 2318l-1 4v4c0 1 0 2-1 1l-1-1v-4l1-5 1-1 1 2zM8485 2305l2 6v4c-1 1-1-1-2-1v-2l-2-6 1-2 1 1zM8535 2338v5c0 1 0 2-1 1l-1-1v-2l-1-2 1-2c1-1 1 1 2 1zM8552 2300l2 4-1 3-1 1-1-2v-2l-1-2v-2h2zM8433 2306a21 21 0 006 15c2 3 4 5 4 8l1 9-1 1-1-1-1-8c0-3-2-5-4-8l-4-7-2-9 1-1 1 1zM8481 2339a42 42 0 014 29c-1 6 1 12 4 17s8 10 14 15c-2-7-3-13-3-20s3-14 8-21l5-8 2-9c0-1 0-2 1-1l1 1-2 9-5 10c-5 6-7 13-8 19 0 7 2 15 4 22 0 1-1 2-2 1-7-5-13-10-17-17-3-6-5-12-4-18l1-15c0-5-2-9-5-13l1-2 1 1zM8462 2368c0 5-1 11-4 16l-8 12 5-2a51 51 0 0021-18h2v1a79 79 0 01-12 13l1 4 1 4-1 1-2-1v-4l-1-2-8 4-9 4c-1 0-2-1-1-2 4-5 8-10 10-15 3-5 4-10 4-15l1-1 1 1zM8439 2366v5l-1 1-1-1v-5l1-1 1 1z"/><path d="M8424 2338c3 7 4 14 3 21-1 6-4 12-9 18-5 4-8 8-11 14l-4 11 4-5c3-3 7-5 11-6a100 100 0 0025-20h2v1a89 89 0 01-26 20v1c-4 1-7 3-10 6-3 2-5 6-7 9-1 1-2 0-2-1l5-18c3-5 6-10 11-14 5-5 7-11 9-17s0-13-3-20l1-1h1v1zM8472 2414c-1 2 0 4 3 7l2 3c4 5 6 11 6 18l-2 19h-3c-1-7-4-13-8-19-4-5-10-10-17-15v-1h1c7 4 13 9 18 15 3 4 6 9 7 14l2-13a28 28 0 00-7-19c-4-5-6-7-4-10l1-1 1 2zM8492 2412l2 3 3 3v1h-2l-2-3-3-2v-2h2zM8517 2420l-5 15-5 15-1 1-1-1 5-15 5-15 1-1 1 1zM8531 2504v4l-1 1-1-1v-5l1-1 1 2zM8516 2479l-2 8-2 8-1 1-1-2 2-7 2-8 1-1 1 1zM8495 2479l2 2v2h-2l-2-2v-2h2zM8470 2467l-2 5-1 4-2 1-1-2 2-4 2-5h1l1 1zM8434 2505c-2 2-3 3-3 5l-2 5-1 1-1-1 2-6 3-5 2-1v2zM8331 2606l-2 3-3 3h-2v-2l3-3 2-2 2-1v2zM8347 2597l-2 3-3 2-2-1 1-1 3-2 1-2h2v1zM8369 2584l-2 2-2 2-1-1v-1l2-2 1-1h1l1 1zM8401 2501l-2 8v9c0 1 1 1-1 2l-1-1v-10l2-9 1-1 1 2zM8423 2279l-2 7-5 7-2 1v-2l5-7 1-6 2-1c2 0 1 0 1 1zM8400 2259a35 35 0 015 20l-2 1-1-1a35 35 0 00-4-19l1-1h1zM8371 2296l-9-9c-2-3-2-7-2-10l1-1 1 2c0 2 0 5 2 8l8 8v2h-1zM8403 2351v5l-1 1-1-1v-5l1-1 1 1zM8362 2309c6 6 10 14 12 22 2 5 2 11 2 16h1c3-1 5-3 6-7a59 59 0 003-20c3-3 4-7 5-11l2-12h2l10 17 5 19-1 1-2-1c0-7-2-13-4-19l-8-14-2 9-4 12-3 19c-2 5-5 8-8 10h-1l-1 8-1 1-1-1c1-9 1-18-2-26-2-8-5-15-12-21v-2h2zM8386 2414l-1 9-2 8c0 1 0 2-1 1l-1-1 2-9 1-9h1l1 1zM8339 2434l1 6v2l-2-1-1-7 1-1 1 1zM8380 2380l-4 13c-1 4-4 8-7 12-4 4-6 9-7 13s0 10 2 15l-1 1h-2c-1-6-2-11-1-16s3-10 7-15a43 43 0 0011-23c0-1 0-2 1-1l1 1zM8369 2364c1 4 0 9-1 13l-9 12-9 11-5 11-1 1-1-2c2-4 3-8 6-11 2-4 5-8 9-11 3-4 6-8 7-12 2-4 3-8 2-12l1-1 1 1zM8317 2389c1 8 0 15-3 22-3 6-8 12-14 17h-2v-2c6-5 11-10 14-16s4-13 3-21l1-1 1 1zM8251 2425l2 4 2 5v1h-2l-2-5-2-4 1-1h1zM8225 2426l1 15 7 14 4 10 1 8 7-11c2-4 3-8 3-13l1-1 1 1c0 5-1 10-3 14-2 5-5 9-10 13l-2-1-1-10-3-9-7-15-1-15 1-1 1 1zM8229 2515a48 48 0 013-16l2-1v2a48 48 0 00-3 15c0 1 0 2-1 1-2 1-2 0-1-1zM8225 2540l2-9c0-1 0-2 1-1l1 1-1 10-2 1-1-2zM8208 2582l5-6 4-7h2v1l-4 8-5 6h-2v-2zM8183 2442v4l-1 1-1-1v-4l1-1 1 1zM8141 2539v-7l1-1 1 1 1 3v3l-1 2-2-1zM8247 2367c-2 7-4 15-4 21 0 7 2 12 7 15s7 8 10 13v1a49 49 0 001-17l1-1 2 1v10l-3 11h-2l-1-4c-2-4-5-9-9-12-6-4-8-10-8-17s2-15 4-22l1-1 1 2zM8240 2338l-1 17-5 16a53 53 0 002 43v2l-2-1a56 56 0 01-2-45l5-16v-15l1-2 2 1zM8191 2408c-2 3-2 7-2 10l4 10v2h-1c-3-4-4-8-5-12-1-3 0-7 2-11l1-1 1 2zM8169 2400v7l-1 6-1 6 3 6v1h-2c-2-2-3-5-3-7-1-2 0-5 1-7l1-5v-6l1-1h1zM8294 2216a48 48 0 007 31l-1 2-1-1-6-15c-2-6-2-12-1-18l1-1 1 2zM8278 2231a85 85 0 0111 37l-1 1-1-1a82 82 0 00-11-36l1-2 1 1zM8201 2233c-8 11-11 19-12 27 0 7 2 14 5 19l3 18-4 18h-1l-1-1c2-6 3-11 3-17s0-11-2-17c-3-6-5-12-5-20 1-8 4-17 12-28h2v1zM8273 2202c1 4 1 7-1 10-1 3-4 6-7 9-3 2-5 6-6 10v15l-1 1h-1c-1-6-2-12-1-16 1-5 4-9 8-12 3-2 5-5 6-8s2-5 1-8l1-2 1 1zM8197 2209v14c-2 5-4 9-9 14-4 3-6 7-8 12l-2 16-1 1-1-1 2-17c2-5 4-9 9-13 4-4 6-8 7-13 2-4 2-8 0-12l1-2c1-1 1 0 2 1zM8240 2211v5l2 5v1h-2l-2-5v-6l1-1 1 1zM8238 2200c-4 1-7 4-9 8l-4 16 1 1 4 10c1 4 2 9 1 14l-1 1-1-1-1-14-4-9c-8 8-13 17-13 26 0 10 4 20 11 32v1h-2c-7-12-11-23-11-33s5-19 14-28c0-7 2-12 4-17 2-4 6-8 10-10l2 1-1 2zM8226 2184l-1 2c0 5-1 11-5 15l-4 7-2 8-1 1c-2 0-1-1-1-1l2-9c1-3 2-6 5-8 3-3 4-8 4-13v-3l2-1 1 2zM8348 2314l3 8 1 9-2 1-1-1-1-8-2-9v-1l2 1zM8348 2353v14c-1 4-2 10-5 15l-5 12h-2v-1l5-12c3-5 4-9 5-14v-13c0-1-1-1 1-1h1zM8323 2316c7 8 12 17 14 26s2 18-1 28l-1 1-1-1a53 53 0 00-13-52v-2h2zM8320 2361a111 111 0 01-18 28 55 55 0 00-12 21l-2-1-1-10-5-10c-4-6-5-12-5-18s3-12 7-18a57 57 0 007-25l1-1 2 1a53 53 0 01-8 26c-4 6-7 12-7 17 0 6 1 11 5 17a44 44 0 016 16l3-6 7-10a102 102 0 0018-28h2l1 1h-1zM8254 2340l1 15c1 5 3 10 6 14l-1 1h-1c-3-4-5-9-6-14s-2-11-1-16l1-2 1 2zM8216 2360v7l-1 1-1-1v-7l1-1 1 1zM8229 2325l-2 11c-1 4-3 7-6 11h-2v-2a29 29 0 007-20l1-1 2 1zM8194 2393c-6-16-7-28-6-38 2-9 6-17 12-23 4-4 8-8 10-13 2-6 4-12 3-20l1-1 1 1c1 9 0 15-3 20-2 6-6 10-10 14-6 6-10 13-12 23-1 9 0 21 6 36v1h-2zM8175 2368a16 16 0 001 14v2l-1-1c-2-2-3-5-3-8l1-8 1-1 1 2zM8271 2299c4 6 7 11 7 17 1 7-1 13-4 19l-2 1v-2c3-6 4-12 4-17-1-6-3-12-7-17l1-2 1 1zM8302 2275a54 54 0 011 36h-2c0-6-1-11-3-15-3-5-6-9-10-12v-2h2a34 34 0 0112 22l1-11c0-6-1-12-4-17l1-2 2 1zM8320 2251c4 3 6 9 8 15s2 14 2 22v11l3 9v1h-2c-2-3-3-6-3-10v-11c0-8 0-15-2-21s-4-11-8-15v-1h2zM8272 2246c-3 3-4 7-5 11v14l-1 1-1-1v-14l5-12 2-1v2zM8179 2309c-1 9-3 16-8 23-4 6-10 11-17 15l-1-1v-1c7-4 12-9 17-15 4-6 6-13 7-21l1-2 1 2zM8176 2277v10l-4 10h-1l-1-1 4-10v-9l1-1c1-1 1 0 1 1zM8240 2272v3l1 17v1l-1 1h-1l-1 1-1-2v-18-4l1-1 1 1 1 1zM8255 2244c-5 5-7 11-7 16s2 10 4 15c5 9 7 17 7 26-1 8-4 16-7 25h-2v-1c3-8 6-16 6-25 1-8-1-16-6-24-3-5-4-11-4-16 0-6 2-12 7-18h1l1 2zM8157 2069c7-6 14-9 22-10 7 0 15 1 24 5h17l1 1-1 1h-17v1c-9 8-17 12-24 13-7 2-13 0-18-4l-1-2h2c5 4 11 5 17 4 6-2 13-5 21-12-8-3-15-5-21-4-7 1-14 4-21 9h-2l1-2z"/><path d="M8179 2065a6 6 0 110 11 6 6 0 010-11zM8217 2099a48 48 0 0016-14h2v1l-6 8-11 7-1-1v-1zM8297 2066h6l6 3v2h-1l-6-3h-5l-1-1 1-1zM8251 2068c2-5 5-8 8-10l14-2c1 0 2 0 1 1l-1 1-12 2c-4 2-6 5-8 9h-1l-1-1zM8256 2075c1-2 1-4 3-5l6-3s1-1 1 1l-1 1-4 2-2 4c0 1-1 2-2 1l-1-1zM8181 2100l-4 6v7l-1 2-2-1 1-9 4-6h1l1 1zM8202 2110v3l-1 1-1-1v-3l1-1 1 1zM8188 2086a22 22 0 0014 0l1 1-1 1-7 1-7-1-1-1c0-2 1-1 1-1zM8202 2045l-4 1c-2 2-3 3-3 5h-1l-1-1c0-2 2-4 3-5l6-2 1 1c1 1 0 1-1 1zM8180 2047l-4 3-2 2-2 1v-2l2-3 5-3 1 1v1zM8166 2048l-4 3-2 4-1 1-1-2a16 16 0 017-8h1v2zM8148 2062l-4 4-4 4-2 1v-2l4-5 4-4h2v2zM8150 2082l-4 3-3 4h-1l-1-2 4-3 3-4h2v2zM8132 2087v7l-1 1-2-1v-7l1-1 2 1zM8155 2117l-1 12v1l-2 1-1-1v-1l2-12 1-1 1 1zM8141 2107v8l-1 1-1-1v-8l1-1 1 1zM8129 2011l6 3 4 7-1 1h-2c0-3-1-4-3-6l-5-3-1-2h2zM8240 2156a36 36 0 011 29h-2l-1-1a33 33 0 000-28v-1l2 1zM8203 2197l7-14 8-12a38 38 0 008-31l1-1 1 1v17c-2 5-4 10-8 15l-8 12-7 14-1 1-1-2zM8157 2185a17 17 0 019-9h1v2l-5 3c-2 1-3 3-3 5h-2v-1zM8148 2182l5-6 7-5 2 1-1 1-6 4-6 6h-1v-1zM8196 2134l6 1h6c1 2 0 2-1 2l-5 1-7-2v-1l1-1zM8172 2131l2-2h1l1 1h-1l-1 2-2 1v-2zM8691 2281l3 3 2 4-1 2-1-1a18 18 0 00-5-7v-1h2zM8115 2551l8 6 9 2 1 1-1 1-10-2-9-6v-2h2z"/><path fill="red" d="M8550 2035c13 0 25 0 35-2-11 8-25 14-41 16l6-7v-7zM8519 2032l26 3c1 2 2 4 1 6 0 2-2 4-6 6v3a124 124 0 01-26 0h1c3-4 5-7 5-10 1-3 0-6-1-8zM8294 1967c14-2 29-3 44-2 4 2 8 5 10 8 3 5 4 10 3 17-1 1-1 3 1 3s3-1 3-2c1-8 0-14-3-20l-6-6h4c17 1 31 6 46 14 3 3 4 7 4 10-1 4-3 8-7 12 0 1-1 2 1 3h3c4-5 6-10 7-14l-1-8 38 19h1v1c1 4 0 7-1 9-2 3-6 5-10 7-1 1-2 1-2 3 1 2 2 1 3 1 6-2 10-5 12-8s3-7 3-10l24 13c2 3 2 6 1 8-1 3-4 5-9 7l-1 3c1 2 2 2 3 1 6-3 9-6 11-9l1-8a138 138 0 0037 12c2 3 3 5 2 8l-4 8c-1 0-2 1 0 3h1c-32-3-61-18-90-30l-11-4-33-14-1-1-2-1h-2c-10-3-20-6-30-7a132 132 0 00-37-1c1-6 0-12-3-16-2-4-5-7-10-9z"/><path fill="red" d="M8242 1981c14-6 29-10 44-13 7 3 12 6 14 10 3 4 3 9 2 14a93 93 0 00-39 5c-3-7-8-12-13-14l-8-2zM8402 2062l-12-7c-20-11-43-18-65-19 8-8 10-16 7-23-2-6-7-11-14-16l23 1c11 2 26 6 39 11 3 7 4 13 3 19-2 5-6 10-12 14-1 0-2 1-1 2l3 1c7-4 12-10 14-16 1-6 1-11-1-18a572 572 0 0145 30c-1 9-3 14-8 17-4 3-11 3-19 2-1 0-2 0-2 2z"/><path fill="red" d="M8446 2095l-41-31c8 1 15 0 20-3s9-8 9-17a290 290 0 0136 31l1 9c-1 2-1 4-3 5-1 2-3 3-6 4h-14c-1 0-2 0-2 2z"/><path fill="red" d="M8491 2125a206 206 0 01-42-27l14-1c4-1 6-3 8-5l4-8v-5a236 236 0 0045 31v1c1 4-2 7-6 9-5 2-12 3-21 3-1 0-2 0-2 2z"/><path fill="red" d="M8540 2144c-15-4-30-10-44-17 8 0 15-1 20-3s8-6 8-12c9 5 18 9 28 12v9c-2 3-6 6-11 8-1 1-2 1-1 3z"/><path fill="red" d="M8642 2134c1-1 9-3 5 0-30 20-68 20-104 11l13-9c1-3 2-6 1-10 11 4 23 6 35 8l-2 5c-2 3-5 5-11 7l-1 3c1 2 2 2 3 1 6-2 10-5 12-8 2-2 3-5 3-8 15 2 30 2 46 0zM8435 2650c-3 2-5 5-6 8-9 3-17 7-26 7 0 6 2 8 8 9l15-7c1 2-2 10-11 17-2 1-2 1-1 3 8 12 30 8 41 5 8-2 23-12 27-20 2-4-2-9-6-13-9 2-12-3-10-5-10-4-20-4-31-4zM8109 2547c-7 6-14 10-23 13-3 1-11 3-12 7 0 1 6 4 9 3 10-10 15-5 4 5-1 2-1 4 1 5 10 9 35 12 46 5 8-5 13-11 5-19l1-5-14-1-8-5-9-8zM8323 2622h-2c-5 5 7 3 14 7 3 2 4 6 3 10-6 15-39 10-50 4-5-2-6-6-5-10h7l11-4c2-1 3-2 1-4-1-2-2-1-3-1l-10 4h-11c-2-1-4-2-3-4 1-1 4 0 5 1 5-3 9-4 15-5l2-3 26 5zM8169 2613c-2 1-2 3-4 6-6 6-11 10-19 13-6 3 0 5 4 8s10-3 13-8 7-3 5 1c-3 4-5 11-5 14-1 4 13 7 15 7 9 0 19-8 26-12 5-6 5-11 2-18l-10-1-12-4-1-2 1-1-14-3h-1zM8229 2046h7l13 3c14-6 26-9 36-8 13-4 25-5 38-5h-1v-3c7-7 8-13 6-19s-8-12-17-17h-27l-18 4c5 1 9 4 13 8 4 6 7 12 9 21 0 1 0 2-2 2-2 1-2 0-2-1-2-8-5-14-8-19-4-6-14-8-17-9l-27 4c-6 2-12 4-16 7 6-1 13-1 18 2 6 2 10 7 13 15 1 2 1 3-1 3l-3-1c-2-7-6-11-10-14-9-4-27 0-35 5l-13 13-2 1c16 1 33 2 46 7zm-49-9l1-3c4-5 9-10 14-13 5-4 10-6 15-7 5-6 12-9 21-12l28-4c-3-6-7-9-11-11s-10-2-15-2c-12 4-23 11-33 18h11c1 1 2 1 1 3-1 3-7 1-9 1l-9 1h-2c-10 6-18 13-27 20 7 3 12 6 15 9z"/><path fill="#0093DD" d="M9413 3258l446-1011-329-531-587 217-272 1069c256 65 504 151 742 256z"/><path fill="#FFF" d="M8844 2323c294 75 578 174 851 295l-172 390a4988 4988 0 00-784-271l105-414z"/><path fill="red" d="M9551 2945l115-260a5348 5348 0 00-840-291l-68 267c275 70 541 163 797 276l-4 8z"/><path d="M8909 2597c7-5 16-4 24-2 7-3 14-4 23-3 3-2 7-4 12-4 2-2 3-4 0-7-2-2-3-5-3-7-13-8-18-20-23-31-8-2-11-5-12-8l-11-1c-17 2-22-4-28-8-5-2-9-4-12-10l-6-7c-5-6-3-14 4-13 5 0 10 0 14-2 6-2 14-2 20-2 7 0 11-5 18-11v-9c-1-3 1-4 5-3 9 0 15 4 18 10 11 2 20 8 26 17 14 0 24 5 25 11 1 3-4 8-10 13v3c4 3 7 6 8 10 8 3 16 7 23 13 21-2 55 13 102 43 31 5 61 14 89 26l18 1c51-8 100-2 146 33 18 2 33 7 48 14 11 4 23 6 34 7 19 2 38 6 56 15 21 5 41 11 53 26 8 10 6 20-5 24-6 14-19 15-39 8-14 2-29-9-42-19-19-6-37-17-54-29-9-6-18-11-27-12-7-2-13-3-17 0-2 1-2 1 0 3 5 4 8 10 9 17l1 22c0 8 5 14 13 19 6 4 13 7 22 9 5 0 6 3 6 7 3 12 5 25 10 36 1 3 3 5 7 7 13 9 6 19-5 22-10 9-19 14-29 17-9 3-12-1-15-5-5 0-7-2-9-5-10-7-2-20 22-15 1-3 3-3 5-3-1-7-2-13 1-20l-8-4c-8-3-17-7-23-13-12-11-31-21-50-31-15-1-27-8-38-14h-17c-4-1-8 0-11 4-5 5-11 4-17 4l-23-1-11 2c-9 0-17 0-23 5-4 5-9 4-14 2-3-1-6-3-7-5-6-1-10-2-11-4-10-3-13-6-13-9-13-3-7-13 2-14 10 0 19 2 29 3 9 3 19 1 26-5 4-4 6-7 11-10-17-1-30-4-39-10-25-16-45-20-61-6-4 2-7 3-12 1h-12c-9 2-18 1-27-3-14 4-27 4-40 2-11 6-19 6-24 2l-14-9c-7-1-10-3-11-5-9-1-10-4-10-8-4-4-2-8 2-10 6-3 13-4 21 0l11 6c5 0 10 0 14 2 2-5 11-5 19-4 5-3 10-5 17-6l-1-3c-9-3-13-9-18-16-13 0-23-6-33-12-8 1-14-2-21-5l-16-1c-10 3-20 2-30 0l-17-1c-7 7-14 9-21 5-5-5-11-9-18-11-6-2-8-4-9-7-7-4-5-9 1-12 5-2 12-3 21 2l11 2z"/><path fill="#FFF" d="M9245 2700c-1-2-2-5-8-2-16 0-33 0-47-8s-28-17-44-16c5-5 11-8 17-9 9-3 20-3 31-1 17 3 31 6 42 10s18 9 22 15l1 1 11 9 6 7-16-1-15-6v1z"/><path d="M9281 1930l1 5 20 104-80 69-3 3 4 2 100 34 21 104 1 5 3-3 80-69 101 34 4 2-1-5-20-104 80-70 4-3-5-2-100-34-20-104-1-5-4 3-80 69-100-34-5-1z"/><path fill="#F7DB17" d="M9232 2107l75-65 94 32-169 33zM9413 2072l75-65 94 32-169 33zM9582 2042l-74 65-94-32 168-33zM9401 2078l-75 65-93-33 168-32zM9292 1939l93 32 20 98-113-130zM9413 2078l94 33 18 97-112-130zM9523 2210l-94-32-19-97 113 129zM9402 2071l-94-32-19-97 113 129zM9467 1907l19 97-75 65 56-162zM9407 2081l19 97-75 65 56-162zM9348 2242l-19-97 75-65-56 162zM9408 2068l-19-97 75-65-56 162z"/></svg>
