<svg xmlns="http://www.w3.org/2000/svg" xmlns:xlink="http://www.w3.org/1999/xlink" width="900" height="600"><path fill="#cf142b" d="M0 0h900v600H0z"/><path fill="#fff" d="M0 0h450v600H0z"/><path fill="#cf142b" d="M22 83v45h46c0 8 7 15 15 15v46h45v-46c8 0 15-7 15-15h46V83h-46c0-8-7-15-15-15V22H83v46c-8 0-15 7-15 15H22z"/><path id="a" fill="#cf142b" d="M79 67l-8 4-4 8c0 3 0 6 3 8 2 2 5 2 7 2 3 0 6-2 8-4s4-5 4-8c0-2 0-5-2-7-2-3-5-3-8-3z"/><use xlink:href="#a" transform="rotate(90 106 106)"/><use xlink:href="#a" transform="rotate(180 106 106)"/><use xlink:href="#a" transform="rotate(270 106 106)"/><path fill="#96877d" d="M25 86v39h46c0 8 7 15 15 15v46h39v-46c8 0 15-7 15-15h46V86h-46c0-8-7-15-15-15V25H86v46c-8 0-15 7-15 15H25z"/><path fill="#ccc" d="M27 87v37h45c0 7 8 15 15 15v45h37v-45c7 0 15-8 15-15h45V87h-45c0-7-8-15-15-15V27H87v45c-7 0-15 8-15 15H27z"/><g id="b" fill="#d0d0d0"><path fill="#96877d" d="M85 72c2 2 1 7-2 11-4 3-9 4-11 2-3-3-2-8 1-12 4-3 9-4 12-1z"/><path d="M71 80l1-1 4 2-2-5 1-1 5 9-9-4zM78 73l1-1 6 7-1 1z"/></g><use xlink:href="#b" transform="rotate(90 106 106)"/><use xlink:href="#b" transform="rotate(180 106 106)"/><use xlink:href="#b" transform="rotate(270 106 106)"/><g fill="none" stroke="#96877d" stroke-width=".5"><circle cx="105.6" cy="105.6" r="31.8"/><circle cx="105.6" cy="105.6" r="24.2"/></g><circle cx="93.4" cy="131.3" r="1.5"/><circle cx="117.7" cy="131.3" r="1.5"/><path d="M105 131v2h-2v2h2v2h2v-2h2v-2h-2v-2zM76 113h2v-1-1h-1 1v2l2-1h1v-1 2h-1l-3 1h-1v1l-1-4h1v2zm-1-9l1-2h4v2l-1 2-2 1-2-1v-2zm0 0v1l2 1 2-1 1-1-1-1-1-1-2 1-1 1zm8-10l-1 1-3 1a9 9 0 010 1h2v0h1l-1 2v-1h-1l-3-1h-1v-2l1-1h2v2l2-1h1l1-1zm-4 3v-2h-1-1v1l2 1zm11-18l1 1h-1-1l-1 1 1 2 1 1 1 1a2 2 0 001-1l1-1-1-1h-1l1-2 1 1h-1v1l1 1v1h-1l-3 1-1-1v-3l1-1a3 3 0 011-1zm9 0l-2 1v1h1v1h-2 1v-6h1l3 4h1v1h-2v-1l-1-1zm0 0l-1-2-1 3 2-1zm10 0l-1 2-4-1h1v-4-1h-1 3-1v5h2l1-1zm7 2l-1 1-4-1h1v-1l1-3v-1l2 1h-1l-1 4h1v1h1l1-1zm6 3l-2-1h-1v1l-1-1h1l4-2-1 4v1l1 1h-1l-1-1v-1 0h1v-1zm0 0v-3l-2 2 2 1zm6 1l1 1-1 5 2-2h1v-1l1 2-1-1v1l-4 2 1-5-2 2h-1v1l-1-2v1h1l3-3v-1zm7 13h-1l1-1-1-1-4 1v1l-1-2 1 1 4-2v-1h-1l1-1 1 5zm-4 9v-1l2-2a9 9 0 010-1h-1l-1 1v-2 1h1l3-1h1v4h-1-1l-1-1-1 1-1 1c0 1 0 0 0 0zm3-4v2h2v-1-1h-2zm1 11v2h-1v-1l-2-2h-2v-2 1h2l3-1h1l-1 2v-1h-1l-1 1 1 2h1v-1z"/><g fill="#96877d" stroke="#000" stroke-width=".2"><path d="M123 110h1v1h1s0 0 0 0v1h-1 1l-2-1M121 109h-3l3 2M93 124h26l2-2-3-2-5-1-2-2-4 1-3 1-5 1-1 1h-8l8 1h-7l2 2z"/><path d="M107 116c-3-2-4 3-5 4l4-2c2 3 4 1 4 1s2 3 4 1h4l1-1c2 0 4-3 4-3l1-2h0v-1h-1l-1 2-2 2-2-4c1-1 2 1 4 1l2-4-2-2h-1v-2l-2 2 2 2h-2l2 1v2c-1 0-2-3-4-2-1 1 1 3 1 3l-2 3c-3-3-5-1-9-1z"/><path d="M102 112c2 1 1 3 1 3h7l3 1-3-3-4 1-1-1v-4c-2-1-4 1-3 3zM94 108c-2 0-5-2-6-1s-1 3 0 4c1 2-1 2-2 3v1l1 1v2h0l1 1v-2l2-1v-1h0l-1-1 2-2c0-1-3-3-2-4 1 0 3 2 5 1h1s0-2-1-1zM102 90l-9-2-2 1-2 2c-2-1-3 3-2 3-2 0-2 3-2 3l1 2v1c3 3 5-2 8-2l4-3h2l2-5z"/><circle cx="105.1" cy="87.4" r="3.3"/><path d="M99 113c-2 0-5-2-5-5 1-7 11-3 12-9 0-4 1-7 3-11l2-1v1l5 1v2s0 0 0 0l-2 1-3 1s4 3 3 4l2 2 3-2 5 2 3 2h-2l-6-2c0 3-3 4-3 4l4 1 4 2 1 3s-1 1-2-1l-3-3h-2l-6 1-5 3h-4v3l-2 3 3 3h2l2 2h-3l-6-3v-4z"/><path d="M91 100h1l3 1 4 3 2 3-3-1-4-4-2-1-1-1zM119 107c-2 0-6 5-6 5l3 3s0-5 3-8z"/><path d="M99 94v4l2 5 7 1c0 2 2 4 4 6 0 0 0 0 0 0l1 1h3l-4-3-2-6-4-2v-8h-2l1-1h1l1-1v-1c1-1 0-3-2-3s-2 2-2 2v1l-1 1h-2l-2 2-2 1-2 2c-2 1-2 5-2 5v1s0 0 0 0l1 1s0 0 0 0h1v-1h1s0 0 0 0l-1-1v-2s2-1 2-3c2 1 3-1 3-1z"/><path d="M96 88l2-1h5l2-1c2 0 2 2 2 2h-4l-3 1c-1 1-2-1-4-1zM100 90h2l2 2h2v7l-4-3-1-3c-1-1-2-2-1-3z"/><path d="M103 92h1l1 1s0 0 0 0l1 1h-1v-1h-1v-1h-1z"/><path d="M110 88h-2l-2 3v1l-1 3 1 2v2l1-1v-2-3l3-5z"/><path d="M115 91s-3 4-9 6l-1-3h0s-1 3 1 3c5-1 9-6 9-6h0zM117 117h-1l-1-1-2-1h-1l-1-1c0-2-2-2-2-2s0-1-3-1c6-3 11 4 11 4M120 118l2 1 1-1h1v1s-1 3-5 0M109 118l-1 2v1h1l2-1 1 1s0 0 0 0h1l-1-1v-1l-3 1s2-1 1-2"/></g></svg>
