<svg height="400" width="600" viewBox="0 0 600 400" xmlns="http://www.w3.org/2000/svg" xmlns:xlink="http://www.w3.org/1999/xlink"><path fill="red" d="M0 0h600v400H0z"/><path fill="#060" d="M0 0h240v400H0z"/><g><g fill="#ff0" fill-rule="evenodd" stroke="#000" stroke-linecap="round" stroke-linejoin="round" stroke-width=".6"><path d="M318 262c-30-1-168-87-169-101l7-13c14 20 156 104 169 101l-7 13"/><path d="M155 146c-3 8 36 32 82 60 47 29 88 46 91 44l1-3-4 1c-13-4-46-19-87-44a390 390 0 01-82-60h0l-1 2h0zm164 116l-3 1c-12-1-46-18-86-42-48-28-87-54-82-61l1-2h0c-4 12 77 58 82 61 46 29 86 46 89 41l-1 2v0z"/><path d="M240 169c30 0 68-4 89-12l-4-8c-13 7-51 12-85 12-41 0-70-4-84-13l-4 8c26 11 53 13 88 13"/><path d="M330 157c0 1-14 6-35 9a366 366 0 01-108 1c-21-3-32-8-37-10l1-2c12 5 24 8 37 10a386 386 0 00107-1c21-3 32-8 34-10l1 3h0zm-4-8c-2 2-13 6-33 9a364 364 0 01-103 1c-21-3-31-8-35-9l1-2c3 1 13 6 34 8a361 361 0 00102 0c20-3 31-8 33-9l1 2v0zM141 206c18 10 60 15 99 15 35 0 82-5 99-15v-10c-6 9-55 17-100 17-44-1-85-8-98-16v9"/><path d="M340 204v3c-2 3-19 7-39 11a407 407 0 01-161-11v-3c9 6 33 10 42 12a382 382 0 00158-12h0zm0-8v2c-2 3-19 8-39 11a407 407 0 01-161-11v-3c9 6 33 11 42 12a382 382 0 00158-11h0zM240 260c-43 0-80-11-87-13l5 9c14 5 50 14 82 13 33-1 61-3 81-13l6-9c-14 6-60 13-87 13"/><path d="M323 254l-2 4a228 228 0 01-81 12c-38-1-69-8-84-14l-1-2v-1l2 1a269 269 0 00166 0h0zm5-9v1l-2 3c-5 2-18 6-38 8-13 2-22 4-48 4-49-1-80-10-88-13l-1-2c28 7 57 13 89 13 24 0 34-2 47-4 24-3 35-7 39-8v-1l2-1h0z"/><path d="M329 198c0 28-14 53-26 64a93 93 0 01-64 27c-28 0-55-18-62-26a95 95 0 01-26-64 90 90 0 0192-88c22 1 48 12 66 34 12 14 17 29 20 53zm-89-97c54 0 99 45 99 99a99 99 0 01-198 0c0-54 44-99 99-99"/><path d="M240 101a99 99 0 010 198 99 99 0 010-198zm-97 99c0 53 44 97 97 97s97-44 97-97-44-97-97-97-97 44-97 97z"/><path d="M240 109a91 91 0 010 181c-50 1-91-40-91-90s41-91 91-91zm-89 91a89 89 0 1089-89c-49 0-89 40-89 89z"/><path d="M244 101h-9l1 199h8z"/><path d="M243 100h2v201h-2V100zm-8 0h2v201h-2V100z"/><path d="M339 204v-7l-6-6-34-9-49-5-59 3-42 10-8 6v8l21-10 51-8h49l36 4 25 6z"/><path d="M240 185c23 0 46 2 64 5 19 4 32 9 36 14v3c-5-7-23-12-36-14a341 341 0 00-129 0c-14 3-33 8-35 14v-3c1-4 15-10 35-13 17-4 40-6 65-6zm0-9c23 0 46 2 64 6 19 4 32 8 36 14v2c-5-6-23-11-36-14a341 341 0 00-129 0c-14 3-33 9-35 14v-3c1-3 15-9 35-13 17-3 40-6 65-6zM239 133c37 0 69 5 84 13l6 9c-13-7-48-14-89-13-34 0-70 4-89 13l7-10c15-8 50-12 81-12"/><path d="M240 141c21 0 41 1 57 4 15 2 30 7 32 9l1 3c-5-4-17-7-33-10s-36-4-57-4c-24 0-42 1-58 4-17 3-28 7-31 10l1-3c6-3 15-7 30-9 16-3 35-4 58-4h0zm0-9c20 0 40 1 55 4 13 2 25 6 29 9l2 4c-4-4-18-8-32-11a353 353 0 00-110 0c-14 3-24 6-27 9l2-3c5-3 14-6 25-8 15-3 35-4 56-4zM289 241c-18-3-36-4-49-3-61 0-81 12-84 16l-4-8c15-11 49-17 88-17 21 1 38 2 53 5l-4 7"/><path d="M240 236c17 1 33 1 50 4l-2 3c-15-3-31-4-48-4-23 0-46 2-66 7-6 2-17 6-18 10l-1-2c0-2 7-6 19-10 22-6 44-7 66-8v0zm0-8c18 0 36 1 54 5l-1 2a280 280 0 00-121 3c-7 2-20 7-20 10l-1-2c0-3 11-7 20-10 22-6 46-8 69-8z"/><path d="M328 247l-8 12-21-19-55-37-62-34-32-11 7-13 2-1 20 5 66 34 38 24 32 23 13 15z"/><path d="M149 158c5-4 47 15 90 41 44 26 85 56 81 62l-1 2h-1v-3c-2-6-31-29-80-59-47-28-87-45-91-40l2-3h0zm180 89c4-7-35-36-83-64s-84-44-90-39l-1 2c0 1 0 0 0 0l4-1c11 0 43 15 87 40 19 12 82 52 82 63l-1 2 2-3v0z"/></g><path d="M181 211a59 59 0 10119 0h-1v-79H181v79h0z" fill="#fff" stroke="#000" stroke-width=".7"/><path d="M183 211v0c0 16 6 30 17 40a57 57 0 0097-40h0v-77H183v77m91-54v54h0v5c-1 7-5 14-10 19-6 7-15 10-24 10a34 34 0 01-34-34v-54h68z" fill="red" stroke="#000" stroke-width=".5"/><g id="e"><g id="d" fill="#ff0" stroke="#000" stroke-width=".5"><path d="M190 154c0-5 4-6 4-6s5 1 4 6h-8" stroke="none"/><path d="M187 148l-1 6h4c0-5 4-6 4-6s4 1 4 6h5l-1-6h-15v0zM186 154h17v2h-17l-1-1 1-1z"/><path d="M192 154c0-3 2-4 2-4s3 1 3 4h-5M186 145h16l1 1h-17s0 0 0 0v-1zM187 146h15l1 1-1 1h-15l-1-1 1-1zM192 136h1v1h1v-1h1v1h1v-1h1v2s0 0 0 0h-5s0 0 0 0v-2h0zM196 139v6h-4v-6h4"/><path id="a" d="M191 142v3h-4v-3h4z"/><use x="10.6" width="100%" height="100%" xlink:href="#a"/><path id="b" d="M186 139h1v1h1v-1h2v1h0v-1h2v2l-1 1h-4l-1-1v-2h0z"/><use x="10.6" width="100%" height="100%" xlink:href="#b"/><path d="M194 141h1v1h-1v-1" fill="#000" stroke="none"/><path id="c" d="M189 143c0-1 0-1 0 0v1-1" fill="#000" stroke="none"/><use x="10.6" width="100%" height="100%" xlink:href="#c"/></g><use y="46.3" width="100%" height="100%" xlink:href="#d"/><use transform="rotate(-45 313 180)" width="100%" height="100%" xlink:href="#d"/></g><use x="45.7" width="100%" height="100%" xlink:href="#d"/><use transform="matrix(-1 0 0 1 480 0)" width="100%" height="100%" xlink:href="#e"/><path id="f" d="M233 192v10c0 3 0 5 2 6 1 2 3 2 5 2s4 0 5-2c2-1 3-3 3-6v-10zm3 2a1 1 0 012 2 1 1 0 01-2 1 1 1 0 01-1-1 1 1 0 011-2zm8 0a1 1 0 012 2 1 1 0 01-2 1 1 1 0 01-1-1 1 1 0 011-2zm-4 4a1 1 0 012 2 1 1 0 01-2 1 1 1 0 01-1-1 1 1 0 011-2zm4 4a1 1 0 012 2 1 1 0 01-2 1 1 1 0 01-1-1 1 1 0 011-2zm-8 0a1 1 0 012 2 1 1 0 01-2 1 1 1 0 01-1-1 1 1 0 011-2z" fill="#039"/><use y="-26" width="100%" height="100%" xlink:href="#f"/><use x="-20.8" width="100%" height="100%" xlink:href="#f"/><use x="20.7" width="100%" height="100%" xlink:href="#f"/><use y="25.8" width="100%" height="100%" xlink:href="#f"/></g></svg>
