<svg height="600" viewBox="0 0 12 6" width="1200" xmlns="http://www.w3.org/2000/svg" xmlns:xlink="http://www.w3.org/1999/xlink"><path d="M0 0h12v6H0z" fill="red"/><path d="M0 0h12v4H0z" fill="#005ce5"/><path d="M0 0h12v2H0z" fill="#fff"/><g transform="matrix(.021 0 0 .021 0 3)"><path d="M148-116l-2 1c-12 0-24 3-32 7l-3 1 3 45c2 23 17 36 34 42 17-6 32-19 34-42l3-45-3-1c-9-4-21-7-34-8z" fill="#005ce5" fill-rule="evenodd"/><path d="M148-85l-8 17-6-7-14 18 1 3c2 3 5 6 9 6l9-2 9 2 9-2 9 2c4 0 7-3 9-5l1-4-14-18-6 7zm-9 37l-9 3c-3 0-5-1-7-3l2 4 5 1 9-2 9 2 9-2 9 2 5-1 1-3-6 2-9-3-9 3-9-3zm0 5l-9 3h-2c5 7 12 11 20 14 8-3 15-7 20-14h-2l-9-3-9 3-9-3z" fill="#fff" fill-rule="evenodd"/><g id="b" fill="#ffe500"><path id="a" d="M134-110h7l-3 6" fill="#ffe500" fill-rule="evenodd"/><use height="300" transform="matrix(1 0 0 -1 0 -215)" width="600" xlink:href="#a"/></g><g fill="#ffe500"><use height="300" transform="translate(21)" width="600" xlink:href="#b"/><use height="300" transform="translate(10 14)" width="600" xlink:href="#b"/></g></g><path d="M3 1zM2 1v1l1 1 1-1V1v1L3 3 2 2z" fill="red" fill-rule="evenodd"/></svg>
