<svg version="1.1" id="Layer_1" xmlns="http://www.w3.org/2000/svg" x="0" y="0" viewBox="0 0 900 600" xml:space="preserve"><style>.st0{fill:#ee1c25}.st1{fill:#0b4ea2}.st2{fill:#fff}</style><path class="st0" d="M0 0h900v600H0z"/><path class="st1" d="M0 0h900v400H0z"/><path class="st2" d="M0 0h900v200H0z"/><path id="_x3C_Path_x3E_" class="st2" d="M393 141H146v8c-1 2-5 44-5 137 0 43 15 82 44 114 20 23 47 42 81 58l4 2 4-2c34-16 61-35 81-58 29-32 44-71 44-114 0-93-4-135-5-137l-1-8z"/><path class="st0" d="M270 450c-49-24-120-71-120-164 0-94 4-136 4-136h231s5 42 5 136c0 93-71 140-120 164z"/><path class="st2" d="M280 261c14 0 40 1 63-7v36c-21-7-47-7-63-7v52h-21v-52c-15 0-41 0-62 7v-18-18c23 8 49 8 62 7v-32c-12 0-29 0-49 7v-18-18c20 7 37 7 49 7 0-20-6-46-6-46l17 1 17-1s-6 26-6 46c12 0 29 0 49-7l-1 18 1 18c-20-7-37-7-50-7v32z"/><path class="st1" d="M270 329c-25 0-38 35-38 35s-8-17-28-17c-14 0-24 12-30 24 25 39 65 64 96 79 31-15 71-40 96-79-6-12-17-24-30-24-21 0-28 17-28 17s-13-35-38-35z"/></svg>
