<svg xmlns="http://www.w3.org/2000/svg" width="2560" height="1440" viewBox="0 0 1920 1080"><clipPath id="a"><path transform="matrix(1 0 0 -1 0 1080)" d="M0 0h1920v1080H0z"/></clipPath><g clip-path="url(#a)"><path stroke-width="1.28887" fill="none" stroke="#dcdcdc" d="M1169.785 764.264h34.113c5.695 0 10.311-4.616 10.311-10.311v-33.51c0-5.695 4.617-10.312 10.311-10.312h36.089m274.833 224.264h19.03c5.695 0 10.311-4.616 10.311-10.31V640.531c0-5.695 4.616-10.31 10.311-10.31h20.622M351.158 650.842h6.197a6.197 6.197 0 0 1 6.197 6.197v26.025c0 5.695 4.617 10.31 10.311 10.31h10.311M752.048 197.16h13.633c5.695 0 10.311 4.617 10.311 10.311v512.972c0 5.695-4.616 10.311-10.31 10.311h-110.35m0 37.378H784.37a1.933 1.933 0 0 0 1.933-1.934c0-1.067.866-1.933 1.933-1.933h137.265"/><path stroke-width="1.28887" fill="none" stroke="#dcdcdc" d="M752.048 197.16h65.188c5.695 0 10.311 4.616 10.311 10.31v396.974c0 5.694 4.616 10.31 10.311 10.31h72.177m259.75 149.51h23.802c5.695 0 10.311-4.616 10.311-10.311v-91.51c0-5.695-4.616-10.311-10.31-10.311H1181.1M752.048 197.159h132.209m271.067 37.378h38.263c5.695 0 10.311-4.617 10.311-10.311v-27.067c0-5.694 4.617-10.31 10.311-10.31h41.244"/><path stroke-width="1.28887" fill="none" stroke="#dcdcdc" d="M1169.785 764.264h28.958c5.694 0 10.31-4.616 10.31-10.311V234.537c0-5.695 4.617-10.311 10.312-10.311h36.088m279.989 411.15h13.874c5.695 0 10.311-4.616 10.311-10.31V271.914c0-5.694-4.616-10.31-10.31-10.31h-20.493m6.618 373.773h13.874c5.695 0 10.311 4.616 10.311 10.31v241.02c0 5.695-4.616 10.311-10.31 10.311h-13.875"/><path d="M925.501 704.332h244.284v41.243H925.501v-41.244z" fill="#306996"/><text fill="#fff" transform="matrix(2.41236 0 0 2.41236 -55.37 -122.354)" font-size="6.946" font-family="Helvetica" font-weight="bold"><tspan y="353.668" x="413.5489 415.8618 419.72358 422.4254 428.6001">terms</tspan></text><path d="M925.501 745.575h244.284v37.378H925.501v-37.377z" fill="#f5f5f5"/><text transform="matrix(2.41236 0 0 2.41236 -55.37 -122.354)" font-size="6.411" font-family="Helvetica" font-weight="bold"><tspan y="369.776" x="413.5489 415.33125">id</tspan></text><text fill="#999" transform="matrix(2.41236 0 0 2.41236 -55.37 -122.354)" font-size="6.411" font-family="Helvetica" font-weight="bold"><tspan y="369.776" x="472.6075 476.52488 478.30723 482.22459 484.00694 487.9243 490.05928 492.19425 495.75898 499.3237">bigint(20)</tspan></text><path d="M925.501 782.953h244.284v37.377H925.501v-37.377z" fill="#f5f5f5"/><text fill="#6f6f6f" transform="matrix(2.41236 0 0 2.41236 -55.37 -122.354)" font-size="6.411" font-family="Helvetica"><tspan y="385.27" x="413.5489 417.11363 420.67835 426.019 429.58375 433.14848">number</tspan></text><text fill="#999" transform="matrix(2.41236 0 0 2.41236 -55.37 -122.354)" font-size="6.411" font-family="Helvetica"><tspan y="385.27" x="471.8875 475.0932 480.43388 483.9986 485.4219 486.8452 488.26853 491.83326 493.6156 495.75059 499.3153">smallint(5)</tspan></text><path d="M884.258 137.227h271.066v41.244H884.257v-41.244z" fill="#306996"/><text fill="#fff" transform="matrix(2.41236 0 0 2.41236 -55.37 -122.354)" font-size="6.946" font-family="Helvetica" font-weight="bold"><tspan y="118.584" x="396.4519 402.6266 406.48838 412.66307 416.90684 420.76863 423.47047 427.33226 431.19404 435.4378 437.7507">member_vote</tspan></text><path d="M884.258 178.47h271.066v37.378H884.257v-37.377z" fill="#f5f5f5"/><text transform="matrix(2.41236 0 0 2.41236 -55.37 -122.354)" font-size="6.411" font-family="Helvetica" font-weight="bold"><tspan y="134.693" x="396.4519 402.1516 405.71635 411.41606 415.3334 418.89814 421.39216 424.95689 426.73924">member_id</tspan></text><text fill="#999" transform="matrix(2.41236 0 0 2.41236 -55.37 -122.354)" font-size="6.411" font-family="Helvetica" font-weight="bold"><tspan y="134.693" x="466.6126 470.52998 472.31233 476.22969 478.01203 481.92939 484.06437 486.19935 489.76408 493.3288">bigint(20)</tspan></text><path d="M884.258 215.848h271.066v37.377H884.257v-37.377z" fill="#f5f5f5"/><text transform="matrix(2.41236 0 0 2.41236 -55.37 -122.354)" font-size="6.411" font-family="Helvetica" font-weight="bold"><tspan y="150.187" x="396.4519 400.01664 403.934 406.06898 409.6337 413.19844 414.98078">vote_id</tspan></text><text fill="#999" transform="matrix(2.41236 0 0 2.41236 -55.37 -122.354)" font-size="6.411" font-family="Helvetica" font-weight="bold"><tspan y="150.187" x="466.6126 470.52998 472.31233 476.22969 478.01203 481.92939 484.06437 486.19935 489.76408 493.3288">bigint(20)</tspan></text><path d="M884.258 253.226h271.066v37.377H884.257v-37.377z" fill="#f5f5f5"/><text fill="#6f6f6f" transform="matrix(2.41236 0 0 2.41236 -55.37 -122.354)" font-size="6.411" font-family="Helvetica"><tspan y="165.681" x="396.4519 400.01664 403.58137 406.78706 408.21037 409.9927 411.41603 414.98075">position</tspan></text><text fill="#999" transform="matrix(2.41236 0 0 2.41236 -55.37 -122.354)" font-size="6.411" font-family="Helvetica"><tspan y="165.681" x="465.8926 469.0983 474.43898 478.0037 479.427 480.8503 482.27363 485.83836 487.6207 489.75569 493.3204">smallint(5)</tspan></text><path d="M1595.716 570.289H1840v41.244h-244.284v-41.244z" fill="#306996"/><text fill="#fff" transform="matrix(2.41236 0 0 2.41236 -55.37 -122.354)" font-size="6.946" font-family="Helvetica" font-weight="bold"><tspan y="298.103" x="691.3746 695.61837 698.3202 702.56399 706.4257 710.2875 714.53128 718.775 721.47689 725.3386">procedures</tspan></text><path d="M1595.716 611.533H1840v37.377h-244.284v-37.377z" fill="#f5f5f5"/><text transform="matrix(2.41236 0 0 2.41236 -55.37 -122.354)" font-size="6.411" font-family="Helvetica" font-weight="bold"><tspan y="314.211" x="691.3746 693.1569">id</tspan></text><text fill="#999" transform="matrix(2.41236 0 0 2.41236 -55.37 -122.354)" font-size="6.411" font-family="Helvetica" font-weight="bold"><tspan y="314.211" x="750.4333 754.35067 756.133 760.05038 761.8327 765.75009 767.8851 770.0201 773.5848 777.1495">bigint(20)</tspan></text><path d="M1595.716 648.91H1840v37.377h-244.284V648.91z" fill="#f5f5f5"/><text fill="#6f6f6f" transform="matrix(2.41236 0 0 2.41236 -55.37 -122.354)" font-size="6.411" font-family="Helvetica"><tspan y="329.705" x="691.3746 693.1569 696.3626 699.9273">type</tspan></text><text fill="#999" transform="matrix(2.41236 0 0 2.41236 -55.37 -122.354)" font-size="6.411" font-family="Helvetica"><tspan y="329.705" x="758.9735 762.1792 765.7439 769.3086 771.4436 773.5786 777.1433">char(3)</tspan></text><path d="M1595.716 686.287H1840v37.378h-244.284v-37.378z" fill="#f5f5f5"/><text fill="#6f6f6f" transform="matrix(2.41236 0 0 2.41236 -55.37 -122.354)" font-size="6.411" font-family="Helvetica"><tspan y="345.199" x="691.3746 694.9393 698.50399 703.8446 707.4093 710.974">number</tspan></text><text fill="#999" transform="matrix(2.41236 0 0 2.41236 -55.37 -122.354)" font-size="6.411" font-family="Helvetica"><tspan y="345.199" x="749.7133 752.919 758.25967 761.82437 763.2477 764.671 766.09439 769.65908 771.4414 773.5764 777.1411">smallint(5)</tspan></text><path d="M1595.716 723.665H1840v37.377h-244.284v-37.377z" fill="#f5f5f5"/><text fill="#6f6f6f" transform="matrix(2.41236 0 0 2.41236 -55.37 -122.354)" font-size="6.411" font-family="Helvetica"><tspan y="360.693" x="691.3746 694.58029 698.14498 701.70968">year</tspan></text><text fill="#999" transform="matrix(2.41236 0 0 2.41236 -55.37 -122.354)" font-size="6.411" font-family="Helvetica"><tspan y="360.693" x="758.9735 762.1792 765.7439 769.3086 771.4436 773.5786 777.1433">year(4)</tspan></text><path d="M1595.716 761.042H1840v37.377h-244.284v-37.377z" fill="#f5f5f5"/><text fill="#6f6f6f" transform="matrix(2.41236 0 0 2.41236 -55.37 -122.354)" font-size="6.411" font-family="Helvetica"><tspan y="376.188" x="691.3746 693.1569 694.58029 696.3626 697.78598">title</tspan></text><text fill="#999" transform="matrix(2.41236 0 0 2.41236 -55.37 -122.354)" font-size="6.411" font-family="Helvetica"><tspan y="376.188" x="768.9474 770.72976 774.29446 777.5001">text</tspan></text><path d="M1255.453 126.916h273.371v41.244h-273.371v-41.244z" fill="#306996"/><text fill="#fff" transform="matrix(2.41236 0 0 2.41236 -55.37 -122.354)" font-size="6.946" font-family="Helvetica" font-weight="bold"><tspan y="114.31" x="550.3246 554.18637 558.4301 560.74307 564.6048">votes</tspan></text><path d="M1255.453 168.16h273.371v37.377h-273.371V168.16z" fill="#f5f5f5"/><text transform="matrix(2.41236 0 0 2.41236 -55.37 -122.354)" font-size="6.411" font-family="Helvetica" font-weight="bold"><tspan y="130.419" x="550.3246 552.10696">id</tspan></text><text fill="#999" transform="matrix(2.41236 0 0 2.41236 -55.37 -122.354)" font-size="6.411" font-family="Helvetica" font-weight="bold"><tspan y="130.419" x="621.4407 625.35806 627.1404 631.05776 632.8401 636.75747 638.89248 641.02749 644.59219 648.15689">bigint(20)</tspan></text><path d="M1255.453 205.537h273.371v37.377h-273.371v-37.377z" fill="#f5f5f5"/><text fill="#6f6f6f" transform="matrix(2.41236 0 0 2.41236 -55.37 -122.354)" font-size="6.411" font-family="Helvetica"><tspan y="145.913" x="550.3246 552.10696 555.67166 557.80667 563.1473 566.712 568.1353">term_id</tspan></text><text fill="#999" transform="matrix(2.41236 0 0 2.41236 -55.37 -122.354)" font-size="6.411" font-family="Helvetica"><tspan y="145.913" x="623.5601 627.1248 628.54818 632.11288 633.5362 637.1009 638.88327 641.01828 644.58297 648.14767">bigint(20)</tspan></text><path d="M1255.453 242.914h273.371v37.378h-273.371v-37.377z" fill="#f5f5f5"/><text fill="#6f6f6f" transform="matrix(2.41236 0 0 2.41236 -55.37 -122.354)" font-size="6.411" font-family="Helvetica"><tspan y="161.407" x="550.3246 553.8893 557.454 560.65969 564.22439 569.565 573.1297 576.6944 578.47677 582.04147 583.4648">document_id</tspan></text><text fill="#999" transform="matrix(2.41236 0 0 2.41236 -55.37 -122.354)" font-size="6.411" font-family="Helvetica"><tspan y="161.407" x="623.5601 627.1248 628.54818 632.11288 633.5362 637.1009 638.88327 641.01828 644.58297 648.14767">bigint(20)</tspan></text><path d="M1255.453 280.292h273.371v37.377h-273.371v-37.377z" fill="#f5f5f5"/><text fill="#6f6f6f" transform="matrix(2.41236 0 0 2.41236 -55.37 -122.354)" font-size="6.411" font-family="Helvetica"><tspan y="176.901" x="550.3246 553.8893 557.454 560.65969 564.22439 567.78909 571.35379 574.55947 578.12417 579.9065 583.4712 587.0359 588.4592">doceo_vote_id</tspan></text><text fill="#999" transform="matrix(2.41236 0 0 2.41236 -55.37 -122.354)" font-size="6.411" font-family="Helvetica"><tspan y="176.901" x="632.5886 634.01199 637.57669 639.359 641.494 645.0587 648.6234">int(11)</tspan></text><path d="M1255.453 317.67h273.371v37.377h-273.371v-37.378z" fill="#f5f5f5"/><text fill="#6f6f6f" transform="matrix(2.41236 0 0 2.41236 -55.37 -122.354)" font-size="6.411" font-family="Helvetica"><tspan y="192.395" x="550.3246 553.8893 557.454 559.2363">date</tspan></text><text fill="#999" transform="matrix(2.41236 0 0 2.41236 -55.37 -122.354)" font-size="6.411" font-family="Helvetica"><tspan y="192.395" x="637.8103 641.375 644.9397 646.72207">date</tspan></text><path d="M1255.453 355.047h273.371v37.377h-273.371v-37.377z" fill="#f5f5f5"/><text fill="#6f6f6f" transform="matrix(2.41236 0 0 2.41236 -55.37 -122.354)" font-size="6.411" font-family="Helvetica"><tspan y="207.889" x="550.3246 553.8893 557.454 560.65969 563.86538 566.00039 567.4237 570.9884 572.77078 574.1941 577.7588">description</tspan></text><text fill="#999" transform="matrix(2.41236 0 0 2.41236 -55.37 -122.354)" font-size="6.411" font-family="Helvetica"><tspan y="207.889" x="639.9547 641.73709 645.30178 648.50747">text</tspan></text><path d="M1255.453 392.424h273.371V429.8h-273.371v-37.377z" fill="#f5f5f5"/><text fill="#6f6f6f" transform="matrix(2.41236 0 0 2.41236 -55.37 -122.354)" font-size="6.411" font-family="Helvetica"><tspan y="223.383" x="550.3246 553.5303 555.6653 559.23 562.7947 564.577 568.1417 571.7064 575.2711 578.8358">created_at</tspan></text><text fill="#999" transform="matrix(2.41236 0 0 2.41236 -55.37 -122.354)" font-size="6.411" font-family="Helvetica"><tspan y="223.383" x="620.7175 622.4999 623.9232 629.26388 632.82858 636.03427 637.8166 641.3813 646.7219">timestamp</tspan></text><path d="M1255.453 429.801h273.371v37.378h-273.371V429.8z" fill="#f5f5f5"/><text fill="#6f6f6f" transform="matrix(2.41236 0 0 2.41236 -55.37 -122.354)" font-size="6.411" font-family="Helvetica"><tspan y="238.877" x="550.3246 553.8893 557.454 561.0187 564.5834 566.3657 569.9304 573.4951 577.0598 580.6245">updated_at</tspan></text><text fill="#999" transform="matrix(2.41236 0 0 2.41236 -55.37 -122.354)" font-size="6.411" font-family="Helvetica"><tspan y="238.877" x="620.7175 622.4999 623.9232 629.26388 632.82858 636.03427 637.8166 641.3813 646.7219">timestamp</tspan></text><path d="M1255.453 467.179h273.371v37.377h-273.371v-37.377z" fill="#f5f5f5"/><text fill="#6f6f6f" transform="matrix(2.41236 0 0 2.41236 -55.37 -122.354)" font-size="6.411" font-family="Helvetica"><tspan y="254.372" x="550.3246 553.5303 555.3126 558.8773 560.65969">stats</tspan></text><text fill="#999" transform="matrix(2.41236 0 0 2.41236 -55.37 -122.354)" font-size="6.411" font-family="Helvetica"><tspan y="254.372" x="627.8333 629.25668 632.82138 636.38607 639.95077 641.7331 645.2978 648.5035">longtext</tspan></text><path d="M910.035 554.822h271.066v41.244H910.035v-41.244z" fill="#306996"/><text fill="#fff" transform="matrix(2.41236 0 0 2.41236 -55.37 -122.354)" font-size="6.946" font-family="Helvetica" font-weight="bold"><tspan y="291.691" x="407.1375 413.3122 417.17399 423.34867 427.59245 431.45423 434.15608 438.01786 440.33076 444.19255 446.89439">member_term</tspan></text><path d="M910.035 596.066h271.066v37.377H910.035v-37.377z" fill="#f5f5f5"/><text transform="matrix(2.41236 0 0 2.41236 -55.37 -122.354)" font-size="6.411" font-family="Helvetica" font-weight="bold"><tspan y="307.8" x="407.1375 412.83723 416.40196 422.10166 426.019 429.58375 432.07777 435.6425 437.42485">member_id</tspan></text><text fill="#999" transform="matrix(2.41236 0 0 2.41236 -55.37 -122.354)" font-size="6.411" font-family="Helvetica" font-weight="bold"><tspan y="307.8" x="477.2982 481.21556 482.9979 486.91526 488.6976 492.61497 494.74995 496.88493 500.44966 504.01438">bigint(20)</tspan></text><path d="M910.035 633.443h271.066v37.378H910.035v-37.378z" fill="#f5f5f5"/><text transform="matrix(2.41236 0 0 2.41236 -55.37 -122.354)" font-size="6.411" font-family="Helvetica" font-weight="bold"><tspan y="323.294" x="407.1375 409.2725 412.83723 415.33125 421.03096 424.59568 426.37803">term_id</tspan></text><text fill="#999" transform="matrix(2.41236 0 0 2.41236 -55.37 -122.354)" font-size="6.411" font-family="Helvetica" font-weight="bold"><tspan y="323.294" x="477.2982 481.21556 482.9979 486.91526 488.6976 492.61497 494.74995 496.88493 500.44966 504.01438">bigint(20)</tspan></text><path d="M384.174 596.066h271.158v41.244H384.174v-41.244z" fill="#306996"/><text fill="#fff" transform="matrix(2.41236 0 0 2.41236 -55.37 -122.354)" font-size="6.946" font-family="Helvetica" font-weight="bold"><tspan y="308.788" x="189.1511 193.39488 196.09674 200.34053 204.58432 208.82811 212.6899 218.86458 222.72637 228.90105 233.14484 237.00662 239.70848 243.57027 247.81406 249.74495 253.98874">group_memberships</tspan></text><path d="M384.174 637.31h271.158v37.377H384.174V637.31z" fill="#f5f5f5"/><text transform="matrix(2.41236 0 0 2.41236 -55.37 -122.354)" font-size="6.411" font-family="Helvetica" font-weight="bold"><tspan y="324.897" x="189.1511 190.93346">id</tspan></text><text fill="#999" transform="matrix(2.41236 0 0 2.41236 -55.37 -122.354)" font-size="6.411" font-family="Helvetica" font-weight="bold"><tspan y="324.897" x="259.3499 263.26728 265.04963 268.96699 270.74934 274.6667 276.80168 278.93666 282.50138 286.0661">bigint(20)</tspan></text><path d="M384.174 674.687h271.158v37.378H384.174v-37.378z" fill="#f5f5f5"/><text fill="#6f6f6f" transform="matrix(2.41236 0 0 2.41236 -55.37 -122.354)" font-size="6.411" font-family="Helvetica"><tspan y="340.391" x="189.1511 192.7158 194.85079 198.4155 201.98021 205.54492 209.10964 210.53296">group_id</tspan></text><text fill="#999" transform="matrix(2.41236 0 0 2.41236 -55.37 -122.354)" font-size="6.411" font-family="Helvetica"><tspan y="340.391" x="261.4693 265.03404 266.45735 270.02207 271.44538 275.0101 276.79246 278.92744 282.49217 286.0569">bigint(20)</tspan></text><path d="M384.174 712.065h271.158v37.377H384.174v-37.377z" fill="#f5f5f5"/><text fill="#6f6f6f" transform="matrix(2.41236 0 0 2.41236 -55.37 -122.354)" font-size="6.411" font-family="Helvetica"><tspan y="355.885" x="189.1511 194.49176 198.05648 203.39714 206.96186 210.52657 212.66155 216.22626 217.64958">member_id</tspan></text><text fill="#999" transform="matrix(2.41236 0 0 2.41236 -55.37 -122.354)" font-size="6.411" font-family="Helvetica"><tspan y="355.885" x="261.4693 265.03404 266.45735 270.02207 271.44538 275.0101 276.79246 278.92744 282.49217 286.0569">bigint(20)</tspan></text><path d="M384.174 749.442h271.158v37.377H384.174v-37.377z" fill="#f5f5f5"/><text fill="#6f6f6f" transform="matrix(2.41236 0 0 2.41236 -55.37 -122.354)" font-size="6.411" font-family="Helvetica"><tspan y="371.379" x="189.1511 190.93346 194.49817 196.63315 201.97382 205.53853 206.96186">term_id</tspan></text><text fill="#999" transform="matrix(2.41236 0 0 2.41236 -55.37 -122.354)" font-size="6.411" font-family="Helvetica"><tspan y="371.379" x="261.4693 265.03404 266.45735 270.02207 271.44538 275.0101 276.79246 278.92744 282.49217 286.0569">bigint(20)</tspan></text><path d="M384.174 786.82h271.158v37.377H384.174v-37.378z" fill="#f5f5f5"/><text fill="#6f6f6f" transform="matrix(2.41236 0 0 2.41236 -55.37 -122.354)" font-size="6.411" font-family="Helvetica"><tspan y="386.873" x="189.1511 192.35678 194.13915 197.70386 199.83884 201.6212 205.18592 208.75063 212.31534 214.0977">start_date</tspan></text><text fill="#999" transform="matrix(2.41236 0 0 2.41236 -55.37 -122.354)" font-size="6.411" font-family="Helvetica"><tspan y="386.873" x="275.7196 279.28434 282.84907 284.6314">date</tspan></text><path d="M384.174 824.197h271.158v37.377H384.174v-37.377z" fill="#f5f5f5"/><text fill="#6f6f6f" transform="matrix(2.41236 0 0 2.41236 -55.37 -122.354)" font-size="6.411" font-family="Helvetica"><tspan y="402.367" x="189.1511 192.7158 196.28052 199.84523 203.40995 206.97466 210.53937 212.32173">end_date</tspan></text><text fill="#999" transform="matrix(2.41236 0 0 2.41236 -55.37 -122.354)" font-size="6.411" font-family="Helvetica"><tspan y="402.367" x="275.7196 279.28434 282.84907 284.6314">date</tspan></text><path d="M384.174 861.574h271.158v37.378H384.174v-37.378z" fill="#f5f5f5"/><text fill="#6f6f6f" transform="matrix(2.41236 0 0 2.41236 -55.37 -122.354)" font-size="6.411" font-family="Helvetica"><tspan y="417.861" x="189.1511 192.35678 194.49176 198.05648 201.62119 203.40355 206.96826 210.53298 214.09769 217.6624">created_at</tspan></text><text fill="#999" transform="matrix(2.41236 0 0 2.41236 -55.37 -122.354)" font-size="6.411" font-family="Helvetica"><tspan y="417.861" x="258.6268 260.40916 261.83247 267.17314 270.73786 273.94355 275.7259 279.29063 284.6313">timestamp</tspan></text><path d="M384.174 898.952h271.158v37.377H384.174v-37.377z" fill="#f5f5f5"/><text fill="#6f6f6f" transform="matrix(2.41236 0 0 2.41236 -55.37 -122.354)" font-size="6.411" font-family="Helvetica"><tspan y="433.356" x="189.1511 192.7158 196.28052 199.84523 203.40995 205.1923 208.75702 212.32173 215.88645 219.45116">updated_at</tspan></text><text fill="#999" transform="matrix(2.41236 0 0 2.41236 -55.37 -122.354)" font-size="6.411" font-family="Helvetica"><tspan y="433.356" x="258.6268 260.40916 261.83247 267.17314 270.73786 273.94355 275.7259 279.29063 284.6313">timestamp</tspan></text><path d="M1260.609 575.444h274.833v41.244h-274.833v-41.244z" fill="#306996"/><text fill="#fff" transform="matrix(2.41236 0 0 2.41236 -55.37 -122.354)" font-size="6.946" font-family="Helvetica" font-weight="bold"><tspan y="300.24" x="552.4618 556.70559 560.94937 564.8111 569.0549 575.22958 579.0913 583.3351 585.648">documents</tspan></text><path d="M1260.609 616.688h274.833v37.377h-274.833v-37.377z" fill="#f5f5f5"/><text transform="matrix(2.41236 0 0 2.41236 -55.37 -122.354)" font-size="6.411" font-family="Helvetica" font-weight="bold"><tspan y="316.348" x="552.4618 554.24417">id</tspan></text><text fill="#999" transform="matrix(2.41236 0 0 2.41236 -55.37 -122.354)" font-size="6.411" font-family="Helvetica" font-weight="bold"><tspan y="316.348" x="624.184 628.1014 629.8837 633.8011 635.58346 639.5008 641.6358 643.7708 647.3355 650.9002">bigint(20)</tspan></text><path d="M1260.609 654.065h274.833v37.378h-274.833v-37.378z" fill="#f5f5f5"/><text fill="#6f6f6f" transform="matrix(2.41236 0 0 2.41236 -55.37 -122.354)" font-size="6.411" font-family="Helvetica"><tspan y="331.842" x="552.4618 554.24417 557.4498 561.0145">type</tspan></text><text fill="#999" transform="matrix(2.41236 0 0 2.41236 -55.37 -122.354)" font-size="6.411" font-family="Helvetica"><tspan y="331.842" x="632.7241 635.9298 639.4945 643.0592 645.1942 647.3292 650.8939">char(2)</tspan></text><path d="M1260.609 691.443h274.833v37.377h-274.833v-37.377z" fill="#f5f5f5"/><text fill="#6f6f6f" transform="matrix(2.41236 0 0 2.41236 -55.37 -122.354)" font-size="6.411" font-family="Helvetica"><tspan y="347.336" x="552.4618 554.24417 557.80886 559.94387 565.2845 568.8492 570.2725">term_id</tspan></text><text fill="#999" transform="matrix(2.41236 0 0 2.41236 -55.37 -122.354)" font-size="6.411" font-family="Helvetica"><tspan y="347.336" x="626.3034 629.8681 631.29147 634.85617 636.2795 639.8442 641.6265 643.76156 647.32626 650.8909">bigint(20)</tspan></text><path d="M1260.609 728.82h274.833v37.377h-274.833V728.82z" fill="#f5f5f5"/><text fill="#6f6f6f" transform="matrix(2.41236 0 0 2.41236 -55.37 -122.354)" font-size="6.411" font-family="Helvetica"><tspan y="362.83" x="552.4618 556.0265 559.5912 564.9318 568.4965 572.0612">number</tspan></text><text fill="#999" transform="matrix(2.41236 0 0 2.41236 -55.37 -122.354)" font-size="6.411" font-family="Helvetica"><tspan y="362.83" x="635.3319 636.75527 640.31997 642.1023 644.2373 647.802 651.3667">int(11)</tspan></text><path d="M1260.609 766.197h274.833v37.378h-274.833v-37.378z" fill="#f5f5f5"/><text fill="#6f6f6f" transform="matrix(2.41236 0 0 2.41236 -55.37 -122.354)" font-size="6.411" font-family="Helvetica"><tspan y="378.325" x="552.4618 555.6675 559.2322 562.7969">year</tspan></text><text fill="#999" transform="matrix(2.41236 0 0 2.41236 -55.37 -122.354)" font-size="6.411" font-family="Helvetica"><tspan y="378.325" x="632.7241 635.9298 639.4945 643.0592 645.1942 647.3292 650.8939">year(4)</tspan></text><path d="M1260.609 803.575h274.833v37.377h-274.833v-37.377z" fill="#f5f5f5"/><text fill="#6f6f6f" transform="matrix(2.41236 0 0 2.41236 -55.37 -122.354)" font-size="6.411" font-family="Helvetica"><tspan y="393.819" x="552.4618 554.24417 555.6675 557.4498 558.87319">title</tspan></text><text fill="#999" transform="matrix(2.41236 0 0 2.41236 -55.37 -122.354)" font-size="6.411" font-family="Helvetica"><tspan y="393.819" x="642.6981 644.48049 648.04519 651.25088">text</tspan></text><path d="M1260.609 840.952h274.833v37.377h-274.833v-37.377z" fill="#f5f5f5"/><text fill="#6f6f6f" transform="matrix(2.41236 0 0 2.41236 -55.37 -122.354)" font-size="6.411" font-family="Helvetica"><tspan y="409.313" x="552.4618 555.6675 557.8025 561.3672 564.9319 566.71426 570.27896 573.8436 577.4083 580.973">created_at</tspan></text><text fill="#999" transform="matrix(2.41236 0 0 2.41236 -55.37 -122.354)" font-size="6.411" font-family="Helvetica"><tspan y="409.313" x="623.4608 625.24319 626.6665 632.00717 635.57186 638.7775 640.5599 644.1246 649.4652">timestamp</tspan></text><path d="M1260.609 878.33h274.833v37.377h-274.833V878.33z" fill="#f5f5f5"/><text fill="#6f6f6f" transform="matrix(2.41236 0 0 2.41236 -55.37 -122.354)" font-size="6.411" font-family="Helvetica"><tspan y="424.807" x="552.4618 556.0265 559.5912 563.1559 566.7206 568.5029 572.0676 575.6323 579.197 582.7617">updated_at</tspan></text><text fill="#999" transform="matrix(2.41236 0 0 2.41236 -55.37 -122.354)" font-size="6.411" font-family="Helvetica"><tspan y="424.807" x="623.4608 625.24319 626.6665 632.00717 635.57186 638.7775 640.5599 644.1246 649.4652">timestamp</tspan></text><path d="M1260.609 915.707h274.833v37.377h-274.833v-37.377z" fill="#f5f5f5"/><text fill="#6f6f6f" transform="matrix(2.41236 0 0 2.41236 -55.37 -122.354)" font-size="6.411" font-family="Helvetica"><tspan y="440.301" x="552.4618 556.0265 558.1615 561.7262 564.9319 568.4966 572.0613 575.626 577.761 581.3257 584.8904 586.3137">procedure_id</tspan></text><text fill="#999" transform="matrix(2.41236 0 0 2.41236 -55.37 -122.354)" font-size="6.411" font-family="Helvetica"><tspan y="440.301" x="626.3034 629.8681 631.29147 634.85617 636.2795 639.8442 641.6265 643.76156 647.32626 650.8909">bigint(20)</tspan></text><path d="M80 590.91h271.158v41.244H80V590.91z" fill="#306996"/><text fill="#fff" transform="matrix(2.41236 0 0 2.41236 -55.37 -122.354)" font-size="6.946" font-family="Helvetica" font-weight="bold"><tspan y="306.651" x="63.06095 67.30474 70.0066 74.25039 78.49418 82.73797">groups</tspan></text><path d="M80 632.154h271.158v37.378H80v-37.378z" fill="#f5f5f5"/><text transform="matrix(2.41236 0 0 2.41236 -55.37 -122.354)" font-size="6.411" font-family="Helvetica" font-weight="bold"><tspan y="322.76" x="63.06095 64.84331">id</tspan></text><text fill="#999" transform="matrix(2.41236 0 0 2.41236 -55.37 -122.354)" font-size="6.411" font-family="Helvetica" font-weight="bold"><tspan y="322.76" x="133.2598 137.17714 138.9595 142.87685 144.65921 148.57656 150.71154 152.84651 156.41123 159.97594">bigint(20)</tspan></text><path d="M80 669.532h271.158v37.377H80v-37.377z" fill="#f5f5f5"/><text fill="#6f6f6f" transform="matrix(2.41236 0 0 2.41236 -55.37 -122.354)" font-size="6.411" font-family="Helvetica"><tspan y="338.254" x="63.06095 66.26663 69.83135 73.39607">code</tspan></text><text fill="#999" transform="matrix(2.41236 0 0 2.41236 -55.37 -122.354)" font-size="6.411" font-family="Helvetica"><tspan y="338.254" x="129.3278 132.5335 136.0982 138.23319 141.43888 145.00359 148.5683 150.70328 152.83826 156.40297 159.96768">varchar(16)</tspan></text><path d="M80 706.91h271.158v37.377H80v-37.378z" fill="#f5f5f5"/><text fill="#6f6f6f" transform="matrix(2.41236 0 0 2.41236 -55.37 -122.354)" font-size="6.411" font-family="Helvetica"><tspan y="353.748" x="63.06095 66.26663 68.40162 71.96634 75.53106 77.313419 80.878139 84.442859 88.007579 91.572299">created_at</tspan></text><text fill="#999" transform="matrix(2.41236 0 0 2.41236 -55.37 -122.354)" font-size="6.411" font-family="Helvetica"><tspan y="353.748" x="132.5366 134.31897 135.7423 141.08296 144.64768 147.85337 149.63573 153.20044 158.5411">timestamp</tspan></text><path d="M80 744.287h271.158v37.377H80v-37.377z" fill="#f5f5f5"/><text fill="#6f6f6f" transform="matrix(2.41236 0 0 2.41236 -55.37 -122.354)" font-size="6.411" font-family="Helvetica"><tspan y="369.242" x="63.06095 66.62567 70.19039 73.75511 77.31983 79.10219 82.66691 86.23163 89.79635 93.36107">updated_at</tspan></text><text fill="#999" transform="matrix(2.41236 0 0 2.41236 -55.37 -122.354)" font-size="6.411" font-family="Helvetica"><tspan y="369.242" x="132.5366 134.31897 135.7423 141.08296 144.64768 147.85337 149.63573 153.20044 158.5411">timestamp</tspan></text><path d="M384.174 137.227h367.874v41.244H384.174v-41.244z" fill="#306996"/><text fill="#fff" transform="matrix(2.41236 0 0 2.41236 -55.37 -122.354)" font-size="6.946" font-family="Helvetica" font-weight="bold"><tspan y="118.584" x="189.1511 195.32578 199.18756 205.36225 209.60604 213.46782 216.16968">members</tspan></text><path d="M384.174 178.47h367.874v37.378H384.174v-37.377z" fill="#f5f5f5"/><text transform="matrix(2.41236 0 0 2.41236 -55.37 -122.354)" font-size="6.411" font-family="Helvetica" font-weight="bold"><tspan y="134.693" x="189.1511 190.93346">id</tspan></text><text fill="#999" transform="matrix(2.41236 0 0 2.41236 -55.37 -122.354)" font-size="6.411" font-family="Helvetica" font-weight="bold"><tspan y="134.693" x="299.4417 303.35908 305.14143 309.05879 310.84114 314.75849 316.89347 319.02845 322.59318 326.1579">bigint(20)</tspan></text><path d="M384.174 215.848h367.874v37.377H384.174v-37.377z" fill="#f5f5f5"/><text fill="#6f6f6f" transform="matrix(2.41236 0 0 2.41236 -55.37 -122.354)" font-size="6.411" font-family="Helvetica"><tspan y="150.187" x="189.1511 193.78009 197.3448 200.90952 204.47423 205.89756">web_id</tspan></text><text fill="#999" transform="matrix(2.41236 0 0 2.41236 -55.37 -122.354)" font-size="6.411" font-family="Helvetica"><tspan y="150.187" x="310.5896 312.0129 315.57765 317.36 319.49497 323.0597 326.62443">int(11)</tspan></text><path d="M384.174 253.226h367.874v37.377H384.174v-37.377z" fill="#f5f5f5"/><text fill="#6f6f6f" transform="matrix(2.41236 0 0 2.41236 -55.37 -122.354)" font-size="6.411" font-family="Helvetica"><tspan y="165.681" x="189.1511 190.93346 192.35678 194.49176 197.69745 199.47982 203.04453 206.60924 210.17395 215.51462">first_name</tspan></text><text fill="#999" transform="matrix(2.41236 0 0 2.41236 -55.37 -122.354)" font-size="6.411" font-family="Helvetica"><tspan y="165.681" x="291.944 295.1497 298.71443 300.8494 304.05509 307.6198 311.18455 313.31953 315.4545 319.01924 322.58396 326.14869">varchar(255)</tspan></text><path d="M384.174 290.603h367.874v37.377H384.174v-37.377z" fill="#f5f5f5"/><text fill="#6f6f6f" transform="matrix(2.41236 0 0 2.41236 -55.37 -122.354)" font-size="6.411" font-family="Helvetica"><tspan y="181.175" x="189.1511 190.57442 194.13913 197.34482 199.12718 202.6919 206.2566 209.82132 215.16199">last_name</tspan></text><text fill="#999" transform="matrix(2.41236 0 0 2.41236 -55.37 -122.354)" font-size="6.411" font-family="Helvetica"><tspan y="181.175" x="291.944 295.1497 298.71443 300.8494 304.05509 307.6198 311.18455 313.31953 315.4545 319.01924 322.58396 326.14869">varchar(255)</tspan></text><path d="M384.174 327.98h367.874v37.377H384.174V327.98z" fill="#f5f5f5"/><text fill="#6f6f6f" transform="matrix(2.41236 0 0 2.41236 -55.37 -122.354)" font-size="6.411" font-family="Helvetica"><tspan y="196.669" x="189.1511 192.7158 196.28052 198.06288 201.6276 205.1923 208.75702 210.53939 214.1041 217.66881 219.09214 221.22711 223.00948">date_of_birth</tspan></text><text fill="#999" transform="matrix(2.41236 0 0 2.41236 -55.37 -122.354)" font-size="6.411" font-family="Helvetica"><tspan y="196.669" x="315.8114 319.37614 322.94087 324.7232">date</tspan></text><path d="M384.174 365.357h367.874v37.378H384.174v-37.378z" fill="#f5f5f5"/><text fill="#6f6f6f" transform="matrix(2.41236 0 0 2.41236 -55.37 -122.354)" font-size="6.411" font-family="Helvetica"><tspan y="212.163" x="189.1511 192.35678 195.9215 199.4862 203.05092 204.83329 206.96826">country</tspan></text><text fill="#999" transform="matrix(2.41236 0 0 2.41236 -55.37 -122.354)" font-size="6.411" font-family="Helvetica"><tspan y="212.163" x="307.9819 311.1876 314.75233 318.31706 320.45204 322.587 326.15174">char(2)</tspan></text><path d="M384.174 402.735h367.874v37.377H384.174v-37.377z" fill="#f5f5f5"/><text fill="#6f6f6f" transform="matrix(2.41236 0 0 2.41236 -55.37 -122.354)" font-size="6.411" font-family="Helvetica"><tspan y="227.658" x="189.1511 192.35678 194.49176 198.05648 201.62119 203.40355 206.96826 210.53298 214.09769 217.6624">created_at</tspan></text><text fill="#999" transform="matrix(2.41236 0 0 2.41236 -55.37 -122.354)" font-size="6.411" font-family="Helvetica"><tspan y="227.658" x="298.7186 300.50096 301.92427 307.26493 310.82966 314.03535 315.8177 319.38243 324.72309">timestamp</tspan></text><path d="M384.174 440.112h367.874v37.378H384.174v-37.378z" fill="#f5f5f5"/><text fill="#6f6f6f" transform="matrix(2.41236 0 0 2.41236 -55.37 -122.354)" font-size="6.411" font-family="Helvetica"><tspan y="243.152" x="189.1511 192.7158 196.28052 199.84523 203.40995 205.1923 208.75702 212.32173 215.88645 219.45116">updated_at</tspan></text><text fill="#999" transform="matrix(2.41236 0 0 2.41236 -55.37 -122.354)" font-size="6.411" font-family="Helvetica"><tspan y="243.152" x="298.7186 300.50096 301.92427 307.26493 310.82966 314.03535 315.8177 319.38243 324.72309">timestamp</tspan></text><path d="M384.174 477.49h367.874v37.377H384.174V477.49z" fill="#f5f5f5"/><text fill="#6f6f6f" transform="matrix(2.41236 0 0 2.41236 -55.37 -122.354)" font-size="6.411" font-family="Helvetica"><tspan y="258.646" x="189.1511 190.93346 192.35678 194.49176 197.69745 199.47982 203.04453 206.60924 210.17395 215.51462 219.07933 222.64405 226.20876 229.77347 231.90845 237.24912 240.81383 242.23715 243.66048 246.86617 250.43088">first_name_normalized</tspan></text><text fill="#999" transform="matrix(2.41236 0 0 2.41236 -55.37 -122.354)" font-size="6.411" font-family="Helvetica"><tspan y="258.646" x="291.944 295.1497 298.71443 300.8494 304.05509 307.6198 311.18455 313.31953 315.4545 319.01924 322.58396 326.14869">varchar(255)</tspan></text><path d="M384.174 514.867h367.874v37.377H384.174v-37.377z" fill="#f5f5f5"/><text fill="#6f6f6f" transform="matrix(2.41236 0 0 2.41236 -55.37 -122.354)" font-size="6.411" font-family="Helvetica"><tspan y="274.14" x="189.1511 190.57442 194.13913 197.34482 199.12718 202.6919 206.2566 209.82132 215.16199 218.7267 222.29141 225.85613 229.42084 231.55582 236.89649 240.4612 241.88452 243.30785 246.51354 250.07825">last_name_normalized</tspan></text><text fill="#999" transform="matrix(2.41236 0 0 2.41236 -55.37 -122.354)" font-size="6.411" font-family="Helvetica"><tspan y="274.14" x="291.944 295.1497 298.71443 300.8494 304.05509 307.6198 311.18455 313.31953 315.4545 319.01924 322.58396 326.14869">varchar(255)</tspan></text><path d="M1698.38 973.76h-10.44v15.76h16.54v-9.66c0-3.36-2.72-6.1-6.1-6.1z" fill="#428cff"/><path d="M1704.48 989.52h-16.54v16.24h10.44c3.36 0 6.1-2.74 6.1-6.1v-10.14z" fill="#2670de"/><path d="M1687.94 973.76h-9.32c-3.36 0-6.1 2.74-6.1 6.1v19.8c0 3.36 2.74 6.1 6.1 6.1h9.32v-32z" fill="#2161cf"/><path d="M1683.18 993.02h-4.4c-.68 0-1.22-.54-1.22-1.22v-4.4c0-.68.54-1.22 1.22-1.22h4.4c.68 0 1.22.54 1.22 1.22v4.4c0 .68-.56 1.22-1.22 1.22zm9.82-14.46h4.4c.68 0 1.22.54 1.22 1.22v4.4c0 .68-.54 1.22-1.22 1.22h-4.4c-.68 0-1.22-.54-1.22-1.22v-4.4c0-.68.56-1.22 1.22-1.22zm0 15.64h4.4c.68 0 1.22.54 1.22 1.22v4.4c0 .68-.54 1.22-1.22 1.22h-4.4c-.68 0-1.22-.54-1.22-1.22v-4.4c0-.68.56-1.22 1.22-1.22z" fill="#fff"/><path d="M1681.215 990.33l13.208-9.552.949 1.313-13.207 9.552z" fill="#fff"/><path d="M1681.165 988.775l.995-1.279 12.804 9.958-.995 1.278z" fill="#fff"/><path d="M1724.98 996.42h-1.8v-1.36h-.04c-.34.5-.82.9-1.42 1.18-.6.28-1.22.42-1.86.42-.74 0-1.4-.12-1.98-.38-.6-.26-1.1-.6-1.52-1.06-.42-.46-.74-.98-.96-1.58-.22-.6-.34-1.26-.34-1.96s.12-1.36.34-1.96c.22-.6.54-1.14.96-1.58.42-.44.92-.8 1.52-1.04.6-.26 1.26-.38 1.98-.38.68 0 1.32.14 1.92.42.6.28 1.06.68 1.38 1.16h.04v-6.98h1.8v15.1h-.02zm-4.92-1.44c.48 0 .92-.08 1.3-.24.38-.16.72-.4.98-.68a3 3 0 0 0 .62-1.04c.14-.4.22-.84.22-1.32 0-.48-.08-.92-.22-1.32a3 3 0 0 0-.62-1.04c-.26-.28-.6-.52-.98-.68-.38-.16-.82-.24-1.3-.24-.48 0-.92.08-1.3.24-.38.16-.72.4-.98.68a3 3 0 0 0-.62 1.04c-.14.4-.22.84-.22 1.32 0 .48.08.92.22 1.32a3 3 0 0 0 .62 1.04c.26.28.6.52.98.68.4.16.82.24 1.3.24zm7.62-13.66h1.8v6.98h.04c.32-.5.78-.88 1.38-1.16.6-.28 1.24-.42 1.92-.42.74 0 1.4.12 1.98.38.6.26 1.1.6 1.52 1.04.42.44.74.98.96 1.58.22.6.34 1.26.34 1.96s-.12 1.36-.34 1.96c-.22.6-.54 1.12-.96 1.58-.42.46-.92.8-1.52 1.06s-1.26.38-1.98.38c-.64 0-1.26-.14-1.86-.42-.6-.28-1.08-.68-1.42-1.18h-.04v1.36h-1.8v-15.1h-.02zm4.92 13.66c.48 0 .92-.08 1.3-.24.38-.16.72-.4.98-.68a3 3 0 0 0 .62-1.04c.14-.4.22-.84.22-1.32 0-.48-.08-.92-.22-1.32a3 3 0 0 0-.62-1.04c-.26-.28-.6-.52-.98-.68-.38-.16-.82-.24-1.3-.24-.48 0-.92.08-1.3.24-.38.16-.72.4-.98.68a3 3 0 0 0-.62 1.04c-.14.4-.22.84-.22 1.32 0 .48.08.92.22 1.32a3 3 0 0 0 .62 1.04c.26.28.6.52.98.68.38.16.82.24 1.3.24zm16.78 1.44h-1.8v-1.36h-.04c-.34.5-.82.9-1.42 1.18-.6.28-1.22.42-1.86.42-.74 0-1.4-.12-1.98-.38-.6-.26-1.1-.6-1.52-1.06-.42-.46-.74-.98-.96-1.58-.22-.6-.34-1.26-.34-1.96s.12-1.36.34-1.96c.22-.6.54-1.14.96-1.58.42-.44.92-.8 1.52-1.04.6-.26 1.26-.38 1.98-.38.68 0 1.32.14 1.92.42.6.28 1.06.68 1.38 1.16h.04v-6.98h1.8v15.1h-.02zm-4.92-1.44c.48 0 .92-.08 1.3-.24.38-.16.72-.4.98-.68a3 3 0 0 0 .62-1.04c.14-.4.22-.84.22-1.32 0-.48-.08-.92-.22-1.32a3 3 0 0 0-.62-1.04c-.26-.28-.6-.52-.98-.68-.38-.16-.82-.24-1.3-.24-.48 0-.92.08-1.3.24-.38.16-.72.4-.98.68a3 3 0 0 0-.62 1.04c-.14.4-.22.84-.22 1.32 0 .48.08.92.22 1.32a3 3 0 0 0 .62 1.04c.26.28.6.52.98.68.38.16.82.24 1.3.24zm7.34-11.42c0-.36.12-.66.38-.92s.56-.38.92-.38.66.12.92.38.38.56.38.92-.12.66-.38.92-.56.38-.92.38-.66-.12-.92-.38c-.24-.26-.38-.56-.38-.92zm.42 3.4h1.8v9.46h-1.8v-9.46zm4.7 1.14c.5-.46 1.1-.82 1.76-1.04.66-.24 1.34-.34 2-.34.7 0 1.28.08 1.78.26s.9.4 1.22.7c.32.3.56.62.7 1 .16.38.22.78.22 1.18v4.84c0 .34 0 .64.02.92l.06.8h-1.6c-.04-.48-.06-.96-.06-1.44h-.02c-.4.62-.88 1.04-1.42 1.3-.54.26-1.18.38-1.9.38-.44 0-.86-.06-1.26-.18s-.74-.3-1.04-.54c-.3-.24-.54-.54-.7-.88-.18-.36-.26-.76-.26-1.22 0-.62.14-1.12.4-1.54.28-.42.64-.74 1.12-1 .48-.26 1.02-.44 1.66-.56.64-.12 1.3-.16 2.02-.16h1.32v-.4c0-.24-.04-.48-.14-.72s-.24-.46-.42-.64c-.18-.2-.42-.34-.7-.46-.28-.12-.62-.16-1-.16-.34 0-.64.04-.9.1-.26.06-.5.14-.7.24-.22.1-.4.22-.58.34-.18.14-.34.26-.5.38l-1.08-1.16zm5.06 3.76c-.42 0-.86.02-1.3.06-.44.04-.86.14-1.22.26-.36.14-.66.32-.9.56-.24.24-.34.54-.34.92 0 .54.18.94.54 1.18.36.24.86.36 1.48.36.5 0 .92-.08 1.26-.24.34-.16.62-.38.84-.64.22-.26.36-.56.46-.88.1-.32.14-.64.14-.96v-.6h-.96v-.02zm14.74 4.48c0 .72-.12 1.38-.36 1.96-.24.6-.6 1.1-1.04 1.54-.46.44-1 .76-1.64 1-.64.24-1.34.36-2.12.36-.9 0-1.74-.12-2.48-.38-.76-.26-1.46-.7-2.14-1.32l1.22-1.52c.46.5.98.88 1.52 1.14.54.26 1.16.38 1.86.38.66 0 1.22-.1 1.66-.28.44-.2.78-.44 1.04-.74s.44-.66.54-1.04c.1-.4.16-.78.16-1.18v-1.4h-.06c-.34.58-.82 1-1.4 1.26-.6.28-1.22.4-1.86.4-.7 0-1.34-.12-1.92-.36-.6-.24-1.1-.58-1.52-1.02-.42-.44-.76-.94-1-1.54-.24-.6-.36-1.24-.36-1.92 0-.7.12-1.34.34-1.94.22-.6.54-1.14.96-1.58.42-.46.92-.8 1.52-1.06s1.26-.38 1.98-.38c.64 0 1.26.14 1.86.42.6.28 1.08.68 1.42 1.18h.04v-1.36h1.8l-.02 9.38zm-4.9-7.96c-.48 0-.92.08-1.3.24-.38.16-.72.4-.98.68a3 3 0 0 0-.62 1.04c-.14.4-.22.84-.22 1.32 0 .96.28 1.72.84 2.3.56.58 1.32.86 2.28.86.96 0 1.72-.28 2.28-.86.56-.58.84-1.34.84-2.3 0-.48-.08-.92-.22-1.32a3 3 0 0 0-.62-1.04c-.26-.28-.6-.52-.98-.68-.4-.14-.82-.24-1.3-.24zm7.62-1.42h1.8v1.46h.04c.12-.26.28-.48.48-.68.2-.2.42-.38.66-.52.24-.14.52-.26.8-.34.3-.08.58-.12.88-.12.3 0 .56.04.8.12l-.08 1.94a3.483 3.483 0 0 0-.88-.14c-.88 0-1.56.24-2.02.74-.46.5-.7 1.26-.7 2.3v4.76h-1.8l.02-9.52zm7.42 1.14c.5-.46 1.1-.82 1.76-1.04.66-.24 1.34-.34 2-.34.7 0 1.28.08 1.78.26s.9.4 1.22.7c.32.3.56.62.7 1 .16.38.22.78.22 1.18v4.84c0 .34 0 .64.02.92l.06.8h-1.6c-.04-.48-.06-.96-.06-1.44h-.04c-.4.62-.88 1.04-1.42 1.3-.54.26-1.18.38-1.9.38-.44 0-.86-.06-1.26-.18s-.74-.3-1.04-.54c-.3-.24-.54-.54-.7-.88-.18-.36-.26-.76-.26-1.22 0-.62.14-1.12.4-1.54.28-.42.64-.74 1.12-1 .48-.26 1.02-.44 1.66-.56.64-.12 1.3-.16 2.02-.16h1.32v-.4c0-.24-.04-.48-.14-.72s-.24-.46-.42-.64c-.18-.2-.42-.34-.7-.46-.28-.12-.62-.16-1-.16-.34 0-.64.04-.9.1-.26.06-.5.14-.7.24-.22.1-.4.22-.58.34-.18.14-.34.26-.5.38l-1.06-1.16zm5.08 3.76c-.42 0-.86.02-1.3.06-.44.04-.86.14-1.22.26-.36.14-.66.32-.9.56-.24.24-.34.54-.34.92 0 .54.18.94.54 1.18.36.24.86.36 1.48.36.5 0 .92-.08 1.26-.24.34-.16.62-.38.84-.64.22-.26.36-.56.46-.88.1-.32.14-.64.14-.96v-.6h-.96v-.02zm5.24-4.9h1.68v1.48h.04c.04-.14.14-.3.3-.5.16-.2.38-.38.64-.56.26-.18.56-.34.92-.46s.74-.18 1.16-.18c.7 0 1.3.14 1.78.44s.88.74 1.18 1.32c.3-.58.74-1.02 1.3-1.32.56-.3 1.12-.44 1.7-.44.74 0 1.34.12 1.8.36.46.24.84.56 1.1.94.26.4.44.84.54 1.34.1.5.14 1.02.14 1.54v5.52h-1.8v-5.28c0-.36-.02-.7-.06-1.04-.04-.34-.14-.62-.28-.88s-.36-.46-.62-.6c-.26-.16-.62-.22-1.06-.22-.86 0-1.48.26-1.86.8-.38.54-.56 1.22-.56 2.06v5.18h-1.8v-4.96c0-.46-.02-.86-.06-1.24-.04-.38-.14-.7-.28-.96-.14-.28-.34-.48-.6-.64-.26-.16-.6-.22-1.04-.22-.32 0-.62.06-.92.18-.3.12-.56.32-.78.56-.22.26-.4.58-.54.96-.14.4-.2.86-.2 1.38v4.92h-1.8v-9.48h-.02z" fill="#2161cf"/><path d="M1815.62 996.54c-.36 0-.66-.12-.92-.38s-.38-.56-.38-.92.12-.66.38-.92.56-.38.92-.38.66.12.92.38.38.56.38.92-.12.66-.38.92c-.26.24-.56.38-.92.38zm3.84-12.98c0-.36.12-.66.38-.92s.56-.38.92-.38.66.12.92.38.38.56.38.92-.12.66-.38.92-.56.38-.92.38-.66-.12-.92-.38c-.24-.26-.38-.56-.38-.92zm.42 3.4h1.8v9.46h-1.8v-9.46zm4.2 4.72c0-.7.12-1.34.38-1.94.26-.6.62-1.12 1.06-1.58.46-.46.98-.8 1.6-1.06a5.06 5.06 0 0 1 1.98-.38c.7 0 1.36.12 1.98.38.62.26 1.14.62 1.6 1.06.46.46.8.98 1.06 1.58.26.6.38 1.24.38 1.94s-.12 1.34-.38 1.94a5.1 5.1 0 0 1-1.06 1.58c-.46.44-.98.8-1.6 1.06-.62.26-1.28.38-1.98.38s-1.36-.12-1.98-.38c-.62-.26-1.14-.62-1.6-1.06-.46-.44-.8-.98-1.06-1.58a5.16 5.16 0 0 1-.38-1.94zm1.92 0c0 .48.08.92.22 1.32a3 3 0 0 0 .62 1.04c.26.28.6.52.98.68.38.16.82.24 1.3.24.48 0 .92-.08 1.3-.24.38-.16.72-.4.98-.68a3 3 0 0 0 .62-1.04c.14-.4.22-.84.22-1.32 0-.48-.08-.92-.22-1.32a3 3 0 0 0-.62-1.04c-.26-.28-.6-.52-.98-.68-.38-.16-.82-.24-1.3-.24-.48 0-.92.08-1.3.24-.38.16-.72.4-.98.68a3 3 0 0 0-.62 1.04c-.14.4-.22.84-.22 1.32z" fill="#428cff"/></g></svg>