<?xml version="1.0" encoding="UTF-8" standalone="no"?>
<!DOCTYPE svg PUBLIC "-//W3C//DTD SVG 1.1//EN" "http://www.w3.org/Graphics/SVG/1.1/DTD/svg11.dtd">
<svg width="100%" height="100%" viewBox="60 -40 946 650" version="1.1" xmlns="http://www.w3.org/2000/svg" xmlns:xlink="http://www.w3.org/1999/xlink" xml:space="preserve" xmlns:serif="http://www.serif.com/" style="fill-rule:evenodd;clip-rule:evenodd;stroke-linejoin:round;stroke-miterlimit:2;">
    <g transform="matrix(4.16667,0,0,4.16667,0,0)">
        <rect x="0" y="0.095" width="226.772" height="155.905" style="fill:white;fill-rule:nonzero;"/>
        <path d="M139.81,87.112L139.81,82.493C139.81,81.887 139.705,81.45 139.503,81.188C139.3,80.923 138.992,80.79 138.572,80.79C138.216,80.79 137.919,80.881 137.681,81.06C137.443,81.239 137.255,81.413 137.115,81.583L137.115,87.112L135.912,87.112L135.912,76.549L137.115,76.413L137.115,80.672L137.144,80.672C137.185,80.614 137.248,80.531 137.333,80.433C137.416,80.333 137.535,80.234 137.681,80.134C137.832,80.034 138.011,79.947 138.224,79.872C138.437,79.797 138.689,79.76 138.976,79.76C139.601,79.76 140.097,79.964 140.462,80.374C140.83,80.781 141.013,81.459 141.013,82.405L141.013,87.112L139.81,87.112ZM134.14,81.329C134.109,81.299 134.062,81.254 133.998,81.195C133.931,81.135 133.851,81.074 133.753,81.016C133.656,80.956 133.535,80.904 133.394,80.86C133.257,80.813 133.097,80.79 132.919,80.79C132.66,80.79 132.421,80.839 132.197,80.933C131.974,81.028 131.781,81.18 131.619,81.389C131.453,81.599 131.326,81.869 131.228,82.203C131.136,82.536 131.091,82.943 131.091,83.421C131.091,83.949 131.132,84.392 131.214,84.751C131.3,85.109 131.417,85.395 131.568,85.61C131.712,85.824 131.896,85.978 132.109,86.073C132.32,86.168 132.558,86.215 132.814,86.215C133.183,86.215 133.462,86.15 133.658,86.02C133.849,85.891 133.986,85.786 134.064,85.706L134.556,86.543C134.505,86.605 134.433,86.676 134.341,86.76C134.244,86.845 134.123,86.929 133.976,87.007C133.828,87.086 133.644,87.156 133.433,87.209C133.22,87.264 132.974,87.29 132.697,87.29C132.298,87.29 131.927,87.226 131.582,87.096C131.23,86.967 130.931,86.753 130.671,86.454C130.414,86.156 130.212,85.767 130.062,85.288C129.912,84.811 129.839,84.218 129.839,83.511C129.839,82.823 129.927,82.24 130.104,81.763C130.287,81.284 130.519,80.899 130.808,80.606C131.095,80.311 131.416,80.098 131.765,79.961C132.119,79.827 132.472,79.76 132.828,79.76C133.097,79.76 133.333,79.785 133.537,79.834C133.74,79.885 133.912,79.947 134.058,80.023C134.201,80.098 134.322,80.176 134.414,80.262C134.507,80.347 134.585,80.417 134.646,80.477L134.14,81.329ZM129.154,81C129.125,80.981 129.06,80.956 128.96,80.925C128.863,80.896 128.728,80.881 128.56,80.881C128.181,80.881 127.888,80.984 127.673,81.188C127.462,81.391 127.31,81.613 127.22,81.852L127.22,87.112L126.015,87.112L126.015,79.939L127.117,79.939L127.117,80.911L127.146,80.911C127.195,80.771 127.261,80.635 127.339,80.5C127.419,80.365 127.517,80.245 127.636,80.141C127.757,80.036 127.898,79.954 128.06,79.895C128.224,79.834 128.421,79.805 128.647,79.805C128.815,79.805 128.953,79.821 129.058,79.851C129.164,79.88 129.244,79.905 129.302,79.924L129.154,81ZM121.822,86.258C121.988,86.258 122.138,86.235 122.269,86.185C122.394,86.136 122.505,86.075 122.601,86.006C122.695,85.936 122.775,85.859 122.837,85.774C122.902,85.69 122.96,85.616 123.009,85.558L123.009,83.974L122.623,83.989C122.048,84.009 121.611,84.109 121.316,84.287C121.015,84.467 120.867,84.756 120.867,85.155C120.867,85.522 120.951,85.799 121.119,85.984C121.289,86.168 121.523,86.258 121.822,86.258ZM119.662,85.288C119.662,84.87 119.742,84.522 119.9,84.243C120.06,83.964 120.273,83.739 120.541,83.564C120.806,83.388 121.123,83.264 121.484,83.19C121.847,83.114 122.23,83.077 122.638,83.077L123.009,83.077L123.009,82.39C123.009,81.782 122.902,81.364 122.689,81.135C122.476,80.906 122.177,80.79 121.792,80.79C121.431,80.79 121.134,80.868 120.896,81.023C120.66,81.178 120.47,81.314 120.33,81.434L119.824,80.627C119.906,80.547 120.005,80.457 120.13,80.359C120.255,80.258 120.408,80.163 120.583,80.073C120.763,79.986 120.964,79.909 121.195,79.851C121.421,79.79 121.681,79.76 121.968,79.76C122.703,79.76 123.259,79.964 123.636,80.374C124.011,80.781 124.201,81.439 124.201,82.346L124.201,85.616C124.201,85.926 124.21,86.227 124.23,86.521C124.251,86.815 124.271,87.012 124.289,87.112L123.144,87.112L123.099,86.321L123.07,86.321C123.029,86.409 122.97,86.511 122.89,86.626C122.81,86.74 122.712,86.845 122.593,86.941C122.474,87.035 122.332,87.115 122.162,87.187C121.994,87.256 121.796,87.29 121.566,87.29C121.298,87.29 121.048,87.241 120.814,87.141C120.582,87.041 120.378,86.902 120.207,86.723C120.033,86.543 119.898,86.332 119.802,86.088C119.71,85.844 119.662,85.577 119.662,85.288ZM116.21,80.747C115.783,80.747 115.441,80.925 115.181,81.284C114.925,81.642 114.777,82.16 114.738,82.838L117.341,82.838C117.351,82.787 117.359,82.717 117.363,82.621C117.369,82.527 117.371,82.424 117.371,82.316C117.371,81.817 117.271,81.431 117.072,81.157C116.875,80.884 116.587,80.747 116.21,80.747ZM118.472,82.36C118.472,82.669 118.462,82.935 118.443,83.159C118.423,83.382 118.402,83.58 118.382,83.75L114.738,83.75C114.777,84.597 114.958,85.22 115.279,85.616C115.603,86.016 116.068,86.215 116.671,86.215C116.878,86.215 117.068,86.192 117.238,86.14C117.404,86.091 117.552,86.031 117.677,85.961C117.8,85.891 117.902,85.823 117.99,85.752C118.072,85.682 118.134,85.626 118.173,85.587L118.621,86.44C118.57,86.489 118.496,86.561 118.396,86.656C118.3,86.75 118.164,86.845 117.998,86.941C117.828,87.035 117.619,87.115 117.371,87.187C117.121,87.256 116.832,87.29 116.494,87.29C116.046,87.29 115.642,87.216 115.279,87.067C114.917,86.919 114.611,86.686 114.355,86.372C114.105,86.059 113.906,85.659 113.771,85.177C113.632,84.695 113.56,84.114 113.56,83.437C113.56,82.797 113.634,82.247 113.777,81.784C113.917,81.322 114.117,80.941 114.363,80.642C114.613,80.344 114.9,80.121 115.228,79.977C115.556,79.832 115.908,79.76 116.283,79.76C116.968,79.76 117.505,79.977 117.89,80.409C118.279,80.845 118.472,81.493 118.472,82.36ZM111.761,81.389C111.679,81.299 111.539,81.178 111.328,81.023C111.121,80.868 110.847,80.79 110.509,80.79C110.193,80.79 109.951,80.866 109.783,81.016C109.613,81.164 109.527,81.344 109.527,81.553C109.527,81.822 109.605,82.043 109.759,82.218C109.912,82.393 110.15,82.579 110.466,82.778L110.914,83.046C111.398,83.337 111.781,83.647 112.058,83.981C112.335,84.316 112.472,84.745 112.472,85.273C112.472,85.842 112.279,86.321 111.888,86.708C111.496,87.096 110.933,87.29 110.199,87.29C109.91,87.29 109.658,87.261 109.441,87.201C109.22,87.141 109.031,87.073 108.867,86.992C108.703,86.912 108.566,86.824 108.457,86.731C108.349,86.636 108.257,86.549 108.189,86.469L108.769,85.513C108.83,85.573 108.9,85.641 108.986,85.722C109.07,85.803 109.171,85.879 109.292,85.954C109.41,86.028 109.542,86.091 109.693,86.14C109.839,86.192 110.013,86.215 110.212,86.215C110.57,86.215 110.841,86.136 111.031,85.976C111.22,85.817 111.314,85.622 111.314,85.392C111.314,85.224 111.292,85.077 111.248,84.953C111.203,84.828 111.134,84.716 111.048,84.617C110.957,84.517 110.847,84.421 110.72,84.333C110.589,84.243 110.443,84.143 110.273,84.034L109.826,83.75C109.38,83.461 109.031,83.157 108.777,82.838C108.525,82.519 108.398,82.112 108.398,81.613C108.398,81.344 108.449,81.097 108.554,80.874C108.66,80.65 108.806,80.454 108.994,80.291C109.181,80.126 109.402,79.997 109.656,79.902C109.908,79.808 110.179,79.76 110.466,79.76C110.746,79.76 110.98,79.787 111.179,79.843C111.378,79.898 111.55,79.966 111.693,80.052C111.835,80.137 111.955,80.222 112.052,80.306C112.144,80.39 112.224,80.462 112.281,80.522L111.761,81.389ZM104.812,80.747C104.386,80.747 104.042,80.925 103.785,81.284C103.527,81.642 103.38,82.16 103.339,82.838L105.943,82.838C105.953,82.787 105.96,82.717 105.964,82.621C105.97,82.527 105.972,82.424 105.972,82.316C105.972,81.817 105.875,81.431 105.675,81.157C105.476,80.884 105.191,80.747 104.812,80.747ZM107.074,82.36C107.074,82.669 107.064,82.935 107.044,83.159C107.023,83.382 107.005,83.58 106.986,83.75L103.339,83.75C103.38,84.597 103.56,85.22 103.88,85.616C104.205,86.016 104.669,86.215 105.273,86.215C105.48,86.215 105.669,86.192 105.839,86.14C106.007,86.091 106.154,86.031 106.279,85.961C106.402,85.891 106.505,85.823 106.591,85.752C106.675,85.682 106.736,85.626 106.775,85.587L107.224,86.44C107.173,86.489 107.097,86.561 107,86.656C106.902,86.75 106.765,86.845 106.599,86.941C106.429,87.035 106.22,87.115 105.972,87.187C105.724,87.256 105.431,87.29 105.095,87.29C104.648,87.29 104.246,87.216 103.88,87.067C103.521,86.919 103.212,86.686 102.96,86.372C102.707,86.059 102.509,85.659 102.371,85.177C102.234,84.695 102.164,84.114 102.164,83.437C102.164,82.797 102.238,82.247 102.38,81.784C102.521,81.322 102.718,80.941 102.966,80.642C103.214,80.344 103.501,80.121 103.83,79.977C104.156,79.832 104.509,79.76 104.886,79.76C105.572,79.76 106.107,79.977 106.494,80.409C106.88,80.845 107.074,81.493 107.074,82.36ZM99.38,79.76C99.38,79.104 99.199,78.618 98.837,78.304C98.475,77.99 97.907,77.833 97.133,77.833L96.507,77.833L96.507,81.881L97.073,81.881C97.857,81.881 98.438,81.697 98.814,81.329C99.192,80.961 99.38,80.437 99.38,79.76ZM99.902,87.112L97.772,82.883C97.665,82.893 97.549,82.901 97.431,82.905C97.311,82.91 97.193,82.912 97.073,82.912L96.507,82.912L96.507,87.112L95.214,87.112L95.214,76.802L97.133,76.802C98.374,76.802 99.288,77.043 99.878,77.528C100.47,78.01 100.765,78.731 100.765,79.686C100.765,80.374 100.623,80.961 100.333,81.448C100.045,81.936 99.603,82.31 99.007,82.57L101.419,87.112L99.902,87.112ZM87.418,86.215C87.606,86.215 87.774,86.192 87.922,86.14C88.071,86.091 88.2,86.028 88.31,85.954C88.419,85.879 88.51,85.803 88.585,85.722C88.66,85.641 88.716,85.573 88.756,85.513L88.756,81.09C88.647,81.02 88.52,80.961 88.377,80.911C88.233,80.863 88.051,80.837 87.833,80.837C87.556,80.837 87.296,80.884 87.053,80.979C86.81,81.073 86.598,81.23 86.42,81.448C86.242,81.667 86.1,81.952 85.996,82.3C85.892,82.649 85.839,83.077 85.839,83.586C85.839,84.084 85.882,84.499 85.966,84.832C86.05,85.167 86.168,85.436 86.316,85.638C86.464,85.844 86.633,85.99 86.822,86.081C87.011,86.17 87.209,86.215 87.418,86.215ZM84.59,83.631C84.59,82.903 84.684,82.295 84.873,81.807C85.061,81.319 85.304,80.925 85.602,80.627C85.899,80.328 86.237,80.116 86.614,79.992C86.991,79.867 87.367,79.805 87.745,79.805C87.972,79.805 88.17,79.823 88.339,79.859C88.508,79.892 88.647,79.935 88.756,79.986L88.756,76.549L89.961,76.413L89.961,87.112L88.86,87.112L88.86,86.35L88.83,86.35C88.8,86.409 88.746,86.491 88.667,86.597C88.587,86.701 88.478,86.805 88.339,86.909C88.2,87.015 88.027,87.104 87.818,87.18C87.611,87.254 87.367,87.29 87.089,87.29C86.752,87.29 86.432,87.223 86.13,87.089C85.827,86.954 85.563,86.74 85.334,86.447C85.106,86.152 84.925,85.774 84.791,85.311C84.657,84.848 84.59,84.287 84.59,83.631ZM81.912,87.112L81.912,82.493C81.912,81.887 81.81,81.45 81.607,81.188C81.403,80.923 81.093,80.79 80.677,80.79C80.32,80.79 80.022,80.881 79.784,81.06C79.545,81.239 79.357,81.413 79.218,81.583L79.218,87.112L78.013,87.112L78.013,79.939L79.115,79.939L79.115,80.747L79.144,80.747C79.173,80.686 79.238,80.6 79.337,80.485C79.437,80.37 79.565,80.262 79.724,80.156C79.883,80.052 80.072,79.958 80.291,79.88C80.508,79.8 80.756,79.76 81.034,79.76C81.352,79.76 81.639,79.808 81.897,79.902C82.155,79.997 82.373,80.149 82.551,80.359C82.731,80.568 82.869,80.839 82.968,81.172C83.067,81.506 83.117,81.916 83.117,82.405L83.117,87.112L81.912,87.112ZM73.817,86.258C73.986,86.258 74.135,86.235 74.264,86.185C74.393,86.136 74.504,86.075 74.599,86.006C74.692,85.936 74.772,85.859 74.836,85.774C74.9,85.69 74.958,85.616 75.007,85.558L75.007,83.974L74.621,83.989C74.045,84.009 73.609,84.109 73.312,84.287C73.014,84.467 72.865,84.756 72.865,85.155C72.865,85.522 72.949,85.799 73.118,85.984C73.286,86.168 73.52,86.258 73.817,86.258ZM71.66,85.288C71.66,84.87 71.739,84.522 71.898,84.243C72.057,83.964 72.27,83.739 72.538,83.564C72.806,83.388 73.121,83.264 73.483,83.19C73.844,83.114 74.229,83.077 74.636,83.077L75.007,83.077L75.007,82.39C75.007,81.782 74.9,81.364 74.688,81.135C74.475,80.906 74.174,80.79 73.788,80.79C73.431,80.79 73.133,80.868 72.894,81.023C72.656,81.178 72.468,81.314 72.329,81.434L71.824,80.627C71.903,80.547 72.005,80.457 72.128,80.359C72.252,80.258 72.403,80.163 72.583,80.073C72.761,79.986 72.964,79.909 73.192,79.851C73.421,79.79 73.678,79.76 73.966,79.76C74.7,79.76 75.255,79.964 75.633,80.374C76.009,80.781 76.198,81.439 76.198,82.346L76.198,85.616C76.198,85.926 76.208,86.227 76.228,86.521C76.248,86.815 76.268,87.012 76.287,87.112L75.141,87.112L75.097,86.321L75.067,86.321C75.028,86.409 74.968,86.511 74.889,86.626C74.809,86.74 74.71,86.845 74.591,86.941C74.472,87.035 74.328,87.115 74.16,87.187C73.991,87.256 73.793,87.29 73.564,87.29C73.296,87.29 73.045,87.241 72.813,87.141C72.58,87.041 72.377,86.902 72.203,86.723C72.03,86.543 71.895,86.332 71.801,86.088C71.707,85.844 71.66,85.577 71.66,85.288ZM136.462,72.045L136.462,67.428C136.462,66.821 136.359,66.385 136.158,66.121C135.955,65.858 135.644,65.726 135.226,65.726C134.869,65.726 134.57,65.815 134.333,65.994C134.093,66.174 133.906,66.347 133.765,66.517L133.765,72.045L132.562,72.045L132.562,64.874L133.666,64.874L133.666,65.68L133.695,65.68C133.724,65.62 133.787,65.533 133.886,65.419C133.986,65.304 134.113,65.195 134.273,65.091C134.431,64.986 134.621,64.894 134.841,64.814C135.058,64.734 135.306,64.694 135.583,64.694C135.902,64.694 136.189,64.742 136.447,64.837C136.705,64.931 136.921,65.083 137.101,65.292C137.281,65.501 137.417,65.773 137.519,66.106C137.617,66.441 137.667,66.851 137.667,67.339L137.667,72.045L136.462,72.045ZM129.792,68.46C129.792,67.503 129.656,66.809 129.378,66.375C129.101,65.942 128.714,65.726 128.218,65.726C127.724,65.726 127.337,65.942 127.064,66.375C126.792,66.809 126.654,67.503 126.654,68.46C126.654,69.416 126.794,70.103 127.07,70.521C127.349,70.94 127.738,71.149 128.231,71.149C128.728,71.149 129.113,70.94 129.386,70.521C129.658,70.103 129.792,69.416 129.792,68.46ZM125.406,68.46C125.406,67.802 125.482,67.234 125.638,66.757C125.789,66.278 125.998,65.887 126.259,65.584C126.523,65.28 126.826,65.055 127.167,64.911C127.511,64.767 127.876,64.694 128.261,64.694C128.658,64.694 129.026,64.767 129.365,64.911C129.701,65.055 129.994,65.28 130.242,65.584C130.49,65.887 130.685,66.278 130.83,66.757C130.972,67.234 131.042,67.802 131.042,68.46C131.042,69.126 130.97,69.699 130.822,70.178C130.671,70.656 130.468,71.047 130.205,71.351C129.94,71.654 129.636,71.876 129.287,72.015C128.94,72.155 128.576,72.225 128.187,72.225C127.792,72.225 127.423,72.155 127.087,72.015C126.748,71.876 126.458,71.654 126.208,71.351C125.962,71.047 125.763,70.658 125.621,70.185C125.478,69.712 125.406,69.136 125.406,68.46ZM123.292,63.14C123.042,63.14 122.845,63.061 122.697,62.901C122.546,62.742 122.474,62.533 122.474,62.274C122.474,62.025 122.546,61.821 122.697,61.661C122.845,61.502 123.042,61.423 123.292,61.423C123.529,61.423 123.726,61.502 123.873,61.661C124.021,61.821 124.095,62.025 124.095,62.274C124.095,62.533 124.021,62.742 123.873,62.901C123.726,63.061 123.529,63.14 123.292,63.14ZM123.888,72.045L122.683,72.045L122.683,64.874L123.888,64.874L123.888,72.045ZM121.316,65.86L119.751,65.86L119.751,69.834C119.751,70.343 119.814,70.688 119.945,70.873C120.074,71.056 120.291,71.149 120.599,71.149C120.777,71.149 120.931,71.124 121.06,71.074C121.189,71.025 121.283,70.979 121.343,70.94L121.507,71.911C121.457,71.951 121.339,72.012 121.15,72.097C120.96,72.182 120.71,72.225 120.39,72.225C119.777,72.225 119.316,72.052 119.007,71.709C118.699,71.365 118.546,70.795 118.546,69.998L118.546,65.86L117.685,65.86L117.685,65.053L118.546,64.874L118.679,62.871L119.751,62.871L119.751,64.874L121.462,64.874L121.316,65.86ZM114.066,71.194C114.234,71.194 114.382,71.169 114.513,71.119C114.642,71.069 114.755,71.009 114.847,70.94C114.941,70.87 115.021,70.793 115.087,70.708C115.15,70.624 115.205,70.551 115.257,70.491L115.257,68.907L114.869,68.923C114.294,68.943 113.857,69.042 113.56,69.221C113.261,69.4 113.115,69.69 113.115,70.088C113.115,70.456 113.199,70.733 113.369,70.917C113.535,71.102 113.771,71.194 114.066,71.194ZM111.91,70.223C111.91,69.804 111.988,69.456 112.146,69.177C112.306,68.898 112.519,68.671 112.785,68.497C113.054,68.323 113.371,68.198 113.732,68.123C114.095,68.049 114.48,68.011 114.884,68.011L115.257,68.011L115.257,67.324C115.257,66.717 115.15,66.298 114.937,66.07C114.724,65.84 114.423,65.726 114.037,65.726C113.681,65.726 113.382,65.802 113.146,65.957C112.906,66.112 112.718,66.248 112.578,66.368L112.074,65.561C112.152,65.482 112.255,65.392 112.378,65.292C112.501,65.193 112.654,65.098 112.832,65.009C113.011,64.919 113.214,64.844 113.441,64.784C113.671,64.725 113.927,64.694 114.214,64.694C114.951,64.694 115.505,64.899 115.884,65.307C116.259,65.716 116.449,66.373 116.449,67.279L116.449,70.551C116.449,70.859 116.458,71.161 116.478,71.455C116.5,71.749 116.519,71.946 116.539,72.045L115.392,72.045L115.347,71.253L115.316,71.253C115.277,71.343 115.218,71.445 115.138,71.559C115.06,71.674 114.96,71.779 114.839,71.873C114.72,71.968 114.578,72.05 114.41,72.12C114.24,72.19 114.041,72.225 113.814,72.225C113.544,72.225 113.296,72.175 113.062,72.075C112.83,71.975 112.625,71.836 112.451,71.656C112.279,71.478 112.144,71.266 112.052,71.022C111.955,70.778 111.91,70.511 111.91,70.223ZM110.554,66.263C110.525,66.234 110.478,66.189 110.416,66.129C110.349,66.07 110.269,66.01 110.169,65.95C110.068,65.89 109.951,65.838 109.81,65.793C109.673,65.747 109.513,65.726 109.335,65.726C109.078,65.726 108.837,65.773 108.613,65.867C108.39,65.962 108.197,66.114 108.035,66.323C107.871,66.532 107.742,66.803 107.646,67.137C107.552,67.471 107.503,67.877 107.503,68.354C107.503,68.883 107.548,69.326 107.63,69.684C107.716,70.043 107.833,70.329 107.98,70.544C108.128,70.758 108.31,70.912 108.525,71.006C108.736,71.102 108.974,71.149 109.23,71.149C109.595,71.149 109.878,71.084 110.07,70.955C110.265,70.825 110.404,70.72 110.482,70.64L110.97,71.478C110.923,71.537 110.849,71.61 110.757,71.694C110.662,71.779 110.539,71.861 110.392,71.94C110.244,72.02 110.06,72.088 109.847,72.143C109.636,72.198 109.39,72.225 109.111,72.225C108.714,72.225 108.343,72.159 107.998,72.031C107.65,71.901 107.345,71.686 107.087,71.387C106.83,71.089 106.626,70.7 106.478,70.223C106.332,69.745 106.255,69.151 106.255,68.445C106.255,67.757 106.345,67.175 106.523,66.697C106.701,66.218 106.935,65.833 107.224,65.538C107.511,65.244 107.828,65.031 108.181,64.896C108.535,64.761 108.888,64.694 109.244,64.694C109.513,64.694 109.748,64.72 109.953,64.769C110.156,64.819 110.33,64.881 110.474,64.956C110.619,65.031 110.738,65.111 110.83,65.195C110.925,65.28 111.001,65.352 111.062,65.411L110.554,66.263ZM104.738,72.045L103.636,72.045L103.636,71.239L103.609,71.239C103.578,71.298 103.513,71.385 103.414,71.499C103.316,71.614 103.189,71.724 103.035,71.829C102.88,71.933 102.693,72.025 102.476,72.105C102.259,72.185 102.015,72.225 101.748,72.225C101.429,72.225 101.144,72.177 100.892,72.083C100.64,71.988 100.423,71.836 100.245,71.627C100.066,71.417 99.928,71.146 99.835,70.812C99.74,70.479 99.693,70.068 99.693,69.58L99.693,64.874L100.9,64.874L100.9,69.491C100.9,70.088 100.996,70.513 101.189,70.767C101.382,71.022 101.681,71.149 102.089,71.149C102.435,71.149 102.728,71.062 102.966,70.887C103.205,70.713 103.394,70.541 103.533,70.371L103.533,64.874L104.738,64.874L104.738,72.045ZM95.348,71.149C95.536,71.149 95.705,71.124 95.854,71.074C96.002,71.025 96.132,70.962 96.241,70.887C96.349,70.812 96.44,70.736 96.515,70.656C96.59,70.575 96.647,70.507 96.687,70.447L96.687,66.024C96.577,65.955 96.451,65.895 96.308,65.845C96.164,65.795 95.983,65.77 95.764,65.77C95.488,65.77 95.226,65.818 94.983,65.912C94.74,66.007 94.529,66.164 94.35,66.383C94.172,66.602 94.031,66.886 93.927,67.234C93.823,67.583 93.77,68.011 93.77,68.519C93.77,69.017 93.814,69.433 93.897,69.766C93.982,70.101 94.098,70.369 94.247,70.573C94.396,70.778 94.564,70.925 94.752,71.013C94.941,71.104 95.139,71.149 95.348,71.149ZM92.522,68.564C92.522,67.837 92.616,67.229 92.803,66.742C92.991,66.253 93.234,65.86 93.532,65.561C93.83,65.262 94.168,65.051 94.544,64.926C94.921,64.802 95.298,64.739 95.675,64.739C95.904,64.739 96.102,64.757 96.27,64.792C96.439,64.827 96.577,64.869 96.687,64.919L96.687,61.482L97.893,61.347L97.893,72.045L96.791,72.045L96.791,71.283L96.76,71.283C96.732,71.343 96.677,71.425 96.597,71.53C96.517,71.635 96.409,71.738 96.27,71.843C96.132,71.948 95.958,72.038 95.75,72.113C95.541,72.187 95.298,72.225 95.02,72.225C94.684,72.225 94.362,72.157 94.062,72.023C93.758,71.888 93.494,71.674 93.266,71.38C93.036,71.087 92.856,70.708 92.722,70.245C92.588,69.782 92.522,69.221 92.522,68.564ZM91.107,62.766L87.446,62.766L87.446,66.323L90.809,66.323L90.809,67.354L87.446,67.354L87.446,70.969L91.48,70.969L91.405,72.045L86.152,72.045L86.152,61.736L91.197,61.736L91.107,62.766ZM81.822,65.86L80.365,65.86L80.365,72.045L79.159,72.045L79.159,65.86L78.295,65.86L78.295,65.053L79.159,64.889L79.159,63.454C79.159,63.066 79.213,62.732 79.322,62.453C79.432,62.175 79.575,61.945 79.755,61.766C79.933,61.586 80.141,61.457 80.379,61.377C80.618,61.298 80.87,61.258 81.138,61.258C81.396,61.258 81.614,61.293 81.793,61.363C81.972,61.432 82.091,61.487 82.15,61.527L81.897,62.528C81.837,62.488 81.753,62.445 81.644,62.4C81.535,62.356 81.401,62.333 81.243,62.333C80.954,62.333 80.736,62.424 80.587,62.602C80.439,62.782 80.365,63.111 80.365,63.59L80.365,64.874L81.972,64.874L81.822,65.86ZM76.138,68.46C76.138,67.503 76,66.809 75.722,66.375C75.444,65.942 75.057,65.726 74.561,65.726C74.065,65.726 73.681,65.942 73.408,66.375C73.135,66.809 72.999,67.503 72.999,68.46C72.999,69.416 73.138,70.103 73.416,70.521C73.693,70.94 74.08,71.149 74.576,71.149C75.072,71.149 75.456,70.94 75.729,70.521C76.002,70.103 76.138,69.416 76.138,68.46ZM71.75,68.46C71.75,67.802 71.826,67.234 71.98,66.757C72.133,66.278 72.342,65.887 72.605,65.584C72.868,65.28 73.169,65.055 73.512,64.911C73.855,64.767 74.219,64.694 74.606,64.694C75.002,64.694 75.37,64.767 75.707,64.911C76.044,65.055 76.337,65.28 76.585,65.584C76.833,65.887 77.029,66.278 77.172,66.757C77.316,67.234 77.389,67.802 77.389,68.46C77.389,69.126 77.314,69.699 77.165,70.178C77.016,70.656 76.81,71.047 76.547,71.351C76.285,71.654 75.98,71.876 75.633,72.015C75.285,72.155 74.918,72.225 74.531,72.225C74.135,72.225 73.768,72.155 73.431,72.015C73.093,71.876 72.801,71.654 72.553,71.351C72.305,71.047 72.108,70.658 71.965,70.185C71.821,69.712 71.75,69.136 71.75,68.46ZM157.248,49.807L155.015,57.397C154.757,58.274 154.441,58.936 154.07,59.385C153.699,59.832 153.16,60.056 152.455,60.056C152.308,60.056 152.183,60.039 152.082,60.005C151.986,59.969 151.916,59.942 151.876,59.922L151.876,58.877C151.927,58.896 151.99,58.918 152.068,58.944C152.15,58.968 152.253,58.981 152.38,58.981C152.808,58.981 153.132,58.846 153.355,58.578C153.58,58.308 153.769,57.896 153.929,57.338L154.033,56.964L151.726,49.807L153.021,49.807L154.136,53.781C154.246,54.19 154.347,54.571 154.435,54.925C154.525,55.278 154.578,55.594 154.599,55.874L154.628,55.874C154.65,55.594 154.697,55.281 154.769,54.932C154.845,54.583 154.935,54.205 155.044,53.797L156.058,49.807L157.248,49.807ZM151.296,50.867C151.265,50.848 151.201,50.823 151.099,50.793C151.003,50.763 150.867,50.748 150.701,50.748C150.322,50.748 150.029,50.85 149.814,51.054C149.601,51.259 149.449,51.48 149.363,51.719L149.363,56.979L148.156,56.979L148.156,49.807L149.257,49.807L149.257,50.778L149.287,50.778C149.335,50.638 149.4,50.501 149.478,50.367C149.56,50.233 149.658,50.113 149.779,50.009C149.896,49.904 150.039,49.822 150.203,49.762C150.367,49.702 150.562,49.673 150.789,49.673C150.957,49.673 151.093,49.688 151.199,49.718C151.302,49.747 151.384,49.772 151.443,49.792L151.296,50.867ZM146.787,50.793L145.226,50.793L145.226,54.767C145.226,55.276 145.289,55.622 145.417,55.806C145.548,55.99 145.765,56.082 146.074,56.082C146.251,56.082 146.404,56.057 146.535,56.008C146.664,55.958 146.755,55.913 146.818,55.874L146.98,56.845C146.929,56.884 146.814,56.946 146.623,57.031C146.435,57.115 146.183,57.158 145.865,57.158C145.25,57.158 144.789,56.987 144.48,56.643C144.173,56.299 144.019,55.729 144.019,54.932L144.019,50.793L143.156,50.793L143.156,49.986L144.019,49.807L144.154,47.805L145.226,47.805L145.226,49.807L146.935,49.807L146.787,50.793ZM141.609,51.256C141.531,51.167 141.386,51.045 141.177,50.89C140.968,50.736 140.695,50.659 140.359,50.659C140.041,50.659 139.8,50.733 139.63,50.883C139.46,51.032 139.378,51.212 139.378,51.421C139.378,51.69 139.457,51.911 139.609,52.085C139.763,52.26 139.998,52.447 140.316,52.645L140.763,52.914C141.248,53.203 141.628,53.514 141.908,53.849C142.185,54.182 142.324,54.614 142.324,55.141C142.324,55.709 142.128,56.187 141.736,56.575C141.345,56.964 140.783,57.158 140.046,57.158C139.761,57.158 139.507,57.129 139.289,57.068C139.068,57.009 138.88,56.939 138.714,56.86C138.55,56.78 138.416,56.693 138.306,56.598C138.197,56.503 138.105,56.416 138.039,56.337L138.621,55.38C138.679,55.44 138.75,55.509 138.833,55.589C138.917,55.669 139.021,55.746 139.14,55.821C139.257,55.895 139.392,55.958 139.541,56.008C139.689,56.057 139.863,56.082 140.064,56.082C140.419,56.082 140.691,56.003 140.88,55.843C141.068,55.684 141.162,55.49 141.162,55.26C141.162,55.091 141.14,54.944 141.097,54.82C141.05,54.696 140.984,54.583 140.896,54.484C140.806,54.384 140.695,54.289 140.57,54.2C140.439,54.111 140.291,54.01 140.121,53.901L139.673,53.616C139.228,53.328 138.88,53.024 138.628,52.706C138.375,52.386 138.246,51.978 138.246,51.48C138.246,51.212 138.298,50.965 138.404,50.74C138.507,50.517 138.654,50.323 138.841,50.158C139.031,49.993 139.25,49.864 139.503,49.769C139.757,49.676 140.027,49.627 140.316,49.627C140.593,49.627 140.83,49.655 141.029,49.71C141.228,49.764 141.4,49.834 141.542,49.919C141.687,50.004 141.804,50.089 141.9,50.173C141.996,50.258 142.07,50.33 142.13,50.389L141.609,51.256ZM136.089,48.074C135.839,48.074 135.644,47.994 135.494,47.835C135.343,47.676 135.271,47.466 135.271,47.207C135.271,46.958 135.343,46.754 135.494,46.594C135.644,46.436 135.839,46.355 136.089,46.355C136.326,46.355 136.521,46.436 136.667,46.594C136.818,46.754 136.892,46.958 136.892,47.207C136.892,47.466 136.818,47.676 136.667,47.835C136.521,47.994 136.326,48.074 136.089,48.074ZM136.683,56.979L135.48,56.979L135.48,49.807L136.683,49.807L136.683,56.979ZM132.472,56.979L132.472,52.361C132.472,51.754 132.371,51.318 132.167,51.054C131.964,50.79 131.654,50.659 131.236,50.659C130.88,50.659 130.582,50.748 130.345,50.927C130.104,51.107 129.917,51.281 129.779,51.451L129.779,56.979L128.576,56.979L128.576,49.807L129.675,49.807L129.675,50.614L129.707,50.614C129.735,50.554 129.8,50.467 129.897,50.352C130,50.238 130.126,50.128 130.287,50.024C130.447,49.919 130.632,49.827 130.851,49.747C131.067,49.668 131.318,49.627 131.595,49.627C131.914,49.627 132.199,49.676 132.458,49.769C132.716,49.864 132.935,50.016 133.111,50.225C133.291,50.434 133.431,50.706 133.531,51.039C133.626,51.373 133.679,51.784 133.679,52.272L133.679,56.979L132.472,56.979ZM126.136,48.074C125.886,48.074 125.689,47.994 125.539,47.835C125.39,47.676 125.316,47.466 125.316,47.207C125.316,46.958 125.39,46.754 125.539,46.594C125.689,46.436 125.886,46.355 126.136,46.355C126.373,46.355 126.564,46.436 126.712,46.594C126.863,46.754 126.937,46.958 126.937,47.207C126.937,47.466 126.863,47.676 126.712,47.835C126.564,47.994 126.373,48.074 126.136,48.074ZM126.73,56.979L125.525,56.979L125.525,49.807L126.73,49.807L126.73,56.979ZM123.427,46.67L123.427,56.979L122.177,56.979L122.177,51.167C122.177,50.867 122.179,50.589 122.183,50.33C122.189,50.071 122.197,49.842 122.207,49.642C122.216,49.444 122.226,49.289 122.236,49.179L122.191,49.179C122.142,49.409 122.041,49.78 121.886,50.293C121.732,50.805 121.556,51.355 121.359,51.944L119.662,56.979L118.636,56.979L116.939,51.944C116.742,51.355 116.566,50.805 116.412,50.293C116.257,49.78 116.156,49.409 116.107,49.179L116.064,49.179C116.072,49.299 116.082,49.458 116.091,49.658C116.101,49.857 116.109,50.084 116.115,50.338C116.119,50.591 116.121,50.867 116.121,51.167L116.121,56.979L114.869,56.979L114.869,46.67L116.314,46.67L118.74,53.781C118.849,54.111 118.947,54.432 119.029,54.745C119.115,55.059 119.166,55.33 119.185,55.56L119.214,55.56C119.226,55.33 119.273,55.061 119.357,54.753C119.441,54.444 119.537,54.126 119.646,53.797L122.072,46.67L123.427,46.67ZM109.261,55.305C109.261,55.605 109.304,55.813 109.386,55.933C109.472,56.052 109.617,56.112 109.826,56.112C109.937,56.112 110.027,56.102 110.101,56.082C110.175,56.062 110.232,56.043 110.273,56.022L110.376,56.919C110.316,56.948 110.208,56.989 110.048,57.038C109.89,57.089 109.677,57.113 109.41,57.113C109.005,57.113 108.675,56.989 108.427,56.74C108.179,56.491 108.056,56.048 108.056,55.41L108.056,46.416L109.261,46.281L109.261,55.305ZM103.875,56.128C104.042,56.128 104.193,56.102 104.322,56.052C104.451,56.003 104.562,55.943 104.656,55.874C104.751,55.803 104.83,55.727 104.894,55.641C104.96,55.557 105.015,55.485 105.066,55.425L105.066,53.842L104.679,53.856C104.103,53.877 103.667,53.976 103.371,54.155C103.072,54.334 102.921,54.624 102.921,55.021C102.921,55.389 103.005,55.666 103.175,55.851C103.345,56.035 103.578,56.128 103.875,56.128ZM101.718,55.156C101.718,54.738 101.796,54.389 101.957,54.111C102.115,53.832 102.328,53.604 102.595,53.43C102.865,53.256 103.177,53.131 103.539,53.056C103.9,52.982 104.287,52.945 104.693,52.945L105.066,52.945L105.066,52.258C105.066,51.65 104.96,51.231 104.746,51.002C104.531,50.773 104.232,50.659 103.845,50.659C103.488,50.659 103.191,50.736 102.953,50.89C102.714,51.045 102.525,51.181 102.388,51.301L101.88,50.494C101.96,50.415 102.062,50.325 102.185,50.225C102.31,50.126 102.46,50.031 102.64,49.941C102.82,49.852 103.021,49.777 103.25,49.718C103.478,49.658 103.736,49.627 104.023,49.627C104.757,49.627 105.314,49.831 105.689,50.24C106.068,50.649 106.255,51.306 106.255,52.213L106.255,55.485C106.255,55.793 106.265,56.095 106.287,56.388C106.306,56.683 106.326,56.88 106.345,56.979L105.201,56.979L105.154,56.187L105.125,56.187C105.085,56.277 105.027,56.378 104.947,56.493C104.865,56.608 104.767,56.713 104.648,56.807C104.529,56.902 104.386,56.984 104.216,57.053C104.048,57.124 103.849,57.158 103.623,57.158C103.355,57.158 103.105,57.108 102.871,57.009C102.638,56.909 102.433,56.769 102.261,56.591C102.087,56.411 101.955,56.199 101.859,55.955C101.765,55.712 101.718,55.445 101.718,55.156ZM101.017,50.867C100.988,50.848 100.923,50.823 100.824,50.793C100.726,50.763 100.593,50.748 100.423,50.748C100.045,50.748 99.75,50.85 99.536,51.054C99.323,51.259 99.171,51.48 99.082,51.719L99.082,56.979L97.877,56.979L97.877,49.807L98.979,49.807L98.979,50.778L99.007,50.778C99.057,50.638 99.123,50.501 99.202,50.367C99.28,50.233 99.38,50.113 99.5,50.009C99.618,49.904 99.76,49.822 99.923,49.762C100.088,49.702 100.285,49.673 100.511,49.673C100.681,49.673 100.816,49.688 100.921,49.718C101.027,49.747 101.107,49.772 101.166,49.792L101.017,50.867ZM94.008,50.614C93.582,50.614 93.241,50.793 92.982,51.152C92.725,51.51 92.575,52.028 92.536,52.706L95.139,52.706C95.149,52.656 95.156,52.584 95.162,52.488C95.167,52.394 95.17,52.292 95.17,52.182C95.17,51.684 95.069,51.299 94.872,51.025C94.673,50.75 94.386,50.614 94.008,50.614ZM96.27,52.227C96.27,52.536 96.26,52.802 96.241,53.027C96.222,53.251 96.201,53.448 96.181,53.616L92.536,53.616C92.575,54.464 92.756,55.086 93.08,55.485C93.401,55.884 93.865,56.082 94.47,56.082C94.678,56.082 94.867,56.057 95.035,56.008C95.204,55.958 95.351,55.898 95.474,55.828C95.599,55.759 95.702,55.689 95.787,55.619C95.87,55.55 95.933,55.494 95.974,55.455L96.419,56.306C96.369,56.357 96.295,56.428 96.196,56.523C96.097,56.618 95.962,56.713 95.793,56.807C95.625,56.902 95.418,56.984 95.17,57.053C94.921,57.124 94.629,57.158 94.292,57.158C93.845,57.158 93.441,57.084 93.08,56.934C92.717,56.784 92.409,56.553 92.156,56.239C91.903,55.926 91.708,55.527 91.569,55.044C91.43,54.561 91.36,53.981 91.36,53.303C91.36,52.666 91.432,52.115 91.577,51.652C91.72,51.189 91.916,50.808 92.164,50.509C92.412,50.21 92.7,49.989 93.026,49.845C93.354,49.699 93.706,49.627 94.083,49.627C94.769,49.627 95.303,49.845 95.69,50.278C96.077,50.711 96.27,51.36 96.27,52.227ZM87.298,56.082C87.486,56.082 87.655,56.057 87.803,56.008C87.952,55.958 88.081,55.895 88.19,55.821C88.3,55.746 88.392,55.669 88.466,55.589C88.541,55.509 88.597,55.44 88.637,55.38L88.637,50.957C88.527,50.887 88.401,50.828 88.258,50.778C88.114,50.728 87.933,50.703 87.714,50.703C87.437,50.703 87.177,50.75 86.934,50.845C86.69,50.94 86.479,51.097 86.301,51.316C86.123,51.535 85.981,51.82 85.877,52.167C85.773,52.516 85.72,52.945 85.72,53.452C85.72,53.951 85.763,54.366 85.847,54.7C85.932,55.034 86.048,55.303 86.197,55.507C86.346,55.712 86.514,55.859 86.703,55.948C86.892,56.038 87.089,56.082 87.298,56.082ZM84.471,53.497C84.471,52.77 84.565,52.162 84.754,51.675C84.942,51.186 85.185,50.793 85.482,50.494C85.78,50.195 86.118,49.984 86.495,49.859C86.872,49.735 87.248,49.673 87.626,49.673C87.854,49.673 88.051,49.69 88.22,49.725C88.389,49.76 88.527,49.802 88.637,49.852L88.637,46.416L89.843,46.281L89.843,56.979L88.741,56.979L88.741,56.217L88.711,56.217C88.681,56.277 88.627,56.359 88.547,56.464C88.468,56.568 88.359,56.672 88.22,56.777C88.081,56.881 87.908,56.971 87.7,57.046C87.492,57.121 87.248,57.158 86.971,57.158C86.633,57.158 86.314,57.091 86.011,56.956C85.708,56.822 85.443,56.608 85.215,56.314C84.986,56.02 84.806,55.641 84.671,55.178C84.538,54.716 84.471,54.155 84.471,53.497ZM80.93,50.614C80.503,50.614 80.161,50.793 79.902,51.152C79.645,51.51 79.496,52.028 79.456,52.706L82.06,52.706C82.07,52.656 82.078,52.584 82.083,52.488C82.087,52.394 82.091,52.292 82.091,52.182C82.091,51.684 81.991,51.299 81.793,51.025C81.594,50.75 81.307,50.614 80.93,50.614ZM83.191,52.227C83.191,52.536 83.181,52.802 83.162,53.027C83.142,53.251 83.122,53.448 83.102,53.616L79.456,53.616C79.496,54.464 79.678,55.086 80,55.485C80.322,55.884 80.786,56.082 81.391,56.082C81.6,56.082 81.788,56.057 81.956,56.008C82.125,55.958 82.271,55.898 82.396,55.828C82.52,55.759 82.624,55.689 82.708,55.619C82.792,55.55 82.854,55.494 82.894,55.455L83.34,56.306C83.291,56.357 83.216,56.428 83.117,56.523C83.018,56.618 82.884,56.713 82.715,56.807C82.546,56.902 82.338,56.984 82.091,57.053C81.843,57.124 81.549,57.158 81.212,57.158C80.766,57.158 80.362,57.084 80,56.934C79.638,56.784 79.33,56.553 79.077,56.239C78.824,55.926 78.628,55.527 78.489,55.044C78.35,54.561 78.281,53.981 78.281,53.303C78.281,52.666 78.353,52.115 78.497,51.652C78.641,51.189 78.836,50.808 79.085,50.509C79.332,50.21 79.621,49.989 79.948,49.845C80.275,49.699 80.627,49.627 81.004,49.627C81.689,49.627 82.224,49.845 82.611,50.278C82.998,50.711 83.191,51.36 83.191,52.227ZM72.329,56.979L72.329,46.67L77.373,46.67L77.284,47.7L73.624,47.7L73.624,51.51L77.002,51.51L77.002,52.541L73.624,52.541L73.624,56.979L72.329,56.979Z" style="fill:rgb(35,31,32);fill-rule:nonzero;"/>
        <path d="M39.485,56.149C39.519,55.868 39.539,55.577 39.539,55.281C39.539,55.119 39.54,54.931 39.52,54.718C42.012,54.683 44.198,52.88 44.198,50.806C44.198,49.751 43.513,48.955 43.126,48.48C43.213,48.461 43.3,48.441 43.389,48.419C43.753,48.738 44.79,49.87 44.79,51.301C44.79,53.788 42.313,56.097 39.485,56.149ZM36.975,47.486C36.928,47.209 36.823,46.958 36.663,46.742C36.671,46.489 36.775,46.247 37.182,46.446C36.962,46.672 37.132,47.072 37.132,47.072C37.132,47.072 37.582,46.862 37.488,46.564C38.156,46.724 37.676,47.625 36.975,47.486ZM36.396,48.763C36.306,48.392 36.117,48.01 35.875,47.722C35.656,47.461 35.292,47.152 34.802,47.152C34.578,47.152 34.203,47.257 33.964,47.358C33.875,47.196 33.7,46.802 33.7,46.625C33.7,46.443 34.007,46.259 34.594,46.259C35.883,46.259 36.655,46.844 36.655,47.826C36.655,48.171 36.519,48.485 36.396,48.763ZM39.709,65.463C39.859,65.463 39.932,65.487 40.019,65.519C40.391,66.534 41.822,68.448 41.882,68.53L41.896,68.547L41.917,68.542C42.267,68.486 43.164,68.35 43.915,68.35L43.931,68.35C44.013,68.35 44.105,68.35 44.165,68.407C44.213,68.457 44.237,68.542 44.237,68.664C44.237,68.851 44.158,69.172 44.064,69.309C43.8,69.021 43.374,68.892 42.692,68.892C42.486,68.892 42.244,68.953 42.113,68.988L42.059,68.999L41.997,69.015L42.392,69.411C42.999,70.021 43.525,70.547 43.525,70.898C43.525,71.108 43.32,71.383 43.13,71.506C43.09,70.863 42.444,70.005 41.816,69.524L41.763,69.484L41.752,69.709C41.743,69.863 41.73,70.093 41.73,70.339C41.73,71.56 41.606,71.746 41.185,71.746C41.12,71.746 41.021,71.727 40.959,71.704C41.197,71.41 41.291,71.021 41.291,70.338L41.288,70.022L41.284,69.768C41.284,69.489 41.313,69.281 41.336,69.115L41.348,69.021L41.281,69.011C41.084,68.984 40.717,68.933 40.437,68.933C39.835,68.933 39.428,68.989 39.132,69.268C38.938,69.11 38.737,68.838 38.737,68.665C38.737,68.409 38.895,68.39 39.102,68.39C39.208,68.39 39.305,68.405 39.44,68.422C39.699,68.46 40.088,68.518 40.889,68.518L40.939,68.518L40.924,68.468C40.721,67.885 40.163,67.037 39.269,65.946C39.348,65.654 39.428,65.463 39.709,65.463ZM31.99,68.468L31.973,68.518L32.023,68.518C32.824,68.518 33.214,68.46 33.473,68.422C33.608,68.405 33.705,68.39 33.81,68.39C34.017,68.39 34.176,68.409 34.176,68.665C34.176,68.838 33.975,69.11 33.781,69.268C33.485,68.989 33.076,68.933 32.476,68.933C32.195,68.933 31.829,68.984 31.631,69.011L31.6,69.015L31.565,69.021L31.577,69.115C31.6,69.281 31.629,69.489 31.629,69.768L31.626,70.022L31.623,70.338C31.623,71.021 31.716,71.41 31.954,71.704C31.892,71.727 31.793,71.746 31.728,71.746C31.307,71.746 31.184,71.56 31.184,70.339C31.184,70.093 31.17,69.863 31.161,69.709L31.15,69.483L31.096,69.524C30.469,70.005 29.822,70.863 29.783,71.506C29.593,71.383 29.389,71.108 29.389,70.898C29.389,70.547 29.914,70.021 30.521,69.411L30.871,69.061L30.915,69.015L30.8,68.988C30.669,68.953 30.427,68.892 30.221,68.892C29.538,68.892 29.113,69.021 28.849,69.309C28.754,69.172 28.675,68.851 28.675,68.664C28.675,68.542 28.699,68.457 28.747,68.407C28.807,68.35 28.899,68.35 28.98,68.35L28.998,68.35C29.748,68.35 30.647,68.486 30.997,68.542L31.017,68.547L31.031,68.53C31.091,68.448 32.522,66.534 32.894,65.519C32.98,65.487 33.054,65.463 33.203,65.463C33.485,65.463 33.564,65.654 33.644,65.946C32.75,67.037 32.192,67.885 31.99,68.468ZM28.123,51.301C28.123,49.87 29.159,48.738 29.524,48.419C29.612,48.441 29.699,48.461 29.787,48.48C29.399,48.955 28.714,49.751 28.714,50.806C28.714,52.9 30.943,54.719 33.466,54.719C33.45,54.898 33.441,55.087 33.441,55.281C33.441,55.59 33.458,55.878 33.489,56.149C30.636,56.132 28.123,53.806 28.123,51.301ZM47.261,55.712C48.542,57.745 49.543,57.711 51.057,57.711C49.805,56.747 48.977,55.513 48.583,54.884L46.244,51.126C46.015,49.966 45.418,48.881 44.523,48.074C44.824,47.96 45.074,47.84 45.225,47.725C43.698,47.725 42.185,46.947 41.353,46.947C40.817,46.947 40.473,47.268 40.473,47.693C40.507,48.166 40.992,48.647 41.888,48.647C42.092,48.647 42.351,48.62 42.637,48.573C43.122,49.252 43.513,49.866 43.513,50.742C43.513,52.386 41.554,53.669 39.577,53.669C39.465,53.669 39.359,53.664 39.248,53.656C39.068,53.249 38.473,52.564 38.473,51.785C38.473,50.478 39.322,49.411 39.322,48.116C39.322,47.312 38.931,46.815 38.78,46.607C39.023,46.381 39.29,46.102 39.35,45.912C39.21,45.973 39.043,45.982 38.798,45.982C37.851,45.982 37.079,45.733 36.325,45.733C35.896,45.733 35.78,45.867 35.78,45.994C35.78,46.04 35.787,46.088 35.799,46.111C35.639,46.047 35.489,46.007 35.31,45.973C35.088,45.931 34.849,45.909 34.594,45.909C33.678,45.909 33.354,46.295 33.354,46.625C33.354,46.904 33.572,47.414 33.821,47.803C34.178,47.623 34.606,47.5 34.802,47.5C35.287,47.5 35.72,47.965 35.948,48.515C35.622,48.555 35.559,48.57 35.229,48.57C34.338,48.57 33.731,48.249 33.607,48.249C33.595,48.249 33.571,48.255 33.571,48.274C33.571,48.4 33.823,48.732 34.321,48.914C34.977,49.156 35.96,49.256 36.124,49.283C36.124,49.312 35.958,49.624 35.772,49.683C35.732,49.696 35.702,49.698 35.656,49.688C34.971,49.552 34.779,49.494 33.91,49.162C33.883,49.152 33.868,49.169 33.868,49.197C33.868,49.543 34.758,50.304 35.555,50.596C34.889,51.45 34.057,52.323 33.665,53.656C33.554,53.664 33.447,53.669 33.335,53.669C31.358,53.669 29.399,52.386 29.399,50.742C29.399,49.866 29.792,49.252 30.277,48.573C30.562,48.62 30.821,48.647 31.024,48.647C31.92,48.647 32.405,48.166 32.441,47.693C32.441,47.268 32.097,46.947 31.56,46.947C30.728,46.947 29.215,47.725 27.687,47.725C27.838,47.84 28.088,47.96 28.388,48.074C27.494,48.881 26.897,49.966 26.668,51.126L24.331,54.884C23.937,55.513 23.106,56.747 21.855,57.711C23.368,57.711 24.371,57.745 25.651,55.712L26.85,53.786C26.939,54.036 27.048,54.28 27.176,54.518L24.792,58.348C24.395,58.984 23.574,60.207 22.316,61.176C23.829,61.176 24.833,61.211 26.112,59.179L28.165,55.88C28.317,56.045 28.48,56.205 28.65,56.359L25.754,61.014C25.356,61.65 24.538,62.87 23.279,63.839C24.792,63.839 25.794,63.876 27.074,61.843L29.898,57.304C30.084,57.422 30.274,57.536 30.471,57.645L27.024,63.182C26.627,63.819 25.809,65.036 24.549,66.007C26.063,66.007 27.065,66.042 28.345,64.011L31.894,58.306C32.104,58.387 32.317,58.465 32.534,58.534L28.524,64.979C28.131,65.607 27.295,66.845 26.05,67.804C27.562,67.804 28.565,67.838 29.845,65.808L34.119,58.939C34.162,58.947 34.206,58.954 34.248,58.963C34.364,59.334 34.445,59.679 34.445,60.026C34.445,62.183 33.035,64.091 31.342,65.561C31.451,65.61 31.639,65.625 31.814,65.625C32.163,65.625 32.388,65.607 32.547,65.579C32.154,66.474 31.313,67.63 30.887,68.228C30.333,68.128 29.526,68.05 28.998,68.05C28.445,68.05 28.383,68.374 28.383,68.664C28.383,69.168 28.617,69.568 28.891,69.792C28.993,69.534 29.2,69.19 30.221,69.19C30.24,69.19 30.275,69.192 30.323,69.196C30.025,69.529 29.09,70.287 29.09,70.898C29.09,71.302 29.532,71.908 30.114,71.908C30.08,71.778 30.085,71.658 30.085,71.568C30.085,71.073 30.521,70.494 30.889,70.091C30.878,70.211 30.884,70.198 30.884,70.339C30.884,71.508 30.989,72.045 31.728,72.045C32.091,72.045 32.341,71.845 32.427,71.785C31.947,71.342 31.922,70.993 31.922,70.338C31.924,70.167 31.924,70 31.927,69.77C31.928,69.62 31.926,69.421 31.901,69.278C32.167,69.241 32.273,69.241 32.476,69.241C32.476,69.241 33.526,69.158 33.779,69.705C34.064,69.444 34.478,69.073 34.478,68.665C34.478,68.395 34.351,68.09 33.81,68.09C33.605,68.09 32.961,68.216 32.422,68.216C32.567,67.893 33.211,66.946 33.77,66.26C33.855,66.525 33.986,66.814 34.28,67.049C34.319,66.608 34.578,65.21 35.265,64.393C35.345,64.945 35.454,65.511 35.454,66.706C35.454,69.611 34.758,71.756 33.281,72.165C33.474,72.5 33.879,72.802 34.301,72.802C34.841,72.802 35.135,72.19 35.436,71.611C35.592,72.038 36.023,73.084 36.456,73.084C36.888,73.084 37.32,72.038 37.476,71.611C37.776,72.19 38.07,72.802 38.611,72.802C39.032,72.802 39.439,72.5 39.631,72.165C38.155,71.756 37.459,69.611 37.459,66.706C37.459,65.511 37.566,64.945 37.647,64.393C38.334,65.21 38.593,66.608 38.632,67.049C38.926,66.814 39.059,66.525 39.143,66.26C39.7,66.946 40.346,67.893 40.491,68.216C39.952,68.216 39.307,68.09 39.102,68.09C38.562,68.09 38.435,68.395 38.435,68.665C38.435,69.073 38.848,69.444 39.133,69.705C39.385,69.158 40.437,69.241 40.437,69.241C40.64,69.241 40.747,69.241 41.012,69.278C40.987,69.421 40.985,69.62 40.987,69.77C40.989,70 40.99,70.167 40.99,70.338C40.99,70.993 40.966,71.342 40.486,71.785C40.572,71.845 40.822,72.045 41.185,72.045C41.924,72.045 42.03,71.508 42.03,70.339C42.03,70.198 42.034,70.211 42.024,70.091C42.392,70.494 42.829,71.073 42.829,71.568C42.829,71.658 42.834,71.778 42.798,71.908C43.381,71.908 43.823,71.302 43.823,70.898C43.823,70.287 42.888,69.529 42.589,69.196C42.639,69.192 42.672,69.19 42.692,69.19C43.713,69.19 43.919,69.534 44.022,69.792C44.294,69.568 44.529,69.168 44.529,68.664C44.529,68.374 44.467,68.05 43.915,68.05C43.387,68.05 42.581,68.128 42.026,68.228C41.6,67.63 40.759,66.474 40.366,65.579C40.524,65.607 40.751,65.625 41.099,65.625C41.274,65.625 41.463,65.61 41.571,65.561C39.878,64.091 38.467,62.183 38.467,60.026C38.467,59.679 38.549,59.334 38.664,58.963C38.707,58.954 38.751,58.947 38.793,58.939L43.067,65.808C44.347,67.838 45.351,67.804 46.862,67.804C45.617,66.845 44.78,65.607 44.39,64.979L40.379,58.534C40.596,58.465 40.809,58.387 41.019,58.306L44.567,64.011C45.847,66.042 46.85,66.007 48.363,66.007C47.104,65.036 46.286,63.819 45.888,63.182L42.442,57.645C42.639,57.536 42.83,57.422 43.014,57.304L45.838,61.843C47.119,63.876 48.12,63.839 49.632,63.839C48.375,62.87 47.557,61.65 47.158,61.014L44.263,56.359C44.433,56.205 44.595,56.045 44.748,55.88L46.801,59.179C48.08,61.211 49.083,61.176 50.597,61.176C49.338,60.207 48.518,58.984 48.12,58.348L45.737,54.518C45.865,54.28 45.974,54.036 46.063,53.786L47.261,55.712Z" style="fill:rgb(35,31,32);fill-rule:nonzero;"/>
        <path d="M58.649,97.155L63.026,97.155L63.026,122.266L58.649,122.266L58.649,97.155Z" style="fill:rgb(244,207,0);fill-rule:nonzero;"/>
        <path d="M58.649,71.92L63.026,71.92L63.026,97.155L58.649,97.155L58.649,71.92Z" style="fill:rgb(237,28,36);fill-rule:nonzero;"/>
        <path d="M63.026,46.935L63.026,72.045L58.649,72.045L58.649,46.935L63.026,46.935Z" style="fill:rgb(35,31,32);fill-rule:nonzero;"/>
        <path d="M72.811,19.668L72.811,19.85C72.811,20.7 73.346,20.969 73.856,20.969C74.487,20.969 74.971,20.7 74.971,19.955C74.971,18.566 72.171,18.722 72.171,16.839C72.171,15.728 72.958,15.138 74.003,15.138C75.144,15.138 75.783,15.694 75.732,16.968L74.901,16.968C74.91,16.284 74.694,15.833 73.943,15.833C73.467,15.833 72.983,16.076 72.983,16.753C72.983,18.132 75.783,17.932 75.783,19.92C75.783,21.239 74.876,21.664 73.847,21.664C72.007,21.682 72.007,20.267 72.024,19.668L72.811,19.668Z" style="fill:rgb(35,31,32);fill-rule:nonzero;"/>
        <path d="M77.9,18.08L78.773,18.08C79.102,18.08 79.878,17.994 79.878,17.012C79.878,16.058 79.17,15.963 78.998,15.963L77.9,15.963L77.9,18.08ZM77.106,21.533L77.106,15.268L78.956,15.268C79.793,15.268 80.692,15.581 80.692,17.056C80.692,18.48 79.586,18.774 78.947,18.774L77.9,18.774L77.9,21.533L77.106,21.533Z" style="fill:rgb(35,31,32);fill-rule:nonzero;"/>
        <path d="M84.892,19.278L84.892,17.161C84.892,15.85 83.993,15.807 83.743,15.807C83.492,15.807 82.593,15.85 82.593,17.161L82.593,19.278C82.593,20.649 82.992,20.996 83.743,20.996C84.495,20.996 84.892,20.649 84.892,19.278ZM81.782,19.243L81.782,17.187C81.782,15.937 82.421,15.138 83.743,15.138C85.064,15.138 85.705,15.937 85.705,17.187L85.705,19.243C85.705,20.979 85.064,21.664 83.743,21.664C82.421,21.664 81.782,20.979 81.782,19.243Z" style="fill:rgb(35,31,32);fill-rule:nonzero;"/>
        <path d="M91.409,15.268L91.409,21.533L90.32,21.533L87.856,16.102L87.839,16.102L87.839,21.533L87.131,21.533L87.131,15.268L88.253,15.268L90.682,20.632L90.7,20.632L90.7,15.268L91.409,15.268Z" style="fill:rgb(35,31,32);fill-rule:nonzero;"/>
        <path d="M93.465,19.668L93.465,19.85C93.465,20.7 94.002,20.969 94.511,20.969C95.142,20.969 95.626,20.7 95.626,19.955C95.626,18.566 92.826,18.722 92.826,16.839C92.826,15.728 93.612,15.138 94.658,15.138C95.799,15.138 96.438,15.694 96.385,16.968L95.556,16.968C95.566,16.284 95.349,15.833 94.597,15.833C94.122,15.833 93.639,16.076 93.639,16.753C93.639,18.132 96.438,17.932 96.438,19.92C96.438,21.239 95.53,21.664 94.503,21.664C92.661,21.682 92.661,20.267 92.679,19.668L93.465,19.668Z" style="fill:rgb(35,31,32);fill-rule:nonzero;"/>
        <path d="M100.744,19.278L100.744,17.161C100.744,15.85 99.844,15.807 99.593,15.807C99.342,15.807 98.443,15.85 98.443,17.161L98.443,19.278C98.443,20.649 98.841,20.996 99.593,20.996C100.345,20.996 100.744,20.649 100.744,19.278ZM97.63,19.243L97.63,17.187C97.63,15.937 98.27,15.138 99.593,15.138C100.914,15.138 101.556,15.937 101.556,17.187L101.556,19.243C101.556,20.979 100.914,21.664 99.593,21.664C98.27,21.664 97.63,20.979 97.63,19.243Z" style="fill:rgb(35,31,32);fill-rule:nonzero;"/>
        <path d="M103.716,17.959L104.908,17.959C105.478,17.959 105.753,17.463 105.753,16.917C105.753,16.466 105.529,15.963 104.917,15.963L103.716,15.963L103.716,17.959ZM103.716,18.653L103.716,21.533L102.921,21.533L102.921,15.268L105.072,15.268C106.179,15.268 106.566,16.05 106.566,16.83C106.566,17.568 106.162,18.132 105.427,18.261L105.427,18.28C106.144,18.392 106.404,18.635 106.447,19.894C106.455,20.163 106.541,21.143 106.662,21.533L105.833,21.533C105.609,21.099 105.66,20.284 105.591,19.451C105.529,18.688 104.917,18.653 104.648,18.653L103.716,18.653Z" style="fill:rgb(35,31,32);fill-rule:nonzero;"/>
        <path d="M107.744,21.533L107.744,15.268L110.957,15.268L110.957,15.963L108.539,15.963L108.539,17.976L110.785,17.976L110.785,18.671L108.539,18.671L108.539,20.84L111.009,20.84L111.009,21.533L107.744,21.533Z" style="fill:rgb(35,31,32);fill-rule:nonzero;"/>
        <path d="M112.876,20.84L113.628,20.84C114.734,20.84 115.14,20.423 115.14,18.967L115.14,17.698C115.14,16.431 114.753,15.963 113.921,15.963L112.876,15.963L112.876,20.84ZM112.082,15.268L114,15.268C114.798,15.268 115.367,15.555 115.675,16.223C115.929,16.753 115.955,18.002 115.955,18.201C115.955,19.538 115.832,20.31 115.574,20.727C115.236,21.265 114.607,21.533 113.515,21.533L112.082,21.533L112.082,15.268Z" style="fill:rgb(35,31,32);fill-rule:nonzero;"/>
        <path d="M120.136,20.84L121.257,20.84C122.107,20.84 122.412,20.233 122.412,19.773C122.412,18.774 121.796,18.601 120.982,18.601L120.136,18.601L120.136,20.84ZM120.136,17.907L121.294,17.907C121.917,17.897 122.22,17.516 122.22,16.908C122.22,16.388 121.923,15.963 121.257,15.963L120.136,15.963L120.136,17.907ZM119.341,21.533L119.341,15.268L121.371,15.268C122.236,15.268 122.529,15.564 122.763,15.91C122.98,16.249 123.015,16.622 123.015,16.744C123.015,17.525 122.746,18.046 121.943,18.228L121.943,18.272C122.83,18.375 123.22,18.913 123.22,19.773C123.22,21.378 122.056,21.533 121.345,21.533L119.341,21.533Z" style="fill:rgb(35,31,32);fill-rule:nonzero;"/>
        <path d="M127.283,15.268L128.085,15.268L126.384,19.148L126.384,21.533L125.589,21.533L125.589,19.148L123.912,15.268L124.804,15.268L126.019,18.298L127.283,15.268Z" style="fill:rgb(35,31,32);fill-rule:nonzero;"/>
        <path d="M134.283,15.268L134.283,15.963L132.638,15.963L132.638,21.533L131.845,21.533L131.845,15.963L130.205,15.963L130.205,15.268L134.283,15.268Z" style="fill:rgb(35,31,32);fill-rule:nonzero;"/>
        <path d="M135.154,21.533L135.154,15.268L135.951,15.268L135.951,17.976L138.14,17.976L138.14,15.268L138.935,15.268L138.935,21.533L138.14,21.533L138.14,18.671L135.951,18.671L135.951,21.533L135.154,21.533Z" style="fill:rgb(35,31,32);fill-rule:nonzero;"/>
        <path d="M140.384,21.533L140.384,15.268L143.599,15.268L143.599,15.963L141.181,15.963L141.181,17.976L143.425,17.976L143.425,18.671L141.181,18.671L141.181,20.84L143.652,20.84L143.652,21.533L140.384,21.533Z" style="fill:rgb(35,31,32);fill-rule:nonzero;"/>
    </g>
</svg>
