<svg width="131" height="131" viewBox="0 0 131 131" xmlns="http://www.w3.org/2000/svg"><defs/><defs><linearGradient x1="0%" y1="46.9%" x2="100%" y2="46.9%" id="a"><stop stop-color="#FFF" stop-opacity="0" offset="0%"/><stop stop-color="#324093" offset="15.3%"/><stop stop-color="#324093" offset="84%"/><stop stop-color="#FFF" stop-opacity="0" offset="98.8%"/></linearGradient></defs><g fill-rule="nonzero" fill="none"><path fill="#E6007E" d="M43 90h13V41H43v49"/><path fill="#324093" d="M43 61v29-29"/><path d="M43 61v29h4V72c0-5-1-9-4-11" fill="#3F2683"/><path d="M104 57c-11 0-20 7-20 19 0 6 3 10 6 14h29v-6c-3 2-7 3-11 3-6 0-10-2-11-7h26v-3c0-11-5-20-19-20m-7 15c0-4 3-7 7-7 5 0 7 3 7 7H97" fill="#324093"/><path d="M56 62c-3 4-5 8-5 13 0 6 2 11 5 14V62" fill="#702283"/><path d="M84 76" fill="#37AAE1"/><path d="M93 60c-5 3-8 8-9 15v1c1 6 3 10 6 14h3V60" fill="#283B90"/><path d="M80 41v21c-4-4-8-5-13-5s-9 2-11 5v28h34c-3-4-6-8-6-14 0-8 4-13 9-16V41H80zm-8 44c-5 0-8-4-8-10 0-4 3-9 8-9s8 4 8 10c0 5-4 9-8 9z" fill="#36A9E1"/><path d="M43 61c-3-3-8-4-13-4-6 0-10 0-15 2v9l12-3c5 0 8 1 8 6h-6c-6 0-19 1-19 12l2 7h31V61zM28 87c-3 0-6-2-6-4 0-4 4-5 8-5h5c0 4-3 9-7 9z" fill="#324093"/><path fill="url(#a)" d="M0 48h182v1H0z" transform="translate(-25 41)"/></g></svg>
