<svg xmlns="http://www.w3.org/2000/svg" viewBox="0 0 2560 2560"><defs/><path fill="#0169B6" d="M256 1651c-3-5 8-14 25-21 59-25 59-27 59-343s-5-349-56-361c-14-4-22-11-19-16 9-15 552-13 561 2 4 6 9 44 12 85 5 79-8 98-27 40-12-36-50-76-91-97-36-19-215-26-235-10-12 10-15 40-15 156 0 164 1 167 82 154 56-8 83-29 92-71 3-16 10-29 16-29 13 0 14 247 0 255-5 3-14-12-19-33-14-49-45-78-99-90-70-16-76-3-68 142 8 139 21 171 81 200 75 37 203 19 264-37 13-12 35-47 50-77l26-55 5 95c5 88 6 95 25 92 11-2 31-14 45-28l25-24 3-284c4-319-1-348-58-367-51-18-23-29 73-29h92l214 275c128 164 219 271 224 266s7-106 5-228c-3-238-8-260-64-285-44-20-25-28 70-28 98 0 123 9 81 28-51 23-52 34-58 386-4 181-10 333-14 337-15 15 2 35-428-508-49-62-93-113-97-113-5 0-8 123-6 274 3 272 3 275 26 299 13 14 35 28 48 31 14 4 22 11 19 16-8 13-862 14-869 1zm1450 0c-3-5 8-14 25-21 63-26 64-34 64-351 0-312-2-327-56-350-16-6-29-15-29-20s124-9 275-9h275l4 22c13 61 16 137 7 142-6 4-19-11-30-32-23-46-71-89-109-99-15-4-67-7-117-8h-90l-3 153c-3 172-4 169 74 157 51-7 108-51 118-90 4-14 11-25 16-25 13 0 13 277 0 285-5 3-12-7-16-22-19-78-65-113-148-113h-46l1 133c0 158 10 194 62 222 20 12 34 25 30 28-10 10-301 8-307-2z"/></svg>
