<svg xmlns="http://www.w3.org/2000/svg" xml:space="preserve" width="408.5" height="408.5" viewBox="0 0 108.1 108.1"><path d="M39.9 24H148v108.1H39.9z" style="fill:#fff;fill-opacity:1;stroke-width:.264583" transform="translate(-40 -24)"/><path d="M68.5 128c1.5 0 2.1-.6 2.4-2-1.4.1-1.9.8-2.4 2m-1.8-1.8.2 3c1-1 .8-1.8.3-3h-.5m6 0v3h.6v-3h-.5m-11.2.8c-.2 1.3-.2 2 1.1 2.7l-.5-2.7h-.6m2.2 0v2.4c1.2-.7 1.4-1.9 0-2.4m10 2.4c1.5 0 2.3-.4 2.7-1.9-1.4.2-2.1.7-2.7 1.9m-6.6 1 2.7-.7c-1-1.7-2.2-.7-2.7.7m3.4-2c-.3 1.6.9 2.2 1.9 3.4l-.8 1.3.8-1.3c1.4.3 2-.3 3-1.4h-3c-.1-1.2-.7-1.6-1.9-2m5 2.6c1.6-.1 2.2-.7 2.7-2.1-1.3.3-2 .8-2.6 2m-15.1-1.8c0 1.4.3 2.2 1.6 2.7.2-1.4-.3-2.2-1.6-2.7m5.8 2.1c0-.2 0-.5-.2-.8-.7-1.6-2-.3-1 .4.3.3.8.3 1.2.4m.1-1.9v.2-.2m-3.3.4c-.3 1.3 0 1.9 1.4 2l-.8-2h-.6m14.3 1.3v.2c1.4.3 2.2 0 2.7-1.3l-2.7 1m-18 1.7-3.1 3.4 2.9.5c-.2-1-.4-1.4-1.4-1.8v-.3l3-.5-.8-1.3.8.2c-.3-.7-.5-1.4-1.2-1.9-.5-.3-1.8-.2-1.4.8.2.4.8.6 1.2.9m8.8-2.2c.6 1.3 1.5 1.6 2.9 1.6-.4-1.6-1.5-1.5-3-1.6m-.5.3.3.3-.3-.3M57 131c-.8 1.3-.7 2.1 0 3.4 1.2-1.1 1.1-2.3 0-3.4m10.3 0-1.6 1-.2 1.9H65c-.4-1.2-1.2-1.6-2.4-1.9l.3 1.9c-2.2.2-3.4 1.9-3 4l-2.3-.3c.5 1.4 1.6 1.3 2.9 1l-.5-.7 1.3.2-.8-2.6 3.2-.8-.6-.3v-.2l2.2.5 1.8 2.6h.3l-.6-2.4h-.2l-.3.8H66l.3-3.4h.3v1.3L69 132h-2.2l.3-1m6.6 2.6c1.6-.2 2.9 0 3.7-1.6-1.6 0-3-.2-3.7 1.6m-9-1.6.3.3-.3-.3m2.1 0-.2.3.2-.3m13 1.9 2.7-1c-1.3-1-2.9-.9-2.7 1m-2.1-1.6c-.2 1.4.5 2.1 1.6 3 0-1.5-.5-2.2-1.6-3m-8.2.3.5 1.8c.8-.9.7-1.6-.5-1.8m-18.3.5c1.2 1.5 2.2 1.5 4 1.3-.6-1.9-2.4-1.5-4-1.3m16.4 3.2c1.4-.6 1.8-1.5 1.6-3-1.4.7-1.7 1.5-1.6 3m2.2-1.4c.9.6 3.3 1.3 3.8-.2.4-1.4-1.6-1.2-2.3-.9L70 135m-14-1 .2 1h.3l-.6-1m7.4 0-.2.3.2-.3m11.1 1.8 3.5-.8v-.5c-1.6-.3-2.7-.3-3.5 1.3m5.6-.5c1.5.4 2.6.7 3.7-.5-1.5-.4-2.5-.7-3.7.5m5.3-1-.5 2.9c1-1 1.2-1.8.5-3M53.7 138l1-.3c.9.8 1.8.2 2.7-.3l-1.8-.5.2-2.1c-1.7.5-2 1.4-2 3.2m31.4-.6v.3c1.9-.1 2.6-1.1 3-3l-3 2.7m-34.7-.5c1.7.4 2.6-.2 3-1.9a4 4 0 0 0-3 1.9m11.7 1c1.2-.4 1.5-1.2 1.8-2.3l-.2-.3c-1.3.6-1.6 1.3-1.6 2.7m13.5 2-.3-1h-.3c.2 1.2.4 2-.5 3l1.7 3.6-.6 1.9 5-3.2v-.3c-1.5-.3-2.3.3-3.4 1.4l1-4.8c-1.6.7-1.4 1.8-1.3 3.4-2.2-2.3.7-4.8 3.2-5v-.3l-2.1.3v-1.8h.2v.8l1.9-2.2c-2.7.2-2.7 2.8-4.5 4.3m5-4.3-.5 1.1 2 .5-1.5-1.6m-7.1.3v.3c1.4 1 2.8 2.1 3.7 0l-3.7-.3m8.7 0 1.8 2.4c.1-1.5-.3-2.2-1.8-2.4M67.7 138l-1-.6.8 1 2.6-.2-.8 1.9 3.5-1-2.2-.9 1.1-1.6c-1.8 0-3-.4-4 1.4m-3.7-1c.7 1 1.3 1 2.4.8-.6-1.1-1.2-1.3-2.4-.8m8-.3 2.6 1.8c-.2-1.7-1-2-2.6-1.8m-16.4 0-.8.8.8-.8m-6.4 1 .5 1.4-3.4.5c1.7 1.8 5.6.3 6.9-1.6l-4-.2m31.2 1.3 2.4-1c-1.2-.4-1.9-.3-2.4 1m4.3-1.6.2.3-.2-.3m2.9 1.3c1.7.3 2.7.6 4-.8-1.7-.4-2.8-.7-4 .8m-1.3.5-.6 1.1c1.5.5 2.2 0 1.6-1.6l-1 .5 1-1.5c-.7 0-1.9 0-2.5.5-1.1 1 1 1.1 1.5 1m-22-1.3c-.4.1-.8.2-1.2.5-1.2 1.3 1 3 1.1.8V138m-5.7 2.4-.3-.8c-1.3-1.9-2.6 0-.8.8h1m7.7-2.1-1 2.4c1.2-.4 1.6-1.3 1-2.4m-13.7 2.1 2.9-.5c-.7-2-2.2-.8-3 .5m31-1.9-1 2.4c1.1-.5 1.8-1.2 1-2.4m-16.1.3c0 1.5.5 2.3 1.9 3 .1-1.6-.4-2.5-1.9-3m-17.2.3.3.5-.3-.5m11.4 0c-1.2.7-2 1.2-2.1 2.6 1.7 0 2.9-.8 2-2.6m11 2.9c1.2-.7 1.6-1.5 1.8-3-1.6.6-2.2 1.3-1.9 3m6.4-.8L82 140c-1.6-.4-2.8-.4-3.4 1.3m9.5 0 3.4.8c-.7-1.7-2.2-2.7-3.4-.8m-17-1c-1.1.9-1.5 1.6-1.5 3.1 1.2-.7 2-1.7 1.6-3.2m12.4 1.6c1.3.2 1.7-.3 1.9-1.6l-1.9 1.6m-28.3 1h.3l1.3-2c-1.3.2-1.5.9-1.6 2m-3.7-1.5c-.8 0-1.6-.2-2.4 0-2.3.2-.6 3 1.3 1.4.5-.3.8-.9 1-1.4m-.2 1 3.7.8c-.7-2-2.1-2.4-3.7-.7m7.2-1.4-3 2.7 2.7-.8.5 2.4h-.2l-1.6-1.4c-.4 1.7.3 2.5 1.8 3v-1.6h.3l.8 1.6c-1.2.2-2.4.1-3.4-.7-1.3-1-1.4-2.3-3.2-2.5 0 1.5 1 3 2.6 2.4 1 1.7 2.7 1.5 4.5 1.5v.3c-1.2.1-2 .5-2.6 1.6l3.4.3-.8-1.9a7 7 0 0 1 5.3 6.6 3.6 3.6 0 0 1-2.1-2.9h-.3v1.6l-2-1.9h-.3l1 2.2h-1.3v.2c2.1.8 3.4 1.8 4.5 3.7l-4.5-2.5-1.4-1.8h-2l-2.2-1.2h-.2l4.7 2.4h-3.4v.2l.5.3c-1.4.8-2.5 1.8-2.9 3.4h.3l.5-1 1.3.2v-.2h-1c2-2 3.2-2 5.8-1l-2.7.7.3-1c-1.5.4-2 1.2-2.6 2.6l3.7-.8-.3.8c.7-.4 1.5-1 2.4-1 1.6 0 2.8 1.6 3.4 2.8-2-.3-3.8-1.4-5.8-.3-1 .5-1.7 1.5-2.6 2.2l-1.9-3.4c-2 .2-2.6 1.2-2.1 3.1h.5l.5-1h.6l2 1.3v.3l-3.6-.3v.3l1.3.5-1 1.3L56 163l1.7 1.5 2 .4c-.6-1.3-1.4-2-3-2l2.7-2.5c-.9 2 0 3 1.9 3.5l-1.6-3.7 2.4.6 2.4 1.3 1.8-.3c0 5 .4 11.6-5 14.2-1.2.6-2.2.5-3.5.7l-6 1v.2l7.9-1v.2l-1.3.5v.3H63l3.1-.7 5.6.7-.3-1 3.7.7h7.2v-.2l-2.1-.3v-.3l9 1.1v-.3c-2-.2-3.9-1-5.9-1.2-3-.4-5.8-.2-8.4-2.3a6.8 6.8 0 0 1-.8-9.6c.7-.8 2-1 2.9-1.6 1.1-.8 2-2.1 3.4-2.5 1.5-.4 4 1.3 3.7 3 0 .7-1 1.5-1.5 2 1.7.3 2.3-.3 2.3-2l3.2.5 1.3-.5v-.6c-1.2 0-2.8.3-4-.3-2-1-3.1-4.1-6-2.5-.5.2-1 .6-1.3 1 1-2 2.5-1.8 4.1-3 1.3-.8 1.3-2.1 3-2.3-.2-1.7-1.2-2.9-2.4-4l.5 1.3-.2 1.4-1.7 2.2-3.6 2-4 4-.2-.3 2.9-3.7-1 .5.7-4h-.3c-.3 2.2-1.6 5.2-4 5.6l.6 3.7h-.3c-.2-1.5-1-3-1-4.5a9 9 0 0 1 8.4-8.5c-.6-2.5-4-2.8-6-2v.2l4.2 1.3v.3c-.9 0-1.8-.3-2.7-.2-.6 0-1.4.5-2 .2-.6-.4-.6-1.3-.2-1.8.7-.9 2-1 3-1.4v-.3c-1.2.2-3.3-1.1-4.3-.4-1.2.7-.5 2.6-.4 3.6.2 1.3-.3 2.2-1.3 3l.5-5.9c-1.5 0-.4-2.3-.5-3.2-.1-.6-.5-1-.8-1.6h-.3l.5 6.4h-.2c-.7-1.2-1.7-1.3-3-1.6 1 2 3.7 2.2 2.7 4.5-1.4-2.5-4.4-4-3-7.1l-.7.5h-.3l-2.9-1.6v.3h.5v.2l-2 .3c.9 1 1.8 1 3.1 1l-1-1.3c1.4.7 2.1 1.6 2 3.2-2.3-.7-5-1.6-5.8-4.2-.3-1 0-1.8-.2-2.7m6.3.8c1 .7 1.9.5 3 0-1-.9-1.9-.6-3 0m9.5-.5.3.3-.3-.3m4.8 2.1 1.9-.8-.3 1c1.6 0 2.8.3 4-1-1.5-.4-2.3-.7-3.7 0l.5-1.3c-1.5.2-2.2.6-2.4 2.1m-17.5-1.8c.1 1.5.6 2.3 2.2 2.6-.2-1.4-.9-2-2.2-2.6m-2 .5c0 .6.4 2.8 1.6 2 1.1-.8-1.1-1.9-1.7-2m26.2 1.3 3.5-.5c-1.3-1-2.7-1-3.5.5m-39.7-1c-.2 1.5.4 2.2 1.9 2.3l-1.9-2.3m18.6 0v2.6h.5v-2.6h-.5m6.3 1.5c1.6.2 2.6.3 3.7-1-1.5-.2-2.8-.5-3.7 1m-4.5-1c.1 1.4.7 2.1 1.9 2.9.3-1.6-.3-2.5-1.9-3m23.8.6 3 3c.8-.8 1.2-1.3 1-2.5l-1.3.8c-.2-1.7-1.2-1.9-2.7-1.3m-40 2.1 2-2.4c-1.7.1-2.3.8-2 2.4m35.3-1.8c0 2.5 4.7 4.3 2 7l-1.2 1 1.3 2.3h-1.9c.2 1 .7 1.3 1.6 1.6v-.3l-.8-.8 3.2.3c-.6-1.5-1.2-2.3-3-2.4l3.3-2.7 2.9-2.3h-.3l-4 2.1c.6-2.1-1-5.3-3.1-5.8m3.7 3.2.5-3.2c-1.3.7-1.6 2-.5 3.2m-15.1.5c1.4-.7 1.6-1.7 1.6-3.2-1.4.7-1.7 1.7-1.6 3.2m8.2-3 3.2 1.7c-.9-1.5-1.6-2-3.2-1.6m-36.3 1c1.2 1.3 2.4 1 4 1-1-1.8-2.2-1.6-4-1m26.8-.8c-1.4.4-2.4.4-2.7 1.9 1.2-.3 2.7-.4 2.7-1.9m6.3.6v.2c1.5.7 2.4 1.3 4 .6-1.3-1.2-2.4-1.5-4-.8m-26 2-.7-2.3c-1.6 1-.6 2 .8 2.4m38.3-1.9c-1.3.7-1.8 1.4-1.5 3 1.2-.6 2-1.6 1.5-3m-41.2.3.2 1.8c-2.6-.8-5.2 1.6-5.3 4.3l-2.3 1c1.5.7 2.5.3 4-.5l-1.1-.5 2.4-3.2-.6 1.9 3.5-1.9v-.3l-3 .3c1-1.3 2.9-.8 4.3-.8v-.3c-1-.3-1.4-.8-1.6-1.8h-.5m16.4.5c.5 1.1 1.2 1.3 2.4 1.6-.5-1.3-1-1.9-2.4-1.6m27 1 2.6-.2c-.8-1.2-2-.9-2.6.3m-11.1.2h2.9c-.8-1.6-2-1.2-3 0m10.1-1 .3.3-.3-.3m-49.5 1c1.2 1.3 2.4 1 4 .6v-.6c-1.5-.8-2.5-.8-4 0m9.3.6v.2c1.6.8 2.6.2 4-.8-1.5-1-2.6-.4-4 .6m23.8 0c1.7.5 2.8.4 4-1-1.7-.2-3-.6-4 1M86 150c1.3-.5 1.5-1.3 1.6-2.6-1.4.5-1.9 1.2-1.6 2.6m-6.4-.8 2.7-.8c-1.2-.9-2.3-.7-2.7.8M55 151.1h.8c.3 1.4 1.1 1.6 2.4 1.3l-2.1-1.6 1-2.9c-1.7.6-2 1.5-2 3.2m34.6.2c1.4-.2 2.6-.2 3.4-1.5 1.2.4 1.9-.4 2.4-1.4-1.5-.3-1.7.6-3 1.1-1.3.6-2.3.2-2.8 1.8m-27.8-2.6c-.2.4-.4.7-.4 1-.3 2.6 2.6 2 1.2-.1-.2-.4-.5-.6-.8-.9m21.2 0c.5 1.4 1.4 1.1 2.1 0h-2.1m-40.5 3c1.4-.4 2-1.3 2.6-2.5-1.7 0-2.5.6-2.6 2.4m8-2.1c.5 1.6 1.8 1.3 3.1.5l-3.2-.5m29.1.8 6.1.5c-.7-.2-1.4-.2-2-.5-1.8-.6-2.5-1.2-4 0m-2.5-.6-.1.2v-.2M54 150l-1.1 2.9-1.8 1.6c2-.3 4-2.3 2.9-4.5m4.2 0c0 1.5.7 2.2 2.1 2.7 0-1.6-.4-2.4-2-2.7M47 151.3v.6c1.5.6 2.5.2 4-.3-1.3-1-2.6-.8-4-.3m13.5-.5.3.3-.3-.3m19.3 0c.7 1.3 1.2 2.3 2.7 3-.1-1.9-.8-2.8-2.7-3m14 1.3c1.2.3 2 0 3-.8-1.3-.5-2.2-.4-3 .8m-10.3-.8c.7 1.5 1.6 2 3.2 1.9-.9-1.3-1.6-1.8-3.2-1.9m8.7 5.3-1.8-2.9c1.3-.3 1.8-1 2.4-2l-1.6.1c-2.7 1.2-.7 4 1 4.8m-42.8-4c1.3.8 2.7 1.2 2.9-.7l-3 .8m17.3-.6c1.2 2 3.2 4.7 2.6 7.2-2-1.2-3-5-2.6-7.2m9.8 3.5 2.9-3c-2.2-.1-2.8 1-3 3m16-1.9h2.9c-1-1.2-2-1.4-3 0m-46-.8.8 1.9h-1v.3h1.5l-1.8 2.9c1.6-.3 2.9-2 2.4-3.7l1.3-1.1-3.2-.3m-3.4 3h1.8v.2l-1 2.1c1.5-.3 2-1.2 2.3-2.6l-1.3.2L46 154c-1.5-.2-2.4.5-3.1 1.8m6.3-1.8c1 1.1 1.7 1.5 3.2 1.3v1l2.9-1.2c-.8-1-2-.9-2.6.2l-3.5-1.3m31 2.6c1-.6 1.3-1.4 1-2.6-1.3.5-1.4 1.4-1 2.6m-6.1-2.3c-.4 1.3-.2 2 1 2.6l-.5-2.6h-.5m18.5 1.5 3.7-.2c-1.3-1-2.6-1-3.7.2m-43.7-1c-.3 1.2-.1 2 .8 2.9.6-1.3.3-2-.8-3m27.6 2.2c1.2-.2 2-.4 2.6-1.6-1.3 0-2.1.3-2.6 1.6m11.3-.8c.7 1.3 1.6 1.6 3 1.6-.5-1.5-1.5-1.6-3-1.6m-3.1.3c.6 1.3 1.2 2.2 2.6 2.6l-1.8 3.2c.6-.1 1.4-.2 1.9-.7.5-.6.4-1.5.3-2.2-.4-1.8-1.2-2.7-3-3m9.8.6 3.1 1.6c-.7-1.5-1.5-1.8-3.1-1.6m-3.2.5v.3l3.4.8c-.8-1.5-1.9-1.6-3.4-1m-3.7-.3.8.8-.8-.8m-37.6 2 3.4-.7v-.5c-1.6-.6-2.6-.3-3.4 1.3m32.6-.8v.3l2.9 1.3.2-.3c-.7-1.5-1.6-1.7-3.1-1.3m6.6 0c.7 1.4 1.9 1.6 3.4 1.3-.8-1.4-1.9-1.6-3.4-1.3m-33.9.5c.9 1.4 2.2 1.4 2.6-.2l-2.6.2m-1.4.2-.1.2v-.2m34.3-.2 1 3.2c.7-1.5.6-2.6-1-3.2m-38.9.3c0 1.5.4 2 1.9 2.4a3.3 3.3 0 0 0-1.9-2.4m-3.2.5c1 1.5 2.4 2.2 4 2.7v-.3l-1.3-.3c-.2-1.7-1-2.4-2.7-2m36.3 1.2-1.6 3c1.8-.2 2.9-1.3 1.6-3m8 1.4c1.3.1 2.2.1 2.6-1.4-1.3 0-2 .2-2.7 1.4M68 161.4c.6 3 .6 5.7.1 8.7-.2 1.8-.5 3.4-2.2 4.3l2-5.6.1-7.4m-23.3 2.4 3.2-1.3c-1.5-1.3-2.5-.1-3.2 1.3m4.8-.8c.8 1.6 2.5 1.5 3.4 0h-3.4m-2.4 2.6c1.4-.5 1.8-1.4 1.8-2.9-1.5.4-2.1 1.4-1.8 3m42.6-2.2c1 1.1 2 1.1 3.4.8-.8-1.4-2-1.2-3.4-.8m-33.9-.2-.2 1c-2-.9-1.8 1.5-1.4 2.7l1.1-1.6 2.6 1.3-1.5-3.4h-.6m30.2.5-1.6 3.4c1.5-.4 2.3-1 2.4-2.6h.2l.6 2.6h.5c.5-1.2.3-3.5-1.6-2.6l-.5-.8m2.4.2c.6 1.4 1.1 2.2 2.6 2.4-.4-1.4-1.1-2.2-2.6-2.4m-7 3.2c1.4-.5 1-1.4.9-2.6-1.3.5-1.3 1.4-.8 2.6m-32.8-.8c1.5.4 2.5-.2 3.2-1.6-1.5 0-2.5.3-3.2 1.6M61.4 194l-1.6 3.5c4.4 2.3 14.2 3.4 14.3-3.7 0-.8 0-1.6-.3-2.4-1.5-3.7-6.2-2.2-8.6-4.4-1-1 0-1.9 1-2.1 1.8-.4 3.8.4 5.5 1l1.6-3.8c-3-.8-6.2-1.6-9.3-.7-3.2.9-5.1 4.5-3.3 7.6 1 1.8 3.3 2.5 5.2 2.9 1 .2 2.5.4 3.3 1.2 1 1.2-.4 2-1.5 2.2-2.2.3-4.3-.5-6.3-1.3m-16.2-12.7v17.5h13.5V195h-9.2v-3.2h7.4v-3.4c-2 0-5.1.6-6.8-.2-1-.5-1.1-2.3-.2-3 .6-.4 1.7-.2 2.5-.2h6l-.2-3.3-3.4-.5h-9.6m30.5 0v17.5h4.2v-9.5c2.5 2 4.5 4.5 6.8 6.7 1.9 1.7 2.7 2.8 5.4 2.8l-.3-6.6v-10.9h-4.2v9.6l-6.1-6.1c-1.9-1.9-3-3.4-5.8-3.5m34.6.2c-3 .7-2 5.4 1 4.7 3-.7 2-5.4-1-4.7m16 0c-3.2.8-1.8 5.6 1.2 4.7 3-1 1.7-5.4-1.3-4.7m-31.2.1v4.5h3.4v-.3h-2.9V184h2.1v-.3h-2v-1.8h2.6l-3.2-.3m4.2 0c0 1.1-.2 2.6.2 3.7.5 1.1 2.2 1.4 3 .4.8-.9.8-3.3 0-4 .2 1 .4 2 0 3s-1.5 1.3-2.2.5c-1-1-.6-2.4-1-3.6m4.8 0 .2 4.5h.3c.5-2.3 2-.7 3.2 0l-1-1.6c1-.7 1.3-2.1-.1-2.7-.8-.3-1.8-.2-2.6-.2m10.3 0v4.5h.5v-1.3c.7 0 1.5 0 2-.4 1-.5 1.2-1.9.3-2.5-.7-.5-2-.3-2.8-.3m4.2 0 .3 4.5h3.2v-.3h-3V184h2.4v-.3h-2.3v-1.8h2.6l-3.2-.3m11.7 0v4.5h.5v-1.8h2.4v-.3h-2.4v-2.1h2.7l-3.2-.3m-25.7 2.7v-2.4c.7 0 1.4 0 2 .3.7.5.6 1.5-.2 1.9-.5.2-1.2.2-1.8.2m5.8-2.3c2.5-.6 3.6 3.1 1 3.7-2.3.6-3.4-3-1-3.7m4.5 2.3v-2.4c.7 0 1.5 0 2 .3.7.5.6 1.5-.2 1.9-.5.2-1.2.2-1.8.2m11.4-2.3c2.4-.6 3.7 3 1.3 3.7-2.5.7-3.7-3-1.3-3.7M95 192c.8.7 3.4.8 3.3-.8-.1-1-3.9-2-2-2.9h1.8c-.8-.6-4-.7-3 1.1.3.7 4 2 1.7 2.7h-.7l-1.1-.2m5.6-4c-3 1.3-1 5.6 2 4.3 2.8-1.1.7-5.4-2-4.2m3.6-.3 2.2 4.8h.2l1.9-4.8h-.3l-1.8 4-2.2-4m5 0 .3 4.8h3.2v-.3h-2.9v-1.9h2.4v-.2h-2.4V188h2.6v-.5h-3.1m4.2 0v4.8h.5v-1.6l3.2 1.6c-.2-.5-.6-1-.6-1.5 0-.7.6-1.2.3-2-.4-1.4-2.2-1.3-3.4-1.3m4.5 0v4.8h3.4v-.3h-2.9v-1.9h2.4v-.2c-1.4 0-2.2-.3-2.4-1.9h2.7v-.5H118m4.5 0-.3 4.8c1-1 .7-3.6.3-4.8m3.7 2.4v.5h1.6c-.7 3.4-5.3-.2-2.4-2a2 2 0 0 1 1-.3l1.7.2c-2.5-2.2-6 1.4-3.4 3.5.8.6 2.2.8 3 .2.7-.6.7-1.7-.2-2l-1.3-.1m3-2.4v4.8h.4v-3.7h.3l3.5 3.7-.3-4.8h-.3v3.7l-3.7-3.7m-28.3.7c2.5-.8 3.9 3 1.3 3.6-2.3.6-3.7-3-1.3-3.6m13.2 2.2V188c.6 0 1.3 0 1.8.2.8.4 1 1.4.2 1.9-.5.4-1.3.3-2 .3M98.7 194v3.8l-3.7-3.5.3 4.5h.2V195l3.7 3.7-.5-4.8m3.2 0-1.9 4.8h.3c1.1-1.6 2.5-1.6 3.7 0h.2L102 194m2.3 0v.6h1.6v4.2h.6l-.3-4.2h1.9v-.6h-3.8m4.5 0v4.8h.6V194h-.6m3 .3c-2.8 1.1-.8 5.5 2 4.3 2.9-1.2.8-5.5-2-4.3m4.5-.3v4.8h.5v-3.4l3.4 3.4V194h-.2v3.8l-3.7-3.8m5 4.3v.2c.9.2 4.3.5 3.1-1.4-.3-.6-3.8-1.7-1.7-2.5l.7-.1h1c-.8-.5-3.5-.7-2.9 1 .2.8 4 2.2 1.6 2.9h-.7l-1.1-.1m-8.7-3.8c2.5-.4 3 3.6.5 3.9-2.5.3-3-3.6-.5-4m-10.4.4.8 2.4h-1.8z" style="fill:#2c618b;stroke:none" transform="translate(-33.5 -107.8)"/></svg>