<svg viewBox="-12 -12 158 100" xmlns="http://www.w3.org/2000/svg"><g fill="none" fill-rule="nonzero"><path d="M98 39.8a19.4 19.4 0 00-6.3-6.5l-1.5-.9v-4.3l.1-4.4 2 .7c3.4 1.4 6.9 3.8 9.5 6.6l1.6 1.7 1-2c2.5-4.4 7.2-9.5 11.5-12.4 2.6-1.7 6.4-3.5 9.3-4.5 2.5-.8 7.4-1.7 9-1.7h1.2v4c0 3 0 4-.3 4l-2.6.4a28.3 28.3 0 00-22.7 18.7l-.8 2.4h-5l-5 .1-1-1.9z" fill="#349D88"/><path d="M101.7 26.2a31 31 0 00-10-5.8l-1.5-.5v-8.4l1 .2c1.7.3 4.8 1.4 7.5 2.7l2.6 1.2L104 13A48.1 48.1 0 01134.4.2h1v8.2h-1l-3.6.4A39.8 39.8 0 00103 26.9c0 .5-.3.3-1.4-.7z" fill="#E32627"/><path fill="#59687B" d="M9.2 63.8V48.3h6.6v24.9h12.7v6.1H9.2zM33.6 63.8V48.3h20.9v6.1h-7.2l-7.3.2v5.8H47l6.8.1v6l-6.8.2H40v6.4h7.5l7.5.1v6.1H33.6zM61.6 63.8V48.3H109v6.1h-9v24.9h-6.4V66.9l-.1-12.3-12.6-.1H68.2V61h13v6.1h-13v12.2h-6.6zM9 29.2V16.6H.2v-5.8h24.4v5.8h-9v25.1H9zM28.3 26.2V10.8h6.6v11.6h6.8l6.8-.1v-5.8l.2-5.7H55v30.9H48.7l-.1-6.7v-6.6l-6.9-.1h-6.8v13.4h-6.6zM61.9 26.2V10.8h20.9v6H68.5V23H82V29H68.5v6.6h15.1v6.1H61.9z"/></g></svg>
