<svg xmlns="http://www.w3.org/2000/svg" xml:space="preserve" width="408.5" height="408.5" viewBox="0 0 108.1 108.1"><path d="M39.9 24H148v108.1H39.9z" style="fill:#fff;fill-opacity:1;stroke-width:.264583" transform="translate(-40 -24)"/><path d="M86.3 63c-1.7.5-1.3 3.3.6 2.7 1.9-.6 1.4-3.4-.6-2.8m-36.8.2-2.2 13H50c0-1 .3-1.9.4-2.8.1-.4.1-1 .5-1.3.4-.5 1.5-.3 2-.3 1.2 0 2.4-.2 3.4-.8 2.2-1.4 3.2-4.9 1.1-6.8-1-1-2.3-1-3.6-1h-4.3m20.3 4-.3 2.2h1.4c0 2.3-1.6 6.1 1.7 6.9H74c.6 0 1.2-.2 1.8-.4l-.5-2h-1c-2 0-.7-3.3-.6-4.5h2.7l.3-2.2h-2.5l.4-3-2.4.2-1 2.6-1.3.2m31.6-3-.5 3-1.4.1-.7 2.1h1.6c-.3 2.3-1.7 6.1 1.6 6.9h1.3c.6 0 1.1-.2 1.7-.4l-.5-2h-1c-.7 0-1-.5-1-1.2 0-1 .4-2.2.4-3.3h2.7l.4-2.2h-2.6l.5-3h-2.5M51 69.3l.5-2.5c0-.4 0-.9.3-1.2.3-.3.7-.3 1-.3 1 0 2.2 0 2.7.9.2.3.2.7.2 1-.2 2.5-3 2.1-4.7 2.1m13.8 6-.2.8H67l1.6-9h-2.4l-.2 1c-.6-.6-1.3-1-2.2-1.1-3.2-.5-5.2 2.8-5 5.6.1 2.2 1.6 4 4 3.6.7-.1 1.3-.5 2-.9m15.8-7.1v-1.1h-2.3l-1.6 9h2.7l.5-3.5.5-1.9 2.3-1.4.6-2.4c-1 .2-1.8.6-2.7 1.3M93 67a5.4 5.4 0 0 0-4.2 3c-1.4 3.2 1 6.7 4.6 6.2a5.2 5.2 0 0 0 4.2-3.2c1.1-3.1-1.1-6.5-4.6-6m14 6.4-1.1 1.6v.2c2.1 1.7 7.5 1.6 7.4-2 0-1.3-.8-2-1.9-2.3-.4-.2-1.2-.4-1.5-.9-.3-.4.2-.8.6-1 .9-.2 1.7.3 2.5.6l1-1.6c-1-.6-2.1-1-3.3-1-2 .1-4.2 1.4-3.7 3.7.3 1.9 2.4 1.3 3.3 2.4.4.6-.2 1-.7 1.2-1 .2-1.9-.3-2.7-.8m-23.6 2.7 2.4-.2.6-2.3 1.1-6.5-2.4.2-.6 2.3-1.1 6.5m-19.4-6.8c2.8 0 1.5 4.9-1 4.7-1 0-1.4-1-1.4-2 0-1.4.9-2.8 2.4-2.7m29.5 0c2.9.1 1.9 5-.8 4.7-2.8-.2-1.8-4.8.8-4.7m-36.8 14-.3 2.2h1.6l-1.3 6.9h2.7l1.1-6.9 2-.1.4-2H61c.2-1.6 1-2.4 2.5-2l1.2-1.9c-1.8-.9-4-.9-5.3.8-.6.8-.6 2.4-1.3 2.8-.4.3-1 .2-1.4.2m29.7-4-.7 4.3-1.5 8.8h6.2l2.2-.2.6-2.2-5.9-.2.5-2.8h3.5l1.4-.3.5-2.1h-5l.7-2.6 1.6-.3h4l.5-2.3h-8.6m-18.6 3.8a5.4 5.4 0 0 0-4.2 3.1c-1.4 3.3 1 6.6 4.5 6.2a5.2 5.2 0 0 0 4.3-3.3c1-3.1-1.1-6.5-4.6-6m9.7 1v-.9l-2.2.2-.6 2.2-1.2 6.7 2.5-.2.4-1.4.8-3.7 2.4-1.5.6-2.4-2.7 1m31.4.2v-1h-2.4l-1.4 9h2.5l.7-3.7c0-.6.1-1.3.5-1.8.6-.8 1.6-1 2.5-1.2l.5-2.5c-1.2 0-2 .5-2.9 1.2m7.5-1.2c-2 .3-3.7 1.6-4.4 3.5a4.3 4.3 0 0 0 4.8 5.8 5.3 5.3 0 0 0 4.4-4c.7-3-1.7-5.7-4.8-5.3m9.6 1v-.9h-2.3L122 92l-.8 4.6h2.6l.8-5a3 3 0 0 0 2.2 1c3 .3 5.2-2.6 5-5.5-.1-2.2-1.7-4.2-4-3.7a6 6 0 0 0-2 .8m15.3 7c-.4-.5-1-1.3-1.6-1.3-.5 0-1 .3-1.4.5-1.3.3-2.4-.4-2.6-1.7h6c.2-1.3.4-2.7-.4-3.8-1.8-2.7-5.7-1.7-7.3.6-1.7 2.5-.9 6.4 2.4 7 1.8.4 3.4-.3 4.9-1.3m-40.8.3v1h2.4l1.6-9h-2.7l-.6 3.4c-.1.7-.2 1.6-.6 2.2-.4.7-1.5 1.4-2.3.7-.6-.5-.5-1.2-.3-2l.8-4.4c-.7 0-2-.2-2.5.2-.6.5-.6 2.1-.7 2.8-.3 1.4-.7 3-.3 4.3.8 2.5 3.6 2.2 5.2.8m-23-7.1-.2.1.2-.1m61.9 2.7h-3.4c.2-1.3 2-2.7 3-1.3.4.4.4.8.4 1.3m-71.1-1.5c2.9.2 1.9 5-.8 4.8-2.8-.3-1.8-5 .8-4.8m48.5 0c2.9 0 2 4.8-.6 4.8-2.8-.1-2-4.8.6-4.8m11 0c1 0 1.5 1 1.6 2 0 1.3-.9 2.8-2.4 2.8-2.9-.1-1.7-4.9.8-4.8z" style="fill:#321f5c;stroke:none;stroke-width:.599531" transform="translate(-40 -24)"/></svg>